/* XPM */
static char *result[] = {
/* columns rows colors chars-per-pixel */
"128 128 49 1 ",
"  c #A76E7B",
". c #AB6B7D",
"X c #A6737C",
"o c #A77A7D",
"O c #A87E7F",
"+ c #A8807F",
"@ c #AF6A80",
"# c #B36A83",
"$ c #B86A87",
"% c #BC6B8A",
"& c #AB7C80",
"* c #C26B8E",
"= c #C66C91",
"- c #CB6E95",
"; c #CF6F98",
": c #D16F99",
"> c #CF7298",
", c #D5709C",
"< c #D8719F",
"1 c #DC72A2",
"2 c #E274A6",
"3 c #E676A9",
"4 c #EA77AD",
"5 c #ED78AF",
"6 c #EF78B0",
"7 c #EF7FB8",
"8 c #F47AB4",
"9 c #F87BB7",
"0 c #F57EB9",
"q c #FD7EBB",
"w c #A98381",
"e c #AC8B83",
"r c #AF9185",
"t c #B29486",
"y c #B89987",
"u c #BD9D88",
"i c #C1A189",
"p c #EF80BA",
"a c #FF8EB7",
"s c #F483BD",
"d c #FF80BF",
"f c #FD8DBB",
"g c #FF93B6",
"h c #FF91BC",
"j c #FF82C3",
"k c #FF8DC5",
"l c #FF87C8",
"z c #FF8AC9",
"x c #FF90C0",
/* pixels */
"++oX  ..@@@@....  Xo @%=16qllzlllljj966167<389jjjq962:*@ oX.@@@@#@@@ oX.#=,28qjjjjq64,*.@$=,8qqjjjqd621*$@ X+X ..6432,;=*$@. @@.",
"ooX   .@@@.#....  X+ .$=16qjllzjjljj942,2ds389jjjqd92:=# oX @@@@#@#@ oX.#*:48qjjjjq62:*.@$=18qjjjjq962:=$. o+  ..@86421;-%#@  @.",
"    ...#####@.@.. XoX #*:29jlzzxjjjj822,,9ls68jjjjd93,*# eX @#@@#@#@ o+.#=,49jjjjq962-*..$:28qjjqjj961:*#. +o ..@##98421:*%#.  @",
"  ..@.##@##$##...  o+ .$=16jjllkzjdq42,=:6jls8jjjjd93,*#.ww @#@@$@#@ e+.$=149qjjjj622-$@@*:28qjjjjq94,=%@ X+X ..##$$99621:=%@.  ",
"..@@######$$$###.. X+o #%,69jlzzzzdq81:==29lzfjjjjj941=#.+e @#@@@##.Xeo.$=169jjjjj92:=$##*:49qqqqjq82,=$. +o ..#$$$*$9d821:=$@@.",
"###$$$$$$$#$$$###.  o+ @$=29qllzzzl96<:**,6jlxfjjj9942=$.orX.#@@@#@ orX@$=16qjjjjj92:*#.$=:6qqqjjq962:%# X+  .##*$$$**99961:*$$@",
"$$$$*%%%$$$$$$$##@. X+o #=16qjlzzzzl6,=***29lzhfjjjq41=$.+ro @#@@#@ or @%:16qjjjjq92:*@@$=,68jjqjq961=$@ oo ..#$$*$****9d961:*$@",
"%%*%====*%$$$$$$$@. X+w @%:29jllzzzlj,=%#$,6jlxhfqqq41:$. io .@@@@. oe @%:16qqqjjd92:$..$=169jqjjq94:=$. wX @#$$*******$qd921-*%",
"=*====-=*%%$$$$$$#@. oeo.$=16qjlzzzllj=%@#:4jlzkgaq98:=*@ i+ ..@@.. +e @*:<6qqjjj962=$.@$:269qjjjq92:*# o+ .@#$$$******$*j982<-*",
"=-::-:===*$%$$$$$$#. oe+ @*14qjllzzllj9$@@=2qllkkgaq8,*$@ to .@@.@. +w @%:,8qjjjq961=$.#$:269qjjj962:%@ +o .#$$$*$**%%$*$*d982,,",
"::::,::=*$$#$$$$$$#@. we @%:29jllllllj94..%,9jlzzhhf8,*$@ e+ ..@@.. +o @$=16qjjjq961=#.#*:26qqjjj661:%. wX @#$**$$$####$$$*dd621",
"<,,,,::=*$$$$#$$$$#@. +io.#=16jjlllljj94,.$:6qjzzxkxs<*$. ++  .@@. Xwo @$:26qqjjq962*#.#*:29qqjjq94,=%. w .@$$****#@$$$$$$**9962",
"$111,,:=%$$##$$$$#$#. or+ @=16qjlllljj94,=#:48jlzkkkks=$.Xoe  .@@. Xwo @%:46qjjjq62,=#.#*:49qqjjq62:*# X+ .#$$**$$#@@@@#$$$**q94",
"%%32,,:*$$#@@@$$$$##. Xe+ @*:49jlllljj92,=1*,4qjlzkzzzp$.Xee  .@@. Xew @%=49qjjj962:*#.#=:48qjjj962:*@ oo @#$**$$#@@...@#$$**$qq",
"*%%2,,:*$@@.@@$$$%$#@.Xww .$:26qjljljd82,*16-49jlzzzzll6@Xee  .@@. Xew @%:29qjjj962:*@.#=:49qqjj962:*@ oX @#$***$#@.   .@$$****q",
"*=*%2<:*$@...@#***$#@. ww .$=16qjjlljd82,*:6j28dlllllljq2Xe+  ..@. Xew @%,299qjj962:*@.$=169qjjqq62:*@ +X @#$***#@. XX  @#$$*$*%",
"%-=%$<-%@.  .@#$***$@  +w @$=14qjjjjq961-*:4qj6djlllljj96,eeX..... Xe+ @%,269jjj962:*@.$:149qqjq961:*. wX.@#***$#. XooX .#$***$%",
"-*==$#=%@.  .@#$***$#. we .%=,49qjjjq941-$=29jljjjjjjjd621=eX .... Xe+ @%,26qjjj962-*@.$=169jqqq962:%.XwX.@$$*$$#. ow+o .@$****%",
":=**#@.$@.@. .#$****$. +rX.#=128qjjjd94,-$=19jlzqjjjjq961:**X .... Xe+ @%:269jqj962:*@.$=169qjqq961=%.Xw .#$***$#. woX+X @$*$**%",
"<:=*$@  @@#@ .$**==*$@ +rX.#:148qqqjd94,=$=18jllzqjdq961:=%=: .... Xe+ @%:269qjq962,*@.$=169qjqq941:$.Xw .@$$**$@. +  oo .$$***%",
"2,:=*# Xw@%@.@$**==*$@ oeX.#=<488qqq992,*#*16jlzzzqdq621:*$%,,.... Xe+ @%:269qjj961,*@.$=169jjjj941=$.Xw .@$$**$#.X+  oo .#****%",
"62<-=$. eO$@.@%*==-=*#.XeX.#=<48qqq9962:*#*14jllzzz9841:=%@$:22... Xe+ @%:269jjj962,*@.$=169qqqj962=$.Xe .@#$*$$#. +X +X @$$**$%",
"942<:*@ +rO@@$%-,-==*#.Xw .#=<48qjqd942:*#*:4qjlzzzl62,:%$.@*122@. Xe+ @%:269qjqq62=*@.$=169qqjq942=%.XeX.@#***$#. o+ow .#$$$***",
"d842,*$. erw#*==:,:=*$.Xo @#=<4qqqq962,:%@%:4qjlzzzzj1:=#@ .*:162. Xe+ @%:26dqjj962:*@.$=149qjjq942=%. eX @$**$$#. X++o .#$$*$**",
"%q982:*#  ++ ==:,,,:*$. o @%:<49jqq962,=%@%:4qjllzzllj:%#. .$=,262 Xe+ @%,169qjjq62:$@.$=149qjjq942:%. wX @$%$$$#..  X  @@$*$*%%",
"%%jq4<-*@.   .::,1,=*$.X .#*:<48qqqd61:*$.$:29jllzzllj9%@ X #*,126< e+ @$:269jjj962:*@.$=,29qjqq961:%@ +o @#%%$$$#@.   ..$*$$%%*",
"$$%q84<-$@.. .#112,:*$.  .$=:288qjqq62:*@.$:29jllllllj94. o @$=:122:e+ @$:289qjj962:*@.#=:29qjjqq62:%@ +o .#$%*$$##.....@$$**%%*",
"$$$*q82,-$##@@#$221:*$.  @$=<2689qjq62:*@.#=26jjlllljj92,X+X.$*-,,1,*+ @%:289djq962,*#.#=:26qqjjq62:*@ o+ .#$%%**$##@..#$$%*%$$$",
"$#$%*q82,-*$$$##$21:=$. .@*-148qqqq962=%..#=16qjllljjq62:%eX.#$*-:::== @$;169djd982,*#.#*:26qqjqq82,*#.ow .@#$%*%$$#####$**%*$$#",
"#$$$%*q92,-=*%$#$%1,=$. @$=,18qqqq9861:%..#=16qjljjjj94,=%.o .$**-==*=:@%;26qdjq964,=#.#*:29qqjqq84,=$. eX @#$$$%%$$$$$$$%*%$#$#",
"$##$*%*q84<,-=*%$#$,*#..#%-149jqjqq822=%..#=16qjjlljd94,*$.# .#$***=$%,2$=149jdd9841=$.@*:29qqqjq841:%. wo .@$$*%%%%%$$%$%%**$##",
"@@#$$%%*q842<:-*%#$@*$.@$*,26qqjjjq82,=%..#=<4qqjjjjd62:*#.#*.#$$$*$##:46=<49jddd942=$.@%:269qjqjq62:%@ o+  @@$*$*%%%%%%%%$$$#@@",
".@#@$$%%*q8421::%$$@ @.#%-149qjjjjq92:=$.@%=<49qjjjd941:%@.#*-.#$$$$@@*2qp<49dddd962=%.@%=169qjqqq62:%@ XwX .@$*$$**%%%%%$$$$#@.",
"..@@$$$$%%j8621:=#@. +.$*:48qjjjjjq94:%@.@%:148jjjjd821=$..#*-,##$$@..%:6js49jjdd941:%@@$:,69qqjqq84,=$. ++ .@#$$$**%%*%*$$$@@..",
"  .@@$$$$$%q942:=%@. wo*:168djjljjj94:*@ @*:148qqjq962:*$. #*-,,@##@. @=4jls89jjd961:%@.$=,26qqjjq84<=$@ owX @@#$*$*%%*%*$$@@.  ",
"   .@#$$$$$$q841-%@. o .,49djlllllj94,*@ @*:288qjjd941:%@  @$--,,##@  @*19lzfqqjjq82:=@.#=:26qqjjq841:%@ Xeo .@$$#*$$$%$*$#@.   ",
"XX  .@$$$##$$q62-*@.  .@#69jjlllljj94:*@.@*,288qqq9621=$@  @$*:,,1#. X.$:6jlxfjj9q82:=$.#*:269qjjqq62:*#. +wX .@@#$$$#$$$$@.  XX",
"+oX  .@$####@@82,%@. .@#%-djllzzllj94:%@.$*,28qjq9662,*$.  @**-,,,:. X #=2qlzhajq983<=$.@$:149jjjqq82<=*@ Xwo  .@@$$$#$$$@.  Xo+",
"ewoX  @@@@@@@@.3,*@ @##%=,1lzzzzzlj94:%@@$-<48qqq9661:%@ X @$*-:,,:- oX@*<9jlzhfjq93<-$.@$=149qjjqq84<:*#. +wXX  .@##@@@@@  X++e",
"wee+X   ...@..  <=#@#%*;:269zzzzzlj94:%@@*:148qqq962:=%@ o @$*--:::-$o+.$:4jlzxhaq941:%@.#=,469jjjq862:=$@ X+eoX ..@@@..   X+eee",
"o+we+X         Xo=%*=-;124699kzzllj94:%@$-,248qqj992:=$. + @$*=----**#w #=2qjlxhgf982:*@.#*:269qqjq982<-*#. oewoX  ...    X+ewoX",
"XXowe+oXX    XX+ee;:,1224999ddzzllj92:%@*-1488qqq962:%@ Xw .$*--::--*#@ @*,6jlzxxha82,=$.@*:169qjjqqq42,=$@. oewoX      Xo+e+o  ",
"   owew+ooXXXowewo 2466999jjjjdzllj92:$*-,168qqqq962:%@ ow .$**-----*#.#.$:4qjzzxxsh3<=$@@$:249dqjqqq841-*$@  owwoXXXXoo+ee+X  .",
"@.. X+eeewwwwee+o .@qddjjjjjjjjjllj92:$*-168qqqq9641=%@ ww .#**=---**#.#*#=18jlzzxkxs<:*@.$*,269qjjjq842,-$#@  ooww+ooweer+X .@.",
"@@@.  o+weew++oX .@#%jjlllllljjq8lj62=$=<48qqjjq9641=$.Xe+ .#$**=--**#.@*,*:4qjllkkkkk:*@.#*:,49qqjqq8641-*$#.  XXo++wew+o  .@@#",
"$$@@..  ooooX   .@#$*;zzzlzllljq82d62=*-169jjjjjq62:=$.Xe+ .#$**===*$#..$:4:29jlllzkzzs*#.@*=246dqjjqq842,-*%#..     ooo  ..@@$$",
"*%$#@@..      ..@#$*-,2fkkkzzllq62:61*-,48qjjjjjq62:*# Xe+ .#$$***=*$#..#=28,6qjlzlllzzp$@@#*:2699qjqqq621,-*%#@...     .@@@#$**",
"-**%$#@@....@@@@#%*-,126hkkkzljq41:%:=:269jjlljjq62:*@ oeX .#$**$**$$#. @*,6q49jllzzzzllp@.#*:2489qjqqq8641,-**#@@@@...@@@#$***-",
",;-*%$$#@@@@#$#$*=-,1448qgfhkzlj62=%@=12qdjlllljq62:%. +eX .@#$$$*$*$#. @$:4qj6qjlllllllj6.@$=,2699qjqqq8421,:-*$#$@@@$$$$$**-;;",
"11,-=****$$$$%%==-,1148qqqghkzlj82=$.@269jlllljjq62:$.Xe+ .@##$$$$**$#.  #=29jj9djllllljjd2.$*:248dqqqjq964211,-=**%$$%%***--,1<",
"2211::===****=--:,1246qqqdqhhklj81=$.@%9jlllzlljq62:$.Xr+ .@$$$$$$**$#.  @*,6qlldjljllljdd8<#%-1269qjjqqj964421,---====-:=--,222",
"24411,::-::--::,<24468qjjddqhklj91=$@$*;lllzzlljj62=$.Xr+ .#$$$$$$$$$@.  .$:29jlljjljljjd9622$=:1689dqdjjq8644421,,::::,,:,12644",
"6686211111:,<<2144468qqqdd9q9kzld1-$$%-,2zzzzzljj62:$.XeX .#$$$$$$$$$@. X.#=16jlzzqjjjjj996228*-,289ddddjqq866644111111121128q66",
"98q88424212224246689qjjj9d9963zl94-$*:,229zkzzljj61=# o+ ..#$$$$$$$$$@. X @*:4qjlzkdjjdd9742,66*:2699dddjqqq88866442222422488q89",
"98qq984464444468888qqjjddj9942,l92--:124899kkzljq61=# oX .@@#$$$$$$$#@. X .$=29jlzzkqqjdd8621297;146699dqjjjq9q88884666644qqqq99",
"qqqjqqq8888888qq9qqqqqqd996641,*92,,2289ddqdkzljq4<*# o ..@$#$$$$$$$#@. Xo #=,6qjlzzzjqj98421:39p,146999djjjqqjqqq9888qq4qqqjqqd",
"qqqjjqqqq8999qqqqjqqqqd9q9662:=%#42689d9jjdddzljq6,*@ X .@#$$$$$$$$$#@. X+ @%:29jlzzkzjj98621:,6jp<22699jdjjjqqjqqqqqqqqqqqjjqqd",
"dqqqqjqqqqqqqqjjqjjqjq9j96221:*#..9qjjjjljjjd9ljd4,%@  ..#$$%$$#$$$$$@@  +X.$=16jjlzzkzq8862,:-19jp,2469q9djjjjjjjqqqqqjjjjjjjqd",
"jqjjjjjqjjqjjqjjjqqjqq99862,==%@.@$jjlllllljd84j94:*@ .@#$$$*$$##$$$$#@  ++ @*:6qjllzzzz86421,:-29js146699jjjjjjjjjqjjjjjjjjjjqj",
"dqqqjjjjjjjjjjqqjjqqqd9862,:=%@..@$-zzzlzzljd82,94=%. .#$%***$$###$$$#@. ow @%:29jjlzzzzl6621,:=:4qjs24989jdjjjjjjjjjjjjjjjjjjjj",
"djqjqjjjjjjjjjjqjjqqq98622,=%$. .$*-1kkzkzzlj961=2-%..@$%===**$$###$$#@. oeo #=14qjllzzzzl422,:=*16qls2688jddqjjjjjjjjjjjjjjjqjj",
"dqjjjjjjjjjjqjjqjqqq996421:*%@..#*-,26hkkkzljd61*#-%..@%%==-=$$$###$$$@. oew @%:29jlllzzzzj11,:=*=28jll448qddqjjjjjjjjjjjjjjjjjj",
"qjqqqjqjjjjjjqqqqqqq90641:==#@.@$*-,269hhkkzld61*#.%.@#%==--=*$$####$$#@ Xee @%:16qjllzzzzlj1,==*%,2qjzs68q99ddjjjjjjjjjjjjjjjjd",
"qjqqjjqjjjqqdjqqqqqq98641:=*$@ @$*-14499hfkzlj81-$ o.#$*=-::-*$$$$$$$$#@ XweX.%=14qjlllzzlllj::*$$=<8jlzs59qddjdjdjjjjjjjjjqjjjj",
"dqjqjjjqqqjdddqjjjqq98441,-*$@.@$*-12699qghklj94:$.Xr#$=-::::=***$$$$#@@ XweX.#=<49jjllllljjd9*%$$*<4qjzzf8qj9ddjdjjjjjjjjjjqjdj",
"ddqqjjjjjjqddddqqjqq88622,-*$@..#$-,1499qjghklj61*@ ee%=-1,:--*$**$*$$@@ Xww .#=:49qjllllljjd94%@@*,29jlzkfqj9jjjjjjjjjjjjjjjddj",
"djdqqqqqjjdjddjqqqqqq88421:=*$..@$=:22899qjhkzj92-# owo=:,,,,-=**%*$$$@. Xe+ .$*:48jjlljjjjd9621.#*,29jlzzffjqjjjdjjjjjjjjjjqjdj",
"dddqjjjjjdddjdddjqqjqq88221:*$@..$*-,2699dqqhklj8<%@ +X :,,1,,--*=**$$@. oeo @%=<2qqjjjlljd962,:=$*-28jlzzxhajjjjjjjjjjjjjjjqdjj",
"jddjjjddddddddddjjjjqq99622:=*$@.@$=,268qdqd9fkl92-$.oX .,121,,-====*$@. wrX.#*:<49jjjjjjd9621:=:2=:49jllzzhhajjjjddjjjjjjjjqd9j",
"99djjjdd99999ddddjjjjjq9661<:=$#..#*-1269qdq97kzj9,*@ X .@11,,,::::=**@.Xee .$=,24qqjjjjd9642=*=,49,16djllzkfgajjjjdddddddjjjjjj",
"qqdjdd9999j9999dddjqjjq99662<:*$@.@$=,268qddd96klj2-$   .@@2121:::-=**@.Xw+ @$=<48qqjjdd9841:*$=14qj269jlzzkxkgfqjj9ddddddddjqqq",
"9qdddd999988899999djjjj998622<=%#..#*-1289jj9982lj91*@  .@##2211,,:==%#.XwX.@$:<489qq9d9841:*$%:28jjl89dllzlzxkhfdq9d99d9d9jj99q",
"q9dd999486668889999qddj9998442:=#@.@$-,269qq9q841ld2-@  @@##$2211,,:=%#.Xo .$*:24qqjqd9842:=*#%,28jjlz9jjlllzlzzxf889866499jj99q",
"88996624442424466966ddd9999642<=%#..$*,168qj9q962:l91*@.@##$%%2211,:=%#.XX @$=,26qqqq98421=%#$=<6qjlzzzqjjllllllzzs4446622899j88",
"669962121111212446469ddd99q884<:*$@.@*-1289999q64,-d4=@.@#$$$%%2212::%#.X @@*-<28qqqq9421:*#@%:<6qjlzzzzjjjjjjllllll22222,289968",
"44642,:,,,,,:111242669ddd9qq842,:%#..$*,1499dq982,:%9,%@@$*%*$$#222,:%# X @$=<268qjqq942:*%@@%:28jjlzzzzzdqqqddjjlllj<,,1:,16944",
"2341:==:::====::,,2246999dqqq821:=$..#*-168q9qq842:*#4-#$%*==**$#22,:%#  .@*:<48qqqj994,:%#.#*,28qjllzzzzz88699999ddj0;::=::,632",
"11,::*=***%%%*==:,,,2469jdqqq842<=$@ @$-,6899qq964:*#.,%#%====**$$2,:%#. @$-,26qqqqq962,=$..#=,49jlllzzzzlj2264444669d6*=**=:,,1",
"::==*$*$$$@@$$$$=:::22469qdjqq442:*#..$*,149djq8641=$. =%*-;;-=*$$$1=*# .@*:148qqqj9962:*#..$=<49jjllllllllj:111:,222696%*%%=:::",
"-=**$###@...@@@#$*=:,,46899qqq844,=$..#*-168dqjq841:*. +*-;:,;-=*$$#:%@.@$=<26qjjjqq941:*@ @%=14qjljlllljjjd9::***:::,266$#$%*=-",
"**$$@@@.     ...@$*==:2269dqqqq841=*. @$-1289qqq842:*@ oy;<21,,-=*$@.%@.#*:169qjjjjq62,=%..#%=16qjjjllljjdd966%#@#%%**:,42@@$$%*",
"$$#@.. XXXo     .@$$*=22489dqq896,:*#..$*,269qqq962:*#.Xrw22421,-=$#. @.$=,28qjjljjq62:*$.@#=:24qqjlljjjq994211..@@@@#$*:21.@##$",
"#@@.  X++++oooXX .@$$=:1269dqqq962,=$..#*-1699qqq62,*$.Xew 44441,:*#.Xw@%-<49qjjlljq62=%@.@%=<26qjjjjjdd9642,:=*X     .@%=1,@@@#",
"@@  X++eryeeew++X .@#$:,2489dqq8821=$#.@$-128dqqq841=$. wwX@89411:*$. ew%:28qjllljjj61:$..#%:<48qjjjjdd6421:==%$#ooo   ..$*:,...",
".  X+etewwooowe++o  @$*:12899jqq842:*#..$-,489qqq841=%@ +eX #9644,:$@ wo.:48qllllljj62:$..#*,2489jqdd9964<:=*$#@@.o     ..#*,, .",
"  XweewooX   oowr+o .#*=,2689qjqq42:=$..$*,269qqq96,:*@ +eX .#j941,*# +  #6qjllllljj62=$.@$=<489qqq99942,:*$#@...#$  . ....#*:; ",
"XXwee+o        owrwX .#*=1489qjqq84,:$@.#*-249qqqq62:*# oro .@#j941-$ X @#*djlllzljj62=$.#%=<49qjjq9962,:*$@.  .@#$*.. ...@@#*:,",
"wereo    ..... XoeeoX @*=1249dqqq841=*@ @*-249qqq962,*#.Xeo .@@#j81-$. .#%*,lzzzzljj82=#@#=:149qjj9942,:*$@.  ..#$*=-.....@.@@$-",
"ereo  ......@..  owwo .$*:1489qqqq62:*#..$-1269jqq84,=$.Xe+X.@@##94,%@.@#*;,4zzzzllq6,=##%=<268qjj9942:*$@. X .#$$==-:.@@##@@.@#",
"ewoX .@#.@@#@...  oewX @$=1269qqq9621=$..$-,469jqq842=%. ee .@@@@#61=@@$%*,267zzzllq62=#$=:2488qqq962:=$#. XX .#$*=::,,.$$#@@@@#",
"+oX ..@####$$#@..  +eo @$=,269qjqq84,=$..$=,299qqq941=%@ eeX .@@@#@2-$%%;,22689kkllj62=#%=<268qqqq962:*#. X+ .@$*==-,<<<$$#@@@@#",
"X  ..##$$$$$$$@... oewX.#%:,49qqjq941:*@.#*:269jqq941:%@ eeX .@#@@. <%%*;1269dqdzzlj62=#*:248qjjq9641:*@ Xwo .#$*=:,,<122$@@@.@#",
"   .@#$$$$$$$$##@.. +eo @%=,26qqjq962:*# #*:169jqq962:%@ +eX .@@@@. O*=;1669dddqdzlj82=%=<48qjjjq862,=$. +eX @#$*-::,,1112@@@@@#",
" .@@##$$*$$$*$*$#@. oe+ .$=1469qjjq62:*#.@$:149qqq962:*@ oro .@@@@. or;126djjjjjq9lj92=%=<48jjjjq941:=#.XeeX @$$*-:,,,,1222.#$@.",
"..@##$$*$$$%$$$$$#@  wwX.@*:269qjjq62,*#.@$=169qjqq62:%$ oio ..@@.. orX28djjljjlj86j91=*:28qjjjjq942:*@ or+ .@$$*=:=,,,1121<$$@.",
".@#$$$$$*%#%%$$$$$@. oeo #%:249qjj9841=$..$=169qqqq82:*@ Xyo ..@@.. +e @djjlllllj82191==<48jjljjj961=$. +eo .@$$**==:,=,,222<$@#",
"8@#$%%*$%#$$$$$**$#..Xw+ @%=129qjjq941:$..$=1269qqq94:*# Xe+ ..@@.  +e .$lzzzzlljj2::1==14qjjjjlj96<=#.Xww ..#$$$***====,21<<2.@",
"69#$*%$###$$$#*$$$#@. +w .$=:46qqqq961:$..$=1499qjq84,*$ Xe+ ..@@.  we .$:kkzlzzlj91=#=:28qjjllljq6,=# oeo .@#$$%%****==:,1,21<@",
"38d%%%%%$##@#$$$$$$@. oeX.#=:26qjqq941:*@.#*:269jjq942=$ Xe+  ..@.. we .$=<xxkkklj94:$@14qjllllljq6<=# oro .##$$%$$$$$%*=,,,<<,<",
"149d%*$$@@@.@#$$$$$#@ XeX #*:299qqq961,*@.#*:269jqq942=$.Xe+  ..@. Xwe @%=14fhfkzld4:%.$6qjllllljq4<=# +ro @#$$$$##@##$%*-:,,<<<",
",249d%$@@....@@$*$$#@.Xwo @*:269qqq961:*@.#*:269jjq941=#.Xe+  ..@. Xww @$:269ghkkld6:%@$=dllllzljq81=# +eX.@#$$$@@....@$%=-:,,,<",
"-,2899#@.   ..##**$$@. w+ @%:269jqj962:$@.#*:26qjjq961=#.Xe+  ..@. Xww @%:269dgfklj9,*@$=1llzzlllq81=# ++  @#$$##..   .@#*=-,,,,",
"*:24468.  XX .@#$*$$#. +w @%:169qjq962:*# #*:26qqqq842=#.Xew  ..@. Xew @%:269qdgkzl92=$*:24lzzzllj8<=# +o .@#$$##. XXX .@$*---:,",
"*=:,2242 o+oX @#$$*$#. +w @%=149qqqq62,*# @$:14qqj9942:#. ew  .@.. Xe+ @%:269jjqhklj2-$-:260zzkllj81=# + .@@#$$#@. owwo .$**-:::",
"%*::,2,,,weeo .@$$$%#@ oe @%=,48qqj992,*#.@*:169qq9941=#.XeeX ..@. Xe+ @%:269qqjqklj6:*:228qdzkzlj92=$ o .@#$$$#@ XwieeX.@$*=:::",
"$**:::==*=X++ .@$%$%#@ oe @$=,49qqqd93,*#.@$:169qq9941=%.XewX .... Xe+ @*:26qjqq94zl9,=,269ddjkzljq4=$.o .#$$$$@@ Xew+ro @$*=--:",
"$$$*==*%#*,oe .@##%%#@ ow @$=,49qqj993,=#.@$:269qq984,:$.XeeX .@.. Xe+ @%:269qqq962lq3:2499jjj0zzjq2:$.X .#$$*$@. oeoXee .#**==-",
"$#$$%%%@@%,:eX.@$$$%#@ oe @#=,49qqq992:*#.@$:269qq9841:%.XeeX .@.. Xe+ @%:269jjj961:j4:48djjjjjdljq4,*. .@#***$#. oeX we .#$**==",
"2%##%$$@.#*** .@$$$$#@ ow .$:,49qjjd92:*#.@$:269qq9841=%.XeeX .@.. Xe+ @%=269qqq962:%8269djjjlld9lj4:*@ .@$***$#. oroXe+ .@$***=",
"<2%#$#@@..##*,.@$$*$#@ oe .$=149qjj994,*#.@$:26qqj9941:%.XeeX .@@. Xe+ @%,269jjjq62-*#69djjllljjq4j6<*@ .#%%*=%$@ oee+eo .@$*$**",
"<12$$@@.. .@$:4#$$$$#@ ow .$:,48qqqd62:*# @*:26qqq9942:%.XeeX .... Xe+ @%,269jjjq62-*@.9jllzzlljd8162=# .#$*==*#@. +rrwo ..#$$%*",
",212$@..  .@$-29$$$$#. o+ @%:,49qqq962:*# @$,24qjqq962:$.Xee  .##. Xew @%,699qjqq62:*@.#lllzzzllj82=2=#.@@%%==*%#@ Xwwo .###$%$*",
",1212#@.  .@$-18d$%#@. ++ @%:,68jjq962,*@ #*:268jqqd62=#.Xew  .@@. Xew @%:26qqjq962:*@.$=zzzzzzljd4-$:$..$%=::-*%@. Xo  .##$$$$#",
"::1221#. ..@$=,49d$#@ Xwo #*:269qqq962:*@ #%:268jjj962=%.Xrw  .@@..Xww @%:26qqjj962,*@.$*<kkfkklld6-$@%@@$%=-=;=*$@.   .@@$$$###",
"==:,<11@...@$*,249d#@ XeX.#*:269qdd962:%@.#*:268qjq961=%.Xrw  .@@..Xww @%:269qqjq92,*#.#=:2kkfkklj92%@.@@$*=-;;;*$#@....##$$$#@#",
"==:,,<1,@.@@$*:22699@ Xe .#%,269ddd961=%@.#=,28qqjj961=$. ++  .@@.. w+ @$:269jqjq62,*#.#*:28hhkkzl94*@ o@%%*-;:;**%###@@@#$$$##@",
"**=:,,<1<#@@$$-:12266 oe @#=,28dddd961:%..#*148qqjj96,=$. ew  .@... w+ @%=169qjq984,*#.#*:269hhkzlj8-# oe#%*;:,:;-*%$$###$$%#@#@",
"$*==:,,<12###$*:,,12,1ow @%=149ddd9941:%..$=169qjjd94,*@. r+ .@.@@  +w @#:,69qjjq961=$.@*:269jgkklj91*@ oX%==:<<;-==*$$$$$$$##@@",
"$$*=::,<122%#$**:=::===o @%-<89dddq961=%..$-269qqqd96:=$.Xu+ ..@@@. oe @%=,69qjjq962=$.@%:269djhxzlj6-# Xo =-:<<,;-=**%%$$$##@@@",
"@$$*::,,<1<2$$$%=*=**$$:.#*:289dj9q83,=$.@$=26qqqqd94:=$.Xu+ .@@@@. +e @%=,49dqjq961=$.@$=169ddjhklj9,*@ eo =:,<<<;:=-=*%$$#@@..",
".@$**::,,<122#$#$$$$#@$:6#-<489djdq86,*$.@$-189jjjd941=$.Xuo .@@@@. or @%=,49dqjq962-%@@#=149ddjjhzlq2-@ ++X.:,,<<,;:-==**$#@. .",
"..@$$==-,,1,22$###@@..#=4d;1499jjj994:=#.#%-189djdd83<=#.+ro @@@@@@ orX.$=<49djjdd81-%@@#=,69dddd9fzj6,$@X+X..:,<<<,-:-***$#@   ",
"  .@$$==-:,<222#@@..  @*2dl269jjjjq93:%@.#%:29ddddd94,=#.+eX.@@@##@ oro.$=<49djjdd82:%#.@=,389ddjd9klq3-$ +o @#:,,<,:::***$@@ XX",
"oX .@$$*=-,,:<<,@  Xo @*19lk8qjqj9q62:$@@$=:489djdj83,*# ee .@@@#@@. e+.$=<49ddjdj82,=$.@%:389ddjdq8kj91*@ o ..@,,,,:::=*%$@. Xo",
"wOX..@$*%=--::>-- oww @*19jzhqjq9j96<=$.@%=228jjjjq82:*@ e+ .#@@#@@. ++.#*,48jjjdj831=$.@%:289jjj9984lj6-$.X   .@,,,:=:==%#.. X+",
"eeo .@#$%=*====*%%Xee @*<8jlkhjqjjq6<=$.@$-2489jjjq62:*@ +o @@@##@@. +o.#*,28qjqjj862:$.@$-<4q9jqj9941lq1*# X   .#:-:--*=$#@.Xow",
"eewo .@#$$******%$#ew @$,4jlkkgjjq94,*#.@*:28qjjj9q61:%@ +o...@@#@@. oo.#*-<8qqjjjq61-%@@$-<4qjjjjqq21,j4,%.    .##,,-==%$#@.Xow",
"eewo  @.#$$%%%%%$#@.XX.$-2qjlkhgjj94,=#.@*-24qjjjq841-%@ oX.#@@@##@@ oo #%,148qjjq961:*.@$-<48jjjjq84,-$q1*# ...####,,-=*%#. XX&"
};
