/* XPM */
static char *result[] = {
/* columns rows colors chars-per-pixel */
"128 128 60 1 ",
"  c #58546C",
". c #585B69",
"X c #574576",
"o c #584577",
"O c #594D74",
"+ c #594778",
"@ c #5A4978",
"# c #585070",
"$ c #5A6369",
"% c #5C6B6A",
"& c #5E736C",
"* c #60776D",
"= c #617B6E",
"- c #627F70",
"; c #648372",
": c #668B75",
"> c #679076",
", c #689277",
"< c #699578",
"1 c #6A9B7B",
"2 c #6CA27E",
"3 c #6DA680",
"4 c #6EAC82",
"5 c #6FB184",
"6 c #70B586",
"7 c #70B887",
"8 c #71BC89",
"9 c #73C38C",
"0 c #74C98F",
"q c #75CC90",
"w c #75D393",
"e c #77DB96",
"r c #77DE98",
"t c #78DF98",
"y c #78E39A",
"u c #7AEB9E",
"i c #7BF3A1",
"p c #7DFBA5",
"a c #7FFEA9",
"s c #8FDD9D",
"d c #94D49C",
"f c #9CD09C",
"g c #90D99C",
"h c #A3D09E",
"j c #8DE29E",
"k c #A6D1A0",
"l c #ACD3A2",
"z c #B2D6A6",
"x c #B6D8A7",
"c c #B7D8A8",
"v c #BBDBAA",
"b c #8BE6A0",
"n c #8AEBA1",
"m c #89F3A4",
"M c #87FBA7",
"N c #88F9A6",
"B c #83FFAB",
"V c #C1DFAE",
"C c #C4E0AF",
"Z c #C6E1B0",
/* pixels */
";=&&%%....    ..%%%&-;:127wpBngdfddgjnmMBBapur08421<>::;-;;;;--;;-;;-=:->;>>1279riBBnsdfhllcvCCZZCCCccllhfgmBi92:*%%&->20iBBBpie",
"--=&%$$..    ..$$%&=-->127wpBmsdfffdgjnmMBBaaiyw97442<>>;;=--=:---;->>;>>>1247wuaBMngdfhlzcvCZZZZZCCCvcxlhfdjMp92:=%%-;18uBNBauw",
"->;=&$.  ##  ..$%&&=;:><27wiaMbgfffddgjbnmBBBaiyw085221>>;>---------;>;><1258wyaaMnjdfhlzccCZZZZZZZZCCCvxlkffjNaw4:-%%->29iBBaie",
"&=:-&$..    ...$%&&-;:<<459ypBmbdfffddgjbnMMBBaiyw07521>>>>-;=====--->;>12289eiaBMndffhlzvCZZZZZZZZZZZCvvcllhfgNae5,-&%&;1qiBBau",
"&&==&$. X  ..$$%%&=-;:><247wupBmsdffdddgsbmMBBapue054<>;>--==*&***==-;;;>1259wuaBBbgdfhlzvVZZZZZZZZZZZZCCCvcllfduBu51-&%&;19pBap",
"$$%%%$. .....$%%%&&-;:><1459wiaBmsddffddgjnMMBair0521>>--==*&&*****===-;>12470ypBMngdfhlzvvZZZZZZZZZZZZZZZZvcckfdjMp91;&%&-18ipp",
".$$.....$$$$$%%%&&=--;:><1259wiaBnsdffdddbnmBair952<>;:-=**&&%&%%%&*===;>>1259eiaMmsdfhlzcVZZCZZZZZZZZZZZZZCCvckfdjMp91:*%%=<5we",
"     ..$%%&&&&&&&===-;::><1479epBBnsgddgsbmBair052<:;-=&&&&%&&%&&%%*&=&-;;>125qypBMjgdhllcvCZZZZZCCZZZZZZZZCcCcckffjMpq2:=%%=-14",
"   # .$%=------====---;::><2470uaBmjsddjbmBaie941>::-==&&&&%%&*&&&&&*&**=;;>148wiaBnsdfklcvCZZZZvVCCCCCCCCCCCvvclkffdNaw4:=%%=;:",
"###  .$%=:<<>>::;------;:>>1259rpBMnbjjnmBBpy941>:;==&%%%%%%*&====&&&%****;;>149rpBBjdfhlccCCZZZVvCCvCCCCCCZZvvczllffgNaw4,-%%%&",
"X#  ..$%=;1742<>::;----;;:>>159rpBMnnbnmMBpu054<:;==&%%%%%&**&==-=&&&&&%&**;><149yaBngdfklvCCCCZCvvCCCCCcvCCCvvvccllhfdmBr5,-&%%",
"   ..$$%=;<29742<>:;;;;;-:>1158epBBmnnnmBaie941:;==&&%%%%%&&-&=--;=&==&&%&*-;;<27wiBNbdfhlcvvvCvCZCCCCvvvvvvvvccvczllhfgnBy5,-*&",
". ..$%%%=;><59742<>:-:-:::>1259yaBMmbnmMBpi052>>-&&%%$%%%**-==;>;;;;;===&&%*-;><48raBnsdfkzcvvvvCZZVvCvcccccccccccccllhfdnBu71:;",
"..$$$%&&=;->248721<>>:::>><248wiBNmnmBBpie052<>;=&&%$%%&&=--;;,:,,::;>;=*&&&*-;>150iBNbdfhkccvvvvZCVVCvccccclclccccczzlhfdgBiq42",
"$$$%%%&&-;-:<14531<<>>><>12480uaMmmBapie0721>:-==&&$%&&*&-;-;:,,11<,,::;;-&&&*-><17rpBmsdfhlccvvCCCCVCvCllccllllccccczzllhfsNBue",
"&&&&&=---::><>24321<1>111257quaBBapir07541>;-=&&%%%%&*---:,,112454321<,,:--=&&*-;<48rpBnsdfhkzzcCCCCCVcvcccllllllllzzzczllhfgnMB",
"-===-;;;::>>112252221122479wupBaiyw954<>;-=&&%%$$%%*-;:<13559qweewwq998532<:;-=&*-;150iaBjdfhklzcvCZZCCvvvccxxccclzccvvccllhfsnM",
"&==;;;-:>:><112455422244590euppiw941>;-=&&$$$$$%%&--:148qyipaaBBMBBBBaBapuw9521:-=&*;<38iamsdfklccvCCZZZZCCvvvvvvvvCcvvvczlhfgNB",
"%=--;;:::>>>1224754544457700yiiw72>:=&&%$$..$%%&-;,159yiaBMmnbseqddggtgjnmMMaiw82,:=&&;<30iBndfhkzccvCCCZZZZZCCCCCCCVVVvvckfdsBB",
"%&==-;;-::>>122575544424455999w72>-=&%$$..$$%&=-><40riaMmbggdffffffhhhhhffddjmMauq41:=&*-<5wpMsdfklllcvVCZZCCZZZZZZZCCvvclkfgnBa",
"%&&&==-;;::><1257542221211122244>-&%$$..$$%%=-:>27wuaBMnjddffhkkkklllllzllhhffdjmBpe61:-&*;19iBngdfhklccvCCCZZCCCZZZCCvvclhdsmai",
"%&&&&&==-;;:>1245421<<>>>::::>::-&%$...$$%&-;>148wiBBBnsgfffhkkllzcccvvvvvczlhhfdgnMay81:=&-<5epBnsdffhkllcvCCCZZZZCCCvczkfdnBpy",
"%%%%&&&===-;:>1222<>:;;-===&=&=&&%$..$%%&=-;>147wuaBMmjgddfhhklllcccvvCCvCCCcczlhhfdnMae51;&&:19ypBmjsdfhhlzcvvCCCCCCvczzhfsmayw",
"$$$$%%%&&==-;:>12<:;-==&%%%%$%$%$$.$$%&&--:>2470ypaBMmbsgdffhhklzzzcvvvvCCCCcCvczlkhfgnMpq4:=&->38qipBmjddfhklcccvvvcczlhfdnBiw9",
"$$$$$$%%%%&=-;>>>:;==&%%%$$.......$%%&--;>12459wyiaBBMnbsgdffffhhlllzczccvvZCvvCvvcllhfgmBu7,-&*;>149riaBnsdffhklzlzllkhfdsMpr74",
"$...$$$%%%&&==-;:-=&%%$$.....   .$%=--:><124570wyipaBBMmbssdddddfffhhkklzccvvCCZVVccclkhfgNpq2:=&*-;<27wipBnjgdffhhkhhffdgmBu032",
"......$$$%%%&&&=-=&%%$....    ...%&-><>212245790wryipaBBmmbbssbsssgddffhhklccvvCZZCCvvclhfdnBe4,-=&&=->25wupBMnsgddddfddsmBpq511",
"   .....$$$$%%&&&&%%$..   XX  ..%&->12222442445770wryipaBBBmmmmBBMmnbsddffhhllcvZVCZCvvvclhfjMu81:--&%=-><50yiaBmbssssbbmBpy731:",
".  . ..$$$$$%%%%%%%$..   X  ...$%=:24422211212244789weyiipaaBBBaaBBBmnbgddfhllzzvvCCZZZCvvlhfgMpw62,:=&&=;>149riaBBMmmmBBpy94<>:",
". .......$$$$$$%$%$..    .....%%&-144421<<>>><<<1224599qwuipaappppaBBBmbgd9fhhlzcvvCZZZZZCvclfgmaie83>-=&&=->127wyppaaapiyw531;:",
" .......$.$.$$$$$...   ...$$$%%=:14411<>>>->>::>>><122557qwyuipiuipaBBMnjgdffhlzxvvCCZZCZZCvclfdbMapw71:-=%&=:><570weyuye0841,>:",
"...........$........ ..$$$$%%&-:<11<>:;--=-==--;;::><1124780wrippaaaBBMnjqdffhhllcvvCCCZZCZZCclfdsnMay94<;=&%&=;>135999q99521>;:",
".$..$.$$..$$$.....  ...$$%&&=;>>::;-===&&&&===--;::>>><2245780eupaBBMmngdffhlzzczcvvCCCCZZZCCclhfgjmBiw41>=&&&=;,125799q99541,::",
"..$$$$$$$$$$$$.....   .$$$%%%%&&&&&&&&%%%%&&==-;;::>>><1225780wyiaBpbsdffklllzccvvvvCvCCCCCCCzkhdsnBau94>:=&&=;;12590eeeew9721,:",
"..$$%%%$$$$$$.....     .....$$$$$$$%%$$%%&&&&=--;::>>111445789wyiaBmsdfhkkllzcccvvvCZVCVCCvvclhddbmBiw51:=&%&-:125qeupaaiue05211",
"..$$%%%%%%%$$$...  #####   .........$$$$%%&&===-->-:><11244890wypBMbgffkklllcccccvvvVCVCCvvcckfdjmBpy92>-=%&=;,27wuaaBBBBapyq742",
".$$%&&&&&%%$%$...  #OOOO###      ....$$$$%%%&&===--;:>>124799wriaBmjdfhklkklzllzczcvvVVVVcczkhdsmBai041:=&&=;<27wiBBMNNMMMBauw85",
"$$%%&===&&%%$$...  #OOO@OOOO####  . ...$$$%%&%&&&===--;><2579rupBBbgdfhhhfffffhhkzzzzcccczzlhfdnBaiw72>-=%&;,18eiaMNnjjnjnmBBiew",
"$%%&=---=&&%%$...  #OO@@@@@OOOO### . ...$$$$%%%%%%&%&&=-:147wriaBmsdfffdgjnnbjsgdffhklllllhhfdbBpie92>:=&&-:27wpBNnygqdddgjnMaap",
"%&&=-=-;-=&%%%$..   #O@@oo@@@@OO###   ....$$$$$$%$$$%%&=->27quaBMngffdjmapiyiiaBmjsdfffffffddbBpy074<;=&&-:15eaBNngddfffffdgjMBB",
"&&=--;>:;-=&&%$$..  #OOooooo@@+OOXX   . ....$$.......$%&=;<49uaBmjgdsnai0521249eiaBmbsdddddsmBpr952<:=&&-:15waamjdfffhhhhhffdjmM",
"--=;;><>:;-=&&%$$...X#O@@oo@+@@OO##      ........ . ...$&->49uaBmsdbMpe4>-==-;<27eipBBmmmmmMaie941>:=&&=;15waMmwdfhhhllllhhhfdds",
";;;>>111>>;-=&%$$..  X#O@@oo+@@O#    ........... ..   .$%=;19yBMnsmBpq4:=%$$%&-:<49eipaaaaapie72<:;=&&=;<5waBngfhhllxllzlzlhhfdd",
";>><11122<>:-=&%%$$.. . #O@@@+O#XX  .............   X  .%&;17yaMmmBpw4:=%$.$$%&=;>159wyuiiye072<:-=&&=-<4qpBndfhklxcvvvcvczzlhff",
";<>11111222<>;-=&%%$..  . XXOX#X  ...$$$$$$$.$...      .%&-<7raBBape4>-&$$.$.%%&=;>12489q09754<:;=&&=-<3qiBndfhllvvvvCCCcvvczlhh",
"<1111>>><12221>;-&&%$$..  X X#   .$.$$$$$%$%$.$...    ..$&->4wpBair51>=&%....$$%&=->>12445444<>;=&%=->20iBndfhlcvvCCZZCCCVvvczlk",
"121>>>>>::><142<:;-&%%$$..      ..$$%%%%%%%%%$.....  ..$%&=:29iapr94<;=%$$$.$$$%%&=->><112221>:-=&&-:28uBngfhlcvCZZZZZZZZCVCvczz",
"41>>------;::><221>-=&%%$$...   ......$$$$$$$$$$........%&&;15wpie83>-=%%$$$$$$%%&&--;><1111<>>-=%&-<4qaBsfhlccCZZZZZZZZZCCCCczz",
"<>>-=&==&&==-;::><<>>=&&%$$..........$$..$$%$$%$$$...$$$%%=;<29ypiw81:-=%%%%$%%&&=-=-><12221<>;=&%=->4qpBsdhlcvCZZCZZZZZZCCvvccz",
">--===&&=&&==-;;:>>>>-&%%$$$.....  ..$..$$$$%%%%$$$$$$$%%&=-:150upauq41>--=====-;:>113477742<:-=&%&-:29uBmgfhlccCCZZCCZZZCCvclll",
";-&===&&====--;:::>>-=&%$$$...    ...$$$$%%%&=&&%$$%$$$%%&==:>129eipppw8421>1>112590wrwq9542<;-=%%&=;<4wpBbdfklccCCZZZZZZCvcllkh",
"*&*=&=&&&=--;-:>>>;-*&%%$.$.... .....$$$$%&&--&&&&%%%%$%%&&&=-;>249wyiiiiiuyeyyuuiiuuyww9742>>-=%%%&->29uamsdfkzcCVCCZCZvvcclhhf",
"**&=&==---;:><1>:-=*%%$$............$$%%%&=-;-=&&%%%%%%%%%&&&=--;>14590wweeeeeryyyyuyttqq741<;-=&%%&=;<4qiBngfhllcvVVVvvvcclkhfd",
"**===--;:<<1<::==&%$$$$...     ...$$%%%%&=-::;-=&&%%%%$$%%%%&&&==-:>1445579990qwwweeerewq942>:-=&%%%&->27yaBsdfhllcccccvczlkfdds",
"%&&=-:><11>:-=&%%$$$...       ...$$%%%&&--:>>:;-&&%%%$$$%%$%%%&&&==-;><1124457890qweeeeeq9741>-&&%%%&=;<4qpBngffkkzczcczzlhfdsnm",
"&&&-;><>:-=&&%$$....      ###  ..%%%&&=-;:>1<:;-==&%%$%%$%$$$$%%%&&=-;;:><11245880wwwrrewq772>;=&&%$%&->29uBNsddhhkzlllkkhfdsmBa",
"%%=-;--=&%%$$$..     ######oX  .$$%&=--::><11<>:--&&&%$$$$$%%$$$%%%&==-;:>>12257800weeyyew942<;=&&%%%&-:17yaBnsddffhhhhhffdjmBiy",
"%&&=&&%%%%$..    ####OOOOOOO#  ..$%&-;::>><142<<:;-=&&%%$$$$$$$$%%%%&&=--->>1245900wyyyyrwq72<:-&&&%%&=:150iaBmbsdddffffdgjmau09",
"%%%%%%$$$...    ##OOO@OOOOOO##  .$%=-:::>>><12421>>--&&%%$$$$$.$$%%%%%&==-;>>124770weyyrew9741:-=&&&%%=;>270iaBmnsddddgggnBpy851",
"%$$$$$$.....  ###OOOO@@@@@O@O  ..$%&;::::::::>><241<>-=&%%%$$$$$$$%%$%%&&=--><1247900wewwwq74<>;-&&&%&=-:<47wiaBMmbbbsbmMBpr72<,",
"$$.$$.....     ###OO@@@@@@@X#  ..$&=;::>;;---=--;::><<>-=&&%%$$$%$%%$%%%&&=--:>1245790qwww9752>:-==&%%&=-:<27wipaBBMMMBBaiw72>>:",
"$.$$...         ###OO@@o@@@O#  .$%&-;;--=&&&%&%&%&&&=-;>:;-&&&%%%%%%%%%%%%&*-;:><245790qwwq0741>;-=&&%%&=-:148wrppaaaaapuw73<;-=",
"$.......        ##OO@@@@@@X#  .$$%=--==&&&%%$%%$$$%$$%&&&=;>;--=&&&&&%%%%%%&&=-;:<12579qwewe0842>;-&%%$%&=-:<278eruuiuyw973<;-=&",
".......   .     ##OO@@@@oOX  ..%&&&&&%&%%$$$..........$$%%&&=-:>;--=&&%&%%&&&==;-><12590wyyyrw94<:-=&%%%%&=-:<35790qww09731,>-==",
"$..$.....       ##OOOOXOXO# ..$$%$%%%%$$.......     ....$$%%%&=-;::;--=&&&&&&&=-;:><2479werye074>;=&%%$%%&=;:<3579qwww09742,;-&&",
"$...........     X###OO#### ...$$$$$$$$.....         .....$$%%&&&=;>>;--=&====--;:>112579qq09521>=&&%%$%%=-:<1570ruiuiyew941:;==",
"$$$.$$$.......    ######### ....$$$$$..$... ..        . ...$$%%%&&=;><>;;--==---;:><12445777521:;&&%$$$%&=;>137wriaaaaapie941:;-",
"$$$$$$$$..$.....  X######## .....$....$...... .       .....$$%$%%%&-;<1<::-----;>::><124444421>>-&%$$%%%=-;>270yiaBBBBBBapy94<::",
"$$$%$$$$$$$.....    #X##### ......$$$$.$$...............$.$$%%$%%%&-;<421>:-->;>;-:>><1122121>>-=&%%$%%&&-:<37wuaBBMmmmmMBau941,",
"%%%$%%%$%%$$$$... .   ## ### ..$$$$$$$$$$$$.$.......$$.$$$%$$%%%%&=-;<242<>>;>;;-;;::>><<<<>>--==&%%$%%&=-:159epaBMmbbjbbnMBuq54",
"%%%%%%&%%%%%%$$....   #    #  .$$$$$$%%%$$$$$$$$$$$$$$$%%%%%%%%&&&&-:<47421>>>:;;:;;;:::::::;-=&&&%%$%&&-->150uaBMmjsgdddgjmBpeq",
"&&&&&&&&&%%%%%$$....   # # ## ..$$$%%%%%%%%%%%%%%&&%&&&&========&=-;><49541<>--;:---;;;-;;;-==&&%%%%%%&=-:139epBBmjsdddddddgmBap",
"-=-&===&&&&&&%$$$...   #### #  ..%%%%%%&&&&&&&===-----;;::>::;;---;:<259521>>-;---=------===&&%%%$%$%&&=;>150uaBibgddffffffdgnMB",
"::;;;;====&&&&%%$$$..   X#####  .$%&%&&=&==----;;:>><111224221<<>:><1259421>>--===========&&&%%$$$$$%&&-:>28epaMnjddffhhhhhfdgjn",
"<>>::;;;;===&&%%$$$.. .   ####  ..$%&&===--;>::>>::>::>:>>>><12211<1224421>;>-==&&&&&&&&&&%&&%$%$.$%%&=;>140uaBmjgdffhklhllhffdg",
"43211,,>;;===&&%%$$...     # #X ...$%%&&&=====&=&&&&&&&===--;:>122222222<:;-==&&&&&&&&&%%&&%%%$$$.$%&=-;<28raBMysddfhhhlllllkhfd",
"q9864211>:;-==&&%%$$.....    XX ..$$%$%%&&%%&%%%%%$$$$%%%&&==-;>12241<>>::=&&&&%%%%%%%%%%%%%$$$$..$%&=-:149uaBmjgdffhhllllzllkhh",
"aiueq8421,:;--=&&&%$$....    X  ...$$%%%%%%$$$$$.......$$$%&&=-:<11<>:-==&&%%%%%%$%%$%$%$%$%%%$$$.$%&=->17wpBMngddfhklzzlczccclk",
"MBaapyq8411>>--=&&%%$$$$... .   ..$$$%$%$$$$$....   .....$$%%&-:<1>:==&%%%%%$$$$$$$%%$$$%%%$%$$$$$$%&=->27waBmbgdffhkllcccvvvvcz",
"gjnmBapr9541<>:;-=&&%%%$$$... .....$$$$%%%%$$$$...   . ..$%%&=-><>-=&%%......$$$$$$$$$%%%$%$$%$$$.$$%&-:15wpBmjgdfhkklzzcccvvcVc",
"gddgbmBaiyq732<>:;-=&%%%%$$$.. ....$$.$$$$$$$$$.....  ...$%%=->>;=&%%$...     ..$$$%%%%%%%%%%%%%...$%%&->29yaBnsdfhkllllllzzzczz",
"nbssdgbMBaie9741<:;-=&&%$$$$.......$..$..$$$$$$...     .$$&=;>>>-&&%$...  ###  ...$$%&&&&&&&&%%$....$$%&->27yaBngdfhkkkkkkllllkk",
"MMmnjssbmBapr9521>:-=&%%%$$.........$$$$$$$$$%$$$.. . ..$%&->>:;=&%%$.. ##OO##  ...$%%%&&&%%%$$.. . .$$%&->29yaBbddfhfhhhhhhhfff",
"BBBMmbggjMBaie941>;-=%%%$$......$$$$$$%%%%%%%%%$$..    .$%=;>>:;=&%%..  #OOOOX#   .$$$%$%%%%%$$.... ..$%%&->29uaMbgfffffffffffdd",
"paBBMnbgjmBaie92<:;=&%%$$....$.$$$$%%%%&&&&&&%%$....  .$$&-:<<>;=&%%$.. #O@OO###  ...$$$$$$$$$$..... ...$%&->29iaMbdddddffffddgg",
"yiaBBMnbbmBpu052>;==%%$$. ...$$$$%%&&==---=&&%%$$... ...$&->11<:-&&%$.. #OOOX###   . ...$$$$$........  .$$%=;<4wiBmbddddddddgjjn",
"wriaBMmnnBaie94<:-=&%$$.. ..$$%%%&=-:-;:-=&&%%%$$......$%&->141>-=%%$..  #OOXO###   ....$..$$........   .$%&=>15epBmbsggggssjmMN",
"9qypBBmmBaiy941>;=&%$... ..$$$%&&&=----=&&&%%$$.$.....$%%&-:<22<;-&%$..  #OOX###   ..........$......... .$$%&->29ypBMnbbjjnnmBap",
"58wiaBMBaiy052>>=&&$$......$$$%%&===-===&%%$$$$.......$$%%&-:<21:-=%$$.. ##X###    . .....$$$$$$........ .$%&-:<40ypBBMmMmNBaiyw",
"149ypaapur972<>-&&%$.......$%%%&&=====&&%%$$$$..... ...$%%&=->>1>;=&%$$.  #####  ..... ..$..$.$............%%=;<27wyipaaaapie954",
"127qyuyrq842<>-=&%%$.  .$$$%%%&&=====&%%%$$$$...........$%%&=-;>>;=&%%$. ####  ... .......$$$$$$$$$$$$$....$&&-:<259wuiiiue95211",
"<1478887542<>;=&&%$.. ...$%%%&&======&&%%$$.......... ...$%%%&=;>;=&%%..    #   ...........$$$$$$%%%%%$$$$.$%%&=-:<2470wq9721>>:",
"><11333111<>;-*&%%$....$$%%&&&=-----=&&%%%$$$.....     ..$$$%%&=;;=&%$$..      ...........$$$$%%%%&&&&&%$$...$%%&=-:<2245421>;;=",
";>>>>111<>;;-*&%%$$...$$$%&&---;::::;-&&&%$$$......   .....$%%&&-==&%$..        ..  .. ....$%%&&==--=&%%... ..$%%&&=->>>11<>---=",
";>;>>,,>>>;-=*&%%$...$$%%==-;>>>111<>;-=&%$$$$.... ..  ...$$%%%&==&%%$..      .   .   . ..$%&&-->;>=&%$$...   ..$%%%&=--->>;-==*",
";-->>>::;;;-=&&%%$...$$%&-;>1247799541>;=&%%%$.$...........$$%&&=&%$..   ## #      #   ...$%&->>>;=&%$$$.     ..$$%%%&**==---==*",
";;;;>1,,,>::;-=&%%$$.$%&=-::>><147wie051>;=&%%$$$......$..$$%%&=&%%$...                .$$%&-;>>-&%$$$..  #   ....$$%&%*&***&**&",
";>>,12233311<,:--*&%$$$%%&&&===-;>147wye74<:-=&%%$$$$$$$$$$%%%&=&%%$...            X  ..$&&->>-&%$$.    ## X ...$$$$%&%*%&&*&&%&",
";;,1479qqqq985411::-=%%..$$$%%%&&=-;>147wy041>--&&%%%%%$%$$%%&===&%%$$...          ...$%&--<;&%$..   ##O# X  ..$$$$%&&%*&&*&%%%%",
";;,27eipaaaaaiyw952,-=%$$.....$$%%&==-:>157ww52>;-=&&%%%%%%%&%&=-=&%%%$............$$%&=;<>=%$.  ###OOO# X....$$%%%%&&&&&&&&%%%%",
":,15qiaBpNmmNpBaiw82>;&%$$.......$$%&&=-;:<259w72>:-=&&%&%%%%%%==;--&%%%$$$$$$$$$%%&&-:>>-%$.  #OOO@OX#   ...$$$%%%&&&=&&&&&%%%%",
",,29uaBNnnjjjnmMBpe92,;&&%$$.. ...$$%%%&&=-><149051>;-=&%%%%%&&&&-;>>--=&&&&&&&&=-;;>1>&%$.. #O+@@+XX#   ...$$$%%%&&&&===&&&%%%%",
"125eaaNjgeddgggnMBauq41:-&%%$... ...$%%%%&&=-><25072<;-=&&%%%&%%&&-;<11<>::::::><<2>-=%$.. #OO@++@OXX   ..$$$%$%%&&&=======&&%%%",
"25wiBmjdddffffddgnMBae82,;-&%%$.. ....$%%%%&=-;>15072>;-&&&&%%%%%&&-->>124444421>:=&%$$. #O@@@o@+O##    ....$%%%&&&====---=&&%%%",
"89uaNjddffhhhhffddsnMBie51,-=&%%$..  ..$$$%%&&=->14941>;=&&%%%%%%&&&&=-;;:::;;-==%%$$.. #OO@ooo@O##X  . ...$$%%%&&&=----:--=&&%&",
"wyaMndffhhllllkhhffdgnNapw51,:-&%$$.  ...$$$%&&=-:<474<>-&&%%%%%%%&&&&&==&==&&&%%%$..  #O@oo@@oO#  X   ...$$%%%&&=--->>>>::--=&&",
"iaBndfhhlzzzclclllkhffdjmape52,;=&%$.  ....$$$%%&-;>241:-=&%%%%%%$%%%%%%%%%%%$$$$...  #OO@@@XXX#XX   ....$$%&&--;><<2433421>--==",
"aBmgfhlzcvvCvvccczlklkhfdgmBpe52:-&%$..   ...$$%%&=-:<<>;==&%%%%%%$$%%%%$%%$$$$...   #OOOX##X.XX  ....$$%%&--:>2470wryuywq841:--",
"BMjdhlzvvvvvvccllkhhhhhfhffenBpw51:=&$$..    ..$$%%&=-::;-&&%%%%$$$$%%%$$$$$....    ##X .    ......$$%%&-;><5907755789weyuiw51-;",
"MngfhzvVCCcclllhffffffffffffddmBp94,-&%$$..  .....$%%%=--=&&&%%%%$%$%$$$.$$...   .   X  ....$$$$%%%%&-:>1542>>;:-:::>><24579771,",
"nsdhlvVCCvcclhhfddddgggggdddffdgMay81:-&%$$...   ....$$%&&&%%%%%$%%$$$$...... .    ....$$$%&&&&&=-;:<241>-==&&%%%%&&&=;->>122231",
"jsfklvCCCvclhfffdgsjjnjbjsggdddfdnBpq4,;=&%$$...    .....$$%%%%%%%%$%$$.$.....  ..$$$%%&&---:><>1141<:-&&%$$$$$$$%%%%&==->>><<11",
"MngfkcvCVvczlhffdggjnnnjbjjsgdfdfgnBpq41;=&%%$...     .......$$$$$$$........   ..$$$%&&&=-->>>>>>:;-=&%%$$$....$.$$$%%&&=-->>:;>",
"paMsfkzcvvczllhfffddgjjjjjjsgdfdfddmBi93>;=&%%....       . ..............  #  . ...$%%%&&&&======&&%%$$... ......$$$$$%&&*&=&&==",
"50iBjdhlcccvzllhhffddfgggjggdddfffdjMay82>-=&%$$...      . . ..... . ..   ##  .....$$%%%%&&&&&%%%%$$.....   .....$$$$$$$%%%%%$$%",
"><7yBjdhllcccczllhhfffdddddddfffhfdsmBiq41;=&%%$$..        . .... ..     ##   ....$.$$$%%%%%%%%%$... .      .....$.$$$$$$$$$$...",
"=->4yBndfkczccczllhhhfffffffffhhffdgnMar82>;=&%%$.....          . .        . .....$$$$$%%%%$$$$$....   #   ....$.$$$$$.$....    ",
"=&*;3tBndfklcczzzllllhhhhfhhhhhhffdgjMBpw51>;=&%%$...        . ..   .     .....$$$$$%%%%%%%%$$$.$.   ##    ....$$$%$$$$...  ##  ",
"::=&:1wpmgfhlczxxczzzllllllllkhfhffdgnBay941>==&%%$$$...    ... ..  .......$$$%$%%%&&&&%&%%%$$$....   ##  ...$$$%%$$$$... #### .",
"52,=&-10pMsdhkzccvvvcvccczzckkhhfffdgbMBpe72,>-=&%%$.$$....... . . ..... ....$.%$%&&----==&&%$$$$...  #   ...$$%%%$$$...  #OX   ",
"py51=&-19pBjdfklcvvCCVVCvzzlkkhhfffddsnMaiw72>>;=&%%%$$............ .  .........$$$%&=:>:--=&&%%$..   ##  ..$$$$%$$$..  ##OX   .",
"mBp91-&-<7uandfhlcvCVCCvvzlllkhhhfffdgjmBaiw72,;;=&%&%$$$$$$..... .    .        ..$$$&&->1<--=%%$$..   #   ....$.$...  X#o## ...",
"dgnBw1-&->5yamgfhlcvcvvvcclclkhhhhhfddgbmBauq72,>;=&&&%%$$$$.$... ..   ####  #    ...$%&=:11>-=&%%$$..      .......  ##OoO#  .$$",
"gddbBe4:&*;1wpMjdfhkzzzczzlzlllkkhhffddgbMBau0721>;-=&&&%%%$$....  ..   # ####OO     ..$%&;>31>=&%%$... ##        ##OO@@O#  ...$",
"jsddbBr4:=&;17uBnsdfhkllzzzzclllllkhffddsnNBpy0521;;-&&%&%%$$$.$....   ##O#### ## ##   .$%&-:11>;*&%$$.  # ######OOO++@OX# .$$$$",
"njsddnBe4:=&-15eaBjddfhkllzllclzllkkhhfdgbmBpyq52,:-=&&&%%%$$$$$$. .    ####OO#### ##   .$%&=:12,-=&$$.. #####OO@+++o@OX# ..$$%%",
"mmjgfgMaw2:=&;,5waBnsdffhhlzzzzczzllhfdgjNBpuq841,;-=**&%%%$%%$.$....  # ############    .$%&-:21:=&%$... ##OOO+@++o+OO# .$%%%%&",
"BMbdfdjBi81;&&;16eaMngdfhhkzzzvcvzlhfdgjMBauw821,:;==*%%%%$%%%%%$....   OO ##########    .$$%=;11:=*%$$..    OOO@++++OO..$%&&&=="
};
