/* XPM */
static char *result[] = {
/* columns rows colors chars-per-pixel */
"128 128 47 1 ",
"  c #5B5E9D",
". c #5E61A1",
"X c #6163A5",
"o c #6466AA",
"O c #6768AD",
"+ c #6869AF",
"@ c #6A6CB3",
"# c #6D6FB9",
"$ c #6F70BC",
"% c #7072BE",
"& c #477CCF",
"* c #4A7ACE",
"= c #467ED0",
"- c #4E7AD1",
"; c #527BD4",
": c #567CD9",
"> c #597EDD",
", c #7375C4",
"< c #7577C8",
"1 c #7679CC",
"2 c #777BD3",
"3 c #777EDB",
"4 c #5B7FE1",
"5 c #3F89DB",
"6 c #4482D4",
"7 c #4386D9",
"8 c #4189DC",
"9 c #7780DF",
"0 c #5E80E5",
"q c #5F82E8",
"w c #6283EB",
"e c #7781E1",
"r c #7882E6",
"t c #7884EB",
"y c #6686F2",
"u c #6887F4",
"i c #6988F6",
"p c #6D8BFC",
"a c #7987F1",
"s c #7A89F5",
"d c #718EFF",
"f c #7C8CFD",
"g c #7591FF",
"h c #7C94FF",
"j c #7E98FF",
"k c #8195FF",
"l c #8199FF",
/* pixels */
":40ipdgjllkffate322<,%@o.   .oX     X+@#,,<1233rtssfkklljhgddiyq4::--***&&==&&**-;:>0updgjllkkfat332<<%$@o.   .o#$,12239tr92222<",
";:400idgjjlkkfatte32<<%@+X    Xo     Xo@#$,<12233rtsffkkkljjgdduqq>:;;-***&=6=&&**;:>0widghjlkkffte332<<%@oX    X+$,11233rtr922<",
"*-;:40upghjlkkkfare32<<,$@o    X+X     Xo@#,,<2233rrssfkkkllhggddyq0::;--**&&==&&**-::>wupgglllkffat332<<,$@o.   .o@$,1223rtr932",
"**-;:40yidhgjlkfffte332<,%@oX    ooX.    Xo##,<<,233rttsfkkkljjjgdiyq4::--&**&===&**-;::0updhjllkkfate3222<%@o.   .o@$,1<239ttre",
"*&**;;:0yipgjjllkffate32<<,$@o.   X+oX     o++#,<2233rrtssffklljhgddyyq4::---**&&=&&**-:>0uudggjllkffate32<<%@+o.   X+$$,2233rat",
"6=&**-;:40ipfgjllkkfate332<%$@o    .o+o.    .o+##,<<2333rasffkklljjgdiyq04:;;-**&&=&&**-;:0wupdhjlkkkfat3322<,$@o.   .o+$,<1239t",
"66=&***;:400ipggjlkkffte332<<%#oX    o++X.    Xo+##,<2233rtssfhkkllhggddyq4>;;--**&&=&**-:::0updgjjlkffftee32<,%@oX    o+$,11233",
"766&&&**-;:40upghjlkkhfaee322<,#@o.   Xo@oX     X++#,<<2233rttsfkhkljjjgdiyq4>;;-&**&&&&**-::0wipggjlkkffate322,,#@o    .o@$1122",
"8866==&***;:40yidhjjlkffate332<<$#oX    o@@o.     X++#,<2233rrtssffklljhggduyq4::;--**&=&**--:00wpdgjjlkkfate332<,%@oX   .o@$,22",
"58776==&&**;;:0yiphhjllhfftte32<<,$@o.   X+@+oo    .o+##,<<2233rtsffkklljjgddiqq>:;;-***&&***;;:0widggjllkffaee32<<%#@o.   X@@%<",
"65587566&&**;;:40updgjllkffate332<<%@o.   .X@@+o     Xo+##,<2223rrssffkkllhggdiyq4>:;--**&&&**-;:40updgjllkkfate32<2%$@o.   Xo+#",
"55558877=&&&*--:40wipgjjlkkfste332<<%#+X    o+#@o..    X++#$<<<239rttsfkkkljjjgdiyq4:;;-***&&&*-;:40ypdgjjlkkfaae332<<%#oX    X+",
"5555557766&&&**;;:00upgjjlkkkfate322<,#@o.   Xo@#+oX     X++#,<2222rrassffklljhgddiwq4:;;--**&&**-;:4wypdgjlkkkfat333<<,%@o    .",
"885556587776&&&**;:40wsdhjjlkffatr332<<$#+X    o+$$+o.    .X+#$$<12339rtsffkklljggddyw04:;;-***&&*;;:4wypdgjjlkfffte322<<%@oX   ",
"758555558876&6&&**;;:0yiphgjllkffare32<<,$+o.   .++$@+X.    Xo+#$<,<2339rssffkkllhggddyq0:;;--**&&**;::4wipgjjllhffare322<,@+X. ",
"65758555585766&&&**-:::0ypdhjllhhfate332<<%ooX   .o$$$#oX     o++#$<<>239rttsfkkkljjjgdiyq4>:;-&*****-;:40ypdjjlkkkfate322<%%@X.",
"=6675585558877766&&**-::00idghjlkkfste332<<%#+X    o@#$#+oX     X+#$,12233rtassfkklljhgddyyq4:;;--****--:40widgjjlkkfftee32<<%@+",
"&=6657588555886666&&**-;:00updjjlkkkfate322<<$@o.   .o$$$#+o     X++#$,1<229rrtsffkklljjgdduwq>:;--**&**-;:4yupggjlkkffate322<%#",
"&&==666778855885776&&**-;:40yidhjjlkffatr332<<%@o.    o##,$+oXX    X+@#,,<22333tssfhkllljjddiyq4::;--****-;:40ypdhhjlkffate3222,",
"-*&&==66555855885766&&&**--:0yipgjjllkffare322<%$@o.   .+@,,##o X    X+@#$,2<233rttsfhkkllhjgdiyq44:;--****;;:00idgjjllkffare322",
"--**&&==6657885585767&&&**--:40updgjllhhfate33<<,%@o.   .o@$,,@+oX     X+@$,<2233rtassffklljhggiiyq4:;;--****;:40ypdhjlkkkfate32",
":---**&===657588588766&=&&**-::00idgjjlkkfste332<<%@+X    o+#%,,#+XX    XX+#$,<22399rtsffkkkljjgddyq0::;;-****;:40ypdgjjlkkfatre",
"::;---**&&=66675885885776&&**--:40upggjlkkkfate32<<%$@o    X+@$,,#++XX    Xo@#,,<2233rrssffkkllhggddyq0::;--**-;;:4wupdhjlkkffat",
"qq4:;;--**&==665758588677&=&**-:::0yidgjjlkffate3322,%@o.    X@$,,$#+XXX    X+@$,<<>233rttsfkkkljhjgdiyq4:;;-&**;;:4wypdhjjlkkfa",
"iyq4>:;--**&&==66558888577==&&**-::0yiphgjllkffare322<,#@o    X+@$,,$#++X     X+@,,,22232rassffklljhgddyyq4:;;-**-;::4wiphhjlkkf",
"gdiyq4>;;--**&==66555888876===&**-:::0ipdjjllhhfate322<%%@o    .o@#,1,$#+oX    Xo@#$,112333rtsffkkkljjgdiyw0>:;;-**-;:4qypdgjllk",
"jggdiyq>::--***&&=6657585877&6=&&**-:400ipgjjlkkfatte32<<%@@X    X+#,,,$$@+X.    XX+#$<22233rrtsffkkllhggdiyq0::;--**-:4qypdghjl",
"ljjgddiqq4:;;--**&==665788877&===&**--:40upggjlkhkfate32<<%#@o    Xo@$,1<$$@oX.    X+##,<<2239rttsfkkklljjgdiyq4::;-&--;:4wypgjj",
"kkljggdiyq4>:;--**&==6667788877=5=&**-:::0yidhjjlkffate322<<%@oX    X@$,<<<$$@oX     X+@$,22223rrassffkllhjggdyyq4:;;---;:>qypdg",
"fkklljjgdiyq4>:;--**&&=666788887&&=&&**-::0yipgjjllhfftte322<%#@o.   X+@$,1<$$#+oX     X+@$,21223rrtsffkklljjgdiyq04:;;---::4wpp",
"ffkkllhhgddiwq4>:;--**&&=6667787775==&**-:::0updgjjlkffate322<$$@oX   Xo+$,<<<,$@#XX    X+@$$<<22233rssffkkllhggddyq4>:;----:4wy",
"tsffkklljjgdduy04:;;-***&==6657587776=&&*--:400ipgjjlkkfatte322<%#+X    o+$,,1<,,##oXX    X+@#$,<<233rttsfkkkljjjgdiyq4>:---::44",
"erasffkklljggddyq4>;---**&&=666775777&==&**--:40upgjjlkkkfare32<<$$@oX   .+$$,12<$##+oX     X++#$<2<23rrtssffklljhggiiyq4::--;;:",
"39rtasfkkklljggdiyq44:;--**&&==6575887&&=&**-;::0uidghjlkffate322<%$@oX    o+$,112<<$#+XX    X++#,,<22399rasffkklljjgdiyqq>::-;;",
"2299rassfkklljhggdiyq4::;--**&&=666758776=&&**-::0yuphgjllhffare322<%$@X.   X+@$,1:<<,$#+X     Xo+#$,<2233rrssffkklljggdpyq4:::-",
"<12299rtsfffklljjgdiywq4:;;--**&==66777776==&**-:::0ypdgjjlkffate322<<%@o.   .o@$,,12<<,#@oXX    X+##,<<2239rttsfkkkljjjgdiyq4::",
",,112999rtsffkkkljggdpyq0>;;--**&&=666577556=&&*--:400idgjjlkkfftr332<,%@@o    oo#,,121<$$#+oX     o++$<<2223rrtssffklljjjdiiyq:",
"+$$,122299rssfkklllhhgdiyq4>:;--**&==66577775==&**-;:40upgjjlkkhfate322<,#@o.   X+@$,<2211,$++oX    .o+#$,222299rtsffkklljhgdiuy",
"o+@#,,12233raasfkkllhhggdiyq4:;---**&&=6657576==&**-;:40yidgjjlkffate322<<%@o.    o@#,1122<<,$#+X.    Xo+#$,<<2233rssffkllljggdi",
"  o+@$,,12239rtsfffklljgjdiuy04:;;--**&==66577&6=&&**-::0yiphjjllkffare222,%#@o    Xo@$,1222,,$#+o..    Xo@$,<22233rttsfkkkljjjg",
"   .+@#$,,1239rrtsffkklljggdiyw4>:;--**&&=666577===&**-::40ypdhjjlhhfate322<,$@oX   .o@$,122211,$@+oX     X+@$,<2223rrtssffkllhj",
".    Xo@#$,12229rtasfkkkllhhgdiyq4>:;--**&===65776==&&*--:400idgjjlkkfste332<<%@oX    X@@,,1222,,$$++oX    X++@,,112223rtsffkkll",
"oX     X+@$,112233rtssfkkllhhgdduwq4:;;--**&&=666766==&**-::00upggjlkkkfate322<,$@o.   Xo@$,12221<<$,++X     X+@$$,1223wrrasffkl",
"#oX      X+@$,1<2233rtsfffklljhgdiiq0>;;;--**&==66566==&**-:::0uidgjjlkffate332<,$@o.    o@#,112321,,,$++XX    o+@#,<22233rttsfk",
"%#@X.      +@$$,<2233rrasffkklljjgddyw0>;;-&**&&=666676=&&**-::0yiphgjllhffaee322<,#@X    Xo@$,123221,,$#+oXX    o+;$,<<2233raaf",
"<<#@oX      X+@#,,12239rtasfkkklljjgdiyq4>;;--**&==66655==&**-:::0ipdjjllkhfate332<,$@o.   .o@$,112332<2<,##XX    Xo+#$,<,223w9a",
"22<,#+X.      o+@$,<2223rrtasfklllhhggdiyq4>:;--**&&=6656==&&**-:400idgjjlkkfatee32<<%@+X    o@#,,2223221,$##+X     X+@$$,,<293e",
"32<<%$@o.      .o+#$,<22333rasffkklljjgdpuy04:;;-**&*==6656==&**--:4wupghjllkhfate322<,%@o.   Xo@,,1223322,<<#+oXX    X+@$,,<233",
"e3322<$@o.       .o+#$,12223rrssffkkkjjjgddyq4>:;--***===666==&**-;::0widgjjlkkfate332<,%#o.    X@#,12232321<<$#@oX     X+#$,1,2",
"tte32<<,#+o.       X+#$,,11223rttsfkkklljggdiyq4>:;--**&&==666=&&**-;:4wipgjjllkffar3322<%#@oX   X+@$,12233321<1$@+XX    XX+#,,<",
"fate322<,$@o.        o++#,<1223wrtasffklljhggdiyq4::;-***&&=666==&**--:40ypdgjjlhhfate332<%$@o.   .o@,,122333221,1$@+X     Xo@$%",
"kfftre322<%#+o.       .o++$,<1223rrtsfffkkljjgdiuw04::;--**&==666=&&&*;:40yidgjjlkkffte332<<%@@X    o+#,,1233932111,#+oXX    .o@",
"kkkfate322<,$@o.   .    .o++$,222339rasffkkkljggdpyw4>;;--**&&=666=&&**;;:4wipdjjlkhhfate322<,$@o    Xo@$,<223r3221<$$#+oX     o",
"jlkhfate322<<%@oo    .    .++$,,11233rtasfkkllljggdiyq4>;;--**&&==66&&***;:40widhjjlkffste332<<$@oX    X@#,<123393221<,$#++X    ",
"jjlkhffat3322<%#@o.   ..   .o+$$,<1223rrtasfkkllhjggdiyq4:;--***&&=6=&&&**-;:4yipgjjllhffate322<%$+o.   Xo$$,1229r93211,1$#+X.  ",
"ggjllkfffte3322,%@o.   ..    .o++$,<<2333rasfffklljjgdiiyq4:;;-***&==6&=&**;;:40ipdjjllkkfate32<<<%ooX   .o@$,,2239r932111$#+o..",
"udggjllkffaee32<,%#+o.   X.    Xo@$$,<22233rtsffklkljggdpyy0>:;--**&&=6==&&**;::0uidgjjlkkfftte32<<%#+X    o@#,1,229r932221,#$+o",
"wupdgjlkkkfate32<<%$@o.   ...    .++$,,122339tasfkkllljjgdiyq4>:;--**&==6=&&**;;:00upggjlkkhfare322<<$@o    Xo@,,1223wr92221,,$#",
":0updhgjlkkfste322<<%@oX    o.     o+$$,<2223rrtssfkklljhggdiyq4:;;--**&&==&&***;:00updgjjlkfffte332<<%@oX    o@$,11233rr99221,,",
";:>uipggjlkhffate322<,$@o.   .o.    .o+#$,<22233rtsffkklljgjdpiyq44;;--**&===&&**--:0uuphjjlkhffare322<%$@o.   X+@$,1233rtr923<<",
"--:00updhjjlkffate3322,%@o.   .oo.    .o+#$,<22239rtsffkkkjjggdiyq4>:;-&**&&==&&**--::0updhjllhkfate33<<,%@o.   .X@#,12233rr9332",
"**-::00iphgjllkffar332<<%@+o.   .o..    X+#$,,<22339rasfkkklljjgdiyq4>:;--**&&==&&*--::0widggjlkkfate332<<%#+X    X+#,,1239rar93",
"***-;::0ipgjjllkkfate32<<,#@o.   .oo..    o++$,<2223wrtasfkklljjgddiyq4::;--**&&=&&**-;:0wupgjjlkkkfate32<<,#@o    X+@$,1223rate",
"=&**-;::0widgjjlkhfste332<<%@oX    o+o.    .o+#$,<<223rrtsfffklljhgdiiyq4:;;--**&=&&**-::00updhjjlkffate332<,%@@X    o+$,11299ta",
"6==&**-;:00iphgjlkhhfate32<<%#+o.   Xo+..    .o+#$,<22333rasffhklljjgddyy0>:;--**&==&&**-::0wupgjjlkhffar3322<,@@X.   X+$$,1239e",
"666=&**-;:40updhjllkfffte322<,$@o.    o@oo.    X++#,,<2233rtasfkhklljggdiyq4>:;--**&=&&**--::0updhjllhhfate322<<%ooX   .o@$,2223",
"766=&&***-;:0yipghjllkfftee322<%#@o.   X+@oX.   .o+$,,<1223rrtasfkllljhggdiwq4:;;--**&&&&*--::0widggjlkkfatte32<<%#+X    o+@$,,2",
"887666&&***-:40upggjlkkkfate322<,#@oX   Xo@+o.    .o+#$,<<223rrtsffkklljjjdduyq4:;;--**&&&**-;:0wupggjlkkkfare322<<$@o    .+@$<<",
"5588666=&**--:40widgjjlkhfate322<,%@oX    X+++o.    .o+#$,<22339rasffhkkljggddyq04;;-&**&&&**-;:40ypdghjlkffate332<<%@o.    o##,",
"55558776=&&**;;:0yipgjjlkhffate32<<,$@o.   .o$@+X.    X+#$$,<2233rtssfkkklljjgdiyq4>:;--**&&***;;:0wyphhjlkkffare322<%$+o.   X+#",
"555558766&&&**-::40yidgjllkffate3222,$@+X   .o+$+oX.    o++,,<22233rtssfkklljhggdiwq4::;--**&&**-;:40ypdgjllkkfate33<<,%@o.   .o",
"55565587756&&&**-;:0yiphgjllkffate322<%$+X.   .+$$@X.    .o+#,,<22333rtsffkklljjjdpuyq4:;;--**&&*-;:40widggjlkkfste332<<%#+..   ",
"588555587777&&&**-;:00ipdjjlkkkfat3322<%$@o    .o@$++X.    Xo+#$,<2223rrtsffkkkljjgddyq4>;;--**&***-;:4yypggjlkkkfate32<<%%@o.  ",
"5778555558877&&&&*--:40widgjjlkffate3322<%@oX    o#$$@oX.    Xo+$$<<22339tssfkkklljggdiyq4::---***&*;;:40ypdgjjlkffate332<,%@@X ",
"6675885555855776&&**;::0wipdjjlkkffate32<<,#@o.   .o@$$+o..    X+#$<<22233ttasfkklljhggdiyq4:;;--**&**-;:40ipgjjlkhffare32<<%@+o",
"==65578855585877&&&**;::40ypdhjjlkffate3222,%@o.   .oo$$#+o.    XX##$,<<2333rtsfffklljjgdiuy044;;--****-;:40ypdgjllhhfate33<<%%+",
"&&=66677885588766&&&&**-::0uidhjlllkfftre32<<%#+X.   .+#$$$+o.    X++#$,<2233rrtsffkkkljggddyw0>;;--****-;:40widggjlkkfate3322,#",
"*&&==665758855857766=&**--:40ypdhjlkkkfate32<<,#@X.   .o#$<$++X.    X++$$,<2239rrasfkklllhhgdiyq4>;;--****;;:4yupdgjlkhkfaee32<<",
"-***&==6675885558777&&&&**-:40yidggjlkhfste322<<%@oX    o+$,,$+oX     X++$<<2223wrtssfkkllhhgdduyq4:;;--****;:40ypdggjlkffate332",
":--**&===657588588557&&&&**-::0yipgjjlkhffate32<<,$@o.   .o#$,$#+X.    .o+#,$<22233rasfffklljhgdiiwq4:;;--***-;:4yyphjjllkfftte2",
">;--**&=&==667588585877&&&**-:::0ypfgjjlkfffte3222,$@oX   .o+$,,$#+o.    X++#$,22233rrssffkkkljjgdiyy0>;;--****;:40ypdgjllhffate",
"q4:;;-**&&==6657588888666&&&**-::0uidgjjllkffaee322<%@oo.   X+@$,,#++X.    XX@$$,21233rtasfkkklljggdiyq4>:;--***;:40ypdgjjlkkfst",
"uw0>::--***&=6667758885866&=&**--:00ypgjjlkkkfate32<<,%@o.   .o#$,,$$+oX.    X+@#$<22333rtssfkllljjggpiwq4::---*--;:4yypdjjlkkhf",
"diuq4>:--&***&=665778888676&=&&*--:40widgjjlkffste332<<$@oX    o+#,<,$@+o.    XX+@,,<22233rtsffkklljjgdpuy0>:;;--*-;:40ypdgjjlkf",
"jgdiyq4>:;-***&&==66778888867=&&**--:00ipdjjlkhffate32<<,#@o    .o@$,<,$@+o.    X+@$,,<<233rrtsffkklljjgdpyw0>:;-&*--;:4wyphhjll",
"jjgdiiwq4::;--**&==66575888677==&**-;:00ypdhjllkfffte322<,$@o.   .o#$$<,$$++XX    Xo@#,<<<233rtasfkkllljggdiyq4>:;--*-;:4qypdhjl",
"kljggdiuw4>>;--***==66655888875&=&&**-::0uipgjjllkffaee32<,%@@o.   Xo#$<2,$$++X.    o+@$,,2223rttasfkklljjgddiyq4>:-----:>4wpdgh",
"kkllhjgdiuw4>:;--***&=66575587775==&**--:40ipdgjlkkkfate32<<$%@o.   .o@$,2<,$#@o.    XX+@$$<,233rrtsfffklljgjdiuwq4:;;---;:4wypg",
"fkkkljjggpiyq4:;;--**=&==667588777==&&*--::0yidggjlkffstt322<<%#oX    o+#,,<,,$@+oX    Xo+#,,<2233rrtsffkkljjjddiyw0>:;----::qyp",
"sffkklljjgdiiwq4>;;=-*&&==6657588765=&&**-::00ipdjjlkhffate32<<,#@o.   .o#,,,,<,$@+X     Xo+#,,<2233rtasfkkklljggdiyq4>:;---::4w",
"tasffkklljjgdduq0>:;--***&==667558776==&**-:::0ypdhjjlkffate3222,$@oX    o@$,22<,$#@oX     X++$<<21239rtssfkklljjgddiyq4:;---::4",
"39rasffkkllhjgdpyw4>::--***===65758776&=&&**-::0widghjllkfftre32<,%@+X.   X+#$,<2<<$#++X    .o+#$$<<2233rasffkklljjgdiiyq4:;;-;:",
"2399tasfkklljjggdiyq4:;;-***&==6667757&&==&**--:40ipghjlkkkfate322<,%@oX   .o+$,<111<##+X     Xo##$$<2233rrasffhkkjjjgddyy04:-;;",
"<2239rtsffkklljhgdiuw04:;;-**&&==6657877&==&&*--:40yidhjjlkhfatee2<<<%#oX    o+$,<122<,#++X.    X+##<11223wrtasfkkklljggdiyq4::;",
"<222293rtsffkklljjgdiuqq4>;--***&=66675776&=&&**-;:00ipdjjlkhffate32<<,#@o    .o@$,<2211##+oX.    X+#$$<22233rtasffklljhggiiyq44",
"#$,12223wtssffkklljggduyw4>;;--**=&=66577765==&**--::0ypdgjllkfffte322<,$@oX   .o+,,12211$,++o.     X+#$,<<2233rtsffhklljjgdiuq0",
"+@$,1122399tasfkkkljjggdiwq4>:--***&&==66777&==&&**-::0uipggjllkffaee322<,#@X    .+#,,2211,,$++X     Xo##$,,2223rrtsffkkkljhgdiy",
".Xo@$,112293rtsfffkkljjgdduwq4;:;-***&==6657756=&&**--:40ipdhjlkkkfate322<,%@o.   .o#$,,2221,$$#+X     Xo+#<<<12239tasfkklllhhgd",
"   o@#,,11239wrtsffkklljjgdduq0>:;;-**&&==667566&=&&*--:40yidhgjlkffate332<<%@+X    o+$,<1222<,,#++X     X+@$<<,223rraasfkklljjg",
"    Xo@#$,12223rrssffkkllhjddiyw4>:;--**=&=665776&==&**--:4yipdgjlkhffate32<<,@@o.   .o@$,1232<<,,#+o     Xo+@$$<12233rtsfffkllj",
".     X@@$,,1223wrtasfkkkljhjgpiyq4>;;-***&&=6667&6==&**-:::0ypdhhllkfffte3222<$@o.   .o@$,122222,,#$+X     X++#$,122233rssffkkl",
"+X.     X+@$,<12239rtsffkklljjgddiyq4>;;--**&==66577==&&**-::0yidhjjllkffaee32<<%#@o.   X@#%,12321,,,#++X     X+@$$,1<233rrssfkk",
"%@o.      o@#,,<223w3rtsffkklljggdpuw4>4;--***&=666766=&&**-::40ipggjlkkkfate32<<,#@o.   Xo@%,1223212,,#++X     X+#$<,2233wrtssf",
"<%@+X      Xo@##,<2233rrssffkkllhggdiyq4>:;--**&&=66576==&&*--:40yidgjjlkffstee22<<%@oX    o@$,,122322<,$#+XX    Xo+#$<<<223wrra",
"2<,#@o.      Xo+#,1<223wrtasfkkkljjggdiyq4:;;-&**&&=6667===&**--:4wipdjjllhffat3322<,#@o    X+@$,1223221,$$#+XX    X++#,,<22299t",
"32<<%@oX       o+#$,122232rasffkkkljhgddiyq4:;;--**&==6656==&**-;:40wsdghllkfffte3322,%@oX    o@$,22232221<,$+XXX    X+##,,<1233",
"e322<%#+o.      .o+#,,112339rtsffkklljggdpuq0>:;--***&==666==&&&*;;:0yipggjlkkffaee322<%@@X.   X@#$,,2332211,$#+XX     X++,,<132",
"t3332<%$@oX       Xo@##,<<2339rasffkkllhjgddyq4>:;--***&=6656=&&**;;:4wupggjlkkffate322<,$@oX   Xo#$,<1233222<,$#++X    .o+#$,,2",
"ate332<,,@oX        Xo+$,,<2299rtasfkkkljjggdiyq4>:;--**&==6666=&&**;:40uidgjjlkffate32<<<$#+X    o+#,,12333221,$##+X     .o@#%%",
"kfate32<<,#@o.        o+##,112339rtspfkklljjgdiiyq4>;;-***&==666&&&***;44yipgjjlkhffate322<%#@X.   .o#,,12332221<<,,++X.    X+@#",
"kffatt322<,$#oX        Xo+#,,112399rasffhklljjgddyq0>;;--**&===666&&***;:40updhhllkfffte3322<#@oX    o@$,,129933211,,##oX.    X+",
"llkfsate32<<%$@o         Xo@@%,,,2339tasffkkllhjgdiyq4>;;--**&&=66==&&**;::0uipgjjllkffaee322<,#+o.   o+@$,1229r32211,,@+o.    .",
"jllkffate322<,%@o.         X+@$,,<1239ttapfkhlljjjgdiwq4::;-&**=&==6&&&**-;:0wupdgjlkkkfate32<<%$@o.   .o+$,1229r92221,,$#+o    ",
"hjjlkkfstee32<<%#+X    X     X+@$$<2<239ttsffkklljggdpiyq4::;--**&==6=&&***;:>0yidgjjlkffstr3322<%#oX    X@$,11299r93311,%#@oX. ",
"pdgjlkkfftte322<,#@o.   X.    Xo@#%,<22339tasffkklljggdpuq0>:;--***===6=&&**--:0wipggjlkhffate32<<,#+o    Xo@%,1299r993322,$#@o.",
"ypdgjjlkffatt322<,%@oX    X.    Xo+#,,<22299tasffkklljjddiuq4>:---**&&=6==&**--:>wwpdghllkffate322<%$@o.    o@%,11239t932211,$$+",
"4wupgjjllkhaate32<<%#@o    XX.    o+##,<22239ttaffkkkljhjgpiyq44:;-&**&&=6=&&**-::0widhjjlkkfftre322<%$+oX   X+%%,22399t93222<%%",
":4wupdhjllkkfate322<,$@oX   Xo.    .o+#,,<22239etsffkllljjgdiiyq4:;;--**&===&&**--:>wupggjlkkkfat332<<,$@o.   .o@$,<223ett9322<<",
";::0ypdgjjlkkfate332<,%#+X    oo.    Xo+#$,<<239etaffkkkkljggdduq0>:;;-***==6=&**-:::wupdhjjlkhfatee32<,%#oX    X+#,<223eet9322<",
"*-;:0wupdgjlkkhfae332<2,$+o    X+o.    Xo+##,<2223etaaffhlllhggdiyq4>:;--**&===&&**-::0wupggjlkhffate32<<%$@oX   X+#,,<233eat932",
"**-;::0updhjjlkffate322<,$@o    .ooX.    X+##,,<223ettafffkkljjggpiyq4:;;--**&&==&**-;:00updghllkffate3322,$@o.   .o+#,<223eette",
"&***;;:0wypgjjllhfaate322<%#+o.   o+o.    .X+##,<<223ettaffkklljhgddiyq4::;-**&&==&***;;>0yudgjjllkffaee32<<%#oX.   X+#,<222etat",
"==&**-;:0wypggjllkkfate322<<$ooX   .o+o.    .o+#,,<<233ettfffkklljggdduqq>:;-****&=&&**-;:0wupgjjlkkkfate322<$$+o.   .o+,,<<23et",
"6==&**-;::0wppgjjlkkfate332<<%#+X    o@oo.    .o###,<<223etaaffkkllhgddiyq4>:-;-**&&=&**-;:00ypdgjjlkffate322<<$#+X    o@#$<<23e",
"767&&&**-::4wypggjlkkhfat3322<<#@o.   XO@oX.    Xo@$,<<<23ertaffkhkljjjgpiyq4::---**&&&&**-::4wppgjjlkhffate32<<,#+X.   Xo@$,<23",
"86666=***-:;>qypdgjjlkffate3321,%#oX    o++o.    .o@@$,<22233rtaffkklljjgdiiyq0:;---**&&&**-;:4wypgjjjlkfffte3221,%+oX    o@$,<2",
"888776=&&**-;:4wupggjlkkksarr321<%@+X.   Xo@@o.    .o+#,,<22339rtaffkkkljjgdpuw0::;-;**&&&**;;;>4wppgjjlkkkftr9322<##OX.   X+#,<",
"5887776=&&**;;:>wypgjjlkkffatr321<,#@o.   .o@@oX.   .Xo@%#,122239taffhhklljjgppyw0>:;-***&&&***;>4wypggjlkhffatr322<,#@o.   .o@%"
};
