/* XPM */
static char *result[] = {
/* columns rows colors chars-per-pixel */
"128 128 42 1 ",
"  c #D932DA",
". c #DF33E0",
"X c #E234E4",
"o c #E636E9",
"O c #E937ED",
"+ c #EC38EE",
"@ c #EC37F0",
"# c #EE39F1",
"$ c #F23AF5",
"% c #F53CFA",
"& c #FA3EFD",
"* c #B747DD",
"= c #B947DE",
"- c #B648DE",
"; c #BD47E1",
": c #B74AE1",
"> c #BA4AE4",
", c #BA4EEA",
"< c #BC50EE",
"1 c #BE52F2",
"2 c #C248E5",
"3 c #C649E9",
"4 c #CA4BED",
"5 c #D14DEF",
"6 c #CE4CF1",
"7 c #D24DF5",
"8 c #D84FF6",
"9 c #D64FF9",
"0 c #D84FFB",
"q c #C054F6",
"w c #C357FB",
"e c #DA50F6",
"r c #DD51FF",
"t c #F740F9",
"y c #FD43FE",
"u c #FF4CFF",
"i c #E353FF",
"p c #EB56FF",
"a c #EF58FF",
"s c #FF54FF",
"d c #F459FF",
"f c #FD5BFF",
/* pixels */
"7yf:=rs &f;w;u;w=X   s:;rr47u   diOuy pi. %0u    uru s0y    s0%  fiyyfssrs    p:;0p;w>u.   ys:w,iO$i=*7dprrrrrrrrridfffsfffdirii",
"yp*4rfOuf=w4y:w2O   s,=0r*4y   fi&fs ii  Orf    yrs uru    yrs  srsXfs&id    s2*0i011ro   .u9qw:fXy7*-3dpirrrrrrrriripdddpirrrii",
"i=prf&si;we%:w4%   d1=i0:2%   s0uff#ia   rf    u0f yrs    Xrf  urf yuXf0%   u0=0i0;1=y    @s*ww*s u4--;pprrrrrrrrrirrrririipdfff",
"7frfyf0><d+,w8y  Xpw=p01=o   s7fdfyrd   ip  . y0f $rf     pr  y0f @sou0s   #i30ii0::i     %f,ww*uXu2-,*9pirrrrrrrrirrripffssuy&@",
"frdsp0;=sO;w0u  $0w=f9q=.   s3fidurd   pi.X$ y0f  rd     fr& $rp  yOXri    f0rf0i4:=y     &iqwq2yXu4-,-2iprirrrrrrripdffuy&o.   ",
"rifi02=s$:q0s  y7w>f6w=    u;7iif0f   f0o@y yrs  pi     urs Xir@ %o fry   srrfi0p==i.    .y2wwq3yOy7-,,-6ppiiiriipdfffu&@.    up",
"ifri0;sy*,rfXXs4w:s4w>X   t*;0rd6f   si&%s yrf  sr%    @id  d0&  o &rf   %rrsfrid*2s     .u:wwq3u@yp*:,:*9ppdaddfffsu&@.   Xudir",
"prad4su=-rfO$f3w>y6w:@   t:*0072f   yiu&fO&rf  u0u     iro fru  o  p0%   frfydifi;0%     .s:wwq3s@%f;-:::*7pffffssu&@.  oyfiriir",
"iff9fs2;rf&yf4w-&7w:&   y:,002=f   $rfyfy%id  +rf     f0y srs     uis   sriysppf76f.      f:wwq;f&%ui*-:::*20ffsuy&%%usfii0rrrrs",
"sursf4erpysd6w-#7w>u   &,w0i=*f    iiudu%id   pi  .  frs %ra     XiiO  %irs%fpff60s      .f:wwq*dy%&s0=*****=39idffdiirr0iiris  ",
"yrfd7frissi91-X0w>f.  y1wrp*:d    d7spfyri   f0% o  uif  pr%     frs   frfoyffuf9ru      Xf*qww>7s&%&sp4===;23699ri00idfirisX  @",
"0fprsprff00<>Xiw>f@  u,w7f*1i    f2fiduii.  uis o. y0d  f0u     $rio  uiry.ufsyfri%      .f*qwwq:ds&@$ysfpr00rrripffffrrrs@  ouf",
"diiyfrfd0i*2op,*d& Xs,w4f*w4    s29pifrr@  +rd O% #ii@ yrf      frs  Odrf.Osfuydrd@      .s;,www>;ds&@Xo@&yuyuuyyusdr0rf$ X%ufpi",
"0p&frdprp;4$d:*iu $f:w2s;w;    y;;i0f6r%   pro#u .p0y  p0$     yii@  s0i& %su%yiifX       u7:wwww>*0fu&O.  X@%ysfirrrf&O&usfirds",
"dXfrpirf99yf*;rs.yf*w;u3w:@   o*:0ip20y   sry#s@ frs  srf      f0f  %i0f. ys&ourif.       &d=,qwwwq:*6pssssffp97467fsyuffprrrfy ",
" uirriff0uf=3rf$yf2w=&7w<y   .;160i=7u   yrf$su srf  orr.     yr0% .frry  yu@ siif.       @s7-1wwwwwq1>-----****=9fffdp0rrrif%  ",
"yprrifsrsd300dyuf6w-%pw1s   .4q;00*;s    ii&sfOurp.  fru      fif  &irf. .y&X.firf.       .&f2*1qwwwwwwwqqq11,*2ipirri0irrps@ ur",
"frrdsyrfd7driusp01=%swqf@  Xiw>ii**f    frfsfy$ii&  &rp.     yir&  f0ry  o&@ .firfo        oyf7=:qwwwwwwww1>*30rrrripfdrrfuXtpip",
"0rfy@idd0fprfsir:*yy1wpy  Ofqqip:,r    yrispf%diu   dru     .fif  yirf@  O&X ofirf@         .&sf7=*::,,:-=49riiipffffirify%draia",
"0fy.pidrufrffii==s$:w7s. Osqwef;w=.   Xi2fdpyfrf   yrd      ui0y  s0rs   O@  ofirf&           .%ysfffdffffffffssuusfirpsuf0ifrf ",
"f% drdiufrifr07=f@*q4f% $f,w2f4w>%    f2ipifsiio   dry  o  OdrfX $d0p&   oX  ofirdy              .X@%&yyyyyy&%@$yfpi0ffprrfrr%Xu",
"O frdryui0drif;p@6,3py %f:w-spqqs    y2=d0dfrr&   urd. @.  s00u  urrfo   .   .firisO                   ..    .&sfiiii36rsfrf@ufi",
" sipr&ydipris4i%i*20sXyf4w1usqwr.    4:700f9rs    dru O&  $p0f@  f0rs    .    uprrfy                        @ufdr9;*;9syi0sufirr",
"yrpr&ofrrrpspryd=4rf&yf0wwsy:w=%    d-*iip79d    yrpX.y$  sr0s  @d0py         &frrif&                     Xysfi6:<-2f%f07sfi0i0f",
"riry uirrdssrsd47riuyfi:w0%3w1s    u:19i04;r%    drs &uo %drd%  &i0d&         @firrps%                  .%ufi*1w<=fOy027firiirfO",
"i0y ydrrfuyrff0ipifyf0;w>Odwwd%   #:q*ii6*6s    urr%%uu. srrf   u00f$          yfrrrpsyX               @yf4,www:do#p*-0rrpfirs%i",
"ru ofr0fyXpisrdfipuf091=%u1w2u   opq10i0:=f     frf@yf& $driy   s00f@          @spr0rpfsy+          .%s0*qwww:d$Od*,*rrpffrisf0f",
"s  uprfy.frfrfsprsf00:-so:w-f%  ou1w=p0:,3&    &rruyff% urrf@  .sr0f@           &fp0rrriffsuyyy&yysf0*>qwww=dy&d:q14rpfuf0pfrrs0",
"  ydif& uifrfydiffrr6*i.01>iu  Xy:w,pd2q*s     sipysfsOofrrs   .fr0f@            &sfirr000ripppi04;*:qww:=fsus:ww=0dfyydrp79ffry",
" yfif& $idrp$sirfrrd=6$s*17f% Xupww4f01,4o    Od9fuffuXyirpy   .frrf%             Oyffi0r00rr0942*:,,*;9affp:ww<efs&ospr7=rup9uf",
"&frf& .p0ri@yprprrf64sy;,2pu. yf2w:fs:w:s     u04ffdfuOsrif%   .f0ify               O&usfffdpi064447riidp0:www2fu$ Osi9-=fy07frr",
"fify  sri0%Ofrirrff6d&0-;if&.yf3wwps6qw3X     f64ffify&frrfo   .f0ipu                  .o%&yusffdi00iii6-qww2s&o  $fi*<2%s25iidi",
"ris. u0iry uprrrfurryf2=risX&fpqw=us>w,u     $026fprfyupiis    .sii0sO                 .O%yysffp000i09*11,>uo    &f2w,dX0*6rifii",
"rf@ %iirs %frrrfufrff92i0fy&sd:wqfy4ww3@     u3*9diifyfiipy     upi0fy            ..XO$&yusffpiriipi;::=4u     .yp1w=y&*19ifsirf",
"py Xprrf  uirrfuyrrur4pirs&sd0qw;&s<w1f.     f**0piifuf00dy     &f0ris@           X@%&yuufffffffff9==20u      Xs:wwiOp,,rdusiirr",
"fo frrp. &f0rfuofrsi0fd0dusd0=w:s%6ww;&     $6-:0iiiffp0if&     @frrrfyo            .@$&&&yyy&ysf669pu       #9ww>uy:w=is%sir=ry",
"& f0ir& Xsprfuoyrdsifsirfsfr0,,5Ou>w1f%     u*-*0iiiff000f&     .udrrrfyX                   $ufrrrpu.       s,wqeupww4fyXsr2-du4",
".siprs  yf0fso prfipufrpsfrr2<*uX9qw=s@    .d-<*0i0ifd000f&      %firrifu@               @yfdrrrdu.       y;1w>ff:w1fyXXsr>=us=d",
"y0i0d  &fids@ srfi0usprffirr-*7Xu:w1rso    %6>q:00iidi600f&       yfirrrfsy$X        @yufdrrrrfy.       y9:q*if9qw=uo Xs6w=Oi:ir",
"irpr& $spps@ Oprdrs%fiifprr0*;s p>w*fu    Xu:1q*0i0ip74i0fy.      oufrrr0iffsuy&yyusffprrrrpf&        yp2:*9pp:w1s@  Of;w5 ;,0iu",
"rf0f @sdif&  s0drfoud0pdrrd4=9$y*114fy    @s:qq;iiii04200fuX       oyfprr000ipdddpirrrrrifu@       Xsp7=20r09,12$   @fwwf$:<rfyf",
"fiiXOss0du. %riii&osi0drrif23fOf-q*rf&   Xyd>wq;0i0092;9ips%        .&sfir00rrrrrrrrrifs&.       tfrr7idi0i21-s    $6w<ysq>is$fr",
"fruOud0rf$  f0iis yfrirrifs3ryy7-<3ps%  .%u7qwq;ii0i6;=4iifyX         oysffpirrriidfs&o       Osdiiifsd0rp**7O    y:w=y6w=f&Ofr>",
"rfOufi0du  uii0do udririfsi9d&s2:*9ps@  oys3qwq;ii0i4=*29iss%            @&yuussuy%.       +ufi0rfuyfpidd;4s     s1wes:w4s.Of3<s",
"0yufii0f% op0i0y Ofirrrdsu0rfyp=:;0ds@ .%ys;wwq;ipii4=*=6iifu%                         .%sfiiiif$Xufdfsp6i%     3w>ffqwd& +f:<us",
"fyfi0ips. s0iif  &firrpfus9rus9=*6idu@ o&uf*wwq*ippr7=**290pfu&                    Oyufdrrrrfy. $sfsuuirf     u*q4d9w1u. Of11$i1",
"sfiiiify y00ii% .udrrifu%frpuf6=200dsO @ysf*www*0ddr02***400pfsy%X            o%usfpirrrrfs@  .ysu%Osrry    op:*rp;w=@  ofw<O3w0",
"fiiiirf@Xf0i0f  @sprifs&%drfur620i0du$X&uff*www:9dfir3=-*=400idfsuy&%$OO$%&yusfpirrrrifu$    oy&o yirf     s7*7ir:<a   oew=&:wis",
"prrpidu.s0i00&  yfirdfyoyrrffr66p00fu@@yufd*www>3pfar9;***26000ipdffffffffdprrirridsyo      OX  ofrry    yi44ii0:*y   o;w4u1wfyX",
"rrfi0f&yi0drf  oufrpfu$ frrspr7pfiids%%ysfd=qwwq*pffir6;=*=;60irrr00rrrrrirrrriffyo            si0s    odrrfi0i*2X   O:wpswqfO f",
"rff0is%frpiry  &fprfs&..frafrriff0ids&&uffp21www-9ffdir62;==2370rrr0rrrririafsyo             ydrpy    s0rsfrpi=p    u,<fpw>u  s;",
"dfp0dusrrfid. Oyfipsyo $prffr0fsfiidsyyuffp6:www<;pffp0093333470riiippdffsu&o              @fr0s    ur0syfpfp6s    s,=d6w;$  s,q",
"sfirfudrfprs .ysdifs%  yirfprrfsf0ipfyysffir*qwww-6dfdpii0000ipdffssuyy%o.               Xsris#   yprdOyffupry    6,6p2we   u1q%",
"ud0pffrifii& &sfiifyo  srifirpsuf00ifyysffar;,wwwq*9dfdp000iipdffsuy%Oo  ...  .        Xsiriu   %fri& ufuyirO   y4*0r*<s   uw1y>",
"spidf00ff0f.@ufd0pf&.  frifrrduyfi0ifuusffai6*wwwwq:7ppdpi00i0iddffssuuuuyyy&%.      $sir0s.  $drru .uuOurd    f24ir:-y   sw>u:w",
"fi0s90isi0sXysdr0ds%  ofridr0fyyfii0fsusffdir>,wwwwq-30iiiiii00iiiipdffffsu&o     +uf0r0f@  $frrs  oyo frs   $r4d00*;O   dw2s1ws",
"fi092rfsriy&sfi00fso  %friprrf&&fdripfusffdii7=,wwwwq>*6000ii0i0iirppffsu&o   .$ufir0is@  %fr0f.  @o +irt   srdf0d=6.   rw4f11y ",
"p09=3iufrf&ufp000fyo  ypriirrf%&sdirpfssfffaai6*1wwwwwq:*360000iiidffsu&O .$ysfrrr0fy.  @frrfo   X  ura.  Oirufif3i    4w0d1<%  ",
"i0;*7fuirfysfi00ify.  uiriiris%@ufirrfsssffdaii6=,wwwwwwq1:*;260idffsuuusfdiir0rfu@   os0rs$       frs   srf%ffs9d   .2>0iq>X  y",
"04-=rys07ssfpi00ify.  uiriirif$oufprrpfssfffdaai7=:1wwwwwwww1,:-*=260rrrri00ifu%     uirp&       $iry  opru%ffurf   y2=001=   &q",
"0-:2f%f97sfdiiriify. .srrirris%.&sdrrrffssffffdaai4=:,qwwww11,:*=;369rrriffy@      ydrrs        srpX  srd.%fyurs   s2700,6   #q,",
"31:2y&i47ffiiri0ify. .srrrrrif% %ufirrpfsssffffffdfdr42=--:-*==240idffsy$        &f0rfO       odrf  #iru yuXsry   p6fri*p   %1>f",
":q*pOu9;0fdirri0ify. ofrrrrrif& oyfdrr0dfsusssffffffffffffffffsuy&%@.          %fi0d&        urry  fra. &@ fr#  #rifrf=d   y1;f:",
"qq*sXf3*0fiirii0ify. @frrrrr0fy..%ufprridfsuusssssssssuu&%%o.                %frriu        %prf  yrru  %  ii.  urffrf2f   s:2p>1",
"w12&op;*0pirrpp0ifuo $firrrrrfso oysfirridfsuyuyuuyy&&%$O..                %frrisX  Xo   Ofriy .frf     #ia   dryfdu9s   s:7i>,#",
"w,iX&6-:9piridpi0fu@ %firrirrps&  %ufdirridfsyy&&%$%Oo.                  yfrrrs@ X&yX  of0rf  u0ry     yrf  OrpXffyrs   d*0r*=o ",
"w:s.u;::0iirpfdi0ds% %firrrrrrfuO .&ufdirripffuy%OX...                Xyfirrf&O&us&  ofrrfX  frf      sru  urf suyru   i;ir==X  ",
"w=yXf->:0irrdfd0ids&.@fprrrirrpsy. o&ufdirrriffsu&%o                +sd006psyuffs% +srrs@  yrry      dr%  d0% u%yru  Or0pr22.   ",
"w4&@p:1*0iiifff00pfyXOsprrrirrrfs&..oysfdirrrrpdfssyy&$OXX..   . ous92;=4fffddfyo+frrd&   s0dX     oiro $rp. yXuiy  yrfdrr4X   *",
"1p%y4>q*0rrpfff00ifu@Xufirrirrrpfu&X.o&uffpirrr0idffffsuuuyyyyysd2*:-:=7dpirdsyyfrrd&   $p0s      u0d  srs  % s0$  sruddd9X  o=:",
">f%s*<w:0iidfsfp0rfu&Xyfrrrrirrrifs&O X&ysffiir000iiidsssffs02:,qqq1:2000irfssdrrdy    srr&      frs Xpr%  . fro  dr%fffro  @;=r",
"=s&s-qw:00iffsfp0rdfyO&fprrrirrrrifsu&OX@&usffaii00i00963::1qwwwwq*3i0000pdi7rif&    Odrf      ti0& urd     dr. XipXfssro  y44r0",
"2syf>qw:0rpffsfd0rifu$@ufrrrrirrrrrdfsuyyyyyssffpi93;*:,qwwwwww<=7idp0092==90f%     urry  O   srf  frs     pi  $rf fyuro  u7i0i-",
"4syd,ww:0iaffusfrrrfs&@yfarrrriirrrrrpdffssfffdi63**,,1qwwwq:=efffsi9;:,-2isO     OdrdO @%  yiry Xir$     ip  sru s@sio  s9frp=d",
"esui1ww:9idfsuufirrpfu%$ufprrrrrirrrri0iiiippi963;=*=****=7fsyyuf0*:wq:=iu.      u0ru %u% Xfrf  trp     ord  fr@ y.sro  f0sif2f ",
"isf91ww:6pffsuusdrrifsy$&ufprrrr0rrrr0ii00rrrrrr00077rdfu%OO%ud;>qww1*a&       $drd&&ssO srry  srf     trf Xii. % srX  piyif6d  ",
"iff61ww>6pffsuyufirrpfs&@&ufarrr0rriiii000rrrriipffsy&O .$us3>qwwww=f%        sr7fysfso%p0f   fru     urs yrf  o sr.  id&dsia   ",
"aff61ww<3pffsyyufdrrrdfu&O%uffir0rrrrripdfffffssuyy&yuufp3:,qwww,2s&.       yp74ffdfu#frp$  Xir%     fry sru    sr. orf$fydi   f",
"iff71wwq;pffsu&ysfprriffu%o@&uffpirrrr00irppdfffsfdpi93:*:1ww,=0fy@       Xs3*4sirfusrru   y0p.    +iio dr@    f0. %rsof%fi   d3",
"iff9,wwq*iffsuyyysfirriffu%X.@&usffdpir0irrii0000rr74=*:::*;7pfs&.       s;*:6rirffrrf.   sif  o  srs  ii     fi  u0y.sofr   p0f",
"iff0:www:9dffuyy&ufarrrpffu&X  .@%&yusfffdppiiiippir976770riffy@      +s;,1*0rrpp40p%    dru O$  dru #rd     di  fr@ y fr   iifr",
"0df0:www,3fffuuy&ysfprrriffuyO       Xo@%&&y&yyyyussfdirrrpfs&.   X%ys:qw,60ir6=2ru    $ir$.y# y0io yrs     di  pi. % f0   rduis",
"rpdi*qwwq*pffssyyyysfprrridfsu&o              O&ysffirrrifsy@ o$yusf:www*idi4:*4s     u0dO&s# srs  sru     ip  ia  o sr  Xrfydur",
"0idi;1www:7fffsuuy&ysfdrrrrpffsy&O.       .X@&ysffprrridfuy&ussffp:qww=pfd6:1=aO     frf&fs+$ir%  sry    ord $rf    sr  @0s%fyda",
"ripi6:wwwq*pfffsuyyyysfdirrridffsuy%OoXXXO%yusffprrr0pffssfffdi9*qww>psf7,w<2&     $i9fsdfOsrd   fr%    yrs uru    s9. yruOf%di ",
"r0ii9*qwww:4ffffsuuuyusfdirrr0idfffsuyyyyyusffprrrridffppii000;1ww:pyyd:ww*s      s72fdpfyiru   pro .  sru sry    s0X ury.sofr  ",
"r0iir2:wwwq:9ffffssuuuusffdir00rrpdfffffffffpirrrrrrrrrr00ri3:1,=d%$s:ww1i@     .d;2drisfrpX  oip  @  dr$ fr$    srX sr% y sr   ",
"r0rir7*qwww1*0dffffffssssfffdi0rr0rriipppiirrrrrrrrrrriidfi=*=2f#.s:www2uo     u;:2rrif9rs   t0d O% #rp  fro    srX fro & srX  d",
"rrriir2:wwww>:0dsffffffffffffdpir0rrrrrriiipppaadffffffsf9236f%Xu;,ww=fyX    Xi:140rp46ao   srf yy uif  dr.    f0X pi. O urO  pp",
"rr0iii9=1wwww<:7pddddsaddddppiir00rrrripffffsssuuuuy&&us90rf&%s6*11=if&    os:w,9rr3*6s    fiu$s% sru  pi.    frX ip  . u0$  ppX",
"ri00iir7*1wwwwq-20iiiippiii0irrr00riidffsuy&%@@oo..Xyf0irfuyf9=::;0ds%   #u3ww=ip7:=iO    druufyOrio  pi     pi  id    yr&  id s",
"ii000iir4*1wwwwq>*30iiiii00i0rrrripfffsu&@.      Oufrr0fsspr4==4rrfuO X&ud1ww7fi:1*u    oi9sff&u0f   ip    .ip Orf    yry orf uy",
"9ii000iir4*1wwwwwq:*390i0i00iripdfffsu%@.     .ysd00rffdrr07idirifyo@yss:ww>ff3qq4o    &04fadyfru  X0d  . $0f #rs    %ry #rs y$o",
"9ipp000pii6*,wwwwwwq>:*360ipppfffsuy&O.    Oysfiriifdrrrifssdrrpsyyufd61wqpuf>w<s     s32frfsrr#  #0f oo urs @0s    $iu yis $o i",
"70ipi0iiipi9>-1wwwwwwwq>::;6idffsuy&&$yyuffpirriiirrrrfu&yfprrfsusfir;wq=yy3ww=&     d*2irfd0d   %0f yO fry @is    $0s urs X  id",
"9700i0i0ippai8=-1wwwwwwq1,,-*249idffdpirrr00rririiifu@ %sfi0ifffp0r6,<*sos,wqp%    +;:=rip20u   uisXu# pr+ $rs    %rs uiu    pp ",
"r7790ii0iipdffdr2==:,<1,::*==>3699rrrrrrridirrrrfs%  Xysd0ipfpiiii2:=i+$3ww=f@   .u:q4ri2*iO   uiuyf%ori  %is    yrs s0y    dr  ",
"r9666790iiidsfffffdi7422;22367rrripdffffdirrrds%    $ufp00iirridd2=4uXf:w,rs@   %7qq0p0:=f    srsuf%y0f  %rs    uiu sr%    fr  %",
"rr9433244900pdfffuuuuuuuussuuuuuyuussfi00rifuo   .Oysdi000iipfsd37f#u3:12pso  $u:w>pd;1=y    f9sfdysrs  tru .  s0y fr@    fio yr",
"rrr93;;==23690idffsyy&$OX  .X+%yufdiri00ds&.   XOysfp0r0idfsuup0ruyp=:=rduX $upqw>fd:w2X    d4fpdudi%  yru @  fr$ frO    sr# uis",
"prrr93;**---*;;37ipfsfuuuussssdi00000pfu%XXO$&yusfdrriffsu%Osrrfud7=20rfuX$sf;wwis7wqp    X0=d0psriX  yru y  piX frO    srt urs ",
"fdrri96;**:,,,>>:::-*****::-***:==27fsyyuuusfffdiriffsy%o.ydiisdr70drrfy%ufi,w>su:w<u    +;-iipp0f   uruou.Xrp  sr#    ury sru  ",
"ysfpirr93;*:,1wwwwwwwwwwwqqq11,:=3iffffffdpirrrriffu%X  Of00fdrrfffrrfusfi61q4%sqw>&    y:,i0i29s   siyysO%rd  s0%    ury sry   ",
"X&usfdir062=*:,1wwwwwwwwwwww1:*29iiirrrr0irrrrrpfu%.  .ur0pdrrfysprifsf0i;1>sO7ww7&    s,,007*7%   s0uuf#urf  sr&    siy f0y    ",
"  o&ysfffpi74;=*:,11www1,:*;49rrrrrrr0riipirrrff&.   ud00prrf&&fi0ifdirr--2$%*w,f&   #3w>ii=:i    srsff%sru  sr& .  fry fr&    y",
"    .@&&usssfffdi897779ipddddapppaddffffdrrrpfu%  .udr0i00f% &firpp0rip*=sXf:w;fy  Xu:w=d0,:d    s7ffdyfr%  sry O  fi% fr%    $r",
"         XoO@@@@$%%&&&yuuuussssssuuuuffi0rifsyo $sprrir0f% Xyfirirrifd>7u%4:>rf&  yfqw2f7q:u    f2dipuiro  u0y &  prO sr&    Orf",
"                      ..oo@@@@@O@%ysfd000pfu%@ufi0iirrs%  Osfrr00pfud7i&f2:2rf& &s7wwps;w>%    d*iiif9p   ury y  iiX sry    Xrd ",
"                               Oyufdi00rffusfir0idrrdy   &sdi00dfuyprfui22rrf&#sd;w<ss,w=@    7:7rii9f   uiu@uX+rp  uiy    .rp  ",
"                             o&ufspi00pddprrr0ffiriu   Oyfi0ifsyour0udr4drrf&ufi:w=ysqw6@   X;17rr;7u   uruys+%rf  yru    Xii  d",
"X                         .X&usfdi093;==39rpssprrfO  $ysfipfs&X frpfrrffrrfufi0,<eoiwwd@   $:w9i9-4%   uruuf%yrf  yrs    Oip. dr",
"sy#                      X$ysfp93*:,,*=7ifyudr0f&.#ysfdrifu%  %p0firfyfrrffpi9:*so;w,f$  .u1w7p3,3o   ursfdysrs  y0s    $ra  pr%",
"iffuy$.                X$ysd7:>qwwq:*4fu%ydrrps%usffirrds&. .s0iprpyyfiifpii0*=ty:w=f%  %dwwid:17    s7ffpuf0y  %rf .  yrd  dr% ",
"rrridfsuyy%$OXXX.XXO$yus0;:qwwwww,=iuOoys076fssfsirrrifuO  %d0p0rs usiiprrp0=rOs:17f& Xu6w1ff2qp    u30pispr%  $rs @o urf  dr%  ",
"rrrrrr0ippdfffffffsp6;->qqwwww1-4s& Xui2:=4ffdii0rrrify. Xsi0i0fo ydiir0ifi6f%i**0f& &f;w:fdqwf    s*3i0f9rX  Orf y$ srf  fr%   ",
"ffiirr0rrrrrrrr0942*-:1wwww,*4fu%#&s3*:,*7prrr0ip0rps&  uiiirp% Xud0i0ifuprss7*4if&+sd:w=yiwws    f:;00p3a   ordXuy srs  f0y    ",
"@&ysfffdiirir9942=**:::*=27afuyus6:1qw:2rrrridfdr0ds% ui0i0rs  Osdi0pfuyprud72irfyyfi>w7&4w1u    p,=ir32f   X0d@su fru  sru     ",
"   .X$%&yuusssffdir979000pffff9:qwww,;00ipffsfirifu@ypiiird@  %sprifu#yrrsr8fprfusp0,<d#;w>u   .6q=ir*;s   .rpyfs dry  srs     s",
"         .X@&yuffdiii00iipi9*,wwww,2idffsuysfirifysprifrrs  Xufiifu@ srddrdsprfsfr9,=u$:w;s   %;w;p0,=u    i0udf#p0%  u0s     sr",
"       XO%yusffdirrii00i92*qwwww-7ffsuy%@ysdripffii0fdip% Xysdifs$  fifrruuprffir0:;$u:w4sX  u:w>f9q=&   .i4fifyiro  yrf  X  frs",
"   ..O$&yusfffppiiiiii7;:qwq1:2ssu&%o  Oufir0i739ifsiif.Oysdrify  $irdrdOspidprii=7Os:,rso $s,w2f3w-@    0;frfsrp   yrf X@ .d0s ",
"   .o@&yyuussfffffffi2*::-*;du$o.     &uf003**3rfypriy%ufprrps@  urirry.upipirff3a#i:*rfOXufqw8s:w=o    6*pipf0d   %rf $& Xp0u  ",
"       .XO@%%&&yysf92;;24du@        Xyfd0=,<=7s&sr0fusfpirrdso .fiirfXXsp0irpff0sy7*4rf$%siqwdu:w=o    2:0ii79f   $id &u @iry  f",
"            .@ysfi9rrrds%          #uf0*qw>2f@yp62ffdi0i0rfu. uii0ry Xup00ifyfrfs92irf%uf0w1sy,w2@   o:19ri=4s   OipOus.%0i%  sr",
"         O&uffirrrrifu@           &s9:ww1=fo+s2*2ddrr0p00fy.#d0i0dX Xspi0fu#fisprpprfyfi9w>yy1w4&   $:w7r0-2u   Xri&ffOu0io  s0f",
"   XO%yusfdrr00rifs&.           ou7,www*d#Xs:::4iiiifdirfyXs00irs  $sirds%Xdrsrifarfsfr61*#sqwiy   u,w7p6,=%   Xiryff&s0d.  srf ",
"uusfffpirrrrrifsyo            os3,www:py$s;,w:9ripffprrf&uiidrr&  yfipf&.+irfrfudrffii7:3os11iu  osqw7f2w=#    i4ffdysrf   urd  ",
"iirrrrrrrrifsyO            .&f2>1ww=isus>1ww;0ifsusprifudrifrdX $sfrfuo yriiruyfrddrri=rXi,>is  yfwwif>w-X    i;fipufrf   yrd  X"
};
