/* XPM */
static char *result[] = {
/* columns rows colors chars-per-pixel */
"128 128 62 1 ",
"  c #5B6F23",
". c #5E7126",
"X c #607227",
"o c #63742A",
"O c #68772D",
"+ c #6A792E",
"@ c #6E7D30",
"# c #707F31",
"$ c #3E5955",
"% c #3F5C59",
"& c #405E5D",
"* c #41605F",
"= c #426263",
"- c #44666A",
"; c #45696E",
": c #476B72",
"> c #486E76",
", c #486F78",
"< c #4A727C",
"1 c #748333",
"2 c #788735",
"3 c #7B8936",
"4 c #7E8C38",
"5 c #7F985F",
"6 c #6E8E6D",
"7 c #718F6A",
"8 c #769266",
"9 c #7B9562",
"0 c #7E9860",
"q c #739069",
"w c #678A76",
"e c #6A8C72",
"r c #63897C",
"t c #808F39",
"y c #84933B",
"u c #88973D",
"i c #8B9A3E",
"p c #8E9D41",
"a c #909F42",
"s c #839B5D",
"d c #889F5A",
"f c #94A444",
"g c #98A746",
"h c #99A947",
"j c #9DAD4B",
"k c #9EB04E",
"l c #8FA457",
"z c #8CA259",
"x c #91A656",
"c c #95A955",
"v c #9BAD52",
"b c #9EB050",
"n c #4C7682",
"m c #4E7986",
"M c #4F7B88",
"N c #517D8A",
"B c #5D8685",
"V c #5F8882",
"C c #55828B",
"Z c #598589",
"A c #608781",
"S c #608880",
/* pixels */
"rVVCCCNMMMMMNCCZww695zxvbjgiyt22##+Ooo.o ......  .X   oX XX .o.ooO11134ttttyty44ifhkjvclds55985ss7rC<&$%:MZw65dllcvccxz57wZM;%$%",
"ZCCMmnn,,,,,,<nmNCZrw75dcbbjgauit31@#+oo .....  ..         ..o+#23yiafgfgggfffaiiuahjbvlz5587777859wCm=$$-mCr685dlxcccxzs96VC<-$",
"Mnn,;-=&%$$$&=-;<mNCAw79dcvkjfiuy22#++ooXX......        X .oO#14ifhjjjvjvvvbjjjhgaaihkvcz5q7wrrArw678rC<=$%;mNSw85ddllxlfs97rZM:",
",;-&&$$$$$$$$$$&->nNZS68sxvkhaut32#@OoXo.XXXXX....     . ooO#1yuajkvvcclccccvvbjjhgaihkvz5qeSBZZCCZArw7SC<=$$-nCZw6855dddd59erZM",
"-*&%$$$$$$$$$$$$=;,NCSe8sxkjfut2##O@++++OO+OOOooo. X     X oO#2uagjkvvclllxxcccvbbjhfahkvd5qwBZCCNNCCZBrenM:%$$-nMNVw68899976rZM",
"-*%$$$$$$$$$$$$&&-,MZS75zvjfit2#12244423tt3341#@+ooo        Xo+#4uagjjbvccxxccccvvbkjhgfkvx5qerBZZZCCBVSrwSCn-%$$-,nNCVrwweSVCN<",
":-*&%$$$$$$$$$$%*:,MCr65zvkfi324tttyupaaafffppiu43#+ooo...  ..ooOO13uaghjbvvccclcccvvvkjjhjbxd87ewrSSSrrrrwBCn:*$$$&-,mMNNNMnn;%",
"Mn<,-*&&$$$$$$$%*-:nCZrq5xvjfu2233tyiiafhhhjjhgfpiy31#+Oo..ooo  o.oO+#4yaxjbbvccllazllxxvvvjjbvvzd5958787wrZNn>-%$$$$&=---:-=$$$",
"MCCNm<;=*&$$$$$$%%=:<MZre8dxvjfut2#112tyiifffggggapu42##+Oooo.o.....oo+#4uahjbvczzs555555sssdzdazd55876eSSCCm<:;*%$$$$$$$$$$$$$$",
":nCCNmn:--**$%$%%%-;<mNZSeq5lcbjgat2@@##22yuuaaahgpapyy4211+++Oooo.o..oo+2yahjvczs5886eeeeeeeee776eewrrSSBZCCCMmnnn<,,:-%$$$*-:<",
"-nNCCMn<:;-***==--:<nMZBSeq5dxccbjgi41+O+#144typuaaaapiuyy43312###@OOoo.O@2yfhbczs876erSSSSSSSrrrrSSwewewwweerVCMn:=%$$$=:<mNCZS",
"-nCNmmn,,;:::::<nnMNNZSw685slxcvbkjgay1@O++#1214tyuupupuuyuyy44422#@Oo.ooO#tijbvzy86wrSSBBBBAArrwee6688558wVCn,-%$$%=:<mCCVrww66",
",mmnn,,,,<,nnMNCZZAre7q5szlcvbbkkkjhfiy1@OOOOO+112244444444422221#OOoo...O#yfjjcz586ewe<rrrwwe7qq55ddxz8wZM,-$$$&:<mNCZBrrwe6666",
",>;;-;::,nmNNCBSe7q5slxvvkkjjhhjjjjhfip41#+OooooOOOO#####+@+O+OOoooX...oO1tahkvls886eewwe6785sdxxcvvz5eVM,&$$&;,MCCBVrrwrwwrrrVV",
"-=**&-;;<mCCBS6q5dlxxvvvvvjjhfapfffffpyy42#@+ooooo.ooooooXoXXXX   X..oO+2yajvcls8877e67885szccbkjbcs7wCn;$$&-,MNCVVVVVVVZCCNmmn<",
"-**==-:<mNZZr689995555dszlcjkjfpiiaaaaiuy412@+Oo  o X    .  X     ..oO14pgjjcd5876e6e7795dlcckjjjvl56VN,*$$&;<MMCCCCCCMnn,;-%$$$",
":::::,nMCZBreq777qq7qq555slcvkjfupiiappuy4411@++oooo  .....      X.oo#4ufjbcd5866wwwwe785dlcvkjhhjcs7rCn;&$$&-:,n<<<<:--$$$$%&%$",
"*::,,nMCZVVVVrwwwwwwewe67890lcvjhfuy34311#@O@ooo.oo.... .  X     .oXo@2yfjvcd597ewwwe6755slxvkjhhjvz9wZN,=$$$&--::::-=&$$$$&=-$$",
"*-:,nMMCCCCCCCCCCZZZBBBSSw679sscvjjhfaiuyy43211#@@OOOoo. ..       ..o+#4phjbcd5876667889sdxcbkkhfjvz5eAC,-$$$$--;::;-==%$$$%&;%$",
"**-,,nnmMMMMMMMNCNCCCCZZZSrw6895dlccjvvjkjjjhgffiuy321#+Ooo.. X    o.o+14pgjbczd59999955dxvvkkjafjbx5eAC<-$$$&=;,<<<,:-=%$$$$=-*",
"$&-:::,,<<<n<nnMMNCCCZZZSrre777855dzddzdzlllxcvvbjjgauy31+Ooo.X     ..oO14igjbvczds55sddxxvbkjhaijjx5eAN<-$$&*-:<nmnn<>;=%$$$$%*",
"$%*-----;;:,<nnmNNCCZBSrwe778855ds5ss5998595555dzxvbkhfu41+ooooX     ..O+1tahjkvclddzdlxcvbkjhapahbxseBN,=$$%-:<nMMMMM<,:-&%$$$%",
"$%&%%%&&&=;;,nmNNCBSwe78955dllxxxllzsss558588555zzxvbjgpt3#OoXXX    ...o+1tifjkvvlclllccvbkjjhaiihbcseSN<=$$%-,<nMMNMnn<:-&$$$$%",
"$$$$$$$$$$&=;<mNZBw685sdxccvbkkkjbbvvcxldsdssddzxcvbjhat3#+o oXX   ..oo+#4tahbjvcllzllcvvvkjhapuihbcsqrZn-%$$%-:<<n<<<:-=$$$%%=-",
"$****%$$$$$&;,MCBw66q66667799sdxvjjffhhjjjjjjjkjjhfpy32+Ooo...Xo... oOO#4iahkbvclllzlccvvbjgfppyuhjvd8wBN<;%$$$$$%%$$$$$%=;<MM:%",
"mMNMmn,;&$$$=,MZrrVZCCNMMMMMNNZVw85zckjfpy322211#@+oooooooooooooooOO@#24yphhjjbbbvbvbjjjjfpuu44yafkvx58erZNMn<>::::<mmNZVVM,*$$=",
"rrrrSZCM,=$$=<CVZCMn,;-=$$$$$$%:,mCZre85scvjjggfiuytt323222211211####2244yuuiaaaappppityt42#12yuahkbvxds5976ew66e6788eZM,&$$=<NC",
"8886erCM,-$$&nCCMn,;*%$$$$$$$$$$$%=:nmCCVre7q55zlxhbbbjjjgfpppuyt332###+###@+++O++O+OOOOO+@23tyafhjjkbbbvvvvvvxl56rZM,=$$%-<NZBw",
"776erZCn;&$%;MCMnn:-*%$$$$$$$$$$$%*=-:<<mNCCZBrwe785ddlcvkjjgput33@OOo.oo.... XXoXXOO+##24yyuippffgfgggfjjvfs96rCNn;*$$%=-<MCZVr",
"VZZCNn,-$$%-<Mmn,,,;;;===***==-;:<<<nnmmMNCNCCBSreeq9slcvkjgpy31#Oo...     o.oOO@13tyuiiafpapppiupuyigjbhz97eACM<:=%$$$$%--:,<nM",
",,;-&$$$%&;,,<<nnnnnmMMNCCCZZZBSSrrrrrrBrArrrrww6q85dccbjgpt2#+oo..  ....oo+13yuaghjjjjjhhggpusyt44igjvl58eSZCm<:=*%%$$$$$$$$$$$",
"$$$$$$$$$$$&&;:,nMCCZSrw6785sslxlxxlzdds55559555dzxvbbcapt2#Ooo.......oO++14ihhjkbbbbkbjjhaput21#tpgjvly86wBCNm<<::;:::><<nmmMNm",
"$%&&--&&%$$$$&;,MCCZZZVVSrrwe6895zcvjjkjjvbvvvvbjkjjgaiy21+oo..o.ooooOO+124uahhjjjkjjjbhhpy42#@@2upjbcz58ewSZCCNCMMCNCMSnwwwVCM<",
"$&--;;-&&$$$&-,MMmnnnnnnnnmMNCCAr68dxvkhhhjjhjjjhhfapuy1#+Ooooooo.ooooOO#124yuagghhjghgppy421#@@2tpjjcld97erSBBBBVSrre7896BCn;%$",
"$$$&&&%$$$$&;;;;;=-=&%%&&==-:<mNZre85lvkjfhfghghffaiuy31#+Oooo....oXX.ooooO+#224uuuiuupyyy42##+@1tpgjbcds87ewrrrrwww795s7rC<-$$$",
"%$$$$$$$$$$$$$$$$$$$$$$$$%**-,<NCAeqslvkjghhhggffaaiut41+#+Ooo....... ooooooooO+#1234tt44422###+@2ypgjvld587wrrrrrww68q5qwZm;%$%",
"--*%$$$$$$$$$$$$$$$$$$$$$%%=:<NCAeqslvjkkjjjjjhhgfaiut421@+Oooooo......  o.ooX ooOO+##332222121#+#3yfjjcd9q6rVVZZZZVrw6q99eZM;%$",
"*%%$$$$$%%&&&%&%%$$$$$$$%=-,mNZr75zcjcvcvvvvvkkjgfauyt421@@@OOooooo....       .  oXoO++@####12###O1yahvcd9erVCCMMnnMMCZAr77qwCm;",
"%*%$$$$$%%&&&&&%%$$$$$$%=-,NCBe8sdd555sdddlxcjjjhgapy431#@++Ooooooooo.o..        o oooO++@@1###@#+1tajvas7rZCn,;-==--->nmCZww7wZ",
":<:;=%$$$$$$$$$$$$$$$$%&-,nNZr755998q8995sdlcvkkhfuy411@@+OO+oo.ooo.o ....         o.ooooOO+OOOOO13ygjcdqwZN<;*%$$$$$$&=-<mNZSw6",
"%$$$$$%$$$$$$$$$$$$$$%%&-:<NCBw5589qq8895dlcvbkjfit44444332##@+oo...o  ..        . ...o.oooooooO#2yajcl5eANm,-*%$$$$$&&-:<NNBrw6",
";<nmNNNmn<:=%$$&-&&&===-:nMNZr6976eeee6688sdlvjkjfay33333122#@@Oo....o .  .            ....ooO+#2yphkcl57wAZNmm<::::<nmCCAAw778w",
"BSwweerrSBCM,-%$$=:,,,,nMNCZreeerAVZBZZVrwe785dlvvjhait3####+O@ooo.o.o...o.............oooOO@##44pahjbcld5987eewwwwew77895sd56rZ",
"666876eerVZMn,=$$%=:,<nMNCZVVVBZCCCMMMMNNCZZVreq9szcbjhfuy31#++O+oOOoooooo.o.oooo..oooOO+@##134ttppahhjjjbjvvbvvbvvkbbbczd86wZCN",
"rwwwrSVZCMMn:=$$$%-;:,nnNCZZZCCCNmnn<,:<<<<nNNCZAwq9dzcbjgaut22##++#@@+OOOOOOOOOOOOOO@@@##112333ttyyytttttttypfjjjvxds9qerVZCCNm",
"MMnMn,,;=&%$$$$$$$$$$%-;nMCZZCCNMmn<:::;;;:>><mNZZAe79scvkjgaut321111++++@+++OOOOOOO++@#######1###+++++1tpgjjcfs9q6ewAZZZCCZCNNN",
"$$$$%%&&-%$$%=;:<:-=%$$$&;nNZCZZCNNnn<,:::>>:<nnNCBAe85zcbjgaut31###++OOOOOOOOOOOOOOOOO++++OOOOOOoo+#2yfjbgd57erBZCCCCCCNCZCBBSB",
"CCCm,&$$&:nCZZBSSSZMmn:=$$%;nCVrrBBZCNNNmMnmMMNNBAw78szvkhfit2#@OOOXOooooooooooooooooooooooooooo.o+#tuhjja58erBZCNCNNNCCBAww6q85",
"M<-%$$&,MCVw6778887erBCM,=$$%;mNVeewwSSSnBSBSreeq9szvkkgay31122111@@Ooo ..XooXX XXX  .oo.o XoX..oO#2ugjvcls97erSSSBSrwe785szxxsq",
"n,-%$$-,MCVw6895s5577wVCM,=$$&;nCVe766eeeee67855lcbkhgiuuiaaaaaiiyt21@Oooo...o. o o .   .o .X..oO@24pgkbcls588877qq85ddccvbcu9er",
"CN<-%$$&;nNZre78998q6wVCMn-%$$-,NZre676677895dxxbkjhhhhhjjjjjjjhhau41@+ooo.o.....     .    . .oo+#tuahjbvcxlzdddllxcvbkkjvx57eSB",
"rBZN<-%$$&;nNCVrweewrVCCn,-$$%-nCBwwwee67789dlvvkkkkkkkbbbbbkkjjfpu41@OoXXXoooXooXo.. . ..   .oo+#3tpfjjbbbvvvvvvkjjjggjbld87rSB",
"ZZZCZCn:&$$$-,mNCCZZCCMn,=$$$&,MZVVVVrVre689sdxvbbbvbbbvvbjkkjhfp42@oooo+O@@11#@@++ooo. . .  XXoO##tuaghhjjjjjjhhhfpifjbcls57ewr",
"NNNMMNMCn:=$$$=;<nMMMnn:=%$$&;nCCCCCCCZASw689dxvbbbbvbbbkkkjhfpy3#+@@114yyipiiiiyt31@OOoo....o XoO@13tuuippaapuuuyyyigjbbxd55888",
"CNMMMMMMM,;&$$%-;,,,n,:-=$$$&,MNMMMMNNCCBSe78dzcvvvvbbbbkkjhfiy3#114yifhjjjkjbjkjhgiy2##Ooo... .Xoo++#113444t42222tifhjbvxxxzzll",
"wwBBZZZMn:&$$$&-:<mmmm,>-%$$$-nNMNMMNNNZBSw78slccvvvvvbbbjjhfiy123yipfjkbccxllccckjjfu41@oo.... .X.ooO++@@+1#11##4yifhjkbvvxcccv",
"wSBCCm,-&$$$&-;nMMCCCCCMn;*$$%-nCCCCCZZVwe89dddzdzzllzxxcvvbjffy2#2typhhjjvbcccccvkkfpy2#+oo.......oooOOOO++++##1tpighjbjvvvcccc",
"BZZCMm<;=%$$$&-;,nnMNMnn,-*$$%=,MCCZZVreeqq98qq7777qqq89955szvbjgi3#12tyifhjjjkkkkkjhiu21#Oooo.o...XX.ooooooOO@14tyahjbvvxzdddsd",
"rrSBBCNMn,:-&%$$$$%%&*&&$$$$%=-,MMCZBVrrwwwVrVVVZAZBZBBVArw675dlcvjit1++124yppfhfhhaput4##+Oooo...XX....ooooO+@#14upgjkvxlz5988q",
"77766wVCCMMn,:-=*%$$$$$$$$&=-;,nnMNCCCCCCCCCCCCCCNCNNCCCZZBSwe755zvkhi4#Oo+112ttytuiytt21@@+oooo.XXX..oX.oOoOOOO@14ypfhkvcz5976e",
"96wVZCn,;&$$$$%%==;::<:;=*%$$$=-,nMCCCNNMMMmmmMMMMMMNCNCCZBSSw6q95dvkhp4#+o+OO#12222222#@@+OoooXXXo ....ooO+@###11112tpfjbvlsq7e",
"6wBCm,=$$$%-:nMCCZZZSZZZNM>;&$$=;<MMMmnnnn<,nnMmMMNCmZMSrww6q895sdxvkjau2@OooOOO@###@@#+OOooooooX X ..oO+#133yuuuiiiuyytufjkcl58",
"6wBC<-%$$=:nMCZSwwweeewrZZN,;$$%;<nn,,,,,,,nnmMNCZBSre689sdzxvvvbkjjhpy41+OooO++O@+@++Oooooo.oo X  ..oO+13yafjjjjkjjkkjjffiphjvl",
"58eVCm;%$$=:nNCCVrwwewwSZCN>-$$*>;;==--=-;;,,MNZZSe795zxvvkjhgfffaayy31@+@@++++++@@@+OOoo... .    ..oO#3tahjvccxdddzzzxxvjbjjhfj",
"88898eBCm:=$$%=;><nMMMMnn>-$$%*$$$$$$$$$$$=-,nMCVw79dxvvvjvvvkkjgaaiyyt444422211###OOOoo..       ..oO#2uajbcld598q776q895szlcccv",
"MMMNNCCCZVVBCMn:;*%%%$$$$$$$$*=-;;:;:-=&&$$$%-,MCVw75lbvccccvcvbkjhffiputt442111#OOooo....    ....oo#14ugjvcl58eewrSBBAAVrrwe66q",
"%$$$$$$%%%%%%%%$$$$$$%*->nMMMMZZZZCCCNMn;-&%$$=:nNVw85lcvvvvvvvjkkjffppuy422##+OOoooo.....  oo....oO+14uahbvcs58ewrBBZCCCCCCNNNN",
"$$$$$**--;::>,<<mmNNZmZBrrreeeeeerrVVZCNm<;=$$$%:nNZr69dlvvkkkkjhhhfppy4321@+OXooooooooooooo..oo..ooO+#24uahjbcxd586wrBZNMMmm<<,",
"$$$$**:,nMNCZBBSSwwee77787898877eerVZCNMn,-&$$$%*:<NCVw79sfcvjjfffiiyt4211111##@@@@@##+++Ooooooo.oooXXooO##24ypghjbvxs086rBZNMm<",
"<>=$$$*-,mNCZVrw666qq78778666wwSZCNMn<:;=&$$$$$*=;<mNCBre79slcjkjhfaiiuytt444243332222#+#+OOoo..o... Xoo.oXXXooOO13tpgjvvxs986wr",
"6rBN>=$$$=><MNCZVrrrrrrSVVZCCNMn,;=%$$$$$$*===;><nmNCZBSre79slcvkjhfpppuyyyttyt4443221#+#+Oooo       ..o. ooOOOOOOOOO+#14yfjjvcx",
"cz57rMN>=%$$%-:,nmMmMMnn,::-=$$$$$%&--,<mmNMCNZCZZZSSwwe675sdcvkhfffpiytt343333321111@@+OOoooo.   ....ooO+#133yyuiuuuuytt42434ip",
"vbcl97rZNn:*%$$$$$$$$$$$$$$$$$$$%%%%$$$$$*-:nMNCVSe6805sdlxxcccccccvvvkjgau43#+O++O++oooooo.  ..... .oO##2tyifggjjjjjjjjjhjjfhjj",
"vbvcz57wSZNn:-=%%$$$$$$$$%&&$$$%&==-=&&$$$$$$$&=;,<nMMNCCCVSSSrrrwwe685sljvjjfpy32@@+OoooX..o.o.ooooO@#2yuafhkbvcvccaxlllllzldds",
"kkbbld57wSZNM<:;==**%%%%%%&&&$$$$&---=-=**=%%%%$$$$$$$$$&=---;::,<nmMCZAr6q5zxvbjhfpyy411#@++O##@@###14tuaghjbbvcclzdss598877ewr",
"jbbvxds87wAZCNn<:-==%%%$$$$$$$$$$$$$%==-=---;;;;;---*-**%$$$$$$$$%&=:,nMCBrw655zxvvbjjhfapuy44t333233244tupaghjjbbbcxlds58q6wSBB",
"jbvcxzs5q7wrZCNm<:-=%%$$$$$$$$$$$$$$$$%**--;:,,n,,,,,,:--*%$$$$$%%=;><MNCBrw6795dxcvbkkjhfppputt4321#####111244yuaaahjjvvxds86er",
"bbvcxxzz587erSZNNn<:=*%$$$$$$$$$$$$$$$$%%%=-;:,,,,,:;--&%$$$$%;:<nMNZSrw6779sdxxcvvbbjjhgfpuyt32#@OOoXo.oo.X.oooooO+#12tiagvbcls",
"kkkbbvvcxzs5q6wSBCMm<;=%%$$$$$$$$$$$$$$%%*===;;--=&%$$$$%=;<mNZSw6795dlxcvvbbjjhhhggaiiy4421#@+oooX..        o...oooOooOOO@24iaj",
"hhjjvvxxzss5988866rVCNM<:-=%%$%$$$$$$**=;;;;--==%$$$$*=:mCCS685dcvbbjjjfaapuutttt4211#++++Ooooo............oO++#123444444222@@#1",
"jjczz5577ewrrAVZZZCCNMMMn,:;=%$$%*;<mMmNNNMMn,-=%$$%=:MCVe8000055ssdzaxvvvjjjgauy421#@++Oooo..o.o.oo...ooO++134tiiaaffpappiuyyt4",
"vcxz59qeSSBCCNmn<,;-&%$$$$%&=:mmZBSrweeerSCCMn-%$$=:MZrerrVZZZZZZVrre7895zxcvbjjfiiy42##+++OOOooo..ooooooOO+1134tiiiaahcghhgffaf",
"kvxls58qerBZCm<:-%$$$%*-,nNCZSw6805dds597wVCM:&$$=<CZCCMmn<,,,<<mMCCBSw7q5dlvvkjjfppt421+#+OOoooo..oo.ooo.ooooO+###33yuppaaagghj",
"jkkvvxd58qwrBCM<;*$$$=:nMCBreq85dxdxdd596rZM:%$%:MMn,;;=&%&&&*-:<mNCBS685dxxvbjjfpiy44#1++OOoo..o...o ..    .  X o.oo+#124tyuafg",
"ffhjjkbvcls57wSNN<-%$$=:nMZAw6890ss0096rZN,=$%;:-=%$$$$$$$$$&=;<MMZS6qsdxvvkjhfaut4211@O++oooo o.....  ....  . o   o..oooo+#24up",
"ypfhjkjbvjvvcz5qeSCm>=$$%=:nMCZZVVVZCNM,-$$$$$$$%%%%%$$$$$$&-:mZBw75sxvbjjhgffaiiyt4311@@+OoooooooooooooooOoOOOoOOOOOooOooooo+#4",
"ifhkkvxlzds5s555s586rBM<;&$$$%%&=&&%$$$$$%-;<nnmmmn<:;=%$$&;nCZw85zxlfzzxxcjjbbjhhaiy4311@+OoOoo+ooo++@@11##233tttyttt331##+OOO@",
"uahjjxxz59877eeerweeeeewrBZNn<,:::;%$%-<MZBSSrrSSSBCMn;&$$&,CVeq55998888955zxxvkkhfpy42#++OOooooooooo++1#1244tyuiaaaapii442#@@OO",
"typgjjvxzs58qeeerSSSBZBZZCCCNmn:-$$%-,MZSe7788887wrBZN<-$$&,MZw8988888889sslcvkjhayy3333332211#+oo....ooooO##11233yuyyyt321#@+OO",
"t4uphjkvcxzs59q6ewrrrSZZZCCNn<:-*$$%-,MZre7895988q6rVCM,=$$&,MZw85s555ssdlxcvkjfaipiaafffggffauy31@o...... XXXoOOO++#+##+#OOOo.O",
"22uupfjjkbvxxls558876ewrSSBCCNn<:=%$$-,MCVw67888q7errZCM,-$$%:MCA68sdzzxccvbkkhfaffhhhjjjjjjjjjhgfy41+Ooo.  X.XXXX XXXooooooo.oO",
"22tuppffhhjkbvjccczss5887eerVVZCNn:-%$$=,MCZrreeewwwBZCMn;=$$%-nCBw75zxcccvbkkjfapfffhhjjjbkvjbkjjfaut1+Oo...X         XXXo..oO@",
"2444tuafgjjbvvxld5997eeeSVVZCCNmn<<,n-%$$&;nMCCZBZZCCCNmn:=%$$*:MCSe85zlllllcbbkjhfuyuppffhhjvjjjjhgaut21+Oo.         X.XXoo.oO@",
"3424yifhjbjczd55876ewwSZZZCNNmn,;--===--%$$%;,<mMMMMmnn,;=&$$%*:MCS65ds55959055dlcvvjfiy22tyuuppffaaiyy31#Ooo  X   X   X Xooo.o+",
"2#24ifjjvcxzs8877ewwSSBBBMZCNNm<:--===&=-&$$$&;;:<<:;-==%$$$%=:MNA69876wrVVVZZVrre795xvjhit2@@1242432111+OOooXX          XXoo.oo",
"@24yfhjjxxzs588q766eeweewwwrSABZCNMn<,,;-$$$$&==;;-=&$$$$$&-,MCVwerrVZCMm<<::::<<mCCBw8sxvjfy2#O+OO#++o+ooooXXX        o Xo....X",
"2tuajkkvcxzsd55555555sdd576rBZCNNMn<:-=%$$$%&&;;--=&%$$$&=,MCZZZCCNmn<:-*%%$$$%%%-:nNZS75lvjfy3#Ooooooooo oXX XX   XXo ..ooooooo",
"4uaghjkkvvxcxlxxxxxxccd97erBCNMnn<,:-%%$$$$%&--;;-=&$$$$&;,MCCCCNNMn<:-=%%%$$%%%=;:nNZr65zxbjay31++OoooooXoooXooooXXooO+++####@@",
"yupgghjjjjjkkkjkbbbvcd587erSCCNNNMmn,;=&%$$$$&-=--==&$$$$&-nMCCCCCNMn<<::;;;:>><nMNNBw69dxvkjgpy411###+++#@@#######1112334ttty44",
"4tyuuipippffafhjkvvxd559776wrrSSAAZCCMn>-=%$$$$===-==&$$$$%-,nNZBZCCNZCCNCZMMZSZSw6q9ddxvbjjfauy433323tttyyiiipaaaiaipipaaaippii",
"22222113yifhjjvxxzzd55999887777eAZCCNMMnnn:=%$$$&===-=&%$$$$%-,MCVrSSrrww6677755slxvvbjjhfapityy34ttyuiafghjjjjjjjjjhhagaaiiiiy3",
"++O+24ifhjvcfds5598q8889q55596wBZCMnn<,>::::-&$$$&==--==&$$$$%=:nCZrw6q885ddfcccbvkjjhhgfiut322334tuiaggjjkvvvvvvvbkjhgapuyt3111",
"OO@1uahkvgd5876eerrwwe66q5555qwBZNMn<>>::::;;-&$$$&-=-;=&%$$$%=:nNCZrrw677899905sddzlxvvjkjfiy3123tuifjjkbvvcccccvbjhapt42#+OooX",
"O@1tpgkcl597wSBZCCCCZZVrre678996eAZCCNNMMn,,,;&$$$%%&&%$$$$$%=:nNZZVVre7q788887898q55dzxvvbjhpt212tuagjkbvvvcvvvvkjgpy4#@OooXX  ",
"oO#4ugjvls8eSZCNMmmnnnmMNCCCZZBBBZZCCNMMn,:-&$$$$$$$$$$$$%%-,,n,,<,nMNCBre75dsddssddlxxvvkjjfit24yuaghjkkvvvcvvbkjgpy2#Ooo XX   ",
"oo+1tugjvls86SBCNm<<<;;---:-:;;=--=*%%$$$$$$$$$$$%%%$$$$$&====--=--:,nNCBSw79szxcvvvvbkjjfapppiaaghjjkkbvvvvvbbjjhpy3#OooXoXX  X",
"ooo+#2uphjvcz586rBNMn<:-=&%$$$$$$$%*====;-------====&%$$$%&=*==&=-:,nMNCZSre799sdzzcvvjbkkbjjjjjjbbbvvvvvvvkjjhgiy31#Oo.oX X    ",
"ooooOO@14yifjjvxz98wrZCn<-%$$$$$=::,<<nnnnnnnn,,,:;-==%$$$&=*=-:,nmNCCZVSwwe7799s5dsdzzzzzzlzaxxxcccvvvvkjhfapyt3#+OoX  oX      ",
".oOOO@@@111233yifhbvxs8eBCm>=$$$$=-:<<<nn<n<n,,,,;--&=%$$$$&=;:,,nmMMNZZVw6q89999555985955855s5ddxccvjjhfpy441@+ooo o....       ",
"ooO+#24yifjjkjvjjjjjjjjvxs7rCM<-%$$$$%&*====--&&&&%%%$$$$$$$&%*=*=--:,nMNCBre79ss555559999555ssdxvbjjaut2@@OoXoo .o . ..      XX",
"ooO@1uphjvxld58q88889sslxjvcd8eABM<>;=%*$$$$$$$$$$$$$$$$$$$$%%%%*%*%*=-:<mNCVw69szdzssssddszxxvvjjfat3###111111##@@Ooo.....    .",
"oo+@4ifkvl5qerBZCCCCCZBrw789dzzz97erSZmMmmnnn<,,:;;=%$$$$$$$$$===&*===-:,nMNCBwe79sfccckvvvbjjhfptttuiafaffhfhffpput31+Oo...    ",
"o.O@2ufjvls86rBCCNNNNCCCBrwe795ssds587eewSrZCMn,-%$$$&=;:;::-*$$$=:nMMMNCCCZBSSee795szlccvvbkjjjjjjbbbvcccccccvvvkjgfi41#+oXX   ",
"oXoO@2tphjvcd586ewrrrrwree78895sss55597ewSZCm<-%$$$=;<MNCZZZZCmn;*$$$*;,mMCVw6q688899999555555s5d555988qq788955dxcbjhau3#+oooXX ",
"o..ooO#14yiffjjjvccxzzzzzzxzzzlzzzds997erBCMn:*$$$=:<MCZSreeeewSZZm<:=%$$$=<nMZr69s5597877ewwwrwAVBBBBASSSwe7q5sxvjjxpt3+OooXX .",
" ....ooXooO+@113yyuiapfghjjjjkjvcclzs587wrBCm:-%$$%;,mCZSwe77866ewVBCNM<:*$$$=:nCV69dd5q7ewrBZCZCCCCCCCZBSw6q5scvvhay4#+oo.X    ",
".o.ooOO@11tyyapfhjjjvjjbjvvvvccczddzss597wSBCm<-%$$$&;,mNZVSweeweeerVZZCCN<;=$$$-<NV65lls5q6wSBBCZZNZZBSw685sxbjhpy21Oo....     ",
"X..oO#2tifjkvvxlzdds55s55sdzddzzzssz5s5997erBZCMn:-&$$$$=,nmMNCZZZZZVZVZZZCNm<;&$$&,MCe5lvld5876ewwee6795dlcbjgp42#+o...o...    ",
"...O#2tpgkjxd5976wwwww6eq855sszzlllzzd559776ewBVZCCmn,;=%%$$$%=;;<nnMMCCCZZCCCNn,=$$$;mCr8dvvvcxzdddzxcvvkjfpu41@Oooo oooooo XX ",
"..oo+2yajkvls9qewwwwww6795szxccbvbvldd558777ewAZNMn,==&$$$$$$$$$$$$&-,,mMCCCCCCCMn>*$$$:nZr8sxkkjkkkjkjjhapy421@OooOOoooo.....X ",
" ...oO2upgjvvxlds555ssdxcvkjjhbbhd5587e7eeeeeerZCm,;&$$$$%%==&%$$$$$$$-:,nMNCCCNMm<;*$$$-nCr65dvjjgfffappyy441@@ooOoooXoooo . . ",
". .....O@#4ypfggjjkkjjjhgfiijjblz5qqq77777776rZCm,-$$$$*=;::,::-%$$%$$$&-;,nnmMmmn,:-%$$*;nCBw75lxjjjhfaiyy441111#+++ooOoo  .. .",
"OooXoXXXXX.oo++#12434tttyagjkjcld55559555s8eVCm,-$$$$*-:<<<nnn<:=$$$$$$$%*-;,,,,,;--%$$$&-,MCBw675szlcvbkjjhhffiuyt321@@OOOo o. ",
"@+++@+@@@@+@@##11234yuiaghjkkbvccxxxxxxd8eVCm:*$$$**;:<nmmmnn<,:=$$$$$$$$%&*=--*&%$$$$%%=:nNCCSww678955dzlxcvvjkjjffiy441@+Oo...",
"+@@1114344yyiiiaagfhhhjjjjjjjkkkkkkbxd8eVCn-%$$%=:,nmMNMmmn<,:-%$$$$$$$$$$$$$$$$$$$%=;:nmMNZArwreee6667789555zdxvvbjjgiuy21@+oo.",
"OO@@#24ypiffhhjjjbkbkkbbkkkkjjjhhjvl56rCm-$$%=:<mNNCCCNNmn,-=%$$$$$$$$$$%$$$$$%%=->nNNCBSre67qqqq77777766778995szccjkjfpy41@@Ooo",
"XXooO@114ypfhjjbbbvcbvvbjkjjhfffjvx57rC<=$$%;<mNCCZZZCCMn,-=$$$$$$$%&&&&%$$$%%-:nNNZrw6q855ddzzdd5599qqq7qqqq5sslcvvjhfpy41@Oooo",
" ....Xo+#14yafhjkvvbbbbkkbjjjgfpjkxs6rC<=$$=:nNCZZZBCCNm<:=%$$$&$$$%=&=&$$$$=;<mCZZZZZZBVre68szvclldss59995sszlcvbjjfiy31+OoooX."
};
