/* XPM */
static char *result[] = {
/* columns rows colors chars-per-pixel */
"128 128 58 1 ",
"  c #853178",
". c #8A327C",
"X c #B64A7E",
"o c #BA4E7B",
"O c #BF5177",
"+ c #BE5079",
"@ c #C45476",
"# c #C95774",
"$ c #CC5973",
"% c #C15278",
"& c #C85678",
"* c #D35D72",
"= c #DF646F",
"- c #D76071",
"; c #DB6270",
": c #E2666F",
"> c #E6696F",
", c #EC6C6E",
"< c #EE716D",
"1 c #FD7E66",
"2 c #F4716E",
"3 c #FA756D",
"4 c #F7786B",
"5 c #FE7C6B",
"6 c #E16670",
"7 c #BF8742",
"8 c #C08742",
"9 c #C48A44",
"0 c #CB8C46",
"q c #CE8C48",
"w c #D6874D",
"e c #D9854E",
"r c #D38A4A",
"t c #DD8451",
"y c #E38254",
"u c #E98257",
"i c #ED8259",
"p c #F4825C",
"a c #FA825E",
"s c #F68260",
"d c #FE8264",
"f c #FF8169",
"g c #8E3380",
"h c #933584",
"j c #983787",
"k c #9A3887",
"l c #973788",
"z c #993788",
"x c #9D398A",
"c c #A53E87",
"v c #A33D8B",
"b c #A83F8A",
"n c #A74087",
"m c #AD4385",
"M c #A74089",
"N c #A94189",
"B c #B14782",
"V c #B34880",
/* pixels */
"                                 ghzxvbnVoO#$*:>>=$omX$:232>,4,,>,4,1yr000ed$Bx.                                   m=,<,2<,Ox   ",
"                                    glxmXo$;:,,2,=$OO=35ff3,,,>-$$=,2dw0990u,ml              .gcck..              v@2,,,2<$v    ",
"                            . .hhhg.    .xvmo#*-$@@=5daaaf,24=$OoXO$=3u08878e1ox.    hvmo*:,2,,,22222,:;@omkh. .vo:<2,<42=m     ",
"       cO=,22:@cg     ...g..hghhhllxxxxvbcmcBo#2d5,#O:3pww1,,$oBmcmO*p88rup1dir0euadddd5333222,,2,,22,222,,,,2,=oxhjkvno,2O.    ",
"     x:,obvvxB;2;bh  ....ggg..   .ghxvbMBVo#*3f5@h     .Xu8r12,=**=a98u32,,,,<,5uyaff533,2,22,,,,2,,222,22,2,:OxhnO$=:>=$:d1Og  ",
"    zO,:VxxxxxV:2#x.       ..hkBccBcmmmBBVO-3dd:x    ..hVa9780rrr0977rd,,,,,,,,,3dd3,:;*OVczh.    .zcX#-:,,,2;nxm@=>,,<,,2atyuyy",
"    .n=,#nxxxB*,Og     hkcVo#-*:,,,2,2,222,2<3uy,c..ghxB1r789099989888y3,22,,,>:53#z                       .c;2@m@:22<,23awrewrr",
"       zV*:,=-Xh   hvcVVoO$$=>,2,2,224224,,2,22a000rew9780euywr00eya1pyrepf55551;v                            c:5f551dptwys11yrr",
"            g.g   .lcoO#-*:>,4,422,,,4,,2,,2,<,1eqq0ry1;%mxxzxxxz.      hX,51322$c                            v$5daaa5%z.  .hxbB",
"            .ggg   xB#-=:,,242,22,,2,2,,,,><2,5yr000y5#nh                ho>2222,#x                          ho5apuud@x.   ...gh",
"             hhlg  xB$>,,,442,2,,,,22,,:;*=,,5ur000wd#mh                  b$2222,,Ok                        .n3auteu2Nl.   .ghxv",
"     .hlg    glxxg.xB-,422222,,222,,:=*$O$;,2ar9090p;mh                   .X,22222:V.                       v,ateredOvlg..hhxvcm",
"  gghxxvvxh   xxxvlxB*22,,2,24,,,,:;*#OXXO;,de9090t,bg                     c$,22<22;b                      l*awrrry2mvkhhxvvcnVO",
".hlxvvBBmvh. hvvNbvB*,422,,,,,,,=*$#oXBmbmX#2u0909e1m.                    go,,,,2,,Xh                      .odr009ra=OBcvcBVoO#$",
"xxvnmBoombhghvnBBnX-,,,4,,4,,:;*#OoXmbvxzzxbo3tr00rp$h                   .m=,,,,22#x                       .v2e0999ed:$OVBo#$$=:",
"bbmXo@@XmbhxnBXOoO-,,,,2,,:=;$@OoBmbvxzhg..hxB5yertu5m                   b$,,,,2<=b                        hv@dr090ru5,:*$$-=>,,",
"hxbVO@@oBvxmO@$*$=2,,,,,=;*$OoVmbbxzhh..     hB5uupaf$v                .xO,,,,,2>B.                        hvO3ur0r0ed22,2,,22,,",
"   .hhkn@:2335f5>2,2,>==$#OoBmbvxzh.          k:aupd1153,=@O$=,22,>=*;,,;XnnBO=2*x                        .hm@,a0778000ru132,,:=",
"vxvmo:2*b.  .kVfya222,=$OXBnvvxhh. .         mdu1=>:==$Xvb@,,,,222,,;Bh .kcccckv=,m                   .hxvmO=5e8t-ch. .b=dpd32:*",
"vNmo=2-v       v5r0ydd532,;#omvxhhhhkhkvm+-<fad;*:,:=*$Xxhb$,222,,,:Ox gbVVO#$#XV,53*@Vck.      ..kvmo$>4ddae79dm.      b;51=#oX",
"VVBX,5@l      k:e980qq00000reua421puyyyupadfff3#VO**#@Xmk c:,*VnnX*,=v.vVO$*-=$o:ddfdapyteeeypa41pyer000q000r90u#h      x-3$mmnm",
"22,,=,ad>%Bkn*p089000000999909000rrtypadff13322;Vbxvvh. k-,B        B,=mxbBO@@*5aadapytwr00009999009000rrrrrwreep2XvcnX-3*bX@-;=",
"2<<,,,5uer090y132=6>231pywr000rwtyupd13,*OBbk.gkX;2,=-=>,,og        .m:,235f52#ch..znO21ier099990000reypd122,,22,:233,*%mxbX@**$",
"2,2,,5perrwp1,*XbxzzhhhhhhzzcnX#%nk.              v$,<2222=n        v$23355:B          gxbBo*,11132,,2222,2,,,222,*XBBBmvhgxbVXo",
"222,3perr0yd,*Bxlh.                               .m:22,22,Ok      hV:35ff5@h           .ghxvmB##$$-*=:,,,222,,2,,;Xxxvvxz  gxbb",
",,22derqrrp3*mxg.                                  x#222222;b      b*5fdaa2m.        ..hhxvnmBXO#$-::,22,,,,22222,$mz.zxvz.   gh",
"=><,3pr000wa$Bx.                                  gX>22222>V.       m2dpytp,vh.    .ghxvcmVO#=:2<222222,22,,,,2,,*mz .zzz.    .h",
"@@*:,de0900e3mx.          gknV#==$OBckh.          M*,222,,Ox        h@dtwwwu,mxhghxvmX@=>,,2231df52,,,,,,,,,,,,=Omz  hzhg     ..",
"XmVO*2y9777779y2ocvm%*,355332,,,222222222,>=@Xo#:2>$@#=,,=v          mdw887788wp4,25fdpyteeetyupddd3,;#Xmbxxxxzg gc+#%mbg       ",
"BBX#107e12,,,21ueepddf53332,,,,,222222,2,22,,,*mhhxBoOXX@52n       .$e8t14,>:,ar779rrrrwwetypadda3,-#OXmmbvvvbo:2=XmcX#,,V      ",
"21p07rd22,,,,2,3didf533,22,,=*OVX#;,,,22222,,;VxxB$=:,2,:=dpa;omm$1r7rd,*@OXBBO5r88rrrweuad12:--#oVcbbxxxxxxxm-,-cg..ggxO,*x    ",
"999870a222,,,22,2f5=oVbzh.            gknVO-,2oxX$>,22<,,5yettwrr00878u3$Xmmvxb@u00a32222222,,,,2,,-@Vmbz.   x;,@xggghzV:2@x.   ",
"900000ra2,,,,::51*k                          c,2$+$:,2221trqwrr09099878y1@XVO*1r01,,,,2222222,,,2,,:=-$@+Vbz   c:,=$+X$,,@x     ",
"d2*Bxn%,1ppdd51,Oh                            k@3fapuyyp2%mb+65ip15,:,1uw888880u5,,222222,2,,,,,::=-#OXVVbvz.    hxbmk.         ",
"         x#2322,=Vh                          .m6faapd:x     .gzxbbbnnnO-42dyeeyp5,,332222,,2,,:=-$@OXVmbvxz       .             ",
"         .B:,22,<-m.                         v*dauyu5Xl.    ..hkxvccVoO=222dupad3;=,,3,23,,,:=-$O+VVbvxzzg       .              ",
"          x@,22,,<$v                        ho5uteep=blg. .gxxxbBcXoO$*:,2,31ff3,OX#=,,,,:==$@+XVbbvxzh..                       ",
"           m=,,,<,,Ox                       m5yerrtdXvhgghhxvccVoO#$-:,,,,3,;:,;#XbbX#-==-#OXVVbvxzzg..                         ",
"           c*,,,,2,*x                      h#prr00t5XmvxxxvccVoO$$=:,,2,2,2=OXOXXbzxbmO##++Vmbvxzz..                            ",
"          k#,<,,<2:B                       gm1e0990u2$onmBVoO#$-=:,,,22,,2=+mXBmbzgzvmX+Vbbvvzzg.                               ",
"         hX,<,,,,,oh                       gv=u0990wa2=$Oo#$*=:,,,,,,22,,=Vvbbvbh .zvmmmbvxzz..                                 ",
"        .n=,,,,<2@x                        gvOdw000rt52,=*-:>,2222,2,,,,-Xxxvxbz  .zvbvxzzg..                                   ",
"nkh   gnO,,,,2,<-b                        .hvO,aw000re1222,,,22,==:,,=#Xvhhvvxz.  .gxxzg..                          .           ",
",,,,,,*nh   .km=,m                     ..ghxV*5w79ei444yeyaf533:*#XmcmO:2,,:,2:m    gg..                        gm*,2,:#nh      ",
",,,,*b. kbBVooBco26N.               .hxnVO*:3y80>x.    .X5df3=$#XXmmO:2@vg   gm,:k                            gO,*mvxxbO,,Vx....",
"2,,:oh.xnVO#**#Xo2fffd33,*oBcxkkxnV#,5duyerr080aV.      z#33-Xmbxxxm*,=mg  g .c=2#v.                         gm,,Oxxxxxb*,=mh   ",
" .kO2#kxBo$==-$@5dddaputewrr00rrr000900000rrr00y>x     hX2=mmX@OXmxg.+,*chgggb$,=bg.                          x#2=mxzxvo2,c     ",
"    k@2;XXoo$2dd5331ayew000099999890000rrweupaapuad2,233=mbX$=:=-$Xx  gV;:22,=Xh                                hm*,,,=#b   .vnB",
"    ho:,2333*b.      hxm*21uewr00reua13222,,,,,,,,$O#OoXbzxbX@$@OXvg   .gg.                                          .gg.   hMXO",
"    n*23555=v           glxbV@*>,,>>,,,,,,,,,,,,,,;Xbbmbxz.gxbmVmxg    ...                                            hgh   hmO*",
"   xO25ffd5V.          .ghxxbnBXOO$*=:,,,,2,,,2,2,*Vxzvvvz   gxvx.                                                    gllh  lm#>",
"   kO3dappdoh        .hhxxnnBVO@$*:,,2,,,,,,23222=+bg.lxzz    ghg                                             ghl.    hlxl.gvO=,",
"    v:dyteyfXxh   .hhxvnVO*:,,2,,2,,,,,,,,,,2,,,=Obg hxzz     ...                                          ..hxxlh   hxxxhhMO=,,",
"    .Xftwr0wp=VnnnmO*:,2231aauupad52=$####$$$$#Xcz  .kzhg                                                    .hh..  hvxvxkvO=,,,",
"    .$e880wyw9780ypyeerwr00eyupad53,=#OXVmvxh.gzV*,,2,,*c              zV%*;#Xk                   . .......   .hm*,,2,,,@nV=2,,,",
"  gou8e1,=$@O@>i878r000wetyuad32,;*#OXmmbvvvvc#2,+z..hxX,:c          h-,-XBmB#,,Vg                 ..h.ghhlhkv#,:mg    xo23*;,,,",
"dyr97rd,*OXVmnm:y880eypa132>,,,,:*@VcxzggghhvX:2$v....hb#2=b.       x$2:Xmbbmm-2=m.                      .ghvO,,Xh      x@5aa1a1",
"009878t5$Vmbvvn200a2,222222,,2,,,,3,=#Ombzg.  m,:mzgggxO2:Vh        gc-,=VmmmX=2O.            .ghlkxxcckkkkkhh@2@k     gV5pyyyew",
"090rr9780u11pe00u22,,2222,2222,,2,:=-$@OXmmv.   b=,,,,2-mg            .k@:,,,-Vg          .  ghxxvcVVoO#$=:=$ocm>2,;%@>1uyypueww",
"#@@oO#=21pe00rep522,2222,,3,3,,::=-#O+VVbvxg     . .                                     .ghxxvccVVO#$-=>,4,>*OX$,5fdd1,,2,2,,22",
"xxvvcnO-2,5ueyua5:,,,222,2,2,:=-$@+XVmbvxzg                                            .ghxxvcBVoO#$;:,,,,,2>-@=5fdad32,,;#OoVBB",
"vcBVoO#=,,2daadd3**:,,22,,,:=-#O+VVbvxzzg.                                            hxxvcBVXO#$*=:,,,,,4,2,-:5apup122,*OXBbbvx",
"BVoO$*=>2,,,3132;OmX$=,,:=-$@++Vmbvxzh..                                      .       xvmBVoO#*=:>,2,2,4,22,>25pytyd2,>@Bmbbxzhh",
"O#*-=>,,,2,,#**#OXbvmX$--$O+VVbvxzzg..                                         g .    xcoOO$*=>,2,,4,2,2,22,2dyeeep5,>@mbxxlg.. ",
"$=>,,,,,2,,$XXXBmvgxbm+@++Vmbvxzh..                                           .gg.   kBo#*=:>,222,,,,242,,,22dtrreyd2=Xvxhg.    ",
">,22,,,2,,$mbmmbxg.zvbXVVbvxzzg..                                            .hhg   xB#-=>,,<,2222,,,222,,4225urqqry5-Xvg.      ",
"222,,22,,#mxvbvxg .zvbmbvxzh..                                              .hhh. .xB$=>,,,,,,222,,424,,===,22de000ru,Xv.       ",
"222222,:#bhzxbxh  .hxvvzzg..                                               .hllg .vV*,,22,,,,2222244,:=-#OO@=,5u0990rdox.       ",
"$OO%+mbxxm@$OXb.   gzzz..                         ghxh.                 .cXOoBc..vX=,2,,,<,<22,2<,>==*#OoXmmX@=ar777779t2ovkvV%-",
"#OXBX*,,$mcmX*,=c                              .X,,>-*62,Ox. . .g.ggxX>2-VnnV#:,VkB*,2,,,,,22,,,>=-#OoVBmmmmo*y80p322,,3aeepddf5",
"VBbc#,,Xh   ..b*,Og                          .b,,XvvxxxX,,Obg...hhhxB>2Ok     hX,,OVo#=,2,222,,>====*===:,21e77p22222,<,25aaf533",
"vk.z+,=mg.   hX:2Xz...                       .b=,#bxzxkxO,;x       gV,=v      x@,33235d1aaadf532251auer00999988y3,222,,,,=5d2*oB",
"$Och h$2=+Xmm$,,@x.                           zX:2;XXO*,,V   .kxnkkh.k-,@mkhhc@25fffdapytewrreqqr00909999990009rp3222,>;:52V    ",
"#Omx   gbmXXcg                                    hcXmnxg   gvBXOOOVvxhm@*,22,=-=,,,311pyew0rr000999890rep1,OnnX:1apdd552=c     ",
"omx    ...                                           .ggg   hvO#$$OXvxvVO@$#$,242,,,,,,,,22231auup5,#mxh.         ho,3222,Ok    ",
"bz     .                                              ghlg  lnO=:-#omnO$:,,=,<22,:=-$OOXBBbbxxxbxh.                v$2222,,Oh   ",
"h      ..                                     ..g.    glll..hn$>,=#oV#:35532,,,:-$#OXBmbvxxhg..                    .V>222<,:B.  ",
".                                            ghlhg   .lxxl.hm$>,,,,=$=5daa13,<,*@oXBmbvxxh..                       c*22,22,#x   ",
"                                           .hlxvxg   hxxxhkB$,,22,,2,,dpytyd32,$XBnnvcvcvvvnnVO-#mxg              x@,2,222;n    ",
"         .h.                                     ..vBXBmvxm$,2,22,22,2dyr0080yd3>-**:21putwreereuuadf52;$OVckhgco=,,;-=:,,Xh    ",
"      ho,,222,-Vh                   ..ggghhhhhc@,,*XBo*:2*V$,,422,222a0rd2*%=1e97899990000rrtyupaddf1332,,,,,2,Ox       x;,m    ",
"    .X2:XbbmbX,,Oz                    .ghhllxm-,*v      x-55,:22222a001mxxvvcX=d0779800rwtua13*%X*:,,,,,,,,,,=og .llxxxzg m,>Ock",
"    z+,,OmbmmmO2:m                          hX2,m.     .v=1uupyttwr080a@mmBBo@=3i88ea2*Vc.           gzmX*,,,;v  hxxvvbvh.n*,222",
"     x@,,$+O*:,*h             ghlxvcccVXVooVckv=,Xx.  .v$1ytttwwrrr0870a:#$*>,1e8e%.                        z#,X. .lvvvxkn*22233",
"        .kmVbxg            .ghxxvBcVoO#$=:>,=$Xn@35ffdpup11351pyypa153y07790888w2x                            m,<$XXmmO,,:OoO*:3",
"                         ghhxvcBVVO#$-=:,,2,:*OO=35df322,2::====*#Xbvxxbm*ar0rwu2v                           hO,222,,*m.        ",
"                      .ghxvvccVoO#-=:,,,,2,,>*$2f1aad2,2:*OXBmbbxzzg.  .hx*aeyyufOh                          m=2222,:B.         ",
"                      hxvcBVXOO$*=>,,222,,,,,;51puya1,2=OXBbbxzzg..       x;dpadf,B.                        x#,222,,Ol          ",
"               .     .xcBVoO#*-:,,,24,,,,,,,,5ayteyf,,=ombvvzhg.           c:dff33*n                       hV:,,222#x           ",
"              .gg.   .xVO#$*=>,,,2,,2,,,,,2,3atwrep52=XNxxlh..             .B,3322,Ox                      x#,2335:m.           ",
"              ggh   gvo$*=:>,<22,2,2222,2,,,2derrqea2=Xvhh.                c*2222,;n                        b*35fdf:v           ",
"             ghh.  gvo$=>,,,,<22<2,4,2,,,>,,23prqr0wd=Xx.                 v$2,,,,,ox                        .B,dappa=x.    . .gh",
"            glhh  hcO=>,<,,2,222,4,2,,,=-*$=,4de0000e5Xx.                hO,2,,,2*v                          hOdutwea*vh.  .hjxv",
"           .kxl. hn#:<22,,,,,,2,2,,,>=-#OOXX#=2pr9980u,ch               x@,222,,:B.                           v3yrqrru2oBmvmo$=,",
"      .m#,222,*n.vO:2222,,<,,,2,,>=-*#OoVmNbmO:y779weeq9ry1<25f553,*->2,OcxlxbX,,B                            ma0800ew0880yppyew",
".gghc#2:n.  .kB,>mbO:,22,,,,,,>>=*$@OOOooOXO*p88a222222,5atpdf533222,Oxxvbbvxh  n,=m.                      .c300a4:*@oO#d07800rw",
"..hvO,,Bg     hm:2:#$-;:,2,,,,,2<,,,2231auer970a2222<22,,2fd53,2,,22#x.hvbvxxxg  n*22,>*Omvh.       gkm%,1py070p2-OXBmbmOa090eeu",
" .  k;,V.    .b$2533fdaputteetuppyer09009990988e52222222=:53Ox. .hn;,V .hkxxxh  xO,222,,,,23332:,31pyewrr099977ra*XmvxxvOu9e32,2",
"BXBch n:2>*@$:351315dpytewr0r0q0000099999900wewrru12,,,,33#h        c,,m.     kX;2222,,22355fddapytwwrr009990r9780u121ue0e1,4,,,",
"O$OVbxxcVO$-##=,2,,,,2231dpewr00900rwyp3=Xxh.   .n-55532,=m.        x#,,,,>,2:Vk   .hknVO*25dauyewwetud12:*###$=,3aer0reyf,22,,2",
"--#omvnO@*=*-2,,,,>==;;**;----=,=OXbxh            .B=2,224*n       gV>,,,<,,oh               .knBbvxxxxxxxxvnBBo$,23ayyuad::,,22",
">=#omB#;,3,:222,>=-$@oXBmbvxlhh..                  x@,22222$x      n*2,,<,,@x                     .  ghxxvmnBoO#-,,,3dddf3*O;,,2",
",>-OX*35ff5222<=$#OXVBbvxxlg..                     hO,22222;m.    .V:222,,:X.                    ..ghxvnmBXOO$-=>4,,,313,*ono$=,",
",,2>=:fapup5,2,*oXBmvvxlhhggghhh.                 .m:2222,,%h      hX:22,,,$v               .kvmBVVBBBVVXO$$-:>,,,,:-::*#Xbmo#==",
",,2222duyeep5,,-@XXmBVVXXO$:3apppd<$Vvh.         .n=222222*x        xO,2233,ok        .kcV*4auereypd53222,2,2,22,2=O@#OXmxxbX#*$",
",,2222pq0900980epd1aue0000rrreeuuaddf5332,,:*$*:,,obxvm%,2o.        .B,3515dpyup<**2auw009999000000rrr0eypdf3,>=,33222:*mgzbVOOo",
",,2,d0r5BvbbmO3y87899000rreeyupddf55332,222,,,#x  gghg.  c,;c      k*53*>222,,2d09000999890000rrrrrrweeyuadf55f3-mh  gxX,,c .hzx",
"51pr8w2mvvvnBo-1e7790reyp12#Vxh..kno#=,,22,,,*n  gxxxxvxh.x*,,;##-,5d3:,,222,,,5y878900rryp1124,424431d1d132,23,Xh     .m:,Xz   ",
"wrr078e>XBXXO$,5e7w2mk.                 .knX:2X. hxxvbbxzzX,,,,2355fpp52,,,,,,,5e70a,**-$$$$-$--=,2,,222,:*OVX=2Xh    .v$2-mzgg.",
"0r0r0870u1231ae8r6h                          c::m...hxkkn#,32235ffddptrt13231ar791OBbbmBVoO#*-:>,22,,222222,-Vzb=2=$+@*,,@vg....",
"532=-$*2p087800u-k                           .n=,,,>:,,*Vz..gzbmmch. gx&1q88879wd=#oBBVoO$*=:,,2,,2,2,,,,,,,$Vx.gxvbbx.         ",
"Bbxzh..zxX1erreu5m                           v#2,,,,,#x                gvOdr9090u5,=$O#$-:>,4,,2,2,2,,3,2,:#mz  hhhg     ..     ",
"xhh.    .hVdyyuaf$x                         hV>,,,,,*b                 gvo2ur00red2,,:=>,,,2422,,22,,,2,:-@mh  ghgg             ",
".         ho5ddfd2ok                        n*2,2,2:B.               . hvo=5yr0r0u522,,<2,,2222222,2,:=-$+bg   ghg.             ",
"           h@35532:Vg                      xO,,2232oh               ghlxco:,dyrrwyd22,,,,2,222,,32,:=-$@+bg   .gg.              ",
"           kO23222:Xh                      ho:23553og          .  .hxxvmB$,,fyeeeu1,2,,,2,,2,,3,:=-*#O+Vbz     ...              ",
"          hX>222<,#x                        xO2fd1a3V.         .hhxvbBBo*,,3ayyua1:,,,,,,,,2,,:=-$@+VVbbvz      .               ",
"         .n=,,222:B.                         v=dpuyu5mh.    .ghxxvnmVXO=222fpuad3;*,,,,2,,,,=--#OXVmbvxzgg                      ",
"         v#,2,22,Ox                           Xdywwry3mvhg.hjxmXVXXO@$=2<25ddf52#O;,2,22,,;*#@+XVbbvxzg..                       ",
"Bvh. .kB*2,,,,2,;n                            x,y09878rp,$$*=,33322,22225dadf3,OVO*,,,,:;*#OXVmbvxzzg..             .           ",
"533,,,#clhhg  hX2*k                          h,07ea135dy978rrrrrrretyey1:Vnn%;2,BvB#;-**#XXVbbvzzgg            .n*,,222=Vk      ",
"222<=Bllvbbvvxg .@,=Xch.                 .kB2r8t3>$OoBBo2w780rrweyyuud,b.     hO2#k.gghhhllhgggg.             x;,#NNNNB;2*b.    ",
"*:,,@l.hxvxxxl.  m=,<222,:*%Bck..hcV#,1pyer0978y5*oBmbvvm5r9wpd5511dd3oh      k@,:Bxzhgg                     gm;,*mNNbbX:2Oz    ",
"   m,:c  ..hh.  v#,,,2,,22335fffapuyewrr00999778y,ombvvX1rr1<,22,,,=@,2*vh. gxO,,oxzhhhgg.g.. .  .            hm=2*OVO#,,V      ",
"    h@2=Xmckco:2:*#;,,22355fddapytwwrr000rwypdpuq9790000rd22,,22,,,2*Bbo-:,2,*nh        ......                   .znXVbx        ",
"    M*<,,,,,;n.         hxco*2dpupd3,*%XXoXVVVXO=22fyweyuf,2,,22,,<=Xxxvvvx.  .glxg                                             ",
"   x@<2,,<,=m.                 ggghghghlhxvvmBXO*<22fpypd5==,,2,,,*Xxglxxh.  .gxxxg.                                   .       .",
"  .V:,,,,,,Xg                     ..ghxxvNmVoO#*;22225df52$X@=,,,*Bx..lxxg    .hh..                                    .       h"
};
