/* XPM */
static char *result[] = {
/* columns rows colors chars-per-pixel */
"128 128 75 1 ",
"  c #44839D",
". c #4686A1",
"X c #4788A3",
"o c #488AA5",
"O c #4A8EA9",
"+ c #4D92AD",
"@ c #4F95B1",
"# c #5097B3",
"$ c #529AB6",
"% c #559EBA",
"& c #57A1BD",
"* c #58A3BF",
"= c #5AA6C2",
"- c #5CA9C5",
"; c #5FADC9",
": c #60AFCB",
"> c #61B2CD",
", c #63B6D2",
"< c #66B9D6",
"1 c #67BBD8",
"2 c #69BDDA",
"3 c #7FB4D4",
"4 c #7FB8D7",
"5 c #7FBCDB",
"6 c #6BC1DD",
"7 c #6EC5E2",
"8 c #6FC8E4",
"9 c #70CAE6",
"0 c #72CDEA",
"q c #74D1EE",
"w c #76D4F1",
"e c #78D7F4",
"r c #79D9F6",
"t c #7BDDFA",
"y c #7EE2FD",
"u c #83ADD0",
"i c #8BADD3",
"p c #91AFD7",
"a c #93AFD8",
"s c #80B0D1",
"d c #95B0DA",
"f c #9AB2DE",
"g c #9EB4E1",
"h c #A1B6E4",
"j c #A4B8E7",
"k c #A6B9E9",
"l c #ABBBED",
"z c #AFBEF0",
"x c #B0BFF2",
"c c #80C1DF",
"v c #80C4E3",
"b c #81C8E7",
"n c #82CCEB",
"m c #83D0EF",
"M c #84D4F3",
"N c #86D8F7",
"B c #87DCFA",
"V c #88DFFD",
"C c #B4C1F5",
"Z c #B7C3F8",
"A c #BBC5FB",
"S c #BFC8FE",
"D c #81E6FF",
"F c #89E3FF",
"G c #84EBFF",
"H c #8CECFF",
"J c #87F1FF",
"K c #8DF4FF",
"L c #8EFBFF",
"P c #90F7FF",
"I c #91FCFF",
"U c #C4CBFF",
"Y c #CACEFF",
"T c #CED0FF",
"R c #D4D3FF",
/* pixels */
"s3siaddafgfais4csiahzAZACkjfhCUYAYRRRRYZjffddgkUfu5BIKyrqqrGLIFmbbMFHHPPKIILLJJD91>;---;;,<1<18,;*%@+@@#%%%&>8rt0<><wJIPKKPILGDL",
"us53uuiiaadius4uihAYRRRRYZzlURRRRRRRYYzgaaaiidkfu4NIJr9766<6qDLLKKKKKKLILLLKDr9,*%#@@@@@#%%*==*%%@O@#%**&%&-1e8,:>8DIKHMnnBVKLJJ",
"kdu353ssuiiuusufZRRRRRRRRRYURRRRRRYAzkfaiiiiidau4mKLe99qq81>;<9ryDJJLJJJJJyq6>&%O.      .oOO+@@OO@%=;:,,;=*:96;,8tLPGnv5655nMPIL",
"RAdus3v53sssualRRRRYYYYRRRRRRRYAAZzkfaiiiuiiais4mHLy88qtttq6>----,,1888qrr6>&#+.   .oo....o.OO+@%;,8www06:=>6:,eJIKe5suuuu35nBPI",
"RYlkdiiiuiagCYRRYAlhhhlZYRRRRYClhgfaaiiuuiuisscmVLG968ryDDtr9<-&$#$%==->16>&+o .O+#$#$$$$$$$%%=:6eGJLLLGe6;,>6DIKVv3uuiiius5bNHP",
"RRRRRRYYYYRRRRRAhaiiuiadkZRRRUjfaaiiuuuuuuu35nVKLJr6<8qyDJJDt06>-&#####&->&+. .O@%=-;>:::>>>><8eJLIPHKPLJ0,<,rIKm5suiiiiius5bVHP",
"RRRRRRRRRRRRYChauusssssuidhCYCfaiiuuusuuu35nVKLLJy9,,19ryDJJDtq9<>-%#OOO%&$o  @%=:1690000q0qwtDLIKBMmmBPLG6,6LPm5suuiiiius3vMHII",
"Zlljhhhhhhfdaiuus3454533suiafldiuusssss3cnVHLLLJyq6,,,18qtyDDDtr96>-%+oXO#@  O$*,6qrDDGGJJJJJLIPHMv55cnNKLq<0LHn5suiiuuus5bBHPIP",
"gaiiuuussssssss34ccvbvv553ssuuiiusss33vnVKILJDtwq81,--:,68qrtyytq96>=$#X O+  O%;6wtJLLLLLLLLLIPHVv54345MHLt89LKm53sssus3cnVKIIPH",
"diuusss344555545cbbmmMmnvvc533sss334vnVHILJtq866861,;**-->,79wreq96,:%#O  O  O*>9tJJLLIIILLLLIIKBv54335nHIG9qDIVn55344cnNHIIKVmn",
"dusss1s434cbbbbbbnmBBBBVNNMMnnvc5vvnVHLLJD086,,,1111,;*%#$*-,688866,-=$+O    O&>9tJLLLLLLLLLLLLIPMv5455mHIJ0JtLPHmnbnmBHIIKBn643",
"aussss3ss45vmmmbbnnmBBFVHHKKHHVNMMVHKLLGe861,;->,1661,;&##@$--,1,,,>--*$+O  .O$;6wGJJJJJJGyyyDJLLKVMnvnNHIJwLKDLIHVVHKIIPGb3ssuu",
"fis34s3s34cnMMmbcbbnMBFHKPIIIIIPHHKILJGq61,,>;-->16;*&%&*$OO@$%-*------*$@O..o@*>69wtetw9986618qGLIPFNNNHILyLPLJLLIIIIIHb4sssuui",
"lis4533335vMVBnccccvmMHHPIILLLLLIIILJG06<,,>,---::*%%$$#@+OOoO#@$$&&****$$@O.oO@&->,<<,>;----;;,6eJLKHHHPILJJPVPIIIIKBm4uuuuuuif",
"Cau4vc555vmBFMv5445cnMHKPILLJLLLLILLDw6<,>>;;;*%-%%&-;;--&#OX.   o+@#&$**%$@OO@O@#&*&&%&=-><69q9660DLIPHHILJJPmbBGGBbcsuuuuuuial",
"Zdu4bbvvvmFFVmv4355bvnVHPILJJDJLLJGDD01>-----=&%%%-><686<;%#O      .O@$$**&$@O@&$$$$%*=>60tyyDLLKt00DLLIKILLLPm44554suiaiiiuidkU",
"Cau3bnmmmVHHBn5cMBHHHPHKPILLJJLJ0861<61;-----&%%$%-<9qwq8<-%#X    . .O+#$%*%@@@%;:::>19tDtrrrtJLIILDrDLLIILLLHwsuuuuidhhddddgkSR",
"das5nNBBBHHHVMnVKILLLLJLLJJGtw089q08<>;;-**&%$$#%->6qrtr96>%#@X   .OO.OO@$%$$$$$=,60ereewwqqqwtJLHHPLGGLLLLLIFvsudfgklkhhffglSRR",
"uisvNVVBVHPKHVHILLLLLJJDDtewwrrDJJJDr8<;-**%$###*-,6qwrr96>-%#OOo  O$@OO+$%**&%%%;,68888616169wDLPMbFPILLLIIPNcsiagjkkjhhghkCURR",
"ss4nBFFFPHPIKHLLLLILLLLLLLLLLLLIIIILJD91;*$$@##%&:,69qqq96,>-%$#++Oo@;%@O$%-;--=%=:,<<<<<16999wwJIHc3bBHPPIHBb4uidfjjhhhhgjzARRR",
"43vBHVHFHPPIIILLLLIIIPPPPPPPPPPKHHKILJt9<;*$$$$&&-,1688661,>--%**$@O@=,=@#$*,<,:;--:>,<<699wttDyDLHbsus7bmmmb7suidgjffhhffjzURRR",
"cvMVHHFFHHPILLLJLLLIPPHHHFFHFHHFFHPKLLD01>-*%%%%&-:>,11<,,>>--*--*$O@=86=#%*,666::>:,168qttJJJJJJLKwsiaius33ssuipghffdgdgdjzURRR",
"nNHPPHFFFHKILLJJJJLLIPHHVFVFFFFHVHPILLt06,-*%$&*%&-*--------&-----%@@=0r1=%-,6886<<6,69qyyJLLLLLJLKmsikkdiiiuiidghgggdddddjxYRRR",
"FHPKHHHHVHKILJDDDtDJLIPPHHHVVVHHHPILJDw1,,**%$$$$$%%$$$$$%%&&&*-;;*@@=0Lt6==;68866,689qrDJJLLLLJJIHmsigYTZlkgghkllkjggfdagkARRRU",
"PPPPKPHHHKIILJDDDwwtJJLIPPKKKPIILLLJtw8,,-&%%@@+++++OOOOOOO@#&&*--*%%:eILt6;;,16<<6880qryDJJLLJLLPDcsikYRRRRYYYAYUCjdagfgfdfkYRR",
"PIIIIIIIILLLJGtett98wDJLLLLLLLLJDDw96,;-*%#@@OOo.       ..XoO+@$%%$%&,DIKLt8,,<,,6800wrttDDJLLLIKBb4uikRRRRRRRRRRYCfaadffpiidZRR",
"PIIIILLLLJLJDteetJw619tDJJLJJDr961,;*%%@@OOo.       OO@@%%$%$@@@%@@%:9JPMPLGr968etDDJJJJJJLLIIKHmcsuigZRRRYZYTRRRRZjfffkkffglURR",
"IIILLJJJJDDttwqwtJD8,,190ww98<>-&%@@@OoOo..     .O+@%=>168861>;-&*=:8tLHbbBPIKJKLIIPPKKPKHHHBmb5uuidkZYRRRYzfhlAYRRYZCAYYAAYRRRj",
"IIIIILLJJDtww0qwDJD0,;>>,,,;*%$$#@@@@@O+OOOoOOO+@&-,9tJLLLLLJGtq888wtLIVcs5nNGHHBMmmnnvbvvc4suuiflCARRRRRRYCgiiijZTRRRRRRRRRUji3",
"IPHPPPIILLDtwtrtJLDw6;*-**%%#%%*==--==*&$$#$$$%=;<0DJGyDGJLIFHPILKKLIPHM6uuus3533suuuuuuuuuidglARRRRRRRRRRYlfissidlURRRRRYCdi3bB",
"HHHPHPHPIILJJGGJLLJr6>-*&%%%=;>68909861<,>;;>>16eJLDtw00qtJLKNbeFFHHKVev4uifddpidghkjkklxzCYRRRRRRYYYYRYYUAjausv3uigzUYUCjis5mHI",
"NHPIIIIKHPPIILLIILDq6,-=*==:<8rDJJGDDDttwwqqwrDJLLJyw8666qyLIHb34cvbbv54suifzSURRRRRRRRRRRRRRRYlfaaadggllkjfis4nn4siaffdpsscVILy",
"HKIILLLIIKPPKPPLLJr8,,;--:,8wDLGDwq0qwetDJLLLIIIIJJt08666qDJIFbsuuussssuuiigzATRRRRRRRRYRYYAlfadaaiuuuiiaaiius5MHn53suuu35nHLG89",
"PILLLLLLLLLLILLJDw8,,;-:>60tJLJe9766680eDDLLIIIIILJDr0990tDLPFv3uaaaiiiipdgzAURRRRRRRRUClhfaaiaaaius53suuuuussvVIHVnc55vmVIJe0GL",
"PILLJJJJJJLJJJDr91,;--:>6wDLLJe71<,1660etJLLIIPPIILKJtyttJLIPNcsuakZCzxzxZAARRRRRRRRRYAlhfiiiuuiius3vc4sssuss4nVIIKMbvvnBLJqDIDn",
"PIILJJJJDGDte991,--*-;>6wGLILt71,>>>18qrJLIIPHHHHKPIILLLLIIPVn5suihZTRRRRRRRRRRRRRRRYAllfiiussssss3vMn533sss35MHILPVMnMVKLtKKbsu",
"KPILLJJDtrq86,;-**%*=:<0DLPLD01<>,1<8qrJLIPKHVBNNBBFHHHPPHFMb5suuigZTRRRRRRRRRRRRRRYClffdaus335445bBNnvc33334vNKLJJLLLILJDLHcupf",
"HPPIILJJtw86,;*%%%%%-,9DLPILt8<,>,69wtJLIKFBwbvc55cccbbbvvc53suuidhCURRRRRAzCAAAAAClgaiuuuus5nnMnBHKVBnc4344cnVIJq8qDDGwrLHcudkz",
"VFHKPILJDw8,;*%$@%%=:6rLPHLJw8<,,6qrJLIPHBnc54suuuuuuuuuuuuuiiiadglZUYRRRRSkdadffffiius34345nBHKHLIPPVMbc55cbNKLD8>-;;,qLKnsijCZ",
"nmMBFKILJt9<;*%#@#%;6rKIVKLDq8660rGLIPHMbc4suuuiidfhklzzzlkkkkklllzSUYRRRRYzduuuuuuus335nMVHHHIILLLIPHBmvccbMHIJw,-*=,0DIV5uakZC",
"5ccbnBHILJe6>;*%%%=,eJIVVILDw0qeDKIPHmc5suuiidgkCCAAYYRRRRRRRRRYSSYYYYRRRRYzdus333335vnMVPPKPPILLLLIPHVmc44cnFIG8>-;:1wJIVvsifkl",
"sss36vMHILD06>-==;6wJIBMHIJJtttJIKGmcsuiiadgkCAZZAACZZSYRRRTRRRRRRRRYTRRRRRzdusvnnvnMNVHLIIIIILLLLLLIPVVmbccnNHLG8;;,18tLIBvsuii",
"uussss5nBKLGr8<,,8rKINvVKLLJDJLPHn5suiafgklCUUUYUAZzllzZYRRRZZYRRRRRRRRRRRRZau3vNVVHHKILLLLLLLLLJJLLIPKFBBNNNBHILD8,==;<0GLKNv44",
"us333su3vBKIKGwwrGLPm5MHILLKLIHNcuupfafghlZUYRRRRYAzkghkZYRRSfflSRRRRRRRRRRzas5nVPIIIILLJGDJLLJLDJJLIPHFVBFHHHHPLJt8,=%=:9JLPHFH",
"us35333ss5nHPLLLLPHb4nVKILILIKn4uaggaffhlAYRRRRRRRUzkgfglSRRTguifzYRRRRRRRYki3vVPILLLLLJytyDJDJJDJJLIHVFVVFHPPPILLDt0,=*-1rLLIPI",
"us35vv53su3vMDHHHm4svVPILIIPHb3uflhfdfhlZYRRRRRRRRRAzgfgkARRRgusuakSRRRRRRZfu4mHILLJLKJJywwrtDGDDGLIIHHFVFHPPPPPILIILG0>,9rJLIPP",
"us4vvc553suu35vc5sscNHIIIIPHm3igAljgfhlAYRRRRYUYRRRRAzkklARRYfsc4uakARRRRAjiscVILJLLLIIIILJDJLIIIPPIIPHVHVHKHHPKIPFFFKILtwDLIHFV",
"iu355vvv43suuuuuus4nFPIIIIPM5ufZYAlllCZRRRRYACzhlARRRYSASRRRZasbb3uakZYSAlau3cNPIPKKHHFFHPPPIIPKHHHHHHHPHHHPHPPIPDbcc5bBHLLLPHBM",
"duu345cc533uuiiuus4mFPPIPHBvsiCRRRUYURRRRTzxZZxjiakYRRRRRRRYju4mm5sifkCClfis4bVHVBBBBNNNBBBBGBBBBFKHHHHPPPIIIIILPMc4suss4cbBKHNv",
"jpuu344543ssuuuius4bVHKPHHn5ufARRRRRRRRRUhkzZSZkauualYRRRRYlascDM5sidklkhau3cmHVBBBmnc6665cMNBMMmFHIIIPPIILLGGJInsiifdiiuuu344c3",
"kdiuus3s3suuuuuiuu3cnNBVBmcsujRRYRRRRRYzadhlASUxfu3sudlASAlfisvFm4uigkzzgiu4mHPHFMmvc43ssss355c544cMHHHHILJGtGIvudzYRRSlpiuuuuui",
"Cjdpuuuuuuuuiipapius5vnnnc3uaCRRUZUUAChiiifkASYUlau54siaggfiu3bBcsidklCzhau4mHPFBmbvc543sssssssuuuu3vnMVHILDtInudZRRRRRYkppiiiii",
"Azjdpiiiiipdfhkkjfauu33543uifURRAfhjjfaiiifzATRRYkpu54suiiius4nb4uigzZAzhau3bHPFNMnvv54564543ssuuius4vMBHIIIPV3izRRRRRRSjfdaaiaa",
"SAljffdfhjkzZAYRRACgaiuuuuupkTRRZdiaaaiuuifxYRRRRRkpu54suuuss4m5sudkZSSZkau3bFHFDNnbvccccvnnmbc3sss35nMFHHHBmvupZRRRRRYljhffaiii",
"YAACCCCCZYRRRRRRRRRYChdiuipfxRRRAgiiiiiuuifxYRRRRRYlis44ssss3cc3uigzSUSAlauscNHFVDNMnnbbvbnmMBFVnnnNBHHKHVBn3uufzYRRRUkfddaaiius",
"RYTRRRRRRRRRRRRRRRRRRUxjfffjZRRRYkaupiiiuifCTRRRRRRYkpus44ss4c6uidkSUYSAlfus5mFHHFVVNMmbbcbMBVHHPIIIIPHBn563uplURRRTYlljgdpiuuuu",
"RRRRRRRRRRRRRRRRRYRRRRTZzkjzAYRRRCfidfdaiuajARRRRRRRShius44344suahZYUYYAlfiu3vMBVVHGnc4ssss35MHPIIIIIPFnc3suplRRRRRRRRACzkgdpiii",
"RRRRRRRRRRRRRRRRRRSYRRRYAzlxZYRRRAhdgkllgaifxYRRRRRRRCgiuus443uuahZURRYAlfiu35bwbv55543sssus35bBHHKKKKFn5suuplYRRRRRRRRRSZxkgdai",
"RRRRRRRRRRRRRRRRRRRYRRRRYACCZYRRRYjgZYYYAldihCRRRRRRRUldiuus3suudlASYYTZlaius4ccc433<33444ss33463334cwFMv3uiafkZTRRRRRRRRRUAzkgf",
"RRRRTTYYYYRRRRRRRRRRRRRRRSSAUYRRRYgCRRRRRRAjphYRRRRRRYChaiusssuiflAYYYUChaius344333sssss45v554suuiiuus453suuphlZAASYYTRRRRRYUAzZ",
"RRRTUACzCAUTRRRRRRRRRRRRRYSYURRRRACRRRRRRRRYkplYRRRRRRChaiuuusuudjASYUZlgauus333ssussuuuuuuu363uifjgdiusuuifkZSSCCASYRRRRRRRRRYR",
"RRTUljhhjlZURRRRRRRRRRRRRYYTRRRRRCYRRRYAAYRRRzpCYRRRYYChaiuuuuuuahCAAClhfius,s3ssuuuussuuiuuuusuiglzkfiuuidjZYRRTYZZYTRRRRRRRRRR",
"RTZjfadfgkxARRRRRRRRRRRRRRRRRRRRYARRRzgddhCRRRlfZTRYYAlfauiiiiuiafklllhfiiuss443ssuus33433suusuuiglCzkllhCYYYYTRRYYZSYRRRRRRRRRR",
"YZjfaiaafkCTRRRRRRRRRRRRRTRRRRRRYRRYkauuuiazRRTjlAUUYClfaidfgfiuidghlhfauus3sss4suiiuu35bv53ssssifzZSURRRRRRRRRUZUYAARRRRRRYYYYR",
"ChaiiuiagzURRRRRRRRRRRRRYRRRRRRRRRYlausssuufARRCjCUAClfafhzCCCjduidffaauuuuidaiiipjlkgdpiuuuuuuupdlAYRRRRYYYYRRRRRRRRRRRRYCkhgkC",
"hauiuiiagZTRRYUYRRRTTYYYYTRRRRRRRRCfus333suilRRRllxClhhlCYRRRRYzdiiiiuuuidzRRRRRzARRRRRRRRTYlfdfhhkAYRRRZhdiiipdfCRRRRRRYxgaiiia",
"aiuuuiidkARRUACCAAUYYSAAATTRRRRRRYlaus4533uikYRRYxlklCURRRRRRRRRCgaiiaidglRRRACARRRRRUAAAUTRRRAlzzCARRRRzdius3333uifhCYRShauuuuu",
"iuuuuiifkSRYCljkzZAAZzCCAAYRRRRRRUlius333suihYRRRTUYRRRRRRYYYRRRRAzkkllZYRRYgiuuakUYZkgffglSRRRAxlCARRYkfiuus33uuupaiidhCfius33s",
"uuuuuiagzYYCljhklzCCzCxxzZUYRRRRRAjauusssuuphZRRRRRRRRRTAzlhlCYRRRRYYTRRRRRAduuuuidkxjaaafjSRRRRRAlARYhis3suudjCYRYCdiuuidus3434",
"usuuuifhCAzljghhzCZClzlllzCAYRRRRYlfiiuuuuidlSRRRRRRRYZkfaiiadlYRRRRRRRRRRRYzgiiipdfhjjghjxSRRRRRRYRRlisssuiazRRRRRRZdussuu34c5c",
"suuiidgzllhfffhlCAAAzzlklklzZYRRRYChdiuuiuahxSRRRRRYAkdiiuuiiidzYRRRRRRRYYTRRRRYCzkgggfhllAYRRRRRRRRAiuuuiifzURRTRRRRziu33s45cbb",
"uuuidgkgdaaaffhlAUUUAClhhgjjlUYRRRUzgfdpdfjxURRRRRYCgiuuuidfgddgZAYAACkghlARRRRRRRRYZkhhlCURRRRRRRRRfidghlCURRRRUYRRRSdu3445vbnm",
"suidgaiiuuiiafkZZCZUAClkffafflCTRRYZCkkllCAURRRRRTAhiuuphCZUZzhhzlkgdaiiaafkzAYRRRRRRUAZZSTRRRYYRRRlhkARRRRRRRRRAURRRUgus5vvbnMM",
"uuaiuussssuuifllggjlAAlhfaaiafjCRRRYUAUYYRRRRRRRRUlauudxYRRRRUzzZZzgdiiiiiiiidfjlSRRRRRSSYRRRYSYRRZffzARRRRRTYYYUYRRRZfu3cbbbmMV",
"uiuss45553suifhaiiaflClgaaiiiiajARRRRRRRRRRRRRRRRUhuifARRRRRRRAzARRAkfdaiiuiiiaafxRRRRRYYYYRRYAAAzaagzARRRRRRRRRRRRRUgis5bbbmmBF",
"uus4vnMMmv5sudaiuuiifllgaiuuuiifzUTRRRRRRTRRRRRRRZdidxRRRRRRRRUAURRRTCfiuuuiiaffjSRTYYSSSYSYSAljgiiagzYRRRRRRRRRRRYCfusvnnbbnnNF",
"us5nBHKHHNv4uiauuuuiagkgaiuuuiiajCUUUAUACCzCUYRRTxaizRRRRRRRZhahSRRRRZgiiiiagkzASSSAAASSSYTYSAlfiuiahZYRRRRRYUUClkaus4bnvvvbbvmF",
"s4mVKILLIHVvsiiuuuuuidhaiiiuuuiajzCZZzlggfffjCURTlidARRRRRRCgiuikYRRRRZgddjCSYYZzzZSUYRYSSSSACjjaadhlSYRRRSzfiuuss3cbbc55vnmnbbN",
"3vBKLLLJLLHM5siuuuuuidfiiuuuuuidkCACzkhapaaiahCRTkazRRYRRRRCfiuilSYRRRRRAURRRYZkzZZYYYYAAAAAClffafzCZYYSzhaus3425vc7434vnMmMnbcb",
"4mHLLDyDJLIHm4uiuuuiidaiuiuuuiagzkkzZkfapiiiiflYYgdYRRYRRRRAjiualhkzYRRRRRRYYZzxZRRRYSSACCCljhddiiahhkgaissssuuussss45bMNVHVBmv5",
"5MKLDyDDJJJIHn4suuiiiiiuuuuiiadgaaiajClfpiiiidkUAgkRRRTRRRRli34ssuahCYRRRRYSSSATRRRRRAzlfaaffadadiuuuuus33suuussss44vnNHHHPHHFmc",
"cNKLDDJLLLLLIKBb5433sssssuuuifaiuuuiahljdpipafzYjhURRRTRRRCisbmbcsuifhlCUAZZZYRRRRRRzfiiuuuuiaiajiuussssuuiis34cc5bmNHVHPPPPPFNb",
"cNKLDDLIPKPPIIPHVNmbvv443suuiaiusssuuagjfdddfkAkdhARRRYYRRli3nDmv4uuiadfgggglAAYRRSgissuuusuuiiikfiuuuuuidus4bbmMNNFVHHKPIIPPFNv",
"vBPLJJIPHVNNVFHKHFHFBMmb53suiiuussuuiiafhhghkljhlARRRRYARRApsvwbcsuuiiafggggjghlYRlis34siuuuuuiakkdiiiidgis5bmwmMHFHHHPPIIIPHFbc",
"bBHILLIKFmbvvcvcvv5cbbbbv53suuussuuuuiiaafdghhzYRRRRRYYUYRRxpssuuuidhzARUAzlgaiigZkis44uaaiiiiidzZhdddgkis4nmbvvmMVHHKPIIIIKFMv4",
"nNFPILIKFnc63suuuuussss4574suuusuuuiiiipaddhzURRRRZCZSYRRRRRxhkllCURRRRRRRRYjiussiiis4sihkaiiiidCSzhhkZgiscMmvvcbMVHHKIIIIPHNb4s",
"mMVHPIIPFm53uuiaadddaiiuus43suuuuiuiiipddfgxYRRRRSZkkARRRRRYURRRRRRRRRRRRRRRUas4433333sihhaiiadhZUClzZZgi3bNMb5cnMVHLIIIIIHVb4su",
"VNNHHKIPHMc3uidkxCACzhgaiuusuuuuuuiiiadiiiagxYRRRRYAZYRRRYZCYRRRRRRRRUUUURRRRzi45cvvncsudfaiidgzYYACCSSgi3bVVMnnNVKIILIIIHBb6sui",
"HHHVMVHHPDb3uihZYRRRYYZhaiuuuuuuiiaddgdpiiidkZYRRRRRRRRRYZCURRRRRRYZzzlklCYRRRhu5bnMNb4uiddidhkZRYSZAUUkiscVHHVVHLIIIIIKHBb6suii",
"PPPPPHVMFFM5uikSTRRRRRAlhaiiuuiiiidggkCkgggkxZUYYRRRRRRRRRRRRRRRYAkgfgkxllARRRAau4bnbcsudhggzzzARRSASYRCdu4mHPPIIIIIPPHVMv5suidi",
"PIIKHDFDFBBb3ufZYRRRYYAlfauuuiiiaddgkzURYASYRRRRRRYRRRRYRRRRRRRRRYzhklACzCYRRRYfuusssuudlAAYUZYRRRYAASRTlis5mHPPPKHHHBmnc4suiddu",
"PPHec5345cmmvsigZYYYYZlfaiiiidfggggkzURRRRYSYRRRRRRRRZkxCSUYYAYRRRRYSAACjjCRRRRziiuiddgZRRRRYYRRRRSAZSRRYkiu4bNBmmnbv553suuifkdi",
"PHn4uuiiuuscvcsidklllgaiuuidkxCzkkkzAYRRRRRYYRRRRRRYzAYTYTTUSzkAYRRUCCCzhhjURRRTkddkAYRRRRRRRRRRRRYZZASRRRkauus4ssssuuuuuiidhzgi",
"KB5uagkljdisbbb4siiiiuiuidkZYTRYAZZYYRRRRRRRRRRRRRSZARRRRRRRSkdkYRRYzllkgdfCRRRRAzzZRRRRRRRRRRRRRRSZzCAYRRRAgauiiaaapaaaddghkZkd",
"HM3udlUYYZdsbNcc4suuuuuifCYTRRRRRRRRRRRRUlzZYRRRRSRRRRRRRRRRYCgdCRRYlhhgdiakYRRRRRRRRRRRRRRRRRRRRRYZzlzZYRRRRAzlCAAAACxlkkklzZZl",
"FN3ufZTRTYzisc4iiiuuuuidlCZAYRRRRRRRRRRRZgiaadhkkURRRSZURRRRRSgafYRRZgddiiakZRRRRRRRRRRSRRRRRRRRRRRAzllzAYRRRRRRRRRRRRTUZzlkklZU",
"mB5udCYRRYZgusualdiiiigklllhhlURRRRRRRRRRYldiiuigYRRSlkzUTRRRYlaihRRYldiiiakARRRZSYRYYSSRRRRRRRRRRRYzlkklAYRRRRRRTRRRRRYAzkgdghl",
"cMbsihZYYYlfusigkkgdggklhaiuiagZRRUYYYRRRRSzgfiidSRRSzlCUTRRRYzgiaARRAgaiidkSRRYlkZSZZlYRRRRRRRYRRRSzhgghjlAYTTYUAASYRRRSlfaiiia",
"scn5uiglllfiuuizYAACzzzzgiiuuigZTRRRldgkCZZlhddflSRRYSSYYTRRRYlfiilRRYzfiidkARRRZkhhkkZARRRRRRRYRRRAldaaaadhjzzljhlCYRRRAhauussu",
"us5c3suiiiuuuikURRRRRAAZZhdpddgkZYRRRziuuiiaafglYRRSCZAUURRRRSkauufARRAkgddhZRRRSzkkklZATRRRRRYARRRZgaiuuuuaaafaaaflARRRAfis3443",
"aius333ssuuualYRRRRRRRRRYACjggkkZARRRYhu44suidkSRRYzkzZURRRRYlaiuuaCRRRCgfgkZRRRYAzllzCAYTRRRYAARRYzaiussssuuiiiiidkARRRCau34vbv",
"gkgpiiiiiaglARRRRYSYYYRRRRRUCxZTRRRRRYki3v5sidzTRRSzkzZRRRRYZfiusuikYRRYzkgkZYRRRSZzlzZAAUYYUUzARRYlius34433suuuuidzYRRRlau4vmNM",
"zAYRYUUUUUURRRRUClkkllCYRRRRTUUTRRRRYZfu4Nb3uazRRRRSZYRRRRYCdiusssufARRRYZlCARRRRYClkllzzAUAClgARRRhiu34ccc53suuuifZRRRRlis4bNVV",
"URRRRRRRRRRRRRRTUCjfadfhlARRRRRRRRYxkgiu3bVcsizYRRRRRRRRRYzdis343sualRRRRYSSYRRRYYCljjjlllzllfgARRYhis4vbbcc3suuidkARRRRlis4bNFF",
"RRRRRRRRRRRRRRRRRAhdiuiiafCRRRRRRRTAkkdiu3bvuigSRRRRRRRRYkdus3c453uifARRRRRRRRRRYZkhggghhjjjfafCRRYgus5bnbbc4uuiigARRYRYlau4cmNN",
"RRRRRRRRRYYRRRRRYCdiusssuuifCUYRRRRTUSACgiu3ufZSURRRRRYZgiu3cv5433suahARRRRRRRRRAlfaaaaffffaaifzRRYhus5bbmv5suidkARRRRRYlaus4cbn",
"RRRRRTTTTTRRRRYZkaiss455543uiidjxAYYRRRRRTkiigZUUUSYYZkdis3vnc44543suakZRRRRRRRYlfiiiiiiiaaiiialYRRkis4vbbc3uidlSRRRARRYlaius44c",
"RRRRTUUUYRRRRYhius35vbmMNNmnv53suihZRRRRRRRCiahCZZCzgdius5nMv4445c53suigZYYRRTYlaiuuuuuuiiiiiuigARRziu36c54uidCRRRRAYRRYlfaiuus3",
"URRRRYAAURRRYhis4bMNVHHKIIIKPHMv3uigYRRRRRRYasuiiaaauus3vMVnc445cbvc4suidkzZAZjaisssssssuuiiiuualRRAdus343sudzRRRRASRRRAlfiiiuus",
"kURRRTSSYRRRCas4mVHPIILLLLLJLLKVv4uikRRRRRRYfsb54sss345nMHVnc445nMmmb53suiaagaaus34sss33suuiiuuifARRkiusssuigSRRRSYRRRAlgfaaiiii",
"akYRRRYUTRRAgu4MHPPILLLLIILLLJDLIBcsaZRTRRRAa3VHb444cbmBHHBnvcvnBVmmMmv4ssuiiuus54ssss33suuuuuuuaZRRCduuuuualRRRYRRRYlgdaaaafggf",
"udxTRRAllSRRYdu5mmDHILJLLIILLLJDLLB4ugARRRAgscHIPVBmNBHHPHFNmmmVVMnnnMNbc4ssss35c3ssus353suuiiiuikRRAfiusuualRRRRRYCgdiiiiafhlxz",
"4ualURRUZURRRzisuscmHLJJLLLLILLGtLKn3uahhfiu3bFILIHHHHHPPPPVFVVHBnbvvnMVMvc4445b5ssuus34suiadddiuhRRAfuussuikSRRRYkaiuuuuiafllgd",
"b4sigZRRRRRRTkuuis4nHLGyDLLIIILLyGIFcsiafaiu3cVKILLIIPPIIIPHPPKHBnvvbmmFFnbccccm6ssuss33uidkZZZzdgRRSdussssidARRYkausssssuiffiuu",
"bVvugUTRYZACfusuus5NIJetDJLIIIILGeLKm4siiiiu3cNHIILLLIIPPPPHPPPPFNnmmNBFDmbc45cb4ssusssuakZRRRRRYlYRAdus3ssualYYkiss4554suuaiuss",
"bHH4ikUTUkissc434cVIJq8wDLIIIIILG9GIVcssuius3cmFPPIIIPPPHHPHHPIIPFNNNFFFMb54334c4ssusuidZRRRRRYRRRYRSdus444sigACas4cbnnv5suius3s",
"vVPHcsiaausbVVNNNFIJt88rJLIPPPILG8tLKmcsssss4cmFHPPPPPHHHHFHHKPIPHHFFHBwc4suuuus3uuuuajSRRRAkkgkSRRRSdu3555suikfu4vmNVNmv5suuss3",
"vBKILLHNmVHIIIIKKLLt60JIPHHPPPILD6qJIVb4sss45bmVHHHHFFFBNNNNBFHHPPHHFmc4suipaaaiuuuigZRRRSkaiuuidlRRAis4vnv5suaiscMFHHHFMv3susss",
"vBHIJDDDDGJGJJLJJy9><DIHBmmBHILJt68DIHmc455cbmNFFDVBmwbbcvvcbneMVFMwc4supdkxCCxkhfgzYRRRCdiss44ssalRziscnMMncsus4nFKLIKKFmvssuss",
"cmHLLJGDDytrq961,-&-8DIHNmnMHILD016tLPVmmmmmNBVVNNwvc44ssss3s45cc74suuagxATRRRRRUUYRRRYlaus4vbbv4uaCgu4mVHHVmcssvBHIILIIHVnc3sss",
"545vbNHILGq6,>>-&%&>9DLPFNMVKIJt6;6rJIKPHFFFFFFBmb53suuiuiiuuuuuuuuiajxURRRRRRRRRRRRRSjiu3cmNVFNb3ufa3bVKIIKFm44nHKILLLLIHNbc4ss",
"43s344cbFILw6,;-&$-1rKIKHFHPILDq,:6tJLIPPPHHHFVmb5suuadfgggfgiaiiafjCTRRRRRRRRRRRRRYZhiu3cmBHPHFNcsau5FLLLLLIFb4MHILLLLLLKHNbc44",
"bc43ss4cMHLJDq<-#&>0GIHFNNFHILJt98wyJLIIPPHHHHFm5suifkCZSSACzjjhjzZYRRRRRTSAAZSUTYUzgiu3cmFHPPHHBvsu4NLLGyyJLKFvNKIJLJJJLIPHNnbc",
"mBBmvvvbBKIILt<&&>9GIPFMnnmVPILJrGLLIIPPPPHHPHDb5uifzSRRRRRRYSZCAYRRRRRTSxljjjjzCxkfiu35bNFHHPPHBb3smILt079wGLKmFPIJJDDJJLIPFNmm",
"HHFNMmmmMBHILr>->9JIKFn555vNHIIJJIKFVNDFHPPHPFNv3ualURRRRRRRRRYYRRRRRRUCjgfddgggjgfiis3cmBHHPPHHDb3mPLw1,,,6wJIFFLLLGGDDJLIPHFNN",
"LLPFNbvvbmFIJt9<qJIKBn5sss3vBPILIKDnvvbNFPPHFVNvsigARRRRRRRRRRRRRRRRRUCjffadaaddfaaius3vmVFHPPPHNvnKK0,;*&*;7yLHFILJGDDDJLIPPHVV",
">9GLHNbcvmFILJDwGIFmv5uuiuu3bFIJIHNbvvvmFFMbc55csijTRRRRRRRRRRRRRRRRTSlgfaiaiaadffaius5vmVFHHPHVMnPK0>%#@@$=,eLPHIJJytyDDLIPHVNN",
"o#-0KPBMnmDPIILJLHMc5siafdiu4mKIPNnnv5vmBv53suusudCRRRRRRRRRRRRRRRRRTAxhfdaiiaddfddius3cnNFHHHHBNLJ0;%@OO+@&>qLPPILDyttDJLIKFMmn"
};
