/* XPM */
static char *result[] = {
/* columns rows colors chars-per-pixel */
"128 128 92 1 ",
"  c #6E564B",
". c #715648",
"X c #755A4A",
"o c #7A5E4D",
"O c #6E475B",
"+ c #6C4A5D",
"@ c #73465B",
"# c #7B465D",
"$ c #6C5754",
"% c #7D614F",
"& c #7F6250",
"* c #6C4D62",
"= c #6D5166",
"- c #6F5469",
"; c #70566C",
": c #71586E",
"> c #735C73",
", c #766179",
"< c #79647D",
"1 c #80475F",
"2 c #826551",
"3 c #866853",
"4 c #8A6C55",
"5 c #8E7058",
"6 c #93745B",
"7 c #97785D",
"8 c #9A7A5F",
"9 c #834761",
"0 c #864862",
"q c #8B4964",
"w c #914A67",
"e c #954B69",
"r c #9B4C6D",
"t c #A04D6F",
"y c #A34E71",
"u c #A84F74",
"i c #AB5076",
"p c #AE5178",
"a c #B4527B",
"s c #BA547F",
"d c #9D7D61",
"f c #A07F62",
"g c #A48265",
"h c #A88567",
"j c #AD8A6A",
"k c #B28E6C",
"l c #B5916F",
"z c #BA9472",
"x c #BF9874",
"c c #C29A76",
"v c #C69D79",
"b c #CC9F7D",
"n c #CDA07D",
"m c #7B6680",
"M c #7D6A84",
"N c #BE5581",
"B c #806E8A",
"V c #82718D",
"C c #867593",
"Z c #877896",
"A c #887997",
"S c #8B7D9B",
"D c #C35684",
"F c #C85787",
"G c #CD598A",
"H c #D45B8E",
"J c #DC5D92",
"K c #E25F96",
"L c #CF7F83",
"P c #D27C85",
"I c #D67789",
"U c #DB748C",
"Y c #D57888",
"T c #DF7290",
"R c #E76F96",
"E c #E96F97",
"W c #E66099",
"Q c #EC629C",
"! c #ED6E9A",
"~ c #F1649F",
"^ c #F36D9E",
"/ c #E47193",
"( c #F566A1",
") c #F66BA1",
"_ c #F869A3",
"` c #8D809F",
"' c #9083A3",
"] c #CE8382",
"[ c #CE8B81",
"{ c #CF9381",
"} c #D09780",
"| c #D09B80",
/* pixels */
"'AB,=*OO@1wyFW_!UL[|bzf4o.o3flv|{LU!_QFieq#@O+*;,,MMm,;*+O@#1wuFW(!UL[|vzf4o.X27jcn{]Y/)(JNtq9#@O+*=-::==*+OO@#qraHQ)/YL[|nl83X$",
"'AM,=*OO@1wyFW(!UL[|nzf4o.o4flv|[LU!_WFie9#@O+*;,,MMM,;*+O@#9wyFW(!UL[|vlf4o.X%7jc|}]YT^(JNyw1#@O++=----=*+OO@#qraHQ)RY]{|nl82X$",
"'SM,=*OO@9wuFW_^UL[|nzf4o.o4flv|[LU!_QFieq#@O+*;,<Mm<,;*+O@#9wuFW_!UL[|vlf4o.X27jc|{]Y/^(JNyw9#@O++=----=*+OO@#qraHQ(/Y]{|nl84o$",
"'AM>=*OO@1wyFW_^UL[|nzf4o.o4dlv|[LU!_WFaeq#@O+*;,,M<m>;*+O@#9wuFW(!UL[|nlf4o..27jc|}]L/^(JNyw9#@O+**=--;=*+OO@#qraH~(RY][nnl83X$",
"'AM,=+OO@1wyFW(^UL[|nzf4o.X4dlv|[LU!_QFaeq#@O+=;:<MM<,;*+O@#qwuFQ(!UL[|nzf4X..27jc|{]P/^(JNyw9#@O+*+=;:;=++OO@#qraH~)RY][|nl82X$",
"`CM>=+OO@1wuDW(!UL[|nzf3X.X3flv|[LU!_QFiwq#@O++;,<<<<,;*+O@#qwiFW(!UL[|nlf4X..27jcb{[P/^(JDyw9#@O+**=::;=*+OO@#qtaH()RY]{|nl72X$",
"SCM,=+OO@1wuDW(!UL[|vzf4X.o4dlv|[LUR(WFiwq#@O++;:<mm<:;*+O@#1riDQ(!UL}|nlf4X..27jcn{]P/^(WDyw9#@O+**=::=*++OO@#qtaH()RY]{|nl82X$",
"SCM>=+OO#1wuFW(!UL[|nzf4X.X3flv|[LU!_WFieq#@O++;:<mm<:;=+O@#qriFQ(!UL{|nzf4X..27jcn{]P/^(JNyw9#@O+**=;;=$*+O@@1qtaJ()!Y]{|nk82.$",
"SCM:=+OO@1wuDW(!UL[|nlf4X.X3flv|{LU!_QFaeq#@O+*=:,<M,:;=+O@#1riFW(!UL[|nlf4X..27jcn|]Y/^(JDuw9#@O++*;=;=+*+O@@#qtaJ()!Y]{|nk73.$",
"ACm:=+OO@1wuFW(!UL[|nzf4o.X3flv|[LU!_QHueq#@O+*=:,<<,:=*+O@#1eiFW(!UL[|nzf4X..26hcnb]P/^(WNyw9#@OO*======++O@@#qtaH((/U]{|nk72.$",
"ACM:=+OO#1wuFW(!UL[|vzf4XXX3fkv|{LU!(QHueq#@O+*=:,<<,:=*+O@#qwiFQ)!UL{|nzf4X..%6jcn}]YT^(JDuw9#@OO+*=====++O@@1qtaH((KY]{|nk72.$",
"SVM:=+OO@1wuDW(!UL{|vzf4X.X3flv|{LU!(QFueq#@O++=:,<<,>=*+O@#1wuFW(!UL{|nlf4X..%6jcnb[Y/^(JNuw1#@OO**=;===*+O@@1qtaH()/Y][|nk72.$",
"ACM:=+OO@1wuFW(!UL[|nzf4X.o37lv|{LU!(QFueq#@O+*=>,mm>:=*+O@#1riFW)!UL[|nzd4X..26jcnb[PT^(WNuw1#@OO+*==;=**OO@@1qtaH~^/Y]{nnk83.$",
"ZVM:=+O@@9wuFW(!UL[|nld4X.X37lv|{LU!(QFaeq#@O++=>,,,>:=*+O@#1riFW(!UL[|nld4X .26jcn{[YT^(WNuw9#@OO+*====*+OO@@1qtaJ()/Y][|vk82.$",
"CV,:=+O@#9wuFW(!UL[|nld4X.o3dlv|{LU!(QFieq#@O++=>,,,,:=+OO@#1riFQ(QUL]|nld4X .%6jcn{]YT^(WNuw9#@OO+*$===**OO@#1qtaH()RY]{|nk82.$",
"CVm:=+O@#9wuFQ(!UL[|nz84X.X3flv|{LU!(QFarq#@O+*=>,,,,>=*OO@#1raFW(!UL[|nld3X .%6jxn{[YT^(WDuw9#@OO+*====**OO@#1qtaH()/Y]{|nk82.$",
"CB,:=+O@#9wuFQ(!UL[|nzf2X.X3flv|[LU!(QFarq#@O++=:,,<>:=++O@#1raFQ(!UL[|nl83X .o6hcn{]YT^(JFie9#@OO+*===***OO@#1qyaJ()RY]{|vk84.$",
"CB,:=+O@#9wiFQ(!UL[|nl84X.X3flv|{LU!(QFarq#@O++=>>>,,>=++O@#1raHQ(!UL[|nl83X .o6hcn{]YT^(WFie9#@OO+++===*+OO@#1qtaJ()/Y]{|vk83.$",
"CB,:=+O@#9wiFQ(!UL{|vld2X.X3flv|[LU!(~Harq#@O++=;:,,:;=*OO@#9raFQ(!YL{|nl83X .%6hcn{]YT^(WDieq#@OO++=*==*+OO@#9wyaH()RY][|vk82.$",
"VB,:=+O@#9wiFQ(!UL]|vld4X.X3dlv|{LU!(~Harq#@O++=;:,>,;=*OO@#9eaFQ(!UL{|nld4X .%6gcn{[YT^(WFie9#@OO+*+*=+*+OO@#9wyaJ()RY]{ncj82. ",
"VB,:=+O@#9wiFW)!UL[|vlf4X.X3dlvn{LU!(~Harq#@O++=;>,,>:=*OO@#qriFQ(/YL[|nl83X .%6gcnb[PT^(WFue9#@OO++*****+OO@#9qyNJ((RY]{nvj82. ",
"VB,:=+O@#9wiFW(!UL[|nl84X.X37lc|{LUR(~Farq#@OO+=;>>>>:=*OO@#qraHQ)!UL{|nl83X .o6hcn{[PT^(WFie9#@OO+**===*+OO@#1wyaJ((RY]{nvj83. ",
"VM,:=+O@#9riFW)!UL[|nld4o.X37lv|{LU!(~Har9#@OO+=;>,,>:=*OO@#qriHQ(EYL[|nl83X .o6hcn{[PT^_WFie9#@OO++====*+OO@#9wyDJ()RY]{nvj83. ",
"VM,;=+O@#9wiFW(!UL[|nl74X.X3dkc|[LU!(QHarq#@OO+=;>,,>;=*OO@#9raHQ(!YL[|nl84X .%6hcnb[PU^_WFie9#@OO++*=***+OO@#9etNJ(^WY]{nvj82. ",
"VM,:*+O@#9riFW(!UL[|nld4X.X37kv|{LIR(~Harq#@OO+=:>>>>:=*OO@#qraHQ)/YL[|nl73X .o6hcn}[PT^_WFie9#@OO+**=***+OO@#9quNJ(^/Y]{ncj72. ",
"BM,:*+O@#1eiFW(!UL[|nld4X.X27kv|}LU!(QHarq#@OO*=::>>>==*OO@#qeiHQ(RYL[nnl73X .26hcn|[LT^_WFur9#@OO+**=+*++OO@#9etNJ(^RY]{|cj72. ",
"BM,:*+O@#9wiFW)!UL[|nld3X.X3dkv|cLUR(QHarq#@OO*==>>>>:*+OO@#qeiGQ)/YL[nnl83X .o6hcn|[LT^_WFieq#@OO+**$*=*+OO@#9euNJ(^RY]{nck72. ",
"BM,:*+O@#9wiFW)!UL[|nl74X.X3dkv|{LU!(QHarq#@OO+*;::::;=+OO@#qeiGQ)RIL{|nl83X .o6hxn|[LT^_WFirq#@OO++****++OO@#9wuNJ((TY]{nck73. ",
"BM>=*+O@#1wiFW(!UL[|nl73X.X3dkv|{LU!(QHarq#@OO+*;:>>:;=+OO@#qraFQ(RI]{|nl73X .o6hcn|[LT^(WFirq#@OO++*==*++OO@#qwuDJ(^/Y]{ncj72. ",
"Bm>;*+O@#9eiFQ(!UL{|nld3X.X37kvn[LYR)QHar9#@OO*==>>->;=+OO@#qraHQ(RI]{|nk83X .o6jcn}[LT^(QFarq#@OO+++=**++OO@#9euNJ(^TP]{ncj72. ",
"Bm,=*+O@#1euFQ(!UL{|nlf2X.X3dkvn}LU/(QHar9#@OO+==>>>>:=+OO@#qraHQ(RI]{|nk83X .o5gcn}[LT!(QFirq#@OO+++***++OO@#qeuDJ(^TP]{|cj72. ",
"Bm>;*+O@#1riFQ(!YL[|nkf3X.X3dkn|{LU!)QHarq#@OO**=;:>:-=+OO@#qraHQ(RY][|nkd3X$.o5fcn{[LT^_WFirq#@OOO+***=++OO@#qeuDW(^UY]{ncj62. ",
"Bm>;*+O@#1raFQ(!YL[nnl73X..37kvn}LU!)QJarq#@OO+*=;>;;:=+OO@#qraH~)RY]{|nk83X$.o4gcn|[YT!_WFirq#@OOO+****++OO@#qeiDW((TY]{ncj72. ",
"Mm>;=+O@#1raFQ)!YL[nnl73X..37kvncLY/)QHatq#@OO+*=;>;:==+OO@#qraH~)RU]{|nl83X+.o6fcn|[YU!_QFirq#@OO+++****OOO@#qeiDW((/Y]{nck62..",
"Mm>=++O@#1raFQ(!YL[nnl73X..37knn{LY/)QJatq#@OO+*=:>>:=*+OO@1qraH~)RY]{|nk83X$.o4fxnb[LU!_WFaeq#@@OO+*+++*OOO@#9euDJ(^/Y]{ncj62..",
"m<>=*+O@#1raHQ)!UL{|nl73X..37kvn}LY/(QHstq#@OO+*=;>>:=*+OO@#qraH~)RY]{|nk73.$.o6fznb[LT!_WFaeq#@OOO+*+++++OO@#9euDJ(^TP[{ncj72 .",
"m<>;*+O@#9raHQ(!U]{|nk72X.X3dlvn{LU/)QJNrq#@OO+*=;>::=*+OO@#qraH((!Y]{|nk83.$.o6gxn}[LT!_WFurq#@@OO++++*+OO@@#9euDW(^TY]}ncj72..",
"M,>;*+O@#1raHQ)!YL{nnk72X.X38lvn{LY/(QHatq#@OO+*=;::;==+OO@#qraH()!Y]{|nk83.$.o6gznb[LT^_WGurq##@OO++++*++OO@#9euFW(^TY[{ncj72..",
"M,>;*+O@#9ruFQ)!Y]{|nk73X.X28kv|[]Y/(QHarq#@OO+==:::;=*+OO@#qtaH((!Y][|ck83X$.o6fxn}[LT^_WGirq##@OO+*++*+OO@@#9wuDJ(^TY]{ncj72..",
"m,>;*+O@#9raFQ(RYL{|nk73X.X28kvn[LY/(QHNrq#@OO+*==::;=*+OO@1qtaH((RY]{|vk82X$.o5fxn}[LT!_QGurq##@OO++++++OO@@#qwuFJ_^/P]{ncj62..",
"m,>=*OO@#9raFQ)RY]{nnk73X.X28kvn}LY/)~HNrw#@OO+*==::==*+OO@1qtaH((!Y]{|vk83.$.o5fxn}[LU!_QFutq##@OO+****+OOO@#9euDJ_^TY[}ncj62..",
"<,>=*OO@#9eaFQ)RY][|nk72X.X38lvn{LY/)~HNrq#@OO+*==;;==*+OO@1qtaH()/Y][|vk73X$.o5gznb[LU!_QFatq##@OO++**++OO@@#9ruFJ_^TL]{ncj62..",
"<,>=*OO@#qriFQ)RY][nnk72X.X28lvn{LY/)~Jatq#@@O+*==;;-=*+OO@1qtaH(^/Y]{|vk73X$ o5hznb[LU!(QFatq1#@OO++*+++OOO@#qruFW_^TY[{ncj62..",
"<,>=+OO@#qriFQ(RY]{|vk73X.X27kvb}LY/)~Hatq#@OO+*==;;:=*+OO@1qtaJ()RY][|vk82.$.%5gxnb[LU!_WGarq1#@OO+*+=++OOO@#qruFJ(^TY[{ncj62..",
"<,>=*OO@#qraF~(RY][|nk73X.X27kv|{LY/)~Jayq1@OO+*==:;:=++OO@1qyaH()RY]{|ck72.$.X5hxnb[LU!_QGarq1#@OO+++*++OOO@#qruFJ(^TY[}bcj62..",
"<,>=++O@#qriF~)RY]{|nk73X.X27kv|{LY/)~JNtq1#OO+*=-:=-=*+O@@1qtaH()RY]{|ck82.= o5gxn|[LU!_QGatq1#@OOO++*++OO@@#qeiFW_^TL[{ncj62..",
"<>>=*OO@#qriHQ(RI]{|nk73X.X27kvn{LY/)~Jarq1#OO+*=-:--**+O@@1qtaJ((!Y]{nnk82X$.%5fxn|{LU!_QHatq1#@OOO++**+OO@@#qeaFW_^TY[{nch62..",
"<,;=*OO@#qriFQ)RY]{|nk73X.X27kvn{]YR)~HNrq1#OO+*=;:-==++O@@1wtNH()RY]{ncj82.$ o5gxn|[LT!_QHatq1#@OOO++**+OO@@#qeaFW_^TY[bncj62..",
"<,:=+OO@#qeiHQ(WY]{|ck82X.X27kn|{]YR)~Jarq1#OO++=;-;==*+O@@1qtNJ()RY]{ncj83.$ o5gxn|cLU!_QHatq9#@OOO++**+OO@@1qeaFW_!TY[}ncj62..",
",,:=*OO@#qraH~)RU]{|vk83X.X27kvn{]YR)~HNrq1#OO+*==;===++O@@1qtNJ()/Y]{|vj73X$ o5gxn|[LU!(~Hatq9#@OOO*O*++OO@@#qraFW_!TL[}ncj6% .",
",>;=*OO@#qriH~(!Y]{|vk83X.X37kvn{]YR)~Jarw1#@O+*==:==*++O@@1qyNJ()RY]{nvj72X$ o5gxn|[LU!_(Hatq9#@OOO+O*++OO@@9qraFW_^JP[bnxj62 .",
",:;=*OO@#qraH~(QU]{|nj72X.X37kvn{]YR)~HNtw1#@O++==--;=+OO@@1wyaJ()RY][|cj73.= o5fxn|[LU!_~Harq9#@OOO++*++OO@@1qraGW_^TP]bncj7% .",
",:;=*OO@#qraH()QY][|vk72..X37jvn{]Y/)(JNtq9#@O+**;-;=*++O@@1wyaH()/Y]{nvj72.$ o5fxn|[LU!_QHatq9#@OOO+*+++OO@@1qraGW_^UP[}nxj7% .",
">,;=*OO@#qraH((!Y]{|vk72X .&7kvn{]YR)(Jayq9#@O++===:=**+O@@1wyaJ()TY][|cj73.$.o5gzn|[LU!_~Gatq1#@OO++*+++OO@@1qraGW_!TP[|nxj62 .",
">,;=*OO@#qraH((!Y]{|vk72. .27kvn{]YR^(JNyq9#@O+*======*OO@#1wyaJ()/Y]{ncj73.$ o5gzn|[LU!(QHatq1#@OOO+++++OO@#1qraGQ_!TP[}nxj63 .",
">,;=+OO@#qraH()EY][|bk73. X27kvn{]PR)(JNyq9#@O+*======+OO@#1wyaH()RY]{|cj72.=$o4gzn|[LU!(QHstw9#@OOO+++++OO@#1qraGQ_!TP[|nxj63 .",
">,;=+OO@#qraH()!Y]{|vk73. X27jc|b]P/^(JNyq9#@O+**====**OO@#1wyNJ(^RY]{ncj62.$ o4gzn|[LU!_~Hatw9#@OOO+++++OO@#1qraGQ_^TP]}ncj62 .",
",,;=*OO@#qraH()/Y][|vj83. .27jcn{]YT^(JNyw9#@O++*====**OO@#1wyNJ(^RY]{ncj72.$ o4fzn|[LU!(QHatw9#@OOO++*++OO@#1qraGQ(!UP[|nxj62 .",
">>-=+OO@#qraH()/Y]{|vk83. X27jcn{]YT((JNyw9#@O++=====*+OO@#1wyNJ(^RY]{ncj72.$$o5fzn|[LU!(~HDtw9#@OOO++*++OO@#1qraGQ_!UP[}nch62 .",
">>-=+OO@1qraH()/Y]{|ck83X X27jcnb]YT^(JNyw9#@O++=====*+OO@#9wyNJ(^WI][|cj72.$$o4fzb|cLU!(QHNtw9#@OOOO+++OOO@#1qriGQ_!UP[|nch62 .",
",>-*+OO@1qraH()KY]{nvj82X .27jvn{]Y/)(JNtw9#@OO+==;==**OO@#9wyNJ((/Y[{nck72.$$o4fzn|[LU!(QJNyw9#@OOOO+++OOO@#1qriGQ(!UP[|ncj62 .",
">>-=+OO@1qraH()/Y][|vk72X .27jcn{]Y/)(JNtw9#@OO++====**OO@#9wyNJ((/Y]{ncj72.$$o4fzn|cLU!(QHayw9#@OOO++++OOO@#1qriGQ(!UP[}ncj62 .",
">:-*+OO@#qtaH()/Y]{|vj73X .27jcn{]Y/)(JDuw9#@OO**===***OO@#9wyNJ(^/Y]{nck62.$$o4fzn|{LU!)QJDtw1#@@OOO+++OOO@#1qtaGW(!UP[|nxj6% .",
">>:=+OO@#qraH()RY]{|vj72X .27jvn{]Y/^(JDuw9#@OO***==**+OO@#9euNJ(^TY]{|cj72.$$o4fzn|[LU!)QJatq9#@@OOO+++OOO@#1qtaHQ(!UL[|ncj62 .",
">:-=+OO@1qtaH()RY]}|cj72X .27jvn{]Y/)(JNuw9#@OO+*===$*+OO@#9euNJ(^TP]{|cj62.$$o4fzn|cLUR)QJatw9#@OOOO+++OOO@#1qtaGQ(!UL[|nch62 X",
":::*+OO@#qtaH()EY]{nvj73X .27jn|{]P/^(JNtw9#@OO+*====*+OO@#9quNJ((TY]{|cj62.$$o4fzn|{LU!(QJatw9#@@OOO+++OOO@#1qtaGQ(!UL[}nxj62$X",
":::*+OO@#qtaH()RY]{|cj72. .27jnn{]Y/^(JNyw9#@OO++*==**+OO@#9quNJ(^TP]{ncj62. $o4fzn|[LYR(QHsteq#@OOOO+++OOO@#1qtaGQ(^UL[|nxj6%$X",
"::-=+OO@1qraH((RY]{ncj72. .27jcn{]Y/^(WNyw9#@OO++===+*+OO@#9euNJ(^TY]{|ck62.O$o4fzn|[LUR(~JDte9#@OOOO+++OOO@#1qraGQ)!UL[|nxh6%$X",
"::;*+OO@1qtaH()/Y]{|cj72. .27jc|{]Y/^(JNyw1#@OO+**=***+OO@#9eyNW(^TY]{|cj62. $o4fzn|{LUR((JDte9#@@OOO+++OO@@#9wraGQ(!UL[|nxj5%$.",
">:=*+OO@1qtaH()/Y]{ncl73. .%7jcn[]Y/^(JFyw1#@OO+**===++OO@#9euFW(^TY]{ncj62. $o4fzv|[LUR((JDte9#@OOO++++OO@@#9wraGQ(!UL[|nxh5%$.",
">:-*+OO@1qtaJ()RY]}|cj73. .%7kcn{]Y/^(JNyw1#@OO+*+*==*+OO@#qeuNJ(^JY]{|cj72. $o4fzn|{LU/)(JDteq#@@OO+O++OOO@#9qtaGQ_!UL[|nxh6%$.",
">:=*+OO@1wraH()RY]{ncj72. .%7jc||]Y/)(JFuw1#@OO+*+===*+OO@#qeuDW(^TL]}ncj62. $o4flv|{LU/)~JDuw9#@@OOOO++OOO@#9qtaGQ_!UL[|nxh62$X",
"::=*+OO@1qyNH()RI]{nck72. .%6jc|{]P/^(WNyw9#@OO+**=+**+OO@#1wiDW(^TP]{ncj62. $o4flv|{LUR)~JDuwq#@OOOO+OOOOO@#9qtaGQ(!UL[|nxj6%$X",
"::=*+OO@1qtNJ()TI]{nck72. .27jc|}]Y/^(WNuw9#@OO++*==**+OO@#9wiDJ(^TY]{ncj62. $o4fln|[LY/)(JDtwq#@@OOO++OOO@@#9qtaGQ(!UL[}nzj6%$X",
"::=*+OO@1wyNJ()/I]{|ck72.$.%7jcn{]L/^(WNuw9#@OO+***=**+OO@#qwuFW(^TY[{ncj72. $o4flv|{LY/)QJDteq#@OOOO++OOO@@#9qtaGQ(!UL[|nxj5%$X",
":==*+OO@1wyNH(^/I]{nck72.$.%6jc||]P/^(JDywq#@OO+**=**++OO@#qwiFJ(^TP[{ncj72. $o4fln|{LY/)QJNyeq#@@OOO++OOO@@#9wtaHQ(!UL[|nxj5o$X",
">==*+OO@1qyaH()RI]{ncj72.$.%6jc||]Y/^(JFye9#@OO++*+=**+OO@#9wiFJ(^TY[{ncj62. $o4fln|{LY/)~JNye9#@@OOOOOOOO@@#9wtaJQ(!UL[|ncj6o$X",
":==*+OO@1qtaJ((RI]{ncj72.$.o6jcb{]YT^(WDue9#@OO++*=**++OO@#9eiFJ(^TY[}ncj62. $o4fln|{LY/)~JDueq##@OOOOOOOO@@#qwtaHQ(!UL[|nxh6o$X",
"===*+O@@1qyNJ(^WI]{|ck72.$.o7jcn{]LT^(WDueq#@OO++*=**++OO@#qeiDJ_^TP[}ncj62. $o4fln|[LU/(~JDueq##@OOOOOOOOO@#9wtaJQ)QUL[}nxh6o$X",
">:=*+O@@1qyNJ((RI]{|cj72.$.o7gcn{]Y/^(WDueq#@OO++****++OO@#9eiDW(^TP[}nch62. $o4flv|{LY/)(JDueq##@OOOOOOOOO##qwtaHQ)EUL[}nxh6o$X",
":;=*+O@@1wyNJ(^RI]{ncj72.$.o7hcn{[YT^(WDue9#@OO++**=*++OO@#9euDW(^TY[{bch62. $o4dlvn{LY/)(JDueq##@OOOOOOOO@@#qeuaJQ)!UL[|nxh6o .",
";;=*+O@@1wyNH(^RI]{ncj62.$.o6jcnb[PT^(WDieq#@OO++**=*++OO@#9euDJ(^TY[}bcj6%. $o4dln|[LY/)(JDueq##@OOOOOOOO@@#9wuaJQ)!UL[|nxh5o$X",
">:=*+O@@1wyaH((/P]{|cj62.$.o6jcn{[YT^_WDueq#@OO+++***+OOO@#9euFW_^TY]{ncj62. $o4dlvn[LY/)(JDueq##@OOOOOOOO@@#9wuaJ~)!UL[|nxh5%$X",
":;=*+O@@1wyaH(^RY]{ncj72.$.%6jcn{[YT^_JDue9#@OO+++****OOO@#9euDW_^/L]{ncj62. $o4flvn{LY/)(JDueq##@OOO+OOOO@@#9euaJ~)!UL[|nxh5%$X",
">==++O@@1wyNJ(^/P]{ncj72.$.o6jcn{[YT^(WDie9#@OO++*****+OO@#9euFW(^TL]{ncj7%. $X4flvn{LY/)(JDuw9##@@OOOOOOO@@#qwtaH((!UL[|nxh5%$X",
">==++O@#1wyNJ(^TP]{bcj72.$.%6jcn{]YT^(JFie9#@OO++=**+++OO@#9eiDW(^TL]{ncj72. $X4flvn{LY/)(JDieq##@OOOOOOOO@@#qwtaJ((!UL[|nxg5%$X",
">=**+O@#1wyNJ((/Y]{|vj62.$.o6hcnb[YT^_WFueq#@OO+++**++OOO@#9eiFJ(^TL]{nxj6%. $X48lv|{LY/)(JDaeq##@OOOOOOO@@@#9wuaJ()!UL[|vxh5%$X",
">;**+O@@1wyNJ((TP]{ncj62.$.o6hcnb]YT^(WFieq#@OO++=***+OO@@#9eiFJ_^TL]{nxj62..$X4flv|[LY/((JFaeq##@OOOOOOO@@@#9wusJ()EUL[nnxg4%$X",
":;**+O@#1wyNJ(^TP]{ncj62.$.o6jcn{]YT^(WFieq#@OOO*+*=*+OOO@#qeiFW_^TL[{ncj6% .$X4flv|{LY/)(JFieq1#@OOOOOOOO@##9wuDJ()!UL[nnxg5%$X",
":==*OO@#1wyNJ(^/P]{ncj62.$.o6hcn{]PT^(WFieq#@OO++**=*+OOO@#qeiFW_^TP[|nxj6% .$o4flv|{LY/)(JDieq1#@OOOOOOOO@@#9wuDJ((!UL[nvxg5%$X",
";==*+O@#9wyNJ(^TY]{ncj62.$.%6hcn{]LT^_WFirq#@OO++*==*+OO@@#qeiFW_!TP[}nxj6% .$X3flv|[]Y/)(JDaeq1#@OOOOOOOO@@#9wuDJ()RUL[|vxg5%$X",
":==*+O@#9wyNJ(^JY]{ncj62.$.o6jxn{[LT^_WFirq#@OO+*****+OO@@#9eiFW_!TP[|nxj6% .$X3flv|{]YR)(JDatq1#@@OOOOOO@@@#9euDJ()RYL[|nzg5%$X",
":==*OO@#1wyNJ(^TY]}ncj62.=.o6gcn{[PT^_WFirq#@OO+++==*+OO@@#9eiFW_^TL[|nxj6% .$X3flv|}]Y/)(JFueq1#@@OOOOOOO@@#9euDJ~)RYL[|vzg5%$X",
"-;=*OO@#9wyNJ(^/Y]{ncj62.$.o6jcn{[LT^_WFaeq#@@OO+*==++OOO@#9eiFW_!TP[|nxj6% .$X4flv|{LY/)(WDieq9#@OOOOOOOO@@#qeuDJ()RYL[|vxg5o$X",
"=;+*OO@#9wuaJ(^TY]{ncj62.=.o6jcn{[PT^(WFar9#@@OO+*=+++OOO@1qeaFW_!TP[|nxj62 .$o4flvn[LY/)(WDieq9#@@OOOOOOO@#19etDJ((/YL[|nzg5o$X",
"-==+OO@#9quNJ(^TP]{ncj73.$.o6jxn{[PT^(WFarq#@OOO+++**+OOO@#qeiFW_!TP[|ncj6% .$o4dlcn{LY/^(WFueq9#@OOOOOOOO@#99euDJ()RYL[|nzg5o$X",
"===*OO@#9wuNJ(^TP[bnxj73.$.o6jxn{[PT^(WFirq#@OOO+++*++OO@@#qeiFW_!TP[|nxj6% .$X4dlvn{]Y/)(JFueq9#@OOOOOOOO@@#9euDJ()RYL[|vzg5o$X",
"===+OO@#9euDJ(^JY]{ncj7%.=.o6jcn{[PT^(WFirq#@OOO++*+++OOO@#qeiGW_!TP[|nxh6% .$X4flv|{LY/^(JFueq##@@OOOOOOO@@99euDJ()!YL[nvzg4o$X",
":=*+OO@#9euNJ(^TY]{ncj6%.$.o6jcn{[LU((WFirq#@OOO+++*++OOO@1qraGW_!TP[}nxj6% .$X48lv|{]Y/^(JFurq1#@@OOOOOO@@@99euDJ()/YL[|vzg4o$X",
"==**OO@#9wuNJ((TY[{nxj6%.$.o6jxn{[LT^(QFieq#@@OO++++++OOO@9qraGQ_!UP[}ncj62 .$o4dlv|{]P/^(JFirq9#@@OOOOOO@@##qeuDJ(^RYL[|vzg4%$X",
"==**OO@#9euNW((TY[{nxj7% $.o6jcn{[LT^(WFueq#@@OO++***+OO@@9qraGW_!UP[}ncj62 .$X48lv|{]PT^(WFirq1#@O@OOOOO@@#19etDJ((RYL[|vzg5% o",
"==*+OO@#9euNW((JY[{nxj72.=.o6jcn{[LT((WFieq9#OOO+++**+OOO@#qraFW_QUP[|nch62 .$X48lv|{]Y/^(JFirq1#@@OOOOOOO@@#qruDJ((!YL[|vzg5o X",
"===+OO@#9euNW(^TY[}nxj62.$.o6jcnb[LT!_WGaeq##@OO++++*+OO@##qraGW_!UP[|nxj62 .$X4dlv|{]Y/^(JFirq1#@@OOOOOOO@#1qrtDJ()!YL{|vzf4o o",
"==*+OO@#9euNW((TP]{nxh62.=.o6jcnb[LT!_QGaeq##OOO++*+*+OO@@1qraGQ_!UP[}nxj6% . X48kv|{]Y/^(JFirq1#@@OOOOOOO@#1qrtDJ((RIL[|vzf4o X",
"-==+OO@#9eyNW(^TP]}nxj72.$.o6hcn}[LT!_WGarq##OOO++***+OO@@1qriGQ_!UP[|nxh6% . .48lv|{]Y/^(WFarq9#@@OOOOOO@@#1qruDJ()RIL{nvzf5o X",
"==*+OO@#qeuNJ(^TY]{nxh63.$.o6hxnb[LT!_WFarq##@OO++**++OO@@1qraGQ_!UL[|nxh6% . .48lvn{]Y/^(WFarq9#@@OOOOOO@@#1qriDJ()/YL{|vzf4o X",
"==*+OO@#qeuFJ(^UL]{nxh63.$.o6hxnb[LT!_WFurq##@OO+++**+OO@@1qraGQ(!UL[|nxh6o . .48kv|{]Y/^(WFirq9#@@OOOOOO@@##qruDJ()RYL{|nzf4o X",
"==*+OO@#qwiFW(^/L]bnxh62.$.%6hxn}[LT!_WGarq1#@OO+++**+OO@##qraGQ(!JL[|nxj6o . .4fkv|{]Y/^(WFarq9#@@OOOOOO@@#9qwiDJ()RY][|bzg4o X",
"=**+OO@#9eiFJ(^/L]{nxj63.$.26hxnb[LT!_WGarq1#@OO++***+OO@#1qraGQ(!UL[|nxj6%$. .4flv|{]Y/^(WFatq9#@@OOOOOO@@##qriFJ()RY][|nzf4o X",
"==*+OO@#qeiDJ(^/L]{nxh6%.$.26hxnb[LT!_WFitq1#@OO++*+++OO@#1qraGW_^UL[|nxj6o$. .4flvn{]Y/^(WFatq9#@@OOOOOO@@##qriDJ(^RY]{|nzf4o$X",
"==*+OO@#9eiDW(^/L]{nxj63.$.26hcnb[YU!_WGatq1#@OO+++*++OO@#1qraGW(!TL[|nxj6o$. X4fkv|{]YT^(WFatq9#@@@OOOOO@@#9qruDJ(^RY]{|nzf4o$X",
"==++OO@#9eiDJ(^TL]{nxj6%.$.o6hxnb[LT!_QGitq1#@OO++**++OO@#1qraGQ(!UL[|nxj6o$. X4fkvn{]YT^(WFatq9#@@@OOO@O@@##qruDW(^RY][|nzf4X$X",
"==*+OO@#qeuDW_^TL]{nxj62.$.o6jxn|[LT!_QGatq1#@OO++*+++OO@#1qraGQ(!UL[|nxj6o . o3flv|{]YT^(WFutw9#@@OOOOOO@@#9qruDK(^!Y]{|nzf4o o",
"=**+OO@#9euFW_^TP]bnxj6%.$.o6jcn}[LU!_WFarq9#@OO++*+++OO@#1qraGQ(!UL[|nxj6o$. .48lv|{]YT^(WGitq9#@@@OOOOO@@#9qruDK((RY][|nlf6o X",
"=**+OO@#9euDW_^TP[bnxj6%.$ o6gxn|[LU!_QGarq9@@OO++++++OO@##wtaGQ(!UL[|nxj6o$. X28lvn{]YT^(WFarq9#@@@OOOOO@@#9qruDK(^RY][|nlf4o o",
"==*+OO@#9euDW_^UP]|nxj62.$ o6gxnb[LU!_QGarq9#@OO++++++OO@##wtaGQ(!UL[|nzj6o . .28kvn{]YT^(WFarw9##@O@OOO@@@#9qruDK(^RI]{|nlf4o o",
"=**+OO@#9euFW_^TP[|nxj6%.$.o6gcnb[LU!_QGarq9@@OO++++++OO@#9qtaGQ(!UL[|nxj6o . X28jv|{]YT^(WGarw9##@@OOOO@@@#9wriDK(^RI]{|nlf4o$o",
"==*+OO@#9wuFW(^TP[|nxg6%.$.o6gznb[LU!_QGarq9#@OO++++++OO@#9qraGQ(!UL[{ncj6o . .28lv|b]YT^(WGatw9##@OOOOOO@##9wriDK()/I]{|nlf4o o",
"==*+OO@#9wiFW(^UP[{ncg6%.O.o6fxnb[LT!_QGatq9#@OO+O+*++OO@#9qtaGQ_!JL[{nxj6o . X28lvn{]LU^(WGatw9##@O@@OOO@##9wriFW((RI]{|vlf4o o",
"==*+OO@#qwuFJ(!TP[|nxh6%.$ o6fzn|[PY!_QGatq9#@OOO++O+OOO@#9qtaGQ_!TL[|nxh6o . X28kv|{]Y/!(WGarw9#@@OOOOO@@@#9wriFK()KY]{|nlf4o o",
"=*++OO@#qwiFK(^TP]|ncg62  .26fxn}[LT!_QHarq9#@OO++OO+OOO@#9wtaGQ_ETL[|nxg6o X X28kv|{]Y/!(WGarw0#@@O@O@O@@@#1wriFW((/Y]{|nlf4o o",
"=**+OO@#9wiFW_!TP]|nch6%   o6gznb[PU!_QHatq9#@OO++O++OOO@#9qtaGW_!UL[|nxh6o . X28lv|{]Y/!(WGarw0##@O@@OOO@@#1wriFK()RI]{|vlf4o X",
"+=*+OO@#0riFW_!TP[{nch6%...o6gxnb[LU!_QHarw9#@OO++*++OOO@#9wraGQ_!UL[|nxg6o . X48lvn{]Y/!(QGaywq#@@@OOOO@@##9wriFW()/I]{|nlf4o X",
"=**+O@@#9wiFK_!TP[|nch6%   o6gznb[LU!_WHarw9#@OOO++++OO@@#1wraG~_EUL[|nzg6o X .28jv|{]Y/!_WGatw1#@@@OOOO@@##1qriFW()/Y]{|vxf4o.X",
"**++OO@#9eyFW_!TL[|nxj6%   o5gznb[PU!_QJarq1#@OOO++++OO@@@1qysG~_EUL[|nxg6% X .47lv|b]YT!_WGarwq##@@OOOO@@@#9qrpFW()/I]{|nzf4o.X",
"=**+OO@#qeiFK_!TP[{nxj6%   %6gznb[PU!_~Harw1#@OOO+++++O@@#9qysF~_EUL[|nzj6o X .38lvn{]PT^_WGayw9##@@OOOO@@@#1qrpFK_^/Y]{|nz84o.X",
"+*++O@@#qeiGW_^TP[|nzg6%   %6hzn|[PUE_QHatw1#@OOO++++OO@@#1qysH~(EUP[|nzh5% X..38jc||]YT^_QGsywq#@@OOOOO@@@#9qraDK(~RY]{|nz84o.X",
"=*+OOO@#9eiFW_^/P[|nzh6%   o6hzn{[LU!_QHsrw9#@@OO++++OO@@#9qtaH~_EUL[|nzg5% X .38kv|{]PU^_QGsyeq1#@OOOOO@@@#9wrpGW(^RI]{|vlf4o.X"
};
