/* XPM */
static char *f5ca4d88af424d548740f07af3ddff92GPxRAcpvBEvDwPMt[] = {
/* columns rows colors chars-per-pixel */
"128 128 47 1 ",
"  c #8B1037",
". c #8E1038",
"X c #93103A",
"o c #9B113D",
"O c #A0123F",
"+ c #971141",
"@ c #9D1242",
"# c #9F1248",
"$ c #A41242",
"% c #AB1344",
"& c #A5134A",
"* c #AC134B",
"= c #B21346",
"- c #B5144A",
"; c #BB144C",
": c #AD1451",
"> c #B41452",
", c #BC1553",
"< c #B71558",
"1 c #BD165A",
"2 c #BF1760",
"3 c #C1154E",
"4 c #C51652",
"5 c #C91656",
"6 c #C4165B",
"7 c #CD175A",
"8 c #CF185C",
"9 c #D0175E",
"0 c #D1185E",
"q c #C51762",
"w c #CC1762",
"e c #CD1864",
"r c #CB1768",
"t c #C71868",
"y c #CD1869",
"u c #D11762",
"i c #D41864",
"p c #D31769",
"a c #D6196A",
"s c #D9196D",
"d c #D61A71",
"f c #DD1A73",
"g c #D61B78",
"h c #DD1C7C",
"j c #E01B77",
"k c #E31B7B",
"l c #E41C80",
/* pixels */
"fffffsusfffpdpppsssssssu,,,wskfffkks53-;6u0iiiissssssfs94;;4issfffs7=oO*,9wwwwww6611<1<>-%=7skffsfksu67ifhhfhhhhlhhhhffksssfffff",
"fffffsssfffkfffffffffksw,>>6sssffsss5;=-6issssffkfkkfkfs73;59ssssiu4OoXO;77777wqw666121>%==5iffffssu6,49fhfhllfhhhhffffssssfkffj",
"kffffffffffhkkflkkkfkksu;->6ussfsski4=$;7sssffffkkkfkkks53;39iiiuu7-XX X=595777777666q6;=$=4usiifss7,%=4skkkfkfhfhffppfffssffffk",
"kfsffffklfppgflhlkkkkkf9;=-1sffffssi4=O;7ifsjkfkfkkkffki5;=;5uuu76,$ooO@$,6645777777797;ooo-uiiiiis7=$$3ifkkkkffffppppfffsfffffj",
"hffsspfklfhggggflkklkfs7;==5sfkffffi3=o;7jffjjffffsffffs3$$=4ww6,>:&%=-%&::<>1666666764=X.o=9ssssss7=OO39ffffkfffffffflkfsssfffj",
"hfsspppfffllhhhhhkkkkfs7===3iffkjkfi3$=;9iffjfsssffffkf9;OX%-75,>&&*-;--:::::<><1114464%o.o%7sjjfss9=Oo$7ssffffffklffflffpppfsfh",
"dffpprrphfhhlhllhlkkkks4=Xo=7iffffs9=oo=7sssfsssfkfffjs7=XXo$,,-&&&-;-;;>:&&&&::>>>,44,$o  o4isfjss7=XXO;wpppppppfffffffpwwpffff",
"fffdrrpppffkkkkkkkjffs03OXX=3usisiu;o..$4sssfsfffffhjfi3..Xoo$&*@@$>;;;,-*&&##&&&&**--*O   o3iiissu3OX.X$,66qqwrrpggpppprrwpffff",
"fffdpwrppfffffffssi9773O   .%677774$.  X3iisspffdfffss7% Xooo@@@@#@%-=-;-**$@##++##&&*%o   o;wpwii7;o   .==;;3346wqrrggdrwqufhhd",
"fghpq46wsffsfsfsi77533O .XX.X$**--$X.X  =7ipappppddfsi5% Xoooo@@@@+$%%%%**&@#@@++@#@$$%X  oO;6qw7w1=XXXX..XoOO$$=;67upsu667ufggd",
"hffp44,4rffpppppww743;o .XX.X@@@@&XXoX  =7wpppdfddffss7%  XX.oXo$%XoOOO%$@@@@++++@@$%;=o...O;6qwwq6=..ooX.  ....Xo%-47w4,,16pfhh",
"jffu6,;,wsppppyypw744;$..XX..Xo@@@@X.. .=9ipfpdffhkhjfi3X   X%=333%XXo@o.+@@@@@#$**;344=oXo%4yppyw7= .ooX....... +@*,464;;,7sfkf",
"kkfs53=37usppppppew443$..XX..XX@@$$X.. X30issffffkkkjjj7=OXo=480003%. X.o=;;;=;;33445803%%%;wpdppw5$ .oooooooooX..+$;574;;37sfkj",
"kkfs4==;5sspppppwi7543= .Xo..XXoO==o...o3issfkfffjjkjkks53330isfss04OooO370887888580a0073336idfdpi5O XoooooOOOX.  o*4673$=37skkj",
"kkfs4=%=5usupppui08543= .ooX XO%=33o. .o3issjkkkfsfjjkkfi080ifjjjjf03=%=8isis0ssas0aaas84470sjjfjs7O XoooooooX  .Xo%-44=$=37skkj",
"jkkf73;39siisiisi00844;. oo. O=4444O.  o3asfjklkhjkjjjjffssfkjjjfffs04480fkjjfffffjffffs840ijjfjffi3. XX..     ..oO%;553;;49fkff",
"ssffi547isfsssssssi0004O  . X470008=X.X=5ajkklllkklkkkkjffjjjfssfkkfs000fkkjkkkkkllllllfi0ifkkkjsff0=       ..oO==470isi759sfksf",
"fsffs959sfffsffssfs00i8=.  X30siiii4=OO30jkllllllllllklkffkkkjssjkkkf00fkjfkjkkllllllllkfsfkllkkjfff4=XXoOOOOO%=3470iffiiu0sfssj",
"fssfs99isfkfffffjjfsii03o.X=8sfffjf04340slllllllllllllkkjjjkf0ssjkklkffkkjfffkklllllhhhlkfjlllllkjjf04==3433333440isfffsissfkssj",
"fjsksiiifkkkfskfjsffsii4=O%4ijkfkkks050skllhhhhhllkllllkjjkkfssfjklllkkkjfissfllllhhhghlffjlllllllkks055000888800isffkkfsssffssj",
"fsfksiuifkffffffssifiii83=;5ijjkkklji0isllhhhhgghhllllkkjfkkffffjkklllkjsissjkllhhhgggjljfjlhhhhhlkji8800ssii00s0sfskkkkssssfssf",
"isffiw79sfkffffsjssssss03=38fkkkjkkjjisfllhhhhhhhkllkkkkffkkjsfffjjkkkkfi0sfkllhhghhghlkfffkhgghhlkf0548sfss0sssskfkkkkfsusffssj",
"isssu6,6isfssssfsffffjsi5340fkkkjfjkjjfkllllklhhlllkkkkffskjksiiifsfjjjfsifkkllhhghhhllj0ssflgghhlkf8335sfjjsssffkffkkfspwusfssi",
"sifi7>*,9sssssfffsfkjjji045ijkkjfssjkjjkkkkkllllllllkkksiisjji00080ssjjjjjkllllhhhhkllks080jkgghllkf5334isfssssfffkkfkkswqqsfs0i",
"issi4-*;ussffkffjjjjjjjs0800jlkkjssjkkjlkllllllllllkkjji00ijkfsi8480fjkkkkklllhlhllllkki548slgghlkkf0535isffssssfjjfffksw66ufsii",
"fssi,:*4iffkffffjjjkkkkji0iikkkkjsjjjkkkkllllllllllkkfs0550skfsssssjkkkkkjklllllllllkkfi548slgghllkf55380ffffssjfkkjkffsw66pfsss",
"sssi6,,5ikkklffffjkkkkkjfiifkllkjjssjkkklklllllllllkfss7347skffjfjklkkkklkkkllllllllkkjs88iflgghllkf8558ifjfsjfjsfjjkkfs966uffff",
"kksu6,37sfkkffkfffjjjkkkfsifklkjffsssjkkklllllllllkjssi5==4skjjkkllljfjkklllllklkllkkkjs00sklhhghllji840ifjfjsjfffjjkfks976usffj",
"fss96;39sfkkkkfjffsfjjkkjfjjkllkfs00skkkklllllllllkjsi03=%3ikkkkkkkkjssjlllllllklkkkkkkfssfklllllllkf050sjjjjsjissffkffs976usffj",
"jsss4349skklkkfjiaissfjkjsfkllkjsi0ijjkllllhhllllkjssi03%%=0sjkkkllkfssfkllllllkkkkjkkjkfjkkjsskjkllsi0ifkjkkjjjfsfsfffi7559skjj",
"ffss4339skfkhfkssi0iisfkkkjkkjjsi77ijklllhghlllkkjs0774=oO%5sjjjkkkksssskllkkkkkkjjjjkjffjjfi770skkkjfisjkkkjkjjsssfffki5559sfkj",
"fsfi4349skkffkksfi00i00sjkkjfs05450fklllkhhklkkks0743===o.X=ikfsjjkkfssfkkkkkjjjjfffjjjjfjjjs8438iskjjfsjkkkjkjffsfsfsfi5349sffj",
"ssfi5349sfkkkkkjssii000ijfjs04480sfllkkkkllkkssi883=%oOo...o8fjffsfjsfsfjjjfffffffssjjkjffjkksi0848sjssjkjkkfjkjffiisssi5349sfff",
"fssi734iskkkkkkjfssssiisjjjssaisjllllkssjkksi0833=%o. XX...o3sjjfkkjfissjffjjjjfssssfjksffjllksf00isjfjskjjjkjkjfffisfsi5339sfjj",
"jkfi5449sfkkkkkkjffffffkkkkkkjllllhlki07ijs0533=OoX   XXXXXo3ifjjkkfi00sfjkjfjjsssssfjksssjklkjjfiijjfjjfsfffjkkjffsfsss5339skjj",
"jksi4349fffkkkkkkkkkllllkkkkllllhhhls0550si043;=OoXX..XOOO%=30iffjjf005ifjjjjssfffssfkkjsjjllkkssisskjkkkfsjkkkjjjjfffs94;37sfjj",
"jkf03339skkklkkkllllllllkjjkllfljjlki747issi00533=%ooo==%%%3480isffi8440iffsffjjfffffjjjjjjkksssiiisjjkkjjkjkkkkkkjfffs93==7ifjj",
"jks03=37skkkkllllhllhhlljiisjllllkki3===5ii0005433=%oo==O==3400isss05335issffjjkkffsjkjjkjkkjsi080isjjfjjfjjkkkkkkjjjfs9;$=4ifjk",
"jkf9;=;5skkkkllhllhhhhlks748fkjjjkj0=Oo=300775433==%Oo3;;3340i0i0ss043=300sfjkkkjksskkkkkkjsi070iiiskkjjfsjjjklkkkkkkfs93$$30sjj",
"fks7===7sfklllllhhgghlkf7334iffjfss7;$==7ii0085333==O=43550iijfssss03%O=8sfjkkkkksiskkkkffkkji800isjkkjjfsffkklkllkkkks93==30fff",
"fks9;=;7skkkkllklgggghli=OXo38000003O. X=55433==%O%oo=33580ifjjffss03Oo30sfklkkjsi7isjkfisskkjjssiijjkkksfjfklkkkllkkkf93==40kfj",
"fks9;=;7skkkkllklkhgghks3o.XO343353=.  X=33433=====%o=4440ifkkkkjff03%=4ifkklkkji840isksiiifklkkjsssjkjksffkllllklllkkfs4;=50fff",
"ffk9;=;7skjjjkkkkklllkkk03==3745875;o..O3777543333==34080isklkkjjjf03==4ikklllji83340ssi070kklllkjjsjjjjssjklllllllkkffi43;4isjj",
"jjf93=;9ssjjffssjjjkkllls8348i000073$XXO30000087554580iiiskklkkjjjf03==4sklllks83==370i0450skllkljsjjkjsssklllllhklkkkfi4;35sfjj",
"jjs7=O$4iffjffsssfsfjklls0770iii005=o..o30iiiii00000ffkisskkjjffjjf03%=4slllls03=%%=3774;;40klkkkjjjjkjjjjkllllllkkkkkf93==3isff",
"sfs4$oX=7sffkjjkjjkkkklks5438i00054=X..o=700000080800is00ijkjjffjff03$=4slllji4=oXX%=33===;7kklkkjjkjjjklklllhhlllkkkks7=$$=9sff",
"ssu;XXXo3usjkjkkkkkklllks53380i0053=o..O30i005777478000747ikkjjjkfi7=OO3sllks8=O. .X$===oX=4ikkjjjkjjssjkllklllllkkffsu4%ooO4iss",
"si7%XoXX%59iisjkkjkkkkkks8370ss053=$   o3708857434455553=30kkjjjfsi4=oo4skkj03=o.  .o$=o  X=0fkjjjksi770skkllllljffsii7-OooO,uis",
"uu4$$O$X@379iisffkkfjfjks8470si84=o    X;0i008747333353=o=7jjkkjfsi4=O=8skjs53=%X...oO=X   O4issjjs03==30ifssfsfsfsssu7;O$$%-7u0",
"77,$$$Oo@;79iisffkkjssjjs077iss84;X .. .3isssii07444443=O=7sskkfffs7334ijkji843=Ooooo==.   .=7700003%OoO37000iiisffffsu,-==%-697",
"57,$o=%@@,79iifffkjsfjjja0770ss043o oX .3ifffjsii055544=%o300kkfffi050isjkksi7533=%oO== ... .==333=O   X=58000iisflfkfp6;;;=-677",
"55-%O$%@#,90iiffkjjjsjjjs078sssi85= oO. ;iffjjjffi08453=oX%55ikfiss07sisjjjji00543==Oo  oooX  .XXX. ... O4800issfkfkkkdq4;;$-475",
"33=oOO$$$490iifjkjkkkkjjs048ssj008=.X=o $0fjjkkkjss0084=X.X3=4fi0ii77830kjsi084433=OX. XO=$OX.     ...X X380issffkklkfpq,==%$333",
"-;$XoO$o*7isissffjkkklkjs080sfff004X $$ o8sfjkkkkkjsi04=oXX=3=ii00055=O0is085433===OX. XoO=$OXXX...XXXX O40issfkklffffs6;%ooo=;-",
",3=X.XXo3iisissfjkkllllki00sffkjss0= .o $8fsjkkllllkks03oXo5030jsaa0=.O58805433==3=%oo .oo$$o.      .. .=0sffkkkhffkfkk7=oX.o;;-",
"643$..X$5isssfjjklkllllls00ifkkkjff5o   =0fffkkkklllllj0=oo4f8sllllaOX3450055433333333=.     XXooo.    o8fkkkjfffflklkf7=X.X%444",
"7953oXo=7ssfsfjklkllhhhlfi0sklkkfffi3OXo3iffkkkkkklllhlk0338ji0lhhl0=3880ss085443435553o    X==%%%o...O4skkjjhkllhhhlkk9=OXo377q",
"ii93=OO3isfffffkllllhggkjs0fkllkkjjs73%=7ifjkkfkkklllklkkiisll0hggl74i880ssii0000008773o    X=3===33%=4ikjklllhhhghflkk0;=O=49uw",
"iii4=oO;0sffkkkkllllhggljs0fllkllkjj04340sfjjkjjjjjjjllksjlkhhahghk0ss800ffsisis00iiii7=   .O33340i000ijkllllhggghlkkfs5=OO=49ii",
"sii3OXXO300iissfkllhgggljssflllllkjj04330sjjfjkfsi0ii0skfijllhklhjajki0ifllkjfffsfsssi7=.  X=5500fjfsssjkllhggggkkkfss03oXXO4iii",
"ss0;o..X=5575790isklhhhljfffkkklkkks03=37sjffjkkkkjsiiiskf0jlllkjkjlkfssfljssssffss0074=   .=70sfjkksssjllhgghhlkfsi055=. .O4isi",
"si03X. X=4455799isfkllhkssffkkkkkkfs73==5sssfkkkkkllkffffjksfkkjljklki440sffkkkff05553=o   .=0ffkkjksiisklhhhlkjss07554O. .O3isf",
"fs03o. X=4579ippfklllhlksi0fkkkkjjks4=oO40ssffjlkllllhllkkjfjjjkjkkk7340jhhhllkfi07533=X   X4ijkjkkkfi0ijlllllfii075554=...O4isf",
"fsi3OX.o=700ssfkllhhlghkissfkkkffkji;o.o300iasjjjllhhlllkklks00fikjkkklllhhhhllkfsi0074=. X=0jkjffkkfssflhhhllkjsi00095=oXo=7sjj",
"fsi5=ooo390isfkkllgggghlsisskjfffkk7=. o=700iisjlllhhgglkjssskffif0fkllklllhlljfii00754=..o3ikjjfkkkfsfjlhgghlllkjssisi3=Oo=0sff",
"fss7;OO=49suifklllggghhljssjkjjkkji4O..O30iisjlllhgghhlf848fkkkkkkjjkkllljlllkfsi85533=o..o3sjkjjkkkfsfjlgggghlllkffssi5=$O30sff",
"sss73===4iisisflllhgghkkjiijjjjjjsi4=OO30sjkllhggghllllfifklllkkjkfksfkkkllllljsi05433=X .o3skkkjkkkjffklggghhllkjssssi5;$=30ssf",
"ssi7=O=39sssfffkllhhhklkii0ssjkjs0i73=37slllhhggghhhhgglkkklljllkkffjiijjkllhlkjsi7533=X .o3skkjfjkkkfklhggghllkffssssi7;==;9ssf",
"ss94=$O;9fkkfkllllkllllji77ijjfsiss0557ikllhhgggggggggjljjllkkkllkkjjkjjkkkllllkji0543=o .o3skkjfsjkkkklhggghlkkjsfssss5=OO=7ssf",
"ss93$X.=5sfkllhhhlllllki5335iffssfss070skllkkjlljlkllllkkjkksllllkllkkffkkkllkllksi753=X  X;ikkjfsskkkkllhghhllkjjkfssi4=Xo=5sii",
"ii7=o  X3iskklhhklkkjss7=%O=8isfffji077ifkllllllllllllkkjkkiklkklkkkkkjffkklllllkjs053=    =0skjffskjjjklhjhllllkfffss9;o  o39ss",
"u95$   X=99sfkkkkkjssi8=O  X=50isss03;=4ijjsskfkkjkkkkkkjkiikfjffkkfjfskfiskklllkjs05;O .. X3skkkjjjfsskllllllkjjfsis95=   .=9ui",
"773o    %59sffkfsi07853o    o3478083o..o40iiiiifssffjjkjks8sjffjjkjkjiissjkskllllks04=o XoX $7skjkjfsfsfklllkkfssi00053o  . $577",
"43=o .  o47isis075333=O  .. .%33=3=. .. o3445580isssfjkkk08fjjjjjkjjs080sskkkkllljs04=X o$o..35ifjjsiiifkkklkffsi07745=X ...o;44",
"33=XXXX o479i907533=%oo .X. .O33==O oOOX ==33388800isfjjs70jfjjjjjffs055isskffkkkksi73o o%=X $37isfi00ifkklkkjfss07544=X.XoX.=33",
"33=XXX  O59ui90974====o  .  X=3433=..OoX OO%==34470iifjk00sisfjjfsjff0440issssssskss05= Xo=o o35iisi000ikkllkjjssi0754=XXXoXo=34",
"44;oXX. %5uuiii00743=;%.    O344883o  . .Ooo%===3370ijkjis75ifjjjsjff8337iiiiiiisiisi03X X$o o350fsi000ikkkkkkjjsss075;X XoXX;44",
"74;OXXXX=7usssssii07543O   .=800i08=    X%%%OO%=3370ikkfi7330sffjfjff83=50i00000000ii05O  Xo X350is0557iklkkkjjjssss973oXoOoO345",
"95,$OooO;uisfffkffsiii03Ooo=70ssii03X   O=3=%oO%=350skkf03==8ssfjjfjf833300755555070i07=     X350ii0545ijllkkkkkfsss094oXOOo$475",
"ii7-%O$=7sffkkklllllkkfi43380fjfffi4%X.X=543===;480ikllf7=%=80fffkkjf03=400005555000007=X   X%350ii0445iklkklkkkkffs007%oOOo*5ii",
"fii,-=-,ufkkklllklllllkkssiifjfkjjf0=OXo380854480sfkkklj73%=0sffkkkkki547ii000570077007=o  X$3580ss0550sklkkklkkjjfffsi;@oo@,0si",
"isiq>-,6skkkklllkllllllkkffjkjkklkks4;=30isii00ssfjjkjkj03330sjkkkkkks070iii007777000003o..o37800ssi550skkkkkkkkkkfffss7$@@%5sss",
"sfsu,,4uskkklkklllllllllkkkkffkkkklf0740sjjsss0sjkkfffkj0335sfkjklllksi0issi00000iiiii03o..o30iifssi77ifklkkkkjjjkfffkfi-$$-0fff",
"skfi646isjkkklklllllllkkklkjiifjkklks00ifjkkffsjjjjjfjkk0538sfkkklkkkkiiiii055000iisssi5=Oo=5isifsi0580fllllkkkkjjkkfkks4-%4ifff",
"sffi4,4isjkkklkkllllllklllkfsiissjkkjsssjkjjfffjkkkklkks7338sfjjkkklkji00073;3355000iii5=$$=7iiiiis0550slllklkkkjjjfkffs5-*4ifff",
"sfs93;5isjkkkkllllllllllklkks00isjkkkfsfkkjjsssjkkkkkkji4==4sfjjkkkkss05543$O==;34550003%oO=4iiiiis7337slllllllkkjjkkkks4;=3isjf",
"sss93339fkkfkkllllllllllkllkfi0000ifffsjkkkjsssjkkkkkjk03%o30fffjjkjs05333=ooO===;34505;oXo=5ipssss0450slllllllkkkkkkkks5;=30ssf",
"sss73=39skffkkkklllllllllkkkki0777isjfffjkkjssjjkkkkkjs4=Oo30sjsfjjks053=;o.XXOOo==;374=Ooo30fkkkkki757slllllkkfkkkkfkks7;%39sss",
"sfs7;%;5sfkfkkkklkllllllkkkkji00iiskkffffkjkiissjjjss003%o%30sssfjjki753==o..XoOo=;35004;=37sklllkks070jklllkfffssfkkkfs5==30sff",
"fss93==4isffffkkkklkllllkkklksiissjkksssfkji00isssi7744=Oo%30ffffffs005554====3477000i04=O=4sklllllfsiskllkjjfsiissssffs7;=3isjj",
"jfsu3==;9ssssssfjkkklllkjfjlkkfisfklkjsssjsi75000733334=Oo%30ffffss053;===..XXoO$$=;355=Oo=5fllllhllksjkkjsi07790iisssfs6;=39sfj",
"jfsu3==37uiuui0issfjkkljsfsllkkffffkkjsssjs0445733%%334=OoO30ffkffi03===OO   ..XoO$=4573==40klhlhllllkkkf0500799ippsfffs6;=49sfj",
"ffsu4=%-4777755700iffkkjsijklkkkffkkkjssssi034433===3553=%=4ijjjksi5==$$Oo..Xo$==3350is0440slhhllkkkkkkfi0usshkkkkfkhffp73=3isfj",
"sfsi4;**,64,43550i0sfkksiisklkfkkskkksssssi5333=33570i04===4ikjjkks3=oOXOo.XOO==4570issi00iklllkfs00sffkkklllllllllffffp6;;5isfs",
"jffi4;%-,6444357000ffkksssjkkksssssjkjssssi7;====370isji554ifkkkjjs4o.  X. .o==;550isjkfisskllfs044ikkkllhhhhhhhllhlfffp6;35ssfs",
"sffs5;=-495444750isfjkkjjsjkfi77440skjsssfi74;;3470iissi880ijkjjsjs7o       .o$=340ifklkfjkllf0530skkkkklhhhhkkllkkhkkfu4;;7ijfs",
"ssfi53;35i9975700isfkkkjkskkf099999iffsjfjsi0070iisfkkkii00fkjjjkkj0=    . .Xo$=47isklllkkklki740sklkkisklllllklkkkkffs93=;6iffs",
"ssss7,;49isiu990iiffjkjkksskkfklhffkkksjjkkffssffkkkkklkiiijkkjsjkki=X  XooO==37usfllhgllklks00ifkllk070sfffkssssssssii5-%-4issf",
"fsspq,,6issssiisssfjjkjki0ifllllllllkkkfkjkkkkkllllllllksifklkjskkks4oXXO=34400sfllhhghlllkkffkklllki4;37000077755777u7,%$%,wisf",
"sspw2,66ppffffsssjjkjkks055ikllhhhglkfsskkkkjjkkkllllllljfjkkjkjskks03==370iifkkllhhhllkkkklkllllllk7=OO;4433;===;;;475*@&&:1iss",
"dapq1,66pffffdfssssffjj03;37sllhggglkiisjkkkkfifffffkkklkkkkksjssikfi7440isfklllllllkjsskkkkllllllki;$.XO;3==O=O$%---4,&#@$&>wpa",
"yaw211,6rsfhfffsisssisi5;==3ikllggglfi0ifkklkfsi90sskfkklkkklkjssssfji70ijfkllkkkkssi9sklksskllkkkf7=.  o====OOO$O%--;;$@@$&>wwa",
"yppq1,,1rfffffsssiiiii04$Oo;0kllhhhls770flllllkss0iisfkllkkklllkfsskfsiiskfkkkfsi079ufklksiikkkfssi3X   .$=O==$O==--;,,&@@@*1www",
"ffdw1>,6pfffffsssi00ii04=oO3iklhhggls75iflllllkffi70isfllkkllllkkfkkksssfffss00999isfkllki70skfssi7= ..  O=Oo$===;34554-#@@:wipd",
"dffp616qsfkkfffffsiiiii73==7slllhghk0430flhhllkfs07450sklllllkklklklksssfkkkkkfffffkhlllki00sfsi05= .XX. O=O==3;3457999>$$&>wsfp",
"fpgpw6qufkfkfkkfffsiiss05340fllllggki540kllllllkfs0445ifkkllllllllllkf0sfkklllllhllhhllki53470053;= .XX .%=33335500isss9,*-6ufpd",
"dhfksiisfkkkkkfkkfsssssi535iflllhghlfiiflhhhhhllkfsi050fkkkllllklllkkfsfklllllllhhhhhllk73=;400533=.    o334570iisfskkfs955iffhf",
"fhkkkssfkkfffffkfsfkssfi777iklllhhghkfsflhgggghhlklfs0ijkkklkkklllllkfsfklllllllhhhlhllf7;=;5007543$   .=700issskkkkffffiiiskhhh",
"hlkkfssfffffkkkfksssiss0547ikkkllhhlkssklggggghhhlllkssfkkkkklkkklklkfffklllllllllllllkf73=35ii0794=.  X30issfffkkfkfffssisffkkh",
"kkffssusffkkkfssi9955543==39skkkllllksskklkklllllllllkkkkffkkkkkjkkkkfffkllllllkkkllklks53==70i0005=.  o3issssssssfkfffiu7usffkk",
"fsffsuwisfffsi773;=%$Oo.  o3skjjkllkssiikkkkkkkkkkkkkkkfssifkkkjffkkkfffkklllkkkkkkkkkks3=%=40i0094=   .=57775747799iisu677sffsf",
"ssffu644uip753;=$o.     .  %9fjjjfkks977iskfiiiiiiissfsi757iffjfsfkkfffffkkkkffffffkkkk9=oXO379754; .XX .====$=$===3447;%*,usfss",
"fkks6;--4764;=Oo...     .. .3pfffkkf95559sii955555599u95=$=4skjjkkkfsusffkkfkkkkfkkfffs4o. .%333;%o XoX. .XXoXX.XXoO%--%o$*6sfhh",
"kkfs4;-=346,;=%Oo@X..X.XooX =7pffhfp5;=;5iii97444445554-ooo=9sjjkffs9wusfkkkkkkkkkfjfs9;.. .X%%$@+.XooXX  ..  .  XXoO%=OXo%,ikkk",
"ffs9;OOO;443;=%OX.... XXoXX %7pdffpw3$OO357554475544454%o..o4issfffp556uffkfkkkkkkfsss7=...X.XX.++. XooX.          Xo$%oXo$;9ffj",
"ssu;oX.X$---%$$X+X..XXXXo.  %6ipdpp7=Ooo=344,;,;;47544;$   .;7uissp7444wdffdfdfffdssi94OX..oX.+++++Xoooo.       . XXXooX.XX$4sss",
"qw1&+XXX@*>--*%$$@oXXX..oX. %6wippw3=X..$;4;-**---,444;o   .%477uuw6;;47ydddddddddppi73o XXoo++++X+Xooo$OoXoOOOOoooX@o@XXX+o>www",
"11>*@@@X*4767654,;;=%$X XX. -6wwiw7;o. .o;;->>*>:>;,453o   .%,667774;=;6yrrdyyddddyy773o Xooo+@++@+ooo$OOXXXXX   X$$*;-$Xoo%>6q1",
"2q6>*@@-6uuww77754433;$    o,7uuuu7=o. .%;4,,,,,,4,6453$...o=,667wq64347yrpyyyyyyyywww4O  XXo@@$$$@XXooX XOOoXXXXo$&*,,*@@$-6wq2",
"pss7*&&>6pppppppsiii093o  .o5isssiu3O..o;59755466777794=X.X%;6qwqtw6444wrpdrrrrrttyywwq-X   O355554%X  X.Xo+@@@###&&:>,*&&&,ussp",
"ppu4*&*4pfhhlkfkkkjjfsi3o.o=7fffffs7$oX$4000iii0iiiiis93oXo%,6wwrtw7745wpyytyyyyyyyyyp7,O  o;90isi9-XXX o@$$&&&&&>>16w7,*&&,wspp",
"pps7,,6phfffhlkkkkkjjjs4OoO;9fjjjjf9=$o=5iisiiiiifsssss5=oo%4iwwqtqq4447wrttttyyyadappw,OXX%5issffi3OX X$477779uuuppppfu1>-,ussp",
"ffsi9wphfffkkhfffkkkkjs9%O$;ifjffjs93%O=5isssffiisfjsjs93$$=6iiewqq633,4q2tttyyyyppywi7;%oO,ufjjfji9=Oo%5issfffkkllfkffsu66usfff",
"kkfsssskkkhddpfklklkkjs7-$%4ifffffs7;%%;7ffffffffsssfjji3%$;7iiiwq1>-=;;,qwyywpppsuiiu7;OoO,sfjkjjji;%%3ukhlkkkkhfffhfkfsuuiskkj",
"kkfjssfjkfppfhkkllkkkjs7*$$,iffffssi3%%;0sfffjjjjjjjffji5==37isiii6-%ooO-57777797777777;Oo%4isfffffi,--4ihkkkkhhhhdhfpffspssfkjk",
"hkjkfjsjsfffkhhkkjjjffi7-&*<isssssfi5;-,7ssiffjjjjjjjjjs53;37iiiii0;O. X=55655744,1,14,*$O%5ssfssssp4,;7skhkkhhhhhhhffsfissfjjkk",
"jfjkssisffhfdddffsjsfssw-*>1ifjffffs5;-,qiissssffffjffsi53;5isfsssi4$oo$-677w77761,1<<>*$$%5sjfsfffsw44ifkkhjhhhkhkkhfjfsssfjfkj",
"fsfkssapsffdaaaassssffsi,;,wsffsfjfs74;,6iwiaiiisssassii,--4ifffffs7-$%*,wi7ww766q1<<<<>**;7fjffffjfi78sfffhhkllhhkhkkhjsssfkfsf"
};
