/* XPM */
static char *result[] = {
/* columns rows colors chars-per-pixel */
"128 128 32 1 ",
"  c #9A716F",
". c #9D7371",
"X c #BC756B",
"o c #BB786F",
"O c #A17674",
"+ c #A47977",
"@ c #A67B78",
"# c #AB7E7B",
"$ c #BB7B74",
"% c #BC7F78",
"& c #C37266",
"* c #CD7462",
"= c #C07368",
"- c #D37562",
"; c #DB7561",
": c #E37661",
"> c #EB7661",
", c #EE7860",
"< c #F27763",
"1 c #F47861",
"2 c #FE7C63",
"3 c #AF817E",
"4 c #B0827F",
"5 c #BE827D",
"6 c #FF8466",
"7 c #B48582",
"8 c #BC8682",
"9 c #BB8986",
"0 c #BE8B88",
"q c #C08782",
"w c #C18A85",
"e c #C18C89",
/* pixels */
"o$$558qqqeqweeeeee000979777#@+++.O      . @O##34777900e0eeeewq555%$oo$X &&&;:<266622:;--***-;:12662<:-=XX$55weee94#@  O#79eee3+=",
"$$$$555%qqqwweeeeeee00979774733@+...       @@@##4777990eeeewwwq58%$$$XX=&&&;:<266621,;--***;;,12662:*&==o555we0084+. .@49eeq5$X&",
"oo$$55555qqqwqeeeeeee099977744++++O..     ..O+@#4470900eeewewwq55%o$ooXX&*&;<<66662,;;-***--:,2666<:&&XX$$5wee074@O  O#79ee83X&-",
"o$$$#55%5q5qqeqeeeeeee099977743+++OO..    .OO@@#37779900eeewwwqq8%%$$oXX=***<226662,;---**--:,2662<;*=X$$55we0974@   @47eeq$XX&>",
"oooo$$$5555qqqwqweeeeee0997777@++++O..     ..@+##477790eeeeewqqq55%$$oXX=&;;<226661,;;-***-;:12662:*&XX$%5qqe004#O  O#79eq5$X&;6",
"XXooo$$$5555qqqwwweeeee009997744###++..    .OO@@#37777900eeewwqw85$$$OX==&&;<226621,,--**--;:2666<;*=X$$5qwe0083@. .+79eeq5$=*26",
"=XXoo$$$$555qqqqewwweeee00997744##++O..      OO#33477990eeeeewqwq%$$ooX==&*;>266621:;--**-;;,2662:;&=o$$5qee074@O  O47eee5$X&:62",
"=X=XXoo$$$55555qqweeweeee00999743##++OO      .O+@3477990eeeeewqwq%%$$oX=&**;<266622,;-***-;:2666<:*&Xo$$5we0073@  .#49eq83o&-26,",
"&=X=XXo$$$$558qqwqweeeeeee099977433++...     @O@+#374790eeeeewqq55o$ooXX&&;;<26662,;;-***-;,1662<:&&Xo$5qee094#O  O47eee5$X&,62;",
"&&=X=XXo$$$$5%qqwwweeeeeee009977433++OO      .OO##477790eeeeewqwq4%$ooXX&&*:<26662,,;-***-:,2662:*&Xo$5qwe0073+  .#48ee95X&;26,-",
"*&&=X=Xooo$$$$55wqqqewweeee00977744++++O.     @O+##477900eeeewqwq5%$$oXX&&;:<26661:;;-**-;:1266<;*=Xo55qee074@O  +49eqq5XX*162;*",
"*&*&=XXXoo#$$$5%55qwwweeeee00997743#3++O.    ..O+##477900eeeewwwq5%$$oX=&**;126662,;-***-;,1662<*&XX$$qwe007#+  O#70ee5$X&:62,-*",
";&&*&=XXXoo$$5$%%qqq5weeweee0097774#33+..      .++#4479000eeewwwq5%$$oX=&;;:26662,;;-***-;1266<:*=Xo$5qee074#. .@49ee5$$&-26,-*-",
";*;&*&&=XXXo$$$558q5qweweeee00999773#+++..    OO++34779000eeewwwq5$$$oX=&&;>16662,,;-**--:1662<*&==$$5qe0783+  O490eq5$X&>62;**:",
":;*&&&&&=XXoo$$$5555qwwweeeee00097743#++O.    .O+@#3779000eeewqw55$$oOX=&*;<26662:;-***-;,2662:&=Xo55qee074@.  #49ee93X&-26,-*;2",
"<:;;&&&===Xooo$$5%555qwqwweee00097743##+O.    .O++33779900eeeww585%$oXX=&&:126622,;-***;;1666<*&=O$$5qe007#O  +39eeq$$=&162;*-,6",
"2<:;*&&&=XXXoo=$$$55qqqwwweeee0999773#3+OO     O+@33479900eeewq55%$$oX=&&;:16662,,;-**--,1662<*&XX55qqe094@. .#40ee53X&;66,-*;26",
"21<:;&&&&=XXXoo$$$%58qqweweeee09079743#++O.    OO@33479900eeewq55%$$oXX&**:26662,;--**-;,266<;*XX$%qqe007#O  +47eeq5$X-266;*-162",
"221>:;*&&&=XX=o$$$%%5qqqwweeeee0077773+++O.    .++33479900eeewq55%$$oX=&*;<26662,;-**--:1662<*&XX$5qqe074#  O#78eq5$X&;66,-*;22;",
"622<:;*;&&&=XXoo$$$5555qqeeeeee00797433#@O.    .O+3#479000eewwq85%$$oX=&&;<26622;;-**-;,266<;*=X$$5ee0073O  @47eeq5$&-26,-*-16<*",
"6622<:;***&=XXooo$$%%5qqwqeeeee00999433#@O     .O+3#477700eeweqq8$$$oX=**:22662,,-**-;;1262<;&X$$5qee074+  O#70ee5$X*:62;**:62;=",
"66211::**&&==XXoo$$$55%qqqweeeee9097433#@O.     .++#47790eeeewqq%5$oXX&**:16662:;-**-;:266<:*=Xo$5qe094#O  +49ee53o&-26:-*;26<&X",
"66622<<;;&*&&XXooo$$$%5qqqeeeeee09077733#OO.    .+##47790eeewwq55$$oXX&;;>26622;;-**-;,266<;&XX$5qqe083+  O390eq5$X&162;*-:62;=$",
"666622<:**&&==XXoo$$5%5qqwqwweee00097433+O .   OO++#47790eeeeqq55$$oX=&&;16662,;-***-:1662:*=Xo$5qe004#O  +49eq8$X&;26,-*;26>&X%",
"666622<<;***&=XXXo$$$%5885qweeee00097433#+O.   OO+##47790eeeeqq5%$ooX=**:22661,;-**-;,266<;&Xo$5qee074+  O47eeq5$X*166;*-,62;Xo%",
"6666622<:;;*&&=XXoo$$5%5%wqwweee00099733+OO.   ..++#44790eeeweq5%$$oX&&*:2666,-;***-;1662<*=Xo$5qe074@O  @49eq5$X&;62,-*;26>&X$5",
"6666622<<;;;&&==Xoo$$$%5%qwweeeee0997743++O     .+##47790eewwqq85$oX=&&;<2662,;-**-;:266<;&Xo$5qee083+  O47eee5$&-26,-*-,6<*X$5q",
"22666622<:;;*&==XXoo$$55%qweweeee009773#++OO    .O++37990eeeeqq%$$oX=&*:26662,;-**-;1262>;&Xo$5ee004+O .#49ee5$X&:62,**;26>&X$8w",
"12666662<<;*&*&==X=o$$$5555qwweee0097733#+O.    OO++47990eeeeqq%5$oX=&*:1662,;;-**-:266<;*Xo$5qqe083O  +49ee55o&-26,-*-,6<*Xo5qe",
"126666622<::&&&=XXXXo$$%5%5qwewee0097743#+O.    .+##37990eeeeq%$$$o=&**<6662,;-**-;,666<;&Xo%5qe004@. O#79eq5XX&>62;**;26:&X$5we",
"112666662<<;;**&=XXXo$%%5%5qwweee00977433+O.   ..++34790eeeeqq55$oXX&&:22622,;-**-:1662:*Xo$5qqe073O  O49ee5$X&-26:-*;16<*=X%qe0",
",126666622>:**&&=XXX$$%%5%5wweeee00907733+O.    +++34790eewwq855$oX=&&:1662,,-***;,266<;&Xo%5qe094#. O#40ee5$X&,66;*-;66:&X$5w00",
":116266622<:;&&&==Xo$$$$585qweeee00907433+O.   ..++37990eeewq55$$X=&*;>6662,;-**-;166<:-=X$5qee07#O .+49eqe$X&;66,-*-16<*=o%5ee0",
":,22266662<<;*&*&=XX$$$%%55qwweee00997733@O.   ..++37990eeeqqq5$oXX&&;2662,,;-*--:266<;&XX55qe094#  O#4eeq5oX&162;*-;66:&X$5we00",
";,,22666622<:;&&&=XXXX$$%%55wweee00997733@..   .O+#47990eewqq85$oX=&*:2662,;-**-;1262:&=X$%qqe07#O .+49ee53X&;66,-*-162*XX%qwe07",
"-;,12666622<:;;&&==XXo$%%%5qqweee00997433@..   .O+#4779eeewe555$oX=*;<2662;;-**-:266<;&Xo$qqe084@  O#9eeq5$X&162;*-:26>&X$%qe097",
"-;,,2666662<:;**&==XXo$%%5%wqweee00997733@O.   .O##7790eeeeq%55$oX&&;1662,;-**-;,662:*&oo5qqe94#O  #49ee5$X&;66,-*-16<;=o$%qe094",
";;:,12666622<;;;&==Xooo$%5%wqweee00997733@.    O+#34790eeeqq%$$$X=&*:2662,--**-;166<*&&o$5ee094#  O#7eqq$o=*262;*-:26>*X$%qee094",
";,;,12266622<:*;&&=XXoo$%5qqqweee00097433+O    +++34790eeweq5$$oX&*;<2622,--*-;,262>*=oo5qee073O  #79ee5$X&:62,-*-,62;&X$%qee043",
"-;;:12266662<:;**&==XX$$%%%qqweeee099773@+O   ..+#3770eeeeq55$oXX&&;1662,;-**-:162<*&Xo%qwe093+  O37eq55$=-262;*-:26<*Xo55we0773",
"-;;;,12666622<;;*&==X$o%%5%qqweeee09777#@+O   .O+#4779eewwq55$oX=&*:2661,;-*-;,262>&=oo%qee97@O .#49ee5$X&:66,-*-,62;&Xo5qwe0773",
";-;,,2266662<<:;*&&==$o$$%%qqweeee09774#@O.    O+34790eeeqq5$$oX&*;2662,,-**-;166<;&Xo%qee073O  O49eeq3$&-262;**:26<;=oo5wee0943",
"-;;,,1226662<<:;*&=XX=$$$%qqqweee000977#@O.   +++#4490eewqq5$ooX&*:2662:;-**;:262>*=X$5qee07#. O@79eq5$X&:66,-*;,66:&Xo%5wee0043",
"-;;-;12266622<:;&&==Xoo$$58qqweee0007733+O.    +#3799eeewq%$$oX=&;>266,,-**-;166<;&Xo$qqe084+  +49eeq$o&*262;*-;26<;=o$5qwee0773",
"*-;;,,1266662<:;**&=XX$$$%%qqwwee0009733+O.   .+#3779eeeqq55$oX&*;1662:;-**-:262<*=o%5qee04#O .#40e55$X&:66,-*-,66<*Xo$5wee09073",
"---;,,1226662<<;&&&&X&o$$555qwweee009733+O    O+#3770eeeeq55$XX&*:2661,;**-;166<:&Xo%5qe073O  O49eq55o&-262;**;26<*&X$%qwee00077",
"---;;,12266622:;**&&XXo$$%8qqwweee097733@O    .##3770eewqq$$oX=**1662,,-**-:266<*=oo5qee94#O .#70ee5$X*:62,-*-:26<;=o$%qwee00797",
"*--;-:12266622<;**&==Xo$$%8qqweee099773@+.    O+#479eeeqq55$oX&&;2662:;***;,26<:&Xo%5qee94O  @48eqe5o=-262;**;166:&Xo$%qweee0979",
"*--;;:,1266622<;**&===o$$%85qwwee009743@+O   .+##700eewq55$oXX&&>2622;-**;:266<*=Xo5qee94#O .@79ee5$X*:62,-*-:26<*&Xo$5qeweee090",
"**--;,,2266662<:**&=Xoo$$%q5qwwee009743@OO   O+#4770eeeeq$$oX&*;1662:;-**;,26<;&=o%5eee74O  @48eee5o&-262;**;,66<*&o$%qqweeee070",
"**--;;,1266662<:**&&Xoo$$%55qwwee009733+O   .O+#779eewqq5$$oX&*:2662;;**-;266<*=o%5qee97#. O@78eq5#X&:62:-*-;262:&Xo$5qqwweeee00",
"*---;;,1226662<:**&=XXo$$5%5qweee09977@@O   .++3770eewqq5$oX=*;<662,;-**;,662;&Xo%5ee07#+  @49eqq5o&&262;**-,66<;&X$$55qweeeeeee",
"***--,:1226662<:*&&=Xoo$5555wweee00743#+O   .+#4770eewe85$oX&&;2662,;**-:166<*=X$%qee94#. .@40eq5$X&;66,;**;162:*&X$$q%qwweeeeee",
"**--;-:1226662<:**&&=oo$$%%qwweee09943@+O   .+#4790ewqq55$oX&;>266,;-**;,262:&Xo%5ee07#+  @49eq53X=*262;-*-:262;&=X$%%qqeweeeeee",
"***---:1266662<:;*&==oo$$55qweeee09743@O    .+#709eewqq5#oX=*;1662,-**-;162<;&X$%qe094#. .@79e55$X&;66,;**;,66<;&Xo$%5qqqeqqeqew",
"**--;;;,126662<:**&==Xo$$%5qweee09e73@++   .O+3770eeeq55$oX&*:266,,-**;:262:&XX$5ee07#+  +49ee53o=&162,-*-;266<*&X=$$%qqqqqqqqqq",
"**---;:,126662<:;*&==Xo$$%qqweee009733+O   O+34790eeqq53$X=&*1662,;**-;,66<*&o$5qee74#. .@70e55$X&;262;-*-,262:;=Xo$5%555qqqqq85",
"***-;;:,126662<:;*&=X=o$$%5qwwee09773@+.    +3479eeweq5$oX&&;2662;-**-:262:*XX%5qe07#+  +48eqq5oX&>66,-**;166<:*=Xo$$55555qq855%",
"***--;,,126662<:;*&=Xoo$$55qweee007733O.  ..#3499eeeq55$oX&*>262:;-*-;,66<*&X$%qee94#. O@70eq5$X&-262;-*-:262<:*=Xo$$$5555555$$3",
"****-;;,126666<<;*&=Xo$$%%5qwwee09743@.   .O+3799eeeq5$$X=*;2662,-**-:262:&X$45qe09#O  @49eee5oX*:66,-**-,262<;&=Xo$$#55555$3$$o",
"***--;;,126662<:*&&=Xo$$%%qqweee97743+.   O+#499eeeqq$$oX&*>262,;-**;,66<;&X$5qee94@. O#70eq5$X&-262,-**;1666:*&=Xoo$$$$5$$$$XXX",
"***--;;,126662<:;*&XXo$$%5qqwee09973@+.  .O+#790eeeq5$$oX**1662;;**-:262:&XX$5qe044+  @47ee55oX&:66,;-*-:2662:;&==ooo$$$$$$XXX=&",
"****;;;,126662<:**&XXoo$55qweee00773#OO  .O33790eeqq5#oX&*:262,;-**;,66<;&X$%qee94@.  #79ee5$o&*162:;**-,266<;*&==XXooooooXXX=&&",
"****--;,126662<:;*&XXX$%%qqweee0007#+.   .+##79eeee55$oX&*1662:;-*-:262>*XX$5qee93+  +40eq55oX&;262;-*-;,266<:*&=XXXXXoXXXX=&*-:",
"****--:,126662<:;*&=X$$%55qweee00744+.   .+3790eewq55oX=&;2622;-**;,66<;&X$$qwe97#O .#40ee5$o=*>66,-**-;1662<:;*&=XXXXXXXX&&*;,2",
"****-;:,126662<;*&==X$$%%qwweee9073@+   .O3379eeeqq5$oX&*>262,;**-;262>*Xo$5qee94+  +49ewq5$X&-262;-**;:1662<:;&*&======&*&-:166",
"***---;,166662<;;*=XX$$%qqqwee0997##+   .+#790eewq55$o=&-2662,-**-,66<:&X$$qee97#.  #78ee9$oX&:662,-**-:26621<**&&&&&&&&**;,2662",
"****-;;,126662<:;&=Xo$$%5qweee00743+O   .##770eeeq5$oX&&:262,;-*-;166>-X$$5qee93+  O49eee5$X&;162,--**;,26661>;;***&&***;:22662,",
"***--;;,166622:;*&=XX$$%5qwwee09743+.  .O#370eeeq85$oX&*1662,-**-,26<:&X$%qee97#+ .#49ee55oX&:262,;**-;,26662<:;*;;**;;>126662,;",
"***---;,166622<**&=&oo%%5qwee09073@+   .+#377eeeq5$$X&*:266,;-*-;166<*Xo$5qee97+  O#70eq5$o&*<66,;-**-:,266621<:;;;;:>1266666;;*",
"****-;;,12666<<;*&XX$$%55wwee0997#+O    #3770eeeq5$oX&*>662;-*-;:262;&Xo5qee97#+  @49eee5$X&-166,;-*--;,2666621111112266662,;;-*",
"***--;:,12662<:*&&=Xo$%%qqwee00943@.  .++370eeee5$$X=*;266,;**-;,62<*&X$5qe097+  O370eq5$oX&:262:;-*--:,266662222222666662,;-**-",
"****-;;,26662<:*&=XX$$%5qweee0993@OO   +#490eeqq5$oX&*>262:;**-:262;&Xo$qee07#O .+47ewq5$X&*<662;-**--;,2266666666666662,;;-**-;",
"****-;:,26662<:**=XXo$55qwee00793#O   ++#770ewe85$XX*-266,,-**;,66<*&X$5qe094+  O#79eee5oX&;162,;-**--;,166666666666222,,;-**-;1",
"***--;:,26662<:;&=XXo%%5qwee0097##O   O#779eew55$oX&&:262,;**-:262:&XX$qqe07#O  +49eee5#X=&:662,;-**--;,1266666666622,,;-***-:16",
"***---:126662<;*&=Xo$%%qqwee09743+.   +#790eeqq5$oX&*1662;-**;,66<*&o$5qe074@. O@70eeq$$X&;<661:;-**--;,,1266666222,,;--**--:266",
"****-;:126662<;*&=XX$%qqweee0774#O   O+477eeeq55$X=&:262,--*-:262:&XX$qwe073O  +390eeq3oX&;2662,-***-;;;:22122222,,,---**-;:266<",
"****;;:126622:;&&XXo$%5qweee0943@.  .O#479eeq55$oX&*1662,-*-;,26<*&X$5qe073@O .377eeq5$o=*:266,;--**-;;-,,,,,,,,;;;;-***-;,262<-",
"***--;:12662<:**=XX$$%5qwee0094#+.   +#709eeqq$$o=&;266,;-*-;266:&XX$5ee073+  +34eeeq5$X&&<662,-;-***-;;;,,,;,-;;---***-;1262<*&",
"***--;,12662<:*&=X+$%85wwee0773#O   O+#79eeeq55oX&*>662;-**;,66<;&X$%qe007@. .+37ewe53oX&;<662,;-****-;;;;-;;;;;--***-;;1662<*&X",
"**--;:,16662<;*&=X$$%5qwee0077##.   +#390eweq5$oX&-2662;-*-;166>*XX$5qe073+  O+7eeeq5$==&;2662,;-*****--;;;;;--****-;;:2662>&&=o",
"***-;:,26662<;*&XX$$%5qwee0977#+O   #3770eeq55oX&*:262:-**-:26<;&Xo5qee07#. .+390ewq$$X&*:2661,;;****-*-----******--:,266<:*&o%%",
"***--:126662<*&=Xoo$%5qwee0974+O   O##70eeq55$oX&*1662,-*-;,66>*=X$5qe074+  O#79eeq5$$X&;<6621,;;--***-***-****-*-;:1266<:*&oo%5",
"**--;:12666<<;*=XXo%5qweee0973@O  .O#770eeq95$X=*:262,;**-:262;&X$5qqe07#+  +370eeq5$X=&;<2662,;---************--;:2662<;&=X$%qq",
"***-;:12666<:;&=Xo$%5qwee0094#+O   O#47eewq5$oX&&>662;-**;166<*=o$5wee04#. .+47eewq5$X=*;<6621,:--***********--;:12662>;&=X$%5qe",
"**--;,12662<;*&=X$$55qwee0973#O  .O##99eee5$$XX*;266,;-*-:262:&Xo$qee073+  O+79eeq53XX&&;26621,:;;---*****---;;,2666<:*&Xoo5qqe0",
"***-;,22662:;&&XXo$5wqwee0943@+   +#770ewe55oX&*>662,-**;,62<*=X$5qee07#O  +390eww5$oX&*:26622,:;-;-------;;::12662<:&&Xo%55qee0",
"**--;,2666<:**=X+$$5qwee0097#+.  O+397eeqq5$oX&-266,;**-;262:*=X$5we073+  O#70eewq%$oX&;:266621,:;;;;--;;;;:122662<;*&Xo$55ee097",
"**-;:,2662<:;&=X$$%5qwee0974#O   O#470ewee5#X=&:262:-**-,26<:&X$5qwe073+  +370eew5%$X=&*<266622,:::;;;;::,112666<>;&&=$%5qee097#",
"**-;:12662<;;&=X$$%5qwee0973+O  .+#70eewq5#oX&*1662;**-;166>*=X55we093@O  +370ewq53oO=&*<2666621,,:::::,1126662<:*&Xoo%55ee094#O",
"**-;:16662<;&&XX$$%qqee0977#+    #479eeq85#X=&:262:;**-:26<:&Xo%5we073+  ++77eewq5$oX&&*<266666221111112266662<;-&XXo%5qee074#O ",
"**-;,26662<;*=XX$%5qwee0974@+  .+#709eee55oX&&>662;-*-;166<*=X$5qee97#O  +379ewwq%$o=&*;<2266662222222266662<:;&&=o%%5qee004#O  ",
"*--;,2666<:*&=X$$%5qwee0973@.  O+#79eeqe$$oX*;266:;**-:262;&=o%qwe093+   +370ewq55$oX&**:<2666666666666666<<:&&=Xo%55qee084#.  O",
"*--:,2662<:*&XXo$55qwe0974#+.  O+#90eeq55oX&*>662;-**;,66<*=X$5qwe07#O  O#770ewqq5oX=&&;<<226666666666622<:;*&=X$o555e0074@O  O@",
"*-;:12662<**&XX$$5qwee0974#O  .+#490ewe5$oX&-266,;-*-:262:&X$$5wee04#O  +#79eewq5$oX=&&;:<2626666666622<>;*&==o$o5qee0084@O  O@4",
"*-;:16662<;*=XX$%5qwee0774+.  O+379eeqq5$X=*:262;-**-,66<;=X$5qwe07#+  .+470eewq%%oX=&*;;<<<26666222<<>;;*&==o$%5eee0073@O  O#49",
"*;;,2666<:*&=Xo$%5qwee974#+.  +#799eeq5$oX&*166,;-*-:266>*XX$5qee77#+  O#77eeew5%%o==&&*;:<<<2222<<<:;;*&&XX$$55qee008$@O  O@470",
"--;,2666<:*&=Xo$5qqeee974++   +370eeq55$o=&;262:;**-,26<*&X$%qwe073@O  +#70eeewq5$$oX=&*;;::<<<<<>:;;*&&==o$%5qeee0983+   O#47we",
"--:12662<;*=XX$%5qwee007#+.  O3370eeq55oX&*1662,-*-;166<*=+$5qee973+  .#370eeewq5$$XX=&&**;:;::;;;**&&=XXo$%5qqee094#+   O#47qew",
"-;:12662<*&=Xo$%5qeee974#+  O+#79eeeq5#oX&;266,;-*-:262:&XX$5we007#O  .+470eeeqq%$ooXX=&&**;******&&=XXo%%55qeee084#+  .+@49eeeq",
"-;:2666<:;&XXo$5qeee0974+.  O#370ewe5$$X&*:662,-**;162<*=X$5qwe003+.  ++770eewq5%$$oX=&&&&*****&&&==Xoo$$55qee0084#O   +379eeeq8",
";;,2666<;*&XX$%5qeee974#+.  O3770ewq5$$X&;266,;**-:266:&=X%5qeee74O  .+#79eeew55%$$XXXXX=&&&&&&&XXXXX$$$5qqee0974@O   @377eeqq53",
";:12662::*=XX$55qwee973#O   +379eee5$$o=*:262,-**;,66<*&X$$5eee94#O  O+479eeewq%%%$$XXX=X===&X=XXXoo5$55qeee0983@O   @499eee55$o",
";;1266<:*&=Oo$%qwwe0074@.  O#470eeq55oX&;1662;**-;166>&XO$5qee073@. .O+479eeewq5%%$$o@=XXXXXXXXXoo$$%5qqeee0783+O  .+479eeeq5$$X",
";,2662<;*&XX$$5qeee0943+.  O#79eeeq5$oX&;262,-**-:262;&=X$5qe007#@. .++470eewwq5%%%$$ooXXXOXXX$o$$555qeee09874+.  O+470eeq95$$X&",
":,2662<;*=X$$55qwe0093@O   +379ewe9$oX&*>662;-*-;166<*&X$%qee007@O  O+#770eeewq5%5%$$$oooooo$$$$$55qqeee0974#+   O#478eeee5$o=&&",
":12662:*&=X$$5qwee0743@.  O#379ewq5$oX&-266,;**-;262:*=X$5wee994@.  O##700eeewqw5%%%$$$$$$$$$%%55qqweee0773#.  .O@488eeq9$$OX&->",
":1266<:*&XXo%5qwee0973O  .+#79eeq5$$X=&:262,-**;,66<:&Xo$5qeee7#@. .O3#700eeewqq58%%%$$$%$$%%555qwqee00983++   +#470eee55$OX&-:2",
",1666<;*=XX$%5qwe0973@O  O+37eewe55oX&*166,;-*-;166<*&O$5qqee943O   +#3700eeewwqq5555%%%5%555qqqweee09944++  .O#489eqq55$X=*-,26",
",2662<;&=Xo$5qwee997#+   O#49eeq55$X=&:262:;**-:262;&XX%5qee093#O   @+4770eeeewwq5555555555qqwwe0ee0774#+.  .+#49qeqe5$$X=&-,662",
"1266<<*&XX$%5qeee073#+  .+379eee8$$X&&1662,-*-;162<;&X$%5eeee73@O  O@+47700eeewwwq5q555q5qqqwweeee9993#+   OO349eeq55$$X&&-,6661",
"2666<:*&Xo$55qwee073+O  O#779eeq5$oX&-262,;-*-:262>*=X$%qwe097#+.  O@#4790eeeewwwqwwqqwwqwwweeee0994#@O   O+#99eee553$X&*;1666,:",
"2662<:&=X$%%qweee97@+  .+#49eeqe$#X&*>261;-**-,66<;&Xo$5wwe077#@   O@+77990eeeewwwwwwwwweeeeee09774#+.  .O##79eeeq53$X&&-1662,;-",
"2662<*&XX$%5qwe0997#.  .+347eee55oX&;166,;-*-;166>;&Xo%5wee074#@   O@347790eeeeeeeeeeweeeeee009773@O.   O#779eeeq53$X&&;1662,;-*",
"666<:&&XX$%qqeee77#+.  O#79eeeq5$o=&;262:;**-:262:-=X$%qwe097#@O   O@347700eeeeeeeeeeeeeeee0977##+O    +#789eeeq5$oX&&;2662,;-**",
"662<;*=Xo%5qwee974@+  .+379ewq85oX&&<662,-**;,66<:&Xo$5qwe0073+O  .O+#47700eeeeeeeeeeeeee099773#+.   .+#799eee55$oX&&:2662,;-**-",
"662<;&=Oo$5qwee083@O  .+390eeq5#oX&;266,;-*-;166<&&X$%5wee0943+O  .O@@3797000eeeeeeeee0099774#@+.  .O@449eeee85$XX&*:2662,;***-;",
"66<:*&=$$5wwee0973+  .+379eee55$X=&:262;-**-,262:*X+$%qweee74#+.  .O@@347700000e0e000007774#@+.   .+#479eeqq55$X=&-:2662;;-**-;:",
"62<:*=X$$5qwee0973O   +399eeq55oX&*166,;**-;166<:&Xo$5qwe0e94#+.  .O@@3377797e00090007777##++.  .O@@490eeeq5$$OX&-:2666,;-**-;,2",
"62<;&XX$%5qwe0773+.  .+47eeeq5$o=&:262:;**-;166<*&Xo$5qee0974++.   O+@@33777799999977743#@+.   .O@#700eeqq55$X=&-,6662,;-*--;,26",
"6<:*&Xo$%5wee097#+  .+349eewq%$X&*>662;-*--,262:&=X$%qwee0773++.   O+@#@33777777777733##+O.    +#3709eeeq5$$X&&-,666,,-***-:1266",
"6<;*=Xo$5qwee09##.  O+490ee58$$X&;162,;-*-;166<*&Xo$%5wee0073@+.    +@##444444337333@@+O.   ..+@379eeee55$oX&&;1662,;-***;:12662",
"2<;&=Xo%5qwe007#+.  O#79eewq%$X=*:262,;**-:266<;&X$%5qwee097#@+.   OO@@##3333333333@+OO     ++3709eeeqq5$oX&&;1662,;-**--;1266<:",
"<:*&XX$%5wee094#+  .@479eew5%oX&*1662;-*-;,262:-=X$%5qweee97#++.    .@@@+##@3++@@@++.     O+@3700eewq85$oX&&;2662,;-**-;:1666<:*",
"<:*&X$%5qwe0994+O  O@470ewq%$o=*;162,;-*-;166<;&=o$%5qwe00973@+.     .O+@@@@@@+++O.     .O+#3700eeww%5$XX&*:2662,;-**-;,2662<;*&",
":;&XXo%5qwe008#+   +#79eew55$X&*>662:-**-;262<;=X$$%5qee00943@+O      OOOOOOOOOO.     ..+@3700eeewq5%3o=&*:2661,;-**-;,2666<;*&=",
":-=XX$55wee974#+  .@#70eew5$$X&-<661;-*-;,262>-=X$$5qwee00743#++.     ...OO....      .+@#37900eew55%$X=&->2622:;-**-;,2662<;*=XX",
";*=XX%5qwee073+. .O#770ewq5$o=*;262,;-*-;1662:*=X$%5qwee00774@+O.       ...        .O+##77900ewqq5$$X=&->2662:-***-;>2662>-*&XXo"
};
