/* XPM */
static char *result[] = {
/* columns rows colors chars-per-pixel */
"128 128 75 1 ",
"  c #B17F3C",
". c #9E6455",
"X c #9D605C",
"o c #A56D4F",
"O c #A86F4E",
"+ c #AC734D",
"@ c #B0774D",
"# c #B47A4C",
"$ c #B87E4C",
"% c #A06752",
"& c #A26951",
"* c #9E6061",
"= c #A16363",
"- c #A56A62",
"; c #A86E62",
": c #AD7362",
"> c #B07762",
", c #B47B63",
"< c #B87F63",
"1 c #B4823C",
"2 c #BA863D",
"3 c #BE883D",
"4 c #C48D3E",
"5 c #C7903F",
"6 c #C8903F",
"7 c #B38242",
"8 c #B98640",
"9 c #B78649",
"0 c #BC824C",
"q c #BC8364",
"w c #C38D41",
"e c #C1864C",
"r c #C5894C",
"t c #CA8D4C",
"y c #C79042",
"u c #CC9440",
"i c #CE914C",
"p c #D09741",
"a c #D49A42",
"s c #D99E43",
"d c #D3944C",
"f c #D7984C",
"g c #DB9B4C",
"h c #E09F4C",
"j c #DEA144",
"k c #DFA04D",
"l c #E3A545",
"z c #E7A845",
"x c #ECAC47",
"c c #E4A34D",
"v c #E9A74D",
"b c #E7A84D",
"n c #ECAA4D",
"m c #F0AF47",
"M c #F1AE4C",
"N c #EFB048",
"B c #F5B24B",
"V c #FAB64D",
"C c #F7B84B",
"Z c #FEBC4D",
"A c #C08765",
"S c #C38A67",
"D c #C78E68",
"F c #C88F68",
"G c #CC9269",
"H c #D1966B",
"J c #D59B6C",
"K c #D99E6E",
"L c #D7A06A",
"P c #DCA36D",
"I c #DFA470",
"U c #E1A66F",
"Y c #E2A670",
"T c #E2A870",
"R c #FFC04D",
/* pixels */
"*.#xZ%*;AKYUIG<:-=*X%O0lZBu 4lZRVngte$@+Ooo%%%.....X..&O$tnZV67sZVd$O%.XX**=-;;:,qqDHKKYYULLLLLLTUUKGFA<,:;-==**X.%+rcZx23mRvr#O",
"*XOZwt.=;SKYYUJS,-==*X%&#iBZmu 4lVZZBcdr0$@++Oo&&%%%%%&O#ehVZl 4mRvt@o%XX**===-;>,qDDHJIIYUULLLLcUUUKGGA<>>;===*XX.&#tBZu jRMd#O",
"*X&fuRoX=;SIYTYIGq:-=**X.%+rgVZz412smZRVngdte$#@OOO&&&&O#0fVRm4 sCVf0+&.XX**===;;:,qqDGJJIYYULLLLUTUUKJFA<>;--==*X.%O0cRx16CZg0+",
"*X%eZap.*=>DIYYYYJS,:-=**XX%+#tnZZl4 2pmZRZBvgdt0$@@O+OO@$inZZa 6VRvt@o%.XX**===-:>,<DDGJKIYYUULLLLUUUKHFA<>:-==**X.&#iBZ6 xRvr+",
"*X.+V1R+X*->FJYUUUKGA>;-=**X..O rgVRZl212pxZRRZMcgit0$$@#$rcVRz3 jRVg0+o..X***==-;::,qqSFHJIIYULLLLTUTUKHFA<>;-==*XX%O$cZl1aRMt#",
"*X.Ohxld&X=->FJYUUUUHS<>;-=**XX%%+0icVRms271ulVZRZVnhdtreergnRCp76CRvt#o%.XX***==--;::,<SDGKKIYYULLLPPTUKHFA<>;-=**XX%OrBZ42VZg0",
"**.&rR7Z7.*=;,DKYUUUULFA>:-X=**XX.%O#rgMZZxa271ulmZRRZMvgdfhnZCj12lRVge+o%.XX***==--;;:,<qSFKJIIYUcLLPPTUIHFA<:;-==*X.o$gRl7lRv0",
"**X%$VuxgoX*=;,FJYUUUUKHS<>;--=**XX.%O+$tvVZZxu271ysxZRRZVMvMZRm67uCRni#+&..XX***===--;:>,<SDGJJIYUPLLLPTUKHFA,:--=*XX%+rVZ24ZBt",
"**X%+hV1Z$%X*-:<FKYUUTUULFA,:;--=**XX.%%O$tgMVZZlu2714sxVZRRZRRCa 3lRZgr#o&..XXX***===--::><qSFHKIYUUULPbUUKHFA,;-=**X.&#gRs xZg",
"**X.otR2mcO.X*-:qFKYULIUUKGS<>;--==**XX..&O+$thBZRBlu27 4szVZCRVl2 aZRMd0@O&...XXX***===--;:,<qDGJIIYUUPLPTUKHFq>:-=**X.+rBV2pRc",
"**X.&0Vl4Ze&X*=-:qFKYUULTUPJFA<>:--==**XX..&O $rgnVZZmju27 4plmxlu 3xRZnde#Oo%..XXXX***==--::,<<SFJKIUUULPTUUKJFq>;-=*XX%#fRp2ZB",
"**X.&#hZ mc#.X*=->qGKYUPULTULHF<,>;-===***X..&&O#rthMZRZxs61714up4  pmRZnfe$@O&%..XXXX***===--:><qDHKUUULLLLTUKHSq>;==*X.oeMm lZ",
"**X.%OtRpuZro.X*=:>qGKIUULUTUKHFA<>:;-X=****X...&O+$rgvBZRVxa417 1 91axZRVcde$@OO&..XXXX***==--:>,<SFHKUUULLTTUKHS<>;-=*X%OfZu4Z",
"**X..oeVm7Vv7%X**-;,qGKYUULLTUULGFA<>:--==*=*XX...&O $rdgMVZRZza4 9971uzVRRVvgte7@o&%..XXX***==-;:><SFHKPYUULUUUKGS<>--*X.&$Mm7m",
"***X.o$hR4pZtO.X*=-:,qGJIULLUUUUIHFA<>>;--==****XXX.%&O#0tdcBZRZxa2 99 3plVZRZMhde$@O&%.XXXX**===-;:><SFHIUULUTTUPGA<;-=*X.OiR4p",
"***X.&#iZl Zv$&.X*=-:,SGJIUULUTUUKJHFA<>:--====***XX..%&O+$rdlMZRVl3    $13slVZRVMgt0@+o%..XXX**==-;;>,SDHKIUUUPTUIHA<:-X*X%#MN1",
"***X.%OrVZ1jZiO.X**=-:<qGJIYPLPTUUUKHFSq,::;--====*XXXX.%&OO#rdvVRZs2 3uu617 4sxVZZVcde#+o%..XXX**===;;><SFJUYUUTTUKHA>;==X.oiZ2",
"***X.%O0hRa2ZM$o.X*==-:<SGJIYUULLcTUUHGSq<>>;--====**XXX..%&OO0tcVRmp 3azzla417 4axZRZMgt0#O&%.XXX**==;;:,<FHKUUULUUUHA>;=*X%@Mx",
"***X..O#fZm1lRi@%.X*==-><SGKIYUULLPUUUKGGSq<>>;---==***XXXX.%o+#tcZZl2 amZRZBxs61714smZRVvde@+o%..XX**==-;><SFKUUUUTUKHA>;=*X&tZ",
"***X..&OrVZ44ZneO.X**=-;><SGKIYUULLTUUUKJGSA<>>;;-=====**XXX.%oO0dMRmu76mRRRZRRZxsu271ulmZZMgt0+o%%.XX**==;;><FHKYUUUUUHA>-=*.+v",
"***XX.%+0hRl7xZd7&.X**=-:,qSGKIYUULLLTTUKLGFFq<>>:---==***XXX.%O#rcZZl22jCRVMMBZZRZmlu271ulZRZvde#O&%XXX**==;:<AGKUUUTUUHA:-=X%e",
"***XX.%O$fZm26ZMeO%XX*==-:,qDGKIYULLLLLUUUKJGFA<>>:;--===**XXX.%O$dMRm67pCRVvfffcMVZRZBlu271uxZRVht$+o%XXX**=-;><DHUUUTUUHq:=*Xo",
"=***X.%o#tVZp zRf7o.XX*=--:,qSGKKYULLLLUTUUIKGFSq,,:;;-===***X.%oOrgZZs13zRVhitrridgnBVZRZza272amZZnd0@o%XXX**==:>SHKYUUUUG<:=*.",
"=***X..&OrcRx pZMeO%.X**==;:,qDGKKYUPLLLLUUUKKHGSA<,>:;--==**XX.%O#tnRm4 sCZvi$#7#$0eifhnVZRZxa372amZZct#O%XXX*==;><FKUUUTIG,;=X",
"=***XX.&+0fVZ62mZg$o%XX**=-;:,<SGKKYUULLLLUUUYIJGFAq,>>;-===**X..&OrgZZs 4mRVfe#OOOo+##$rigvMVRZms312sZRBd0+o.XX*=;;>qHPYUYIG,;=",
"=**XXX.%o7iVRs7pZMy#&.XX*==-;>,qDGJKYYUULLLUUUUIJHGSq<>;;-==***X.%O#tnRx31jRVhe@Oo&%%&oO  #0rdgvBZRBj414lZZct#o.XX*=-:<FKYYTUG,-",
"****XX.%O#rcRm32mZh0O%.X**==-;>,qDHKKYYYLLJLLUTUIIJGSq<>:;-==**XX.&+0gVZp8pCZnt$+&%%...%%&oOOO#$rdhMVRZl474xRVf$o..X*=;>qHUYYUG>",
"***XXX.%&OegVZp8sRMt7o.XX**==-:><qDGKKYYULLLLLUUUIKJGSq,>;--==**XX%o#tnRx22zRMf$+O%........%%&&O+ $$rdzBZZxu14mRnr+o.X*=;,FKUYYF",
"XXXXXXX.&O$iVRz24CRheO%.XX**=-;:><SDGKIIYUULLLLTTUUKJGSq,>;-===**X.%O0gZZu7aZZhr#O%.XXXXXXX.....%&&&O+#$tgMVZxu1uBZf#o.X*=:qHUYP",
"..XXX.X.&o#rcZVu sRMt@O%XX**===;;><DDGKKYYUcLLLLUTUIIHGFq,::-===*XX.&OrnRx 4CRnt#O%..XXX*XXXXXXX.....%&oO+#$thBZVa1pZMr+.X*=>SKK",
"..XXXX..%o#egVZl 4VZhe#&..X**==;;:,<DDHKKYYUULLGLLTUIJJGSq,:;--***X.%O$fZZ6 lRBi$O&..XXX******XXXXXXXX....%%OO $tvVZs1sZg@.X*-qG",
"&%%%....%o+$dnRm3 lRBd$O%.XX**=-;;:,qqDGJIIYUULLLLLTUUKJGAq,::-==**X.&+rvRl 6CZge+&%XXX**************XXXXXXX...%%O 0dBZl1lZ0&X=:",
"++ooo&&&&oO$rcZZp 6CZce#o.XX**====;:,<SDGKKIYYULLLLTTUUKJGAq,;--==*XX.O#dVZ42mRvr#O%.XX***=**=**=*********XXXXXXX..%&O#ejVm1xcoX",
"re$#@+OOOO@#egVRz22zRBd$O%.XX**==;;;:,<DDHJKIYYUULLLTUUUJJGA<>:--==*X.%+rnRs7sRBd#+%.XX**=*================**=*****XXXX.%&+rzZ2Z",
"Mvftre$7@@@#ednRC67pCZve@o%.XX**====;:,qqDFGKIIYULLLLTTUUJJGA<>:-==**X.o#dVm23CZf0O&.XX**=====-===================*==****XXX.&Or",
"ZRZVncftt000eicZZj 2zRBd$+&.XX***===-;:>,qSDGJKIYYULLLLTTUKJGA<>;-=**XX.O0cRa7lRvr+&..X**=*==---;=-------===-=====-=-=-=======*X",
"4smVZRZBvhddifcVRm67aCZvt@O%.XX***==--;::,<SDFGKIYYUULLTPTUIJFA<>;-=**X.%+iVm2uZVi#o%.X***===;---;;---;-:;:----;;;;=----------;-",
"4  4pzVZRZVMcvvVRCa 4zRVd0#o%.XX***===--;:>,qSDGJIIYULLLLTTUKJFA,:--=**X.o0cRa mZf$O%.XX**====-;::;::;:::::::::>>>>::>>>>>>>>>>,",
"Zms4172plmZRRZVZRCz2 sCZvt$O&..XXX***==----:,<qSFHJIYUULLLPTUIJGA,:-==*XX%+iVx sRve+%.XX**===--;-:>>>:>>>>,,:,,>>>>,,<<<<AAAASFF",
"nVZZxs4 72ulmZRRRRm674xRVge@O&%.XXX****===--::,<SFGJIIYULLPPTUKJFA,:-=**X.o#cZu2ZVt+&.XX**===;;;:>>,<<,,,,,q,,<q<<AAAASFFFGHJJKI",
"0thBZRVxp41726sxmVxp11sZRMdr#Oo%..XXX****===-::,,<SFHKIUULLPPTULJFq,:-==*X.+rZN7xZf$o%.X**==-=;;::<,<<qqqSAqSASSAFFFFGHHHKKKUUUT",
"o+$rdcBZRZzp2 72ussp374xZZMfr$@O&%...XXX***===-;:,<<FHKIUUULLLUUIJFq,;-=*X.%@hZ46Rv$O%XX**===-;::,,<qAASSSSFGFGGFHHHJJKKUUUUUTTT",
".%&O#$tgMVZZmlu2 7221+ umZRBcde$@Oo%...XX***===--:><<SGHKUUULLUTUKJFq>;-=*X.OrVx7mVt#%.X**===-;;:,,qASFGGGGFGHHHKHKKKKYTTTTTTULU",
"XX.%&O $rdlBZRZmsu2 7791ulZRZMcdt$@+O&%..XXX**===-;;><SFHKKUULULUUKJFq:;=**X%+gR2aZd+&.X**===-;::><qASFGHHJHJJKKKKKIUTTTTTTPPLPT",
"*XXX..&OO#rtgvVZRZxp3 99 4azVRRZMgt07+o&%.XXX***==--;:<<AFHKUULLLIUKJSq:-=*X.oeVl1Zc$&.X**==--::><<qSFGHHKKKJKIUYYUTTTTPPPTPPLTU",
"***XXXX.&&++$rdlBZRVj4 7  126smZRZBvdt$@Oo%...XX**==;;;>,qDHKIUUUTTUKJS,:-=*X.+gR1lVeO.XX*====::,>qASFGJHPJIIIUUTTTTTTTPTLPPPTUU",
"===**XXXX.%&O+#rdvVRZl371332  2ulmZRZMht0#+o%..XXX**==;;>>qAFKUUUTLUUIJS<:;=*X%$Vs4Zd#%.X*===-::><qAFGHHKKIUUUTTTTTTTLPLLPPPLcUT",
"-====**XXXX.%&O+0thVRZs2 6jlsu2 12plmRRVvdr$@o%.XXXX**===;:,<FHKUUULUUPJA<;;=X.OfZ Zv@%.X*==-;::,<ASSGKKIIUUTTTTTTPPPLTLLPPPcTYU",
";--==*=***XXX.%o #tcVRm676zCZZNju2 72pzVRZBht0#Oo%X.XX**==;;><AGKUUULLUUHA>;=*X.#VuaV0&.X*===-::,<AGGHHPIIYTTTTTTPbLLLLLPLLLUYYI",
">;;-===*=**XXX.%o $tnZZs 2lCRRRRZmlp4 74pxZRZvdr$+o%.XXX**==;;><FHKYUTUTUHA>;=*XoiZ1RtO.X*=-=-:><AFFHKKJIYUTTPTTLLLLLLLLLLPUYYIK",
"<>:;---==****XX.%&O0dVRx4 pCRZVVVZRZVla4  4amZRVct0@o%.XXX**=-;><SGKYUUTTUHA>-=*.#Vuxc@.X*=---:><AFGHKJIUUTTPTLLLLLLLLLPLUUYYYIK",
"A<,::----==***XX.%O#tcRZa 4zRVnhhhMVZZRZxa4  4smRZnge#+&..XX**=-;><DJUUUUTUHq:;=X&tZ3Z$%X**=;-:,qAFHJJIUTTPPLPLLLLLGLLPLcUYYIIKK",
"FSq<,::--====**X..&+0fVRx3 aCZnfittigvBVZRZxs4  4lVRZct0+o%.XX*==-;,qGKYUUUUHq:=*XOV2Rt&.**=;:,,ASGHKKUUTPTLTLLLLLLLLLLcUYYYYJKH",
"GGGA<,>:;-===**XX.%o#rcZZp76mRVfte$$0rtihnBVRZBl5  6zZRBge+o%.XX*==;:qDKIUUUYH<:=*.eBacO.**=-:><AGHJPUUUTbTPLLLLLLLPPLcUYYYIIJKG",
"IJGFAq,>:;-===**XX.%O0dVRx22jRVhr$#+ O@7$eifcMVZRZlu  uxZZnt#+%.XX*=-;,qGIYUTYH<;=X&V1Z@.X==-:,<FGJJIUTTPPTLLLLLLLLPLUUYYYIKKJHG",
"UIJHGFA<>:;-===**X.%o+rcZZu7pCRvi$#Oo&ooO #$0rtgvBZRZzu11uxRVg0+o.XX*=-:,DKYYTYH<;=.$xme.X==-:<AFHKIUUTPPPPLLLLPLTTUUUYYYKIKKJGF",
"TUIJHGFA<,:;-===*XX.%O#dBRl13mRMfe#O&%%%%%&&o +$rrdgMBZZxu11pmZnt#o.XX*=;>AHPYYYH,=*&M2c%X*=-:<AGJKUTUTPPPLLLLLLPUUUTYYYIIIKJHGD",
"TUUIJJGFA<>;;-==**XX.&+0cZm6 sZZhe@o&%......%%&&O+ $$tdhBZRma11sZZg0o%XX*=;,FKUYKH>=X#zR+X*=-,AFHKUTUTLPTbLLLLcUUUTYYYYYIIKKKFFD",
"LUUUIKJGFA,>;;-==**X.%O#iVRl 6CRvt#O&.X.XXX.X...%%%&OOO#etdzVRZs21jRBi+&.X*-;qHKYKF:=.Ma#X*-:,AHKITUTLLLLLTULUTYYYYYIIIIIIKKHFSS",
"LLIUUUKJGFq<>:-==**XX.%+rgZm41lRVd$+&%.XXXXXXXXXX...%.%&oO  etgMZZl22xRk#o.X*=>FKUKF;=Opg.*=:,FHPUTTTLTULLTUUYYYYIIKIIIIJKHHFFAq",
"LJLIUUUKJGFq,>;--=**XX.o#tBRs7pCZhe+o%.XX*X*****XXXXXXX.X.%%%O+#$thBZx32mZtO.X=-qHKKS;XcZ%*-:AHKIUTUUTTUUUUYUYIIIIKKJHHKHHHGFDSq",
"LLLLPTTUKJGF<,:;--=**X.%O$gZm32mRvt#o%..X****=*******XXXXXXX...%%&O#$dvZB42Zc@.*=:SHHA=&2+*-,SJUYTTUUUUTYYYIYIIJKKHHHHHGGFFDDSAq",
"ULLLLLTUUIJGA<,:;-==**X.&#tBZs7sRVd$O&..X****=************X*XXXXXX..%%o+0fVVu4Zr.X=>AF,=fg*-qGKYYTTUYYYYIUIKKJJKHHGGFDDSSDSqqq<<",
"UUPLLLUUUUKHGSq,;;-==*XX.o#gZm26CZhe#&..X****=======*****===X****XXXXXXX..&O0gZppBO*=><-XaX-qHKKYYYYYUIKKKJHHFFFDDSSDDSqqqqq<<<<",
"UYUULLLLTTUKJFSq>>--==*X.%+rMZp zRnr#o%.XX***==========-=========*==*****XXX..%o0xzl0X=-*c.-qGKUIPUKKKHHHFFDSSSSSSSq<<<<<<<,,,,,",
"KIYYUILLLLTUKJGA<>:--=**X.o#gRx1pZVd7o%.XX***=;;===-=-=-=-==-========X==X====***XX.orBxo.+V*:AGLJJGFFDSASqq<<,>,,<<,,>,,>>>,>:>:",
"HKIYYUULLLLTUIJGA<>;-=**XX%+rMZu1mZg0O%.XX***===;=----------;;-;--------=====----X===XX.xj4eX-,,,,<,>>>>>:::>;>:::;;::::;;:;;::;",
"FHKIIYULLLLPTUIJHA<>;-==*X.&#dRx sRvt+&..X***=;=O;;:;;;;;:;-;::;--;:::::;:;;;:::::>:,,>;=.V4zO====-=--;;----=;----;;-------;----",
"ASFHJIYYULLPPTUKJFA<>;-=**X.OrnR44ZVi#o%XX***==;;;;;::::>>:::,,:>>::>><>,,<<<<qAASSFGGFS<;X4+onn0%XXX******============-=---=-=;",
"<<SFGJIIYULLPPPUKJFA>;-==*X.&+dZl7xZg$&%XX***==;=;::>>>,,,,,,,,<,,qqqqAAAASSFFGGHLILIIKJG,=$#==*+mjM0o&.XXXXX********===========",
":><qSFJIIYULLPPTUKJGA<:-=**X.&0MZ4uRveO%.X***==;;:;:,,<<<<qqqqqqSAqSSSFFFFHHHKKKUUUUYYIKH<=Xj*:,;X%hjuZg$Oo%..XXXXXXX**********=",
"-;:,<qFGKIUULUPLUUIJFA,:-=**X%OiZs VVt#&.XX**==;;:;>>,<qAASSSSSFSGSGGGHHHHKKUUUUTTTTTYYKF<-XV+=qS<;X.#Vp4ZBd0+oo%X.XXXXXXXX*****",
"=--;>,<SFJIUUUULTIUIJFq>;-=*X.&$vZ1sZf#o.XX*=====;;>,<qASSSGGGGGHHHHJKKKKPUPPTTTTUUTTYYKF>=X$BX;SHF<-=X+fZ62BZci0#Oo%%..XXXXXXXX",
"==--;:><SFHKIUUULLbUUJFq>;-=*X.oiRa2Zn$o%.X*===-;::>,<qSDGGHHHJHJKKJKUKPTTTTPTTTTLUTYYKGA>=*Oa$*:GKKF>-*X&0mV42xRBct0#+oo%%.....",
"**===-;>><SFHKUUULPTUUJFq>;=**X%#vZ1xVtO%.X*===;;;:>,qASFGHHJJJLJKUKUUUTTTTTPTPPUUTYYKJG<;=*%VZ.=,HUKJq;==X%#dZB32lZZngr0#+Oo&%%",
"X***===;:>,SFHKUUUUUTUUJF<:-=*X.OrZpuRf#&.X**===;:>,<qSSGHHJKIIIIUUUUTTTTTPPTPPLTUUYYKGA>;=*.r1tX=<HIIJF>-==X%OrxZx21sVZVcdr0#++",
".XX***==-;:><SFJUUUUTUUUJF<:-=*X%#cV7Zv7o.X**=--;:><<ASFGHJPIIYUUTTTTTTTTPPLLKPPUTYIKJGq>:=*X+ZRo*-qJIYUHA:-=*X%O#dVZj21smRZBcdr",
"%..XX***==-;><qDHKUULLTTUJF<;;=*X&eZ4sZeO.X**=--;:>,qASGHKKIIYUTUTTTPTLPLLLPLLLUTYIIJGS<>;=*X&V2d.*;qJYYUKF,:-=*XX%+rlZZj11pxZRV",
"+o&..XX***==;;><SGKUUUTUTUJF<;==X.Ohm1Rd+.X**==-;:><qSFGHJKIYUUTTTTTPTLLLLLPPTcUYYIIHFA<>;=*X%iaZ+X=;SJYYYUHA>--=*XX%O$dBZVa11uz",
"d07Oo%XXX***=;;:>qFHKYULUTUJS,;=*X%$Z3xv#%X**==-;><<ASGHKPIUUTTTTPPPLLLLLLLLTUTYYIKJGSq<:;=*X%$Zuf%*=:SIYYTUJS<:-==*XX%O#rlVZmp1",
"Znfe#+o%XXXX*==;;><SGKUUPUUUHA>;=*XOhx4Ze&XX*==-;>,qSFGKKIIUUTTPPPLLLLfLLPLTUTYYIIKHFS<>:;=*X.+M2R#.*->SJYYUUIGS,:--=*XX.%O0inZZ",
"xZRVvi0@O%.XX**===;>qDJUUUUTUJA>;=*.$Z1Zto.X*==-;><qSGHJJIUUTTbLLLLLLLLLLLLUUYYIIKHHDq,>;;=*X.OfxscoX*->SJYUUUUJF<>;-==*XX%%O#rh",
"72pmZZBge7o%.XXX*==;:,AGKYUTTUJA:-=X&fxsv+.X*=-;;<qAFHHKIUUTTLPTLLLLdLLPPLUUYYYIKKHDDq,;;===*X&rZ1Z$.X=;>DJYUUUUIGA,:--=**XX.%o#",
"xa272amZZvi0+o%XXX*=-;>qFKIUUUYJq>=*.#Z7R$.X*==;:,qSGJJJUTTTPPLLLLLLLLPLPUTTYYIIKHGDDq,>;===*X%#BalcOX*=;,DJYUULUUJFq,:-X=**XXX%",
"ZRZxa372sVRVcr#o%XXX*=-:,qHKYUTIHq;=X.isBt&X*==;><AFHJIIUUTTLPLLLLLLLLLTUTTYYIKKHHGDqq>:;===*X.OgZ7Re&X*=:,DJIULLTUIGS<>;--==*XX",
"fcMVZZms2 3lZRni#o%XX**=-:<FKYYYIH<;=XOZ4voX*=--,qSGJJIUUTPLLLPLLLPLLUcUUTYYIIJKHGDDq,>;;===*X.OrZ4xv@.X*-:<DJIUUUUULJFA,>;--==*",
"##rtgvBZRBj414lZZge+o.XX*=;>AHPYTYK<-=.tuR@.*=-;>qFHJIYUTTPPPLLLLLPUUUUYYYYYIIKHHGDq<,>;;;==*X.&$Mx2Rr&X*=-:<FJIUUPUUUJHA<>:--==",
"oo+ #$rdhMVRZl41yxRBd#o%XX*=;,FKYYYH<-*&Zle%*=-:<SGJKUUULPPPPKLTTLUUUTYYYYIIIKKHGDAq,>:;;===*X.%#hR1xn#.X*=-:qFJIULPLUUKHFA,>;;-",
"..%&ooO #$tdhBZZx51umZc0o..**=:qHPYKH>=Xe2v%*=-:<SJKUUTUTPPPLLTUUUYTYYYYIIIIKKHHGDAq,,:;;==**XX%OtZa4RtO.X*=->qFJIYULTUUKLGS<>>;",
"XX....%&&&O  $tgzVZmu pZZi@%.*=-,FKKKH>=.ZRoX=-,AGJKUTUTLTTLLLUUTYYYYIIIIIKKKKHGDAA,,,:;;===*XX.oeMV1mM$&X**=;>qFKIYULLLUUKGFA<,",
"XXXXXXXX....&&o+#etgBZZa aZn$o.*=;qJKKG>*#2#X=-,FJIUTTUULUTUPTYYYUIIIKKKKKHHHHHDDAq,>,:;;;==*XX.O7hR4uZiO.X*=-:,qFJIYULLLTUIJFAq",
"*****XXXXXXX..X.%%%O#$tcVZj jZio.*=:SJJS-XZc.=;qHKUUTTLTUPUYYYYIIIIKKHKHHHGGGHDDSAq<,:;;=;==**X.&#iZx VM$&.X*=-:,qGJIYUUULTUUKHF",
"************XXXXXX...%%O 0ixZl1xM#.X=,FG<-oz.=:SHKYTTTTTTYYYIUKKJKKHHHFHFDDDDDDAAq<,>:;;;;==**X.%+rMZ2pZd@.X**=-:,qGJIYULLKUTUKH",
"===========******XXXXXXX..%&#0fVM1Ci%*=,q>=Bo=,SKIYYYYYYYKUKKHHHHHGFDDSSSDSDSqqqqqq,>:;;;===**XX%o$hRa VMeo.X**=-:,qGJIYULLLLUUK",
"===;=========**=*=*=******XXXX.&O$jV2VOX-:=%k=:SHKUIUIIPKJJHGGFFSSSSqSqqqq<qqq,<,,,>>:;;;;==**XX.o#iVm jZf#&.X*==;:,SGJIYUILLTTU",
"=--===--================**=**=*XXX..o#B4fXXXaX-qGHJJKJHGFDDDSqq<<<<<,<,,,,,>:,>>>:::::;=;===**XX.&OrMZu2CMeO.XX*=-;:,DGJKYUPLLTU",
"===;O;=------------X-===XX====-=======XX.rivZn=-<qSSSAqq<,,,>,>>>>>::::::::::::::::::;;;-==***XX.%O0cRl7lRg#&.X**=-;:qDGKKYULLLL",
"===;--;;;;;;;;;-;;;;;;;;;;;;;;;;;;;--:;-;-=.V0Z%==---;;;;;;;;;;;;;;;::::::-;;;;;;;;--;;-====**XX.%o#aZZ44ZMt+%.X**=-;,qqGKIYUULL",
"===;;->>::::::::::>>:>>>>>>>,>,,,,<<qAASFA,:XVVcur.XX*****==========---=-=-=------------====**XX.%O@rnRa1zZg$o.XX*==-:,qSGKKYUUL",
"==;--:>>>>>>,,,:,,,,<,<<<<<<AAAASFFGJJJJKJGq;.BX*Xd4Veo..XXX********================-=======***X..&OehZx16CBy#&.X**=-;:,<SGKKYUU",
"==;--:>,,<,<<,,qqqqAAAAASSFFFFGHHKKUUYYUIUHA:*B.-:-XOV2Zc0+o....XXXXX**********=============***X..&o$dVZu zZh$O%XX**==;:,SSGJKYU",
"==;--:>><<qAqAAASSFSSFFGGGHHHKKKPUUUUTTYYUJA:=+n=,q<-X.iV1xZg0+o&.XXXXXXXXXX*******************X..%O#inRl pZVt@&.XX**==;:<SDGJPU",
"=;;;:>>,<qASSSSSSFGGGHHHHLKKUUUTPTTUUTTYYKGq:*%u&=qGF,-X.#Mm jRMd0#+o%%...XXXXXXXX*************XX.%O@ecRm32mZh0O%.X**==-;>>qSGJK",
"==;-:>><qASFSGGGHHHJHHKKKUPUTTTPTTLUTTYYYJFq;*.MBX:FJJS:XX.OiVl aZZci0#+oo%%..X.XXXXXXXX******XX..%oO0fVZs7pZBt@o.XX**=--;>,qSHJ",
"=-;::><<ASFGGHKHJJIKKYYUUUTTTTPPTPTLUUYYKJA,;=Xe7+*>FKIHq;X*X&$vZa uBZBgt0#+Oo&%%.....XXXXXXXXXXXX.&O$inRx22mZce+%.XX**=-;>><SDG",
"=---:>,qASFGHKKKKJKIIUUUTTTPPTPLPPUUTYYIJFq>;=XOBC.=>HIIKF>-=*X%#iVZu umRZngt0#++oo%%%...X..XXXXXX.&O#rcZZp7sRVd$O%.X**==-=>>qAF",
"-;;-:>>qASGHKKKKIIUUUTTTTTPTLPLLTLLUTYUKHF<:;=X&Mu$X=<HIYIH<:-X*X.O$cZmu14xZRBcdr0#++oo&%%......XX.%oOefVRl 3mZve+o..X**===;::<A",
"=;--:><ASFGHJKPIUYTUTTTPPLLLPLLLLLUTYIKJFA,:==X%tuZ%*=<JYYUKF,;-=*X.& iBZx5 4jVRZMhdr0#@+Oo&&%%...%%&+0inRV4 jRVd$O%.XX**=-;;:,<",
"=;;;:<<AFGHKKKIUUUTTPPLTPLLPPPKLLUUYUKKGSA,;==*.$Zse.*;<HYUYUGq>-==*X.%+0gVZz4 4smRRVvgdr0##++Oo&%&&o+$rcZZa 6CRcr#o.XXX**==-;:>",
"==;::>qSFGHJKIUUUUTTPTLLLLLLLLPLUUYUKKJFA<>;;=*.OM1Z+X=;<KUYYYJF<>-=**XX%O#dnZZl4 2smZRZMcgtr0#@@+OOO+@egVRz3 jRVd0+&.XX**===-:>",
"=;-:><AFGHJJIUUTTTTTTLLLLLLLPLTUUYYUKJHGq<>;==*X&ixxt.*=;<JUYUUIHA>;-X**XX%O+rgBZZj412pxZRRVnhdte0$@@@#ednRCu86CRvt#o%.XX**==--;",
"==-:,<AFGHJIIUTTPTLLLLLLLLPKLPUUYYIUJHGSq,:;==*X%0Z1Z+.*=>SJUYUUUKF<>;-=**XX.%+$inVRma372plVZRZBvhdteeerivZZj12zRVg0@o..XX**==--",
"=--:<ASGHJIIUUTTbLPLLLLLLLPLLUTYYIIKJHGS<>:;==*X.+Maxd%X*;>SJIUUUUKHA<:--X**XX.%O rgMZZxa272ulmZRZVmcgdifhVRm67pVRvt$O%.XXX**===",
"=;::<ASHJIIUUUPPLLLLLLLLLPLLUYTYIIKJHGSq<>:-==*X.ofZ2Z#.*=;>SJIUUUUUHFq>:-==**XX.%O+0icVRZxu271usmZZRZVMvMVRCa 2zRVg0@o%.XXX**==",
"=-:,<AGHKKUUTTbPPLLLLLLLLLUUUTYYIKKJGFSq<>:;==*X.oeZ2mdoX*=;>SJYYUUTULGA<:;--=**XX..o+#rgMZRZzu2716smVRRRZZRCz3 pCRvt#+&%.XXX***",
"=-:,qFHJIUTTTLLLLLLLLLTLTTUUTYYIIKHHGSq<<:;;;=*X.&#Mx4Z7%X*=;,DJYULPTUKJFq,:;-==**XX..%O 0icBZRBlu1714szVZRRCmp74zRVgr#O&%.XXXX*",
"--:,AGJKIUTTTTPLPLLLLPTLUTTTYYIPKJGHFSqq>:;;==**X%OfZ1ZgO.X*-:,DJIULUTUUJGS<>:;-==***XX.%o #ranVRZmsu1714azMmzs11sCRMgr$Oo&..XXX",
"=-,qSHKIUTUPPPPLLLLLULUUYTYYYIIIKJHGSqq,>;;;==**X.+rZauZ0&X*=-:<DJYUUPLTUIHFq,>;-===***XX.%&+#0ihVZRZxs41714ppu394lCRMht0@Oo&..X",
"=-,AGHUUUTTLPPLLLLUPUTYYYYYIIKKKKGFFSq<,>::=-***X.o0Mm7Zh+.X*=-:<FJIUULLPULJGSq>:;-X==***XX..%o 0rfcVZRZxs4 7111  uzZRVvdt$@Oo%%",
"-:,SHKYUTPTLPLLULUTYYYUUUIUUKKKKJGGSAq<>>:--==**X.&#gR4sZeo.X*=-><FJIUULLPUUIJFA<>;;===X**XXX..%o+#eihnVRRZxa4 979 4lVRRVvgte#+o",
"=:qFJYTTUUTLUULUUYYYYIIIKKKKKJJJGHGSAq,,:;--===*X.%OtZl1Zc@%X**=;><FJIYUUPLTUIJGA<,>;;-==****XX..%o+#$rfcBZRZms4 9972pjBZRZMhdr$",
"->SHUYTTULUUUUUYYUIIKUKKKKJJLHHGGFFAqq,,:;--==**X.%O0MZ1lZtO.X*==;>qFHIUUUUPTTULHFA<,:----==***XX..%&O $eihMZRZl4 9  8 4pzVZRVng",
"-,FKKTTTUUTUYYYUUUPKKKHHGHGGGGFFSSSAq<,:::-;-==*XX.o#hRa2Zv#%.X*=-;>AFHUUUTLbPTUKHGAA,>:;-====***XX...&O @ethVRZl611363 714axVRR",
"-qGKYYYYYYYUIUUKJJHLHGGGFSFSSSAASAqqq,,,:;;-===*XX.&#iVm zZtO%X**=->,qSHUUUTPLPTUIJHFAq,:;--====***XX...&O+$tgMRZs2 pjzla41714sm",
"-qHKYUUUUUUPKJHGGFSFFSSAAAqqqqqqq<q,,,,:;;=;==***X.%+rMZ44Rv$o.X*==;:,qFHIYUUPLPTUUKJFSq,:::---===***XX...&O7egVRm674zCZZBxa4171",
"=<FLKPKKKJGGGFSSSSqqqqqq<<<,,,,,,,,,,>>:>;=;===**XX%o0hRl7zZd+%XX*=-;:,AGHKYTLLPPUUUYKHFSq,::--=-===**XXX..%O7tcZZj12jCRRRRRZxs4",
"X;qSGGGSSSSqq<q,,,,,>,::,>>:>::::::::::;;;-===**XXX%o#iZV2uZv0o.X**=-;:,SGJUYULLLLLTUIKHGSq,,:;:-=====*XXX.%o+0dMRm47uVRZVVVZRRZ",
"Z.=;::::::::::::::;:;;;;;;;;;;;;;;;;;;;;;;=-===**XX.&@rnRa xZd#o.X**=-:,,SGHIYTPLLLPTYYKHGSSq,,:---====*XXX.%o#tcZZs 2zRZncghvMV"
};
