/* XPM */
static char *result[] = {
/* columns rows colors chars-per-pixel */
"128 128 48 1 ",
"  c #4F3F00",
". c #573700",
"X c #5B3500",
"o c #533B00",
"O c #662F00",
"+ c #6B2D00",
"@ c #7C2600",
"# c #732900",
"$ c #782800",
"% c #623100",
"& c #1E5600",
"* c #175E00",
"= c #1A5A00",
"- c #2C4E00",
"; c #334C00",
": c #3B4A00",
"> c #235200",
", c #285000",
"< c #0E6D00",
"1 c #136300",
"2 c #106900",
"3 c #0C7300",
"4 c #097C00",
"5 c #474700",
"6 c #4B4300",
"7 c #434900",
"8 c #9C1F00",
"9 c #A31D00",
"0 c #AC1C00",
"q c #B41900",
"w c #B81800",
"e c #842400",
"r c #8B2200",
"t c #932100",
"y c #992000",
"u c #068400",
"i c #058B00",
"p c #039300",
"a c #019B00",
"s c #00A300",
"d c #00AB00",
"f c #00B302",
"g c #00BB03",
"h c #00C305",
"j c #00CB07",
"k c #00C40E",
"l c #00CD0A",
"z c #00D109",
/* pixels */
"&11,:Orr%6>2pd41>,::;>142,6@qe.,2u2>:%eO >21,6#tO6&34&;OwqX;11-X9qO6=43&:+9r.;*2>;%$# -*4u*,6$wq$o;=<<1&>>>&>&*12<34344433<<21==",
"1>:%8w8.;=3i<=-:.o6:&<2>:+q9%;=44=:o#Oo-1<=;o$#.,2u1,orw@ >2&:Oq9X-1u1> eq$ >2*,6#eO6,*u4=;.rww#o;=<2=&>->&&*1<34uipppiiuu4<2*=>",
"-6#8r%5>2u<>;.@yOo,*2>;O0w#6><u1,:%%o;=32>;X%.;&44&:OqqX-*1, @0#6>3u*;Xy9%:&2*:X@y%6,2u<>:Xrwq+o,*<1=>--->&=1<4upadfffddapu3<1=>",
"5o. ;>2u3=;oew9%:&2=;X8weo,2i<&: X :><4*-:  :&<i2> rweo>1&;%9yX;=43>:O9y.;*1>:O98%:><i2>6%yw9% >1<1=>-;--&=1<3uasghjjjhhfdpu32*>",
";-,*<pp1,:%t8%6>11-oeq8.;*uu*,:oo5>2i<=-:6;>1ii1;.r8X;*1,6@w@ ><i1- @q@ >1*, @qtX;=3u1,:+9wr.:>1<1>>;;:;-&=1<4iafhjzzzzjhfsi4<1=",
"&14dgu1>;6  ;>22>:.$#.:&3p2&;5 6,*4i1>-;->*4d4&:X$Oo>1*:X9wO6>34=:Xyw+6>2*:X8weo-=4u*- #qw$.:&2<1>-:: :;->=1<4isfhjjzzzzjgspu32*",
"igzfu1&,-->=3u1>:6o6-&3si1>:55-&<p3*>-->*3dd<>;.Xo;*2>:$w8.-*u2>:#w9X;=2>;Oqw$ ,1u3=;o$99# ;&2<1>;:6  ::->&123upsghhjjjhhfspu322",
"zja31*>&*14si2&,--&=3sf3*>;:->2ii1=,-,&<php1,:6o:&<1,orw@ ><u1-.rwro,11>6$w0%6>2u<>:.@9r% ;&<<*>;:o...66;->=1<4upasdfgffsapu4322",
"s41*==*<iggu21&&*14dzs<*,-->*4p<=>;->*4ff3*-:::>13*:.erX;=43&:%9w# >1*-.rw8X:=3u1>:X#r$.6>*<<*,:6.O++Xo6:;>&=1234uiiiipiu443<211",
"1=&&*<ufja421*1<ufzjp2*>,>*<pu1>-;-&1igi*,:5:-=<<&:X#%6,2i2>:$wqX:=2&:X8weo-=3u1>:X#e#o:>1<<*,;:X+@@#O.6:;->&=1112<<<<<<211111==",
"-->=<phdu<1*13ufzlhu2=&>*2up2>-::-&<ss2>::6:>14*,:X%o;&3i*,orwr.;11,:+qw$ ,1u41-:X@@O ;>132*,: %$ryr#%.6:;-->&&=====1===>>>>>>>&",
"6,=<aa42***24szkzs31*==*3a4*-66:,=4s3&; Xo:><<&: %X >1i4=:.r9+ >11, @wqO6>2u3=-:%@@% ;&132=,; %@899r#Xo6:;->>&&&&&>>>,--:::::;;>",
";=3u2*>>>=2uflzfu2*&=*3ip1>: o:,1ui*, +#.;&<1,6%#o:><p2>:Xre.:&2*:Xyw8X:><i<&; Oe@X6-&131=,; %e0w9r#Xo :;->>>&>>>>>-;::o.X%%.o:,",
"=<*>;::;>1uhzfu1=&&=24a3&;6oo:><i2>:#8ro;*2>;%e#o;=4i1,:+r#o-*2>:%9weo-=3u1>:.#yr%6;&231&,:oOr0qqr#Xo6:;->&>>&&>>>-;: .+r9qy+.:>",
"*,:X%.6>*ihd4*=>>&=<iu*>:X.6-=44*-X8w@o>1*-orq@ ,1u<&:Xrr% >11,6$ww$6,*4u*,;XrqrO -&2<1>,6.+r0q0r#Xo6:;>>&&=*==&&>-:5.OrqwwrX ,=",
"5O89%6>2pa<*>-;;>13i2>;.%X6><u1>:$w9X:&2>;Oqw#6><i1,6#0yX:>2*-o@w0O >1u4*,:%9w9+.;>2<1>,:.#rqwqr#%o6:->>&=*1**==&>-;:o%e99rX -*2",
"rw9X;=3p<=,:: ;>14<&:o%% -=44=:X8w@o>11, @w9X;=44=;Xywy.;=2&;Xyw8X:>2u<=-6#9w9Oo;&12*>: X#9wwqr#%o :->>&**11111==&-;:6XO#Oo6,*2=",
"w#6,2u3=;:.Xo;&<4*,6%#X6><i1>:#w9X:&2*:.r0# ,2u<>:O0w@.,11,:O9q@ -*3p<=- +8wyO6;&11=,: %r9wwqr#%o6:;>>=*1122221*=&>-;6o o6;>*<1-",
"o-*4u*,:%$O -*31>:.#% -=44=:Xyweo,11>;Oe$.;&3i1,:O8y%:&2*,:%ee.5,1ua3=-:.#@Oo:,&21=,; Oe9ww9r#%o6:;>&=*122<<<<211=&>>-;;,>=241>:",
">2i2>:%yy%:>2<&; %#.:><u2>:+wq%:>2*,6O@O6,*iu1-:%#%6,*31>:.%.6-=3sd41>;: oo6;>1<2=>: %@8ww9r#Xo :->&=*12<<33<<2111=&&>&&*24p4=>:",
"u3&;.rwrX;*<*,:%#% ,*4u*-Xrwr.-*2>:%@@.:&<p3*-6.X -&<41>:666-&1uhgu2=>-;:;,>=2431>-:oO$ere+Xo6:;->&=112<<3333<22111==*123idp2=>-",
"1,:#qw#o>22>:X$#X:&<i2>:OqwO >1*, $8$o-*4p2&;5o6:>*uu1&-;;,&13szhp31=&>>>&*24i41=>;5oXX%%.o 6;->&==112<<<33<<211111=11<uagd41&>&",
":%ywy.;*2&-o$eO ,*uu*-oeqrX;&2&:X8w# >2iu1>;666,=<p41=>>>>*3phzja42====*=23iap31&>;:66666::;->>&=1=1122<22111=11==1=1<4ahfu21==*",
"@ww+ >11,:OreX:&<i<>:Xr9+ >1*,6$wwO6><i<=-: 6:,*4a41=&>&=24szzha42111=123uada41=>>;::66::;-->&&==11111111=1===>>>&==23pgdu2===13",
"qeX;*2&:Xr0$ -*4u1-6+r@.:=2*:Xywy.;=3u1>:o.o:>*up31=>&=*<ifzzgp311==1*23isfs421=>-;;;:;;-->&&&======11==&>>>-,;;->>=24sa31=>&*<a",
"%:>1*, @08%6><i<>:.@e% >11>:O9w# ,1u<=; OO.:>2iu1=>>>=*3igzzdu<1=&&&=13uadp41==>--;::;;-->>&&&=======&>>--::6::::->*<uu1=>;->*uj",
"-11>:%8weo-=4u*,6+y@.;=2*-6#9y%:><u1>:%eeX:>2u<*>>->>*<igzjp31=>>->&=23ipu<1=>-;;:;;:;--->>&>>&&&&>>>--::6.X%+%.:;>13<=,::6;><sh",
"2*- @wqO6>2u2>:Xr9#o>12&:.@y# -=3u*, $qyX:&<41&,;;->=<ufjd41=>-;;;-&1<uu31=>-:6:6 666::--,,>>>>>->--::6.%#ry9r#.:-=21>:o++o:=ud<",
",;%9weo-=4u*, $q9X6>21,:%re%6>2u<&:.rwyX:&<<=,:::;,=2udgp<=>::6 6:-&1331=>;:6oXXX.. 66::;---,,--;;::6.O#rqww9$X6;&11>:Xyw@ ><p1,",
"o@ww%6>2i<>:X8wr.;=2&-.@8$o;=3u1>:%8wr.:*<1>-: 66->14ss41>:6XOO.6;>*221>-:6.+#ee@#OXo :5::;;;;::666.X+r8www9$.:,=21>:Xrwyo-2u1-.",
"0weo-=3u1, #ww# >11,:O9w# ,=4u*-6$qw$o-1<*,: .o5;>*4sa<=-6X#re+.:>=11=>-:.+e9qwq9e#%..665:::5:66 oXO+r9wqy@Xo:>=<<=-6Or@o-*u1,X0",
"0%6><u<>:XywyX:&2*-oewqO6>2u<&:orwqO6>22&-:.Xo6;>*4ai1>: +8q8+o:>=11=>;:.Or9wwwwye#%.. 65555 66 ..O#eyyr#X :,&2441>;6.X6,*u2>.9q",
"o-=4u1>:%98Oo>12>:%8wrX;=3u1,:%9wrX:&<1>;:o.o6-&2ua41>:.$9w8O :>*21=>;:.Oe9wwwq9e+OX.  656:66  ..+#@ee#Oo:;>=<iu2=>;:6;,1i4>:rwO",
">2i<=;o+e#o;&<*,:O99O6,*44*-6#89#6,131>-5   :,=<ia3=>;Xrwwr% ;>*22=>-: X#ey999r@#O%.. 66666  o.%+#@e@+%o ;>*3ip31>-;;-&<ii*:Or%;",
"4u1>:.##X:>1<*, O@Oo;&<i3=-6%#O ;&<41&-::6:;>*<ip<=-:%ywwr% ;&1<21>-:: %+#eee@#O%..o 6o6    .XX+#$ee#O.6;>*<ii<*&-;;,=<ps1> OX:*",
"3&-6%#%o;&<2&;6X%o5,*ua<=-5oo6;>*uu2=>;::;,&24ap2&- +8wwrX6;&23<1=--5 oXO+##+O%X..     6  o..O+#rrye#X :-=24u2=>-:;-&2pd<>:.o:12",
",:X#@X >13*,: .o -=3sa<=>;::;>*3ap<1&>--,>*<usi1>:o#9ww@.:,=2431=>-:6 oXO%O%X%...        o.XO#@r89ye+.o;>1341&,:6:;>1ud3>:  :*<,",
" #reX:&22&-6.X :,*ufp2=>-;,>=<pfa41=&>>>=*3isu1>:.$qwq$.:>=<432=&>;:6 .X%%%XXX.o.      o.X%+$r9qwwy@%6:>*<2*>: ..6;=3s3>: .:&3=5",
"e9$o;&<*>:.%% ;>2pdu1=>->>=24dhau<1==&=*24pdu1>:Xrqw9# :>=<u421=-;:6 .X.O%%XXX.ooooooo...O+@r9www9eOo6-=12=,:%@@%6><p<&:XX6&3*:.",
"9Oo>12&: #r#o;&<aa<*>>->&13ihhau<1==**1<uss4*>:Xrww8% :>134421=>,::o.XOO+OO%XX..oooo...%+#eyqwwwqr+.6-&12&, #9w@o-*u<>:#@.,21;.X",
"X:&21,:%yq$o-=3p41>-;:->=3phfi3211**123usa<=,:%rwwy%6:>134411&-;::oXO+####+O%XX.....X%O+#r9qwww9eOo:-=11&-6+0wro-=u<>6@w#:11;X#6",
"-=2&:.@ww$6,=3i1&-:66:-&<ida421====*23isp2&;:OywqrX ->134311>>;6 X%$errr@##+OXXXXXXX%O+@ryqwww9e+ 6-&12&-:%r0#o-*43>:$we6&1-%r.,",
"11>:Xyw9%6>1u4*>:X+%o:>1ua41*=>>>==13isi1>:o+9wq$o:,=23431=>-::o%#r889yye@#OOXXXXX%O+#er9qwww9e%o6>&22*,: %#%6,1uu1:%9r.&2-Xw$;<",
"=-6$qq@o;><u<=;.$9r% >*331=>--;;>&*3ia41>:.#8wrOo:>=24u31=>-:6.+@80wqqye@++OOOOX%OO+@ry9wwww9@% :>=22*>;5 o6;>1ia2>6%%6>2>oq8 =i",
";.ew9O6,=4u1>:Xrww# -*<1>;:6  6;>=<ui<=- .#yy$X6->*<4u41=>-;6.#rqwwwq9r@#+O%XXX%OO+@ry9wwwq9@X6:-=2<1>-556:,=3shu=-: :><=:r0o&u*",
"O9wr.:>2iu1>:O9w9%6>*2=-:X+#+o:,=<uu1=-:.#@@%o:,&*<ui42=>-:6.#yqwwqq9r@+O%XXXXX%++@ryqwwwq9#X :>=22*>;:56;>*3dza<=>;>*32-XeX,41;",
"qq@ -=3p3=-6Xr9@.:>11>; #8wr% -=<u41>-:.O+%.6;>*23ipu<1&-:6.#rqwwwq9r@+O%XXXXX%O#$ry9wwwwy#X6:>=12*,:6 6:-=3dzfu1=>=*4u&:Xo,<3-+",
"0O6,=4i2>-6O@@%6-&21>:.@qwr%6,=<u41>;:.XXo6:,>*<upai31=>;5.Or9wwwq9r@+OXXX..X%O+$ryqwqwqr#Xo:>=11=,:o%X ;&2azgu1===2ua1-5 ,2u>Xw",
"X:>2u41>:.+@+.:>*<*>:XrwqrX:,=3u31>-:oX.o:;>=23isdp421>-;6.#ywwwqqye#+OXXXX%O+#@y8wwwwqr#.o:>=11=,:Xry#o-=4gs31>>&14s2,:5-2p*60t",
";=<i<=-6%@e+ ;>12=,6%rq9$o:>*3i31>:6.X. :;>=23pddau31=>-6 X#yqwwq9ye#+OO%OO+#@r8qwwww9r+.o;>*22=,:XrwwO ><ap1&,--&<a<>; ;=i1;r0 ",
"*3u1>;.#yr+ ;&22=;6%r0yO :>14u<*>:6.O%. ;>&23pdfsi321&>;: X+r9ww98re$##+++#@er9wwwww9@Oo6;&*<<1>: $qq$ -*uu1,::6-1u2>: :=u<-OwX>",
"u41>:Xrqy+ -=21>: O80r% -&24u2*,:oO##O.:;>13udfai4<1=&-;:6.O#ry99rre@@$@#@eryqwwwww9e% 6;&1331=-:.$r#o-*44*;o+%:&32,:X >3u>Xw#,2",
"<=- +9wr%:>*2*>:.$0qr% ,=<uu1&-6.#rr@%6:>=2uaspu4<11=>>-:5 .O#eryyr@eereery9qwwwwq9@% :-&1332=>-:oX.6,=3u*;Xy9X;12, +X;2i& qe:1,",
">:.ewwr.6>12&,:Xrwq@X6,=<u41&-:X$9q9#.:->13ipu4<21==&>--::6..O#@ereeeeryr8qqwwwww9@O :-&14321>-;::6:>*4u1-.yw#:=1-or#6=u*:rqo*= ",
":%rww@.;>11&- +8ww$o:>*3u41>;:%rqqqr%o;>*<444<1=1==>>>-;;:5 ..O+#eerrryy89wwwwwqy@Oo ->1331*&-;::;,>*ua2>6ewr >2,o89o>41:@wX&1:r",
"O8wq+6;=21>:.#9w9#o:>*3i31>; %rqwwr% :>=1<3<11==&>>>--;;::55o..O+@@ryy89qwwwwwqr#%o ;>*<<1=>-;::->=2id4=:Xr$.>2>6yw%,33,%wO,2;#9",
"qwrX >*2*>:.eww8%6;>24u<*>::%rwwwe% :->12211=>>,,------::;756o.%O@ey899qwwwww9r#% :;>*22*>,::65;>=<ifu1- O+ >2&:@wO;2u>.w@:1,%q.",
"we.:>12=-:%rwwrX6-=24u2=>: OrwwqeX :->1211=>,-;;:::::::::55   .%+@ry9qqwwwww9e+X 6;>=21=,; .. 6-&2igp1>:.. >2*-Ow@:*u&6y9 *=6q#-",
"$o;>11&-6%rq9$o:,=<uu2=>: +rqw9@Xo:->1211=>-;:::66:66 :6:::6 .XO+@r8qwwwwq9e#%o :;>*21=,:.+e#X:,=4dp1>;oo ,21,X8r =u1;rw.&1;r962",
" ;=11>:o+yqrOo:>*3iu2=>:o+r0qr#X6;>>1211=>::: oo...oo  66  o.X%+@r9wwwwwqr#%.6:;>&1<2=>;.#9weo:&<ai1>:o. -1<, ryo>42-#w%,2-$w.&i",
",*21>:.#y9@Xo->*3iu1=-:oOr89r+.:;>=1211=>-:6..%OOO%%X......X%%+@r9wwwqw9e+.o:;,>=2331>: +9wqO >1ii1>:.O ;*<>:$8X,33,Xw@:1>Xw#,u*",
"12=,:.$yy$.:,=2up41=-:o+r99r+Xo;>=1221=>:: o%O#@@$$##O%%O%O+#$ry9wwwww9@%o::,&*23uu2=-:.$99Oo,*4u*>:O#X:&<&:#9O;2u> 986==60r;<2;",
"1&-:Xr8rOo:,=<ipu1&-:.+rqqy#.:;>&1221=>-::.%+@errree@$$#$$e@r89wwwwwwr#XX:->=*3uaau2=-: %OX ,=3u*,6#y#o>2*;O0$:=u=:rw.&1;rq =u,+",
">; +r8eOo:>=3ip41>;:.#9wqy#X6;>&1211=>-:: %O#ett88ryrrrery890wwwwqwqr+. :>&*<4affp41&>;666:,=3u1,6@qro>11;%qr =u1;#w%,2-#w.>u=ow",
";o#ry$X ;>*3pi31>;6.@qwwr#.:;>=1211=>;;6oXO#@rtt88yyy889900wwwwwww9eO.:;>&13idhhsu31&>-;:->*3i1>:+w9X;1*-Xq9o>32,%w$:1>.9O,41;9t",
".$y8$X ->13pp<1>:6Xrqwqr+.:;>=1221=>-:6 .%#@ettt88988990qwwwwwwww9e+.6;>=13udhhfp421&>--,>*4i2>:+qq%:*1,o9qX,<4>o9e61*:$O;24,%9 ",
"@8y$.6,>14pi<=>: Orqqwr+.:;>=1221=>-:66.%+#@rttt8889900qwwwwwwwwqr#X :->*<4aghdi421=>>>>=14a<>:%qq+6&2>6ywO;2u=:$@6=2,o%:*a&:#o>",
"98#o:,=24pu1=,: +rwwqr+.:;>=1221=>-:66.X+#@rttyy888990qqwwwwwwwq8e+.6;>=13iddpu<1=&>>>&=1us4*;.yw$ >2>:@w#:*i1;XO &4&: ;*a<,o ,3",
"8#o:,=24i41=,:.#ywwqrO.:;>=1221=>-:: .%O#ertyyyy899899wqwwwwwwq9r#Xo6->*<4ppu<11&>>>>>=24su*,oeq$ >2&6+0@5*i<,5o5&42,:-*pa*:6>3*",
"Oo:,=<ui41>;:.#9wwqe+. ;>=1221=>-:: .%O@ety99999y9899q0wwwwwqqye#%.6;>&1344<1=>>,;:--&13si1>:+y$ >1*;Xr#5&uu=; :&uu*,>*ij<>-,<3-",
" :>=<ui31>-6X#9wwqr+o:;>=1221=>-::6.X+@ry9qqqq000989999q9wqq99e#%.6:-&*2331=>-::::5;>=<pi1,:+yeo-11,.@# &4a1>;-&4s2=>1izp*>&2p*:",
";>*<ui21>;6X#9wwqe%o6;>=1221=>-:: oX+$r80wwwwwwq00999999999yr@#%o6:->=1<21>-::.XX :;&2ii1,:+9r.;*1,6#$ ,<d<&,,=4gu1*2izj3*>1a<>:",
">*3uu2=>;6%@9ww9@Xo:->=1221=>-;:6o.+$et90wwwwwwwq009yryyrree#+Xo6:->=121=>-:.+e@+o:>1ui1,:+99%:*2>:O$o,<du*>>*3hs32<uzlp2*1ii=;;",
"*<uu1=>:6%@yq9e+. :->&1221=>--:6oXO#rr90wwwwwwwwqq09yyre@@#+%.o6:->=121=-: %r0qeX:,*3u1>:+qw+:>2>:Or%;*si1>>=3ghu<<ijkg31*4f1,:&",
"3i41=-:6X#ere#X 6;->*1221=>>-:6 .%+$ry9qwwwwwwwwwqqyrre#+O%.o6:;->=121=,: Oywwy% ,=4u1>:%qw$ >2&:O8#:=ia1=>=<szp33ugkzu113d3,:,2",
"i41>-:6XO#+OX 6:->&*2<<1=>>;:: ..+#ery9qwwwwwwwww09yre#+%X.  :;->=121=>: %rwwyO ,=3u1>:%9w@o>1*:%9r >4s2=>>2pzs434dkla2=2pi&::=i",
"31>-:6.XO%.o :;>&=1<3<1=&-;:: ..O#@ery9qwwwwwwwwwq99e##%X.6::;>>*121=>: %ywwyOo-=<i2>;.rqe ,11-X9wX,2a<&->=4zfu33pzkf<**4s*;5,<4",
"1>-:6.XX.o :->&=1<344<1&>-:66..O+@@rr80qwwwwwwwwwq9r@+OX 66:;>&*121=-: %rwwyO -=3i<=;o#9@o-11,oyw#:*p<&,-><fgu<<uhkh3*=<s1; :*i>",
">-:o.XX.6:;>&=1<3uuu41=&>;: o.O#@ey890qwwwwwwwww99re#OX.6 :;>>*121=-: Orww8O -=<i3=-6Oe#o;*2>6rw@ =u3&;:-*pgu223dlzu*&*u3> 6>415",
";6.%O%.66->&*23upapu31=>-:: XO#@rr890qqwwwwwwwqq99e@+%.o6:->&*221&-: %rww9Oo;=<i3*,6Oe@.;*2>:$wy >34&;66&3fu21<izli1&=<i&:X;23;e",
"6XO#@O.6;>&*23uaddau31=&-;6 XO#ery9qqqqqwqwwq99yye@+%.o6:;>&*121&-: %rww9# :>2u4=,6%rr.:=2=;Ow9.,<u&: 6-1au1**3gls1&&2p*:X =u,%w",
"X#r9e+.:;>=24usffdpu321&>-:6oXO#ery999q9qw9999ye@#+X. 6:->&1221>-:6X@9w9#o:>2u4=>:+89+6>2*;%0q%-1i*- .6=ui1=*<azg2=>=42,.o,4160e",
"$8q9eO :-&1<upfffai4321=&>-;:oo.%O+#$@eeerree@@#+%Xo6 :->=1211>-:6X$8qrOo:>2uu1>:+qw@ >1*-X9wO:=u2> X5><i1=&*4jj3=>&<u> X;<3-@w ",
"8ww9@X6:>&1<uasspiu4<21=&&>-;:6  o oo.XX%%%%%%%XX.o66;->=1211>-:6X$89rOo:>2441>:O9we.-11, yw@6=u<>:.o-2p1>>&<dz4*>>1i*:X =i>Xw%>",
"wwqr+.6;>=23uiii433<211==&>>>---;;:66 :6 ooooooo666:;->=1211>-: X@80y#o:>*4u1>:Xywr.;11,:@we >34=:.o:=i2>->*uzi=--&41;Xo,41:9r;2",
"wqr#.6:-&*23444<211111==&&=&&>&>>>>>--;;:::::6:6::;->==1211>-; %r9w8#o:>14u1>:XywyX:*2>:#qr ><i*, .:&43&-;><gp*-:>23-o%;24,$wo=&",
"qr#X6:->=12<<211===&>>&>&&&&&&&&&&&&>>>>--;;;;;;;;->>*121=>-: Orqwq$o:>*4u1>;.rw9X:&2&:%ye ,<p2,:. ><4&;:,*ps*;6:&4>o#6=i&XwO>1:",
"t#.6:;>&*2221=&>>>,---->>>>>&&&&&==&&&>>>>------->>&*121=>-; Orqww$.:>=3u2&:.ewq%:&2=:.@@o,1p<>: 6,1u*-5:>3d1:o ,<=6@%,41:y8:1-+",
"#.6:;>&*1221=&>--:::::::;--->>&=&====&&&>>>>>>>>>&=1221=>-;o%rwwq$X:,=3u2&;oewwO >1*- #@o-*iu=:  ;=4*; 6-*a2-XO:*1:ee:23,#wo==6w",
"X 6;>&*1221=&>-;:5  o.oo666:--->>&&&=>&&>>>>>>>&=*12<1=>-6oOrqwq@X:,*<u<=- #qw$ >1*, #e%:=ui*-6 :>31, X6>u3-Xy.>2;#q.&u&ow#,2;r0",
" :;>&12<21=&>>;;:6o.XXOO%..6:;;--->>>>>>>>>>>&&=*1<<1=>-6o+rqww@X6,=<i3=-6+qw$ ,11,6#9#6>3p1,:oo,2<, +X,<4,Xq@:1>Xw#,31;y9:1,%wX",
":;>&*2<<21*=&>-;:: .XO+#@#+%.o6::;---,->>>->&&=*12<1=>-6o+rqwq@X6,=<i4*,:+9wro;*1>:#qro,<p1>:Xo;*<> @#6*i&689 **698524-OwX&160r;",
";>&*2<<321**&>>>-;6 oX+#$@@@#O.o66::;;;-->>>&=*1221=>;;oOrqwweX ,=<i4*>:Xrqe.;=2>:Ow9X-1i2>:OO6><&:r8o>u1:@w.>1;#8o=i& q$;2;$w *",
",&*2333<22111*==&>-;66oXO$$@@@+OX. 655:;;->>=*1221=>;:o+rqww@X6-=<uu1>:Xe9e.;&2&:%9wO:=4<>:#e.,2=;@w%,<<,%0O,<>6O >42;#@61>XwO,4",
">*1<33<222222211*=&>>;: o%+#@##+OX. 65:;-->>*1221&>;;o+rqwwe%6-><uu1>:.$9r.:>2*:X8w$6>34&:$q#:*1:#w#;2u>6$%;21;o6,3p&6O6&1;r9623",
"*12<<22222<<<<<<211=&>-:6 X%+++O%X. 56:-->>*1221=>- .Orqwqe%6-&2uu1>:.$9rX6>1*-orwe6><u=:+wro&1-Xqt6=i1;XX;*4=::><f<>66>3>X8X&u&",
"122211111122<3<3<211=&>-:56.XOOX..o6::;->&*1211&>;:oOe9q9$.5->2u41>:Xewq+ >11,6@wyo,2u*;Xq9.>2>o90 >u<>5o;=i2>-,2fa1-:><1:O%,32:",
"2221=1==1111122221===&>-::6 o...o 66:;->&*1211&>; o%#ere%o:,=2uu1>:.eww$ >11>:$w9X-*i1-.8wX;1=;@8.,3i=;5;*i4*>&1sj3>-,2u> X62u,O",
"211==&&=&====1111===&>>-:556 oo 666;->>=*2211=>;6 .+##+X :>=<ii<=, #qq@ -*1>:Owq%:=u<>6eq%:11;X$o,<s2>;-*us2==1pza1>>=i1:.6&i150",
"21=&>>>,,>>>>>>>>>>>>;;:;:66  66::;->>=11211=>;66.%O+X :->*3ps41>6.$r# ;*2>:%0q#6&34&:+9#:*<>5X ,2du=>,&4gu1=1ulj<=>=34>6o,<3-#q",
"11&>>>--;-;-;;;;;;:;::: 666   :::-->==1221=>>;:6.%O%. :,&*3sfi1&-6o%.6,=<=;.yw@6><u*:O9@ &<=;o ,1ss1=>=3gs<1*4hzi1>&<p*:.:=i=oq#",
"==&>--;:;:6::66666666   o o666::;->&*1121=>>;:6.O+O.6:-&*4sga31>;:66:>=31>:Or$ ,2i1;X9y.><*-55-*pj41==<dh4213szd1>>=i2- 6>u2;r9 ",
"=&>--;::56 oo....XXXX...o 66::;-->>*1221=>-::oX+#+%o:-&*3shs41=>;;;,>24<=; %% ,2u1,.8w%;11,:6:=ujp1=*2pjp21<izh<>-&<4> X:2u,%w%>",
"&>--;::5 6  ..XXXXX... .o6:::;->&=*1221=>-::.%$e@+X6;>*3aga41=>-;->=<iu1>:666,*i3>6ew@6*2,: 6>3hs<==1ujs<113fz4&-,*u=6O6>u169r:2",
">>--:::566ooooo...o.o. 6 6::;->>=*2221=>-:6.+r89eOo:,=<ida31=>-;->=<ia<=-;;->1ii*:%qro>2>6%.:*af<==&<df<*&1izp*-;&<1;#%-<<-$w.&1",
">--;:::66 ::66:  oo  :6:::;-->==12221=>-:6X#rqq9$Xo;&24ai2=>-:::-&2ia31>>->=<ad2>:#$o,2&:$ro>3f<=>>=uf3=>=<fs*-5;*<-Oy =u>.w$-2-",
",-;;::::::;;;;;;-;;--;---->>&&*12211=>-:6.#yqwwr% :>13iu1=,:6o :>*3p31>>>>*<aju=-6X ,1*:#w$:*a<>;:>2a<=,>=uf1; o><>Xq%,41;rqo*= ",
"-;;::;;;--->>>>>&>>>>>>>>>>&=*22211=>-:6X+ywwqrOo:>*<uu1>;:X+O :&2u<*>--&=3azd<&;::>12,Xw96>u<>: :&43>;;,<d<,.X:1*:8t624,%w%>2;@",
";::;:;;->>&&=*****1****&&=**112211=>-:6.#rwwwrOo:>=<uu1>:.#yy+6-*31=,;;,=<pzhu1>,,&2u=;#8X,<4>6+%:13>:o:=u4,.# >2;$w.>u=68r:1> q",
";;:;:;->>&=11122<<<22211111122211=>;:6X#rwwqr+ :>=<uu1>; #qwr.:>21>;66:>*ujjp2=&>*3p2>6%.-1u=:e9.><>6%.-<i&6r#:1>Xw#-3<-#q.&1:e0",
"::::;;->&=112<3343333<22222<<21=&,;:6.#yqwwrO :,=<uu1>- #9wyX:>11,:.%o:=3fjp<1==*3si1-66-*i1:+w@:1&:$@ =i*:@8o&1:y06=i>.q$;2,%w+",
";57::-->&=112<334333<<<<<<<<21=>,;:oX#8wwwr+o:,=<uu1&-6+8wy% >11>:Xr$o-*ihp<1=**3sf<=--,1i4>.qy =1:$q%,3<-Ow%>1-#w%,41:rq.*1:99 ",
"::5::;->>&=1112<<<<<2<<2<<<21=>,;: X#rqwqrOo:,=<uu2=-:%r9rX6>11>:%8qO:>3fi1=>&=<pgu1>,>1ua*:#9.>2,%w@:2u>.qr:1>oqe:24,%wO,2-#w%,",
"::575:-->>>&=1=11112222<<<21=>,;: X+e9q9eO :,=2uu2=, .@r@X:,12>:Xywro,2au1>>-&1ugi1=&>*ug<, $X-2> 996=u*:rq.&1:eqo=u=69y:*&owr:1",
":::57:::;-->>====111122<21==>,;: X+@r9ye+o:,=2uu2*,:.+@#.:>1<=-orw8X;=uu1>-;-=3da2==&*4gi*:..:11:@w%,32-OwO-1,%w#-<2:#w.>1:@w.>u",
";:::5::6:;;-->>&==*112<211&>-;5 XO$ryye%o:,=24u<=,:o%+%o:>131>6+q9%:=3u1>:6:>1pa<==&*3ff2,5o;=<>X9#;2u>.qr:1& 986*u>.q@:1>Xw$;23",
"-;::66::::;;->>&&=*122211&>;;6 X%@ryyeOo:,=24u<=>; .%Xo:>131>:Xr9O6><u1-:. :&3a2=>>=<aj3&;6:&3=:#$6=i*:$8o&1:+9.>u1:$yo**:rw =u=",
"--;;;::::;;-->>>=*122211&>-:6 %#@y99eOo:,>24i31>-: .o6:>14<=;o#rO >2u1,6%%o,2i2&>->*iji*-5:><1;.O6>4<,.@X,<> @%-<4>.rX,2,X9O-3<-",
">>>-------->>>&&*12221=&>;:6 %#r909e+o:,>14i41>-:6 66->*44*-6O$O6,1u2>:O@X:&42>-:-=3fp1-5:,23>6%o,<p=6%X-21;X%;*p1:%%:1*:$@6*i= ",
"&>>>>>>>>>>>&&*122<21=&>-:6 %$r0w9r+o:->14i41=>;:6 :,>*4u1>:X+Oo-*u3&:%y$ ><2>::6,*ps2-66;=4&:X.;*p2, .:=3>:o:=i4>6.:&<,.$o>42;+",
"&&&&>>>&=****12<<3<1=&>-:  %$yqqqr+o:,&24iu21>-;:;;>&14i2>:o%%o-=34=:%88X;1<>:. :>3s2-:.o><1;X%6=u4>6.:&41-5:>4s1;66>31:%X-2i&6t",
"=&&=&****112<3344321=>--: %$yqwqr+o:->2uau<1&>---,>*<ua3=;:X%o:=<u1-.twO:&<>:X%o,2p2,oOX:12-.$.,<p*:  ><3>::><f4>: ,23, X6=i2-Ot",
"====**112<334uu4431=&>;: X#rqwqr+o6->24ai31*&&>>&=*3isu1>: Xo:><u1- eq$ ><=;X@%6=u3>6$@o>2,oe#6=p1- o:1u*-:,*as1-:;=u1;o6,3i>6@O",
">&===12<<4uuiiiu321=>-;:.O@9wqr+o6->24ap421=&&&=*24afp2&-6oo:>2u2,6#wto,21;.@$6>3u&6@0%-1=6r9o>4<,o% >42,:;=4h3>;:>33,6 :*p2;O@ ",
">&&**12<44uippi432*&>-:6X#r09rOo6->14ap421*===*23ushd4*,:  :,1u<>:#q9.-11-oey.-2i*;#w@6=1;#w#;2u>5#%;2<>:5,2dp=-:,1u=:o >3u>orO;",
">>==*12<4uiiiu432*=&,;5o%#rteOo6-&*4pp421*==**23idjhi2&;:5:,*44=:%0qO:=2,5@0O:=u2-%w8 >2-Xwt =u*:#r >3=:6:&ud2,::>42- o;*p*:#ro&",
">&==*1<344u443<1**>,-:5.%#@#Oo5-&13ii311===*1<4pfzjs3*>-:;,*3u*-.8q#5&2=:+0e &43, 8qX-1& 8q.,3<-Ow+;2*;  -2f3>:5,14>5% ,43-Xq+;1",
"&&&**1<33333<21**&>-;76oXOOXo5-&13uu31*&>&&*13idzzfu2&,-->*3i1-oewr ,1*;%0to-<4=5@w#:1*:#qO;14& 096&<-.O5&ui=: 5>3*5+O:1i=690 &1"
};
