/* XPM */
static char *result[] = {
/* columns rows colors chars-per-pixel */
"128 128 68 1 ",
"  c #67279F",
". c #68279E",
"X c #6C299B",
"o c #742D96",
"O c #782F94",
"+ c #702B98",
"@ c #7C3193",
"# c #561FBD",
"$ c #5E22AD",
"% c #5A21B3",
"& c #5720BA",
"* c #5820B9",
"= c #6325A4",
"- c #6024A9",
"; c #4618C4",
": c #4B19C1",
"> c #4719C9",
", c #4B1BCE",
"< c #541EC3",
"1 c #5C1CC1",
"2 c #511DCB",
"3 c #651DC1",
"4 c #6C1EC1",
"5 c #711FC1",
"6 c #7A21C1",
"7 c #8D3A8F",
"8 c #933E8F",
"9 c #843591",
"0 c #883790",
"q c #F23FBF",
"w c #97408E",
"e c #9B428E",
"r c #A2468E",
"t c #A6498E",
"y c #AC4C8E",
"u c #B14F8E",
"i c #B5518E",
"p c #BB558E",
"a c #C0578E",
"s c #C5598F",
"d c #CA5E8F",
"f c #E6579F",
"g c #EA5C9D",
"h c #CE608F",
"j c #D2638F",
"k c #D66590",
"l c #D96690",
"z c #DD6990",
"x c #E46C91",
"c c #E86F91",
"v c #EE619C",
"b c #F56A99",
"n c #F96E99",
"m c #EC7192",
"M c #F37592",
"N c #FE7697",
"B c #FE7B95",
"V c #FC7298",
"C c #E34DA6",
"Z c #E546AD",
"A c #E349AA",
"S c #E453A2",
"D c #E744B1",
"F c #E942B4",
"G c #ED41BA",
"H c #8423C1",
"J c #F53EC2",
"K c #F83DC5",
/* pixels */
"$--$$$$$$%$%$$$$===..X++oOOOOOOO++..=$$$#<222,,,>>>;;:65::;;;;;;;;>>>>>>>;;;:H:;;;>,,,22#%%$-=..X++oooo+++....==$$$$$%%%$-$$==--",
"$$$$$$$$$%$$$$$===..X++OOO@9@@@@oo+X.=$$%#<22,,,,,,>>>;;:65:;;;;;;>>>>,,>>>>>;;;45;>,,222#*%$-= .X+++oo++.X..====$$$$$$$%$=$$==-",
"%%$$%%%%$%%$$=$=....++O@900777799@Oo+..=$$*<<2,,,,,,,,>>;;;:H:;;;;>>,,,,,,,,,,>>>;3;>,,22<#$%$== .X++ooo+++...===$=$$$$$%$$$$-=-",
"%%%$%%$%$%$$=$=...X+O@@077weeeew709@o+X.=$%*<<22,,,,,,,,,>;;;:H:;;;>>>>,,,,,,,,,,>;1;>,,,2<#*%-==.X+++o++++X+...===$=$$$$$$$====",
"*%*%%*%$$%$$===.++oO@97wettupiuyre709O+..=$%*<2222,,,,,,,,>>>;;3:;;>>,,,,,,2,,,,,,>;:>,,,,2<#%$-= .X+++ooo++++..===$=$$$$$$$$-==",
"##**%*%%:$$$==..+O@977rriadhjjhaiyrw0@O+..$$%#<2,2,22,,,,,,,>>>;3:;>>,,,,2222,22,,,>;:>>,,2,<#%$$= .+++ooooo++....====$=$$$$=-==",
"<<##**$%%%$==..+oO97wryphzzcccczhpur709o+.=$%%#<2,222,2,,,,,,,>>;H;>,,,2,2,222<22,,,>;:>,,,2,<#%$-=..X++oooo++X+.. ===$=$$$$$===",
"1<<<##*%%$$$=XXoO90wtpskcMBBBBMczspte79Oo+.=$%*<<,,22,,,,,,,,,,>>;1;,,,2,,222<,22,,,,>;:;,,,2,<#%$-=..+++ooooo++X..=====$====-==",
"22,<###*%$$==.+OO0wtpjcMBBBBBBBMcjaye79@oX.==$%#<22222,,,2,,22,,>;3;>,,,222<<<2212,2,,>;1;,,,2,<#*$-=..+++oooo+X...  ==$====$===",
"222,2:#**$$= +oO9wrijcBBBNNNBBBMMzsurw79O++.=$%*#<2,222222,,,,,,,>;:>>,,22,2<<22222,2,,>;3;>,,,2<#%$-=..X++o+o+XX..  ======$=-==",
",,,222<#*%$= XoO7eydcBBNNNNnnBBBMlsurw0@O++.==$$*<<2222,,1,,2,,,,,;5;>,,,22<<22<,2,22,,,>;3;>,,22<#%$==..XX++++XX...  ===$======",
",,,,,21#*%$= Xo@7rilMBNnbbbbnBBBclayre09OoX. =$%*#<<222222222,,,,,>;;>,,,,2<<<<<,22222,,,>;6;>,,22<#*$=-...XX++XX... =====$$====",
",,,,2,2<#*%- Xo97rsxBBnbvvvbnBBMxjpyew0@Oo+..==$-*#<:22<22222,22,,,;H;>,,222,1,222222,,,,,>;6;>,,,22#%%$-= ..XXX...====-==-==-==",
";>>,,,21<:$$=Xo97rsxBBnbvgvbnBBMxsire70@Oo++..=$$$*<2<<2<<22222,2,,>:;>,,,22222222222,,2,,,>;6;>,,222#%$$-===......  =-=----=---",
":;>,,,,22#%$=.oO7rsxBBnbvvgbNBBclaurw709@o++..==$$%*<22<2<<<222222,,;H;,,,,,,22222,22,,,,,,,>;H;>,,,21#*%%$-===..=.==----$----=-",
";6;;,,,,2<#%=.+O7epzMBnbggbNBBMxhpyr77@@@oo++.===$%%*<<<<1<<#<<<2,,,>;;>>,,,,22,,2,2,22,,,,,>>;H;>,,,21##*%$$--====-==-$-==$=---",
">;4;;,,,21#:-=XO0wujMBBNnnnMBBMlsiye779@@Oo+X+.===$-%#<<<<#<#<#<<22,,>:;>>,,,,,,,,2,,22,,,,,,,>;H;>,,,22<#*%-$$---$-$$$$$$$$$---",
">>;:;;>,,2<*$=.o@7razMBBBBBBBMclaurw770@@OOo++X.===$%*#<<##11#1<<222,>;H;>>>>,>,,,,,,,,,,,,,,,>>;H;>,,,22<#**%%$$$$$$%$$$%%$$$--",
",,>>:;>,,22#%-.+O0wysxMBBBBMMxlsiyrew799@@OOoo+...=$$%*##******##22,2,>;3:;:;;;>>,,,,,,,,,,,,,,>>;6;>,,,222##*%$*$%%$$%%%$%%%%$$",
",,,>;5;>,,2<*$=.+90euslxcMMclhspyre777099@@9Ooo+X..=$$%****%%%*###22,,,>;;;;:161:;>>>,>,,,,,,,,,>;;6;>,,,,22<###**********$$%%$$",
",,,,>;5;,,2,#%-=.o97wypsjjjsapuyrew7w770999@9OOoo+..==$%%%%%%%%$*#<,22,,,,,>>>>;;:5:;;>,>,,,,>,,>>;;1;>,,,,222<<<###########**%$",
",,2,,>;;>,222#%-.+oO0weyuuiuyyrreww77777770009O9Oo+..=$$:%%$%%$%:*#<2,2,,,2,,,,,,>>;4:;;>,>,,>,,,>>;::;>,,,,22,22<<<<<<<<#<<#***",
"2,,,,,>:;>,,,<*%-.+o997wweeeeewww777777w77ww7709OOO+..==%$$$$$$%%%##<22,222,,,,,,,,,>;:3;;>>,,,,>>>;;H;;>,,,,,22222,,,11122<<<#*",
",222,,>;6;>,21#%$=.X+O99007777770007777wwweeeww709OO++.=$$$$$$$$$=%*#:,<2<<2<22,22,,,,>;::;;>>>>>>>;;34;;>>,,,,,,22,222222,22<##",
",,2,,,,>;;>,,21#%$==.+ooOO99@O99999007wwerrrtrrew709O+..$$$$==$$$$%%%<<<##**###<<<22,,,,>;1:;;>>>>>;;:H:;;>>,,,,,,,,,,22,,22221<",
",,22,,,,>3;,,,2<#%%-=..X++oooOOO@9O9007wrrtuuuutre70Oo+.=$====$$=$%%*##*%%:%%:$%:#<<22,,,>>;6::;;;;;;:H%;;;>>,,,,,,,,,,,,,,,,222",
",2222,,,>;3>,,,2<#*%$-=...XXX+++ooO@907wrtuppsapute79Oo..$===$=$==$$:*%%%$$=$$$$$%:#<,2,2,,>>;6:;;;;;:H1;;;>>>>>,,,,,,,,,,,,,,,,",
",2,22,,,>>;;>,,,22#**$$====....XX+oO@977eyusjhhsputw0OO+.=$====$=$$$$%$$-==....=-=$%:#<<2,,,,>;;3H1::3H$;;;;;>>>>>>>>>>>>>>,,,,,",
",,2,2,,,,>;6;>,,,22<#%*%$$=-===..X+oOO97eyisjlljspyew9O+.==$$$===$=$%$$==....+.+..=$$$*<<2,2,,>>>;;:543:;;>;;;>;;;;;;;;;;;>>>,,,",
",2,2,2,,,,>;:;>,,,2,<###*%%%$$-==..++O90wruahlllsaurw0Oo+=$$=======$$$==.++ooooo++..=$%%#<<2,,,,>>>>;;;;;;;;;>;;;;;:::;::;:;;>,,",
",2,,,,,,>>>;:;;>,,,2221<##*%%%$$===.XoO97wrishljjautw79oX.===$======$= .+oOOOO@OOOo+.=$$%#<22,2,,,,>>>>>>;>;>;;;;:H51:;;::55;;;,",
",,,,,,,,>,>;;6;>>,,,,22212<##**$$$==.XoO97eypshjspute79O+.===$$-==$=$=..+O990000099O+..=$%#<<22,,,,,,,>>>>>>>;;;;11;;;>;>;;;:H;;",
">,,,,,,,>,>;;5:;;,>,,,,222211<##%*$==.Xo@07eyipaaiyre7@O+.=$$--=-=-$$=.XoO9777ww7709OoX.=$%%#:2<2,22,,,,,,>>>>;;;H:;>>>>>>,>>;:#",
">>,,,,,,,>>;;:4;;>>>,,,,,,22221<<#*%$=.+o@97eruuuytew0OO+.=$%-----$$$=.+o@07errtrew79Oo..=$:%#<2222,,22,,,,,>>;;;H:;;>,,,,,,,>>;",
";;>>,,>>,>>>;:H;;;;>,>,,,,,,,2221<##%$=.X+O90werrrew79Oo+.=$$$--=-$$==.+O97wrtuuuyre79OoX.=-$$*#<<<,,22,,,,,,>>;;H:;>>,,,,,,,,>>",
":3;;;>>>>>>;;:H:;;;;;>,,>,,,,,,2222<#%$-=.+oO907ww7709O+X =$%$$$=$$%$=.+O97wrupppiurw79OoX.=-$%%*##<<<<22,22,,>>;4:;>>>,,,,,,,,,",
">;3:;;;;;;;;;:H1;;;;;;;>>>>,,,,,,,21##*%==.X+O9909999Oo+. -$%$$$$$$$$=.+O@7wrupaappurw09Oo+.===$%%:*##<<2<2,,,,,>:1;>>,,,,,,,,,,",
",>>;:H1::;:::1H1:;;;;;;;;;;>>,,,,,,222##%$==.X+oOOOOo++. =-%*$$$%%$:$=.Xo90wryppaapute70@oo+.. ==$$%%$*##<,2,,,,>;H;>>>,,,,,,22,",
",,,>>;;;:155HH61:;;;;;;;;;;;;>>>,,,,,2,##%$-==.X++++XX..=-$**%%$$$$%$= XoO97eryppppiyrw79@Oo+X..====$$%$*##<<22,,>;1;>>,,,,,,222",
",,,,,,>>;;;;;;;;;;;;;;;::1::;;;>>,,,,,222#*%%$-=.......=-$$$***$%$%%$= .+O@0weryiiiuyye770@@OO+XX.. ==$$$%*#<2,,,,>:;>>,,,,,,,,2",
"2,2,,,,,,>>>>>>;;;;;;;;:1HHHH3:;;;>,,,,221###*%$=-=-==-$$%$%%1$%%**%$$ .XoO97weryuuuyreew709@@OOO++XX..==$%:#<2,,,>;6;>,,,,,,222",
"<22,,,,,,,,,,>>>>>;;;;;:1HH3::56:;;>>>,,2221<#*%%%%$$$$%%%*###*%*%*%%$=.X+O@97werttyyrreeww770@@O@O+O+...==$:#<2,,,>;;>,,,,,,,22",
"<<2,2,,,,,,,,,,,>>>>;;;:3HH:;;;;%H:;;>>,,,,222###*****$%**####%****%%== .+oO@07werrryrrreewwe777009@@Oo+..==$%#<22,,>3;>,,,,,,,,",
"*#<2,22,,,,,,,,,,,>>>;;;:5H3:;;;;;:6:;;>,,,,,2231<#1#######<<<##**#:$$==.XoOO907werrrrtyyttrrrereww7799@o+.=$$:#,2,,>;6;>,,,,,22",
"%:*#<<222,,,2,,,,,,,>>;;;:HH1;;;;;;;34;;>>>,,,,222,122<<<<<2<<<<###*$$==.X+oO9977werrrryyyuuuiiiuuttrw79@o+.=$%*<<,,,>;:;>>,,,,,",
"-$$*#<<<2222,,2,,,,,,,>>;;:H6:;;;;;;;;6:;;>>,,,,,,2,222,322211<####*%%$=..+oOO9077weryyuiaaasshhhhhaiur70@o+.=$%#<2,,,>;:;>>,,,,",
"-$$$%*##<<2222,,,2,,,,,>>;;:6H:;;;;;;;;;H:;;>>,,,,,,,222,222221<###*:$== X+oOO@077weryyiashjkzcmMMmczdptw0Oo+.$$*#222,,>::;>,,,,",
"==$$%$:*#<<<22222,,,,,,,,>>;;3H:;;;;>>;;;:H:;;>>>,,,,,,,222,,222<<#::$$= .++OO@977eeryiadjzmMBBBBBBBBmjarw9O+.==%*<22,,>>::;;>,>",
"X==$$$$:**#<<<<<222,22,,,,,>>;:H3:;;;;;;;;;:H:;;;>>,,,,,,,,22,2,2<##%%$$=..+OO907weryiadjcMBBBNMMVVMBBMjir79o..=$:#<2,,,,>;H;;;>",
"X..===$%::*####<222222,,,,,,>>;;55:;;;;>>>>;;:H:;;;>>,,,,,,,,,,2,2<#$%$$ ..+o@90weryiadzmMBBNVbvxvvbVBBcsyw9O+.=$%%#222,,,>;:6;;",
"+X..==$$$%%%*:*#<<<222,2,,2,,,>>;:H:;;;;>>;>;;;:H::;;>>,,,,,,,,,2,<<#%$$=..+o997wrriahzmBBBVbggfffffvVBMlue9O++.=$%*<<22,,,>>;:5",
"Oo+..==$$$$$%%**##<2<22222,,2,,,>;;63:;;;;>>>;>;;:H::;;>>>,,,,,2,22<#%$$= X+o997wryahzMBBNVbvSsCAACCgbBBzuw0Oo..=$%%#<222,,,,,>;",
"@Oo+...=$$$$$-$%:1<<<<<<222222,,,>>;:H:;;;;>>>>>>;;:H:;;;>>>,,,,2222#*%-= .+O@0weyidzMBBMbvfCCAZZZACfgNBzie9Oo+.==$%*#<,2,2,,,,>",
"@@Oo+..===$=$$%%%%%#####<<<<22,,,,,>;;61:;;;>>>>>>>;;:H::;;>>,,,,22,<#%$==.+O907ryslMBBMbgfCAZFFFFZCSgMBzue9Oo+X.==$%*#<<222,,2,",
"99@O+X..===$=$$$%:*#***%**#<<222,,,,>>;:H:;;;;>>>>>>;;;:H:;;;>>>,,222#*$$=.Xo907risxBBMbgsAZFFGGGFZCfbBBluw9Oo++.==$%$**<<<<2,,2",
"009@O+X...====$$$%%:%:%%%$:*##<22,2,,,>;;61;;;;>>>>>>;>;;:H1:;;>,,,,2<#%$=.Xo907rihcBNVgSAZFGGJJqFZCfbBMjuw9Oo++.===$%$**##<<<<2",
"w70@Oo+X..=.====$$%$$%$$$$:-%*#<<<,,2,,>>;:6:;;;>>>>>>>>;;;;:H:;>>,,21#*$$=.+O97rihMBNbfCZFqJJJJqDASgnBcsrw9Oo++..===$$%%$$:*##<",
"ww799Oo+....====-=$$$$$====$$%$*#<2222,,,>;;H:;;;;>>,,>>>>>;;;:;;>>,,2<#%$=.Xo@7euhcBNbfCZFGJKKqFDCgbBMzpr79Oo++...==-=$$$$-%%%*",
"rew79@Oo+.....====-==--====$$$$%%*#<22,,,,>>;H:;;;>>,,,>,>>>>>;;4;>,,,2<#$-=.+O9wysxBBbgSAFFqqqFDCSgMBchue09Oo++....=====-=$=$$%",
"yrew0@Oo++XX...===========  ===$$%$#<<222,,>>;H:;;>>>,,,,,,,,,,>;3;>,,2,<*%==XoO0eihcBMbgCAZDFFZCSgnBMlprw9OOo++X.....======= ==",
"iyre79@Oo+++.....==.==....... ==$$%$*#2<22,,,>;6:;;>>>>,,,,,,,,,>;:;>,,22#*%=..o97eijMBMbgSCAACCfgnBBxsuw7@Ooo+++.XX.......XXX..",
"aiyrw09Ooo+X+.....==....XXXXXX..==$$$%#<22,,,,>;H:;>>>,,,,,,2,,,,,>:;>,,21#*$-.Xo97rujMBBnvgfffggnBBMjprw09Oo+++XXXX.XX+++++O+++",
"saurw79OOo+XX+X.......++++++++XX..==$%:#<<2,,,,>;H;;>,,,,,2,2,2,,,,>3;>,,21#*$=.+o97euscMBMnbbbnnBBMxsue79OOo+X+XXXXXX++oooO@@OO",
"sapyw799Ooo++XXX.XX..X++O+OOOOO++XX.=$$$*122,,,,>;6;>>,,,,2,2222,,,,;H;>,,21#*%=.+o90eyszMBBBBMBBBBMlaye799oo+XXXXXX+++ooO@@099@",
"saiyw799Ooo+XXXX..+.+o+O@@@9@@0@@OOXX.=$%$#<2,,,,>;3;>>,,,,2222,,,,,>;1;,,,22#*%=.+o90wrpjcMBBBBBBMxjpye799oo++XXX+X++ooO@@90779",
"aiyrw09OOoo+XXXXX.+++oO@9977w77700@O+X.=$$%#<<22,,>;:;>>,,2,22222,,,,>;:>>,,21#*%-=.o@9wriszcMBBBMcxjpye79@Oo++X+X++++oOOO907w77",
"yyre70@9Oo++XX+++.+ooO@97eerrtyrew70@O+..=$$*<22,,,>;:;>,,,,,222,,2,,,>;;>>,,21#*$==.+O97eysjxcMMMczspyew09Oo++++++X++ooO990wwww",
"erww09OOoo++XX++++ooO@0eetupaddspite79@o+.=$%*<2,2,,>;;>>,,,,2,,222,2,,>:;>,,,22#%%==.+O97eypslcccxzjaurw0@Ooo++++++++ooO9907www",
"777099OOo++++.+++ooO@07euajzmMMmczhpre7@o+.=$%#<:2,,,;3;>>,,222222222,,,>::>,,,,2<*%$=.+oO0wrisjlxzljaurw799Ooo++++X++ooO9O97w78",
"9999@Oooo+++++++ooo@97wuazMBBBBBBBmzatw09o+.=$:#<22,,>;H;>,,,2,22,22,,,,,>;:;>,,2,:#$%==.oO07eyiajjjhaute79OOoo++++++++ooOO90777",
"O@@@ooo++++++++oOO@@0wtazMBMbbmbbMBBcayw0Oo..$$:#<2,,,>;:;>,,,,,2222,2,,,,>;4;>,,,22#*%$=.+o@0weyipappuye799Oooo+++++++ooO@99777",
"+ooo+++++X+++oooO@@97rulMBVmgfffgbVBBzarw9O+.=$%*<<2,,,>:;>>,,,,2222,,2,,,,>;5;>,,,21<#*$==XoO90weryuyrrw799OOoooooo++++ooO99007",
"XXXX+XXX++++oOOO@@@97tacBMbgfCCCSgbNBchie7@o+.=$:#<22,,>;H;>,,,,2222,,,22,,,>>;:;>,,222#*$$=.+oO977eerre779@OOOOOooooo+oooOo@907",
"........X+X+oOO@@900wujMBVgSCAACCSbnBMlprw9O+.=$%*#<22,,>;:;>,,,2222,2,2,,,,,,>;H;>,,,211#%$-=.+O@977ww770@@OOOOOoooooo++oOOO990",
"-==.   ..X++oO@900wwtacBMvfCAAACCfvnBBxsye09o+.=$$*<2,,,,>1;>>,,,222,2222,2,,,,>;;;;>,,222#*%$=.X+O90000099@OOOOOOOOoo+ooooO@9@0",
"%$--=== .XXooO@077erijMBbvSCAAACCfvnBBxsue7@O+.=$$%#<22,,>;6;>,,,,222222,2,2,,,,,>;5;>>,,2,1*%$==.+oOOO999O@OOOOOOOOooo+oooOO@90",
"*$%$$--= .X+oO977erihmBMbfCCAACCSgbNBMxsuew9@o..=$%*#<22,,>;:;>>,,,,2,22,22,2,,,,,>;1;>>,,221#*$$=..+ooO@@@OOOOOO9OOOoooooooOO@@",
"#**%%$===.X+OO97eriszBBVgSSCCCCSgvnBBMzsur709o+..=$%#<2,,,,;4;;>>,,,,,2,,22,,2,,,,>>>;3;>,,,2,<#*$==..++oooOOOO9OOOOOooo+oooOOO@",
"<<#*%*%-==.+o907eyalMBNbgSCCSCfggnBBBMlaurw79@oX.=$%%#<2,,,>;H;;>>,,,,,,,22222,,,,>,>>;6;>>,,221#*%$-=.XX++oooOOOOOOOooooooooOO@",
"221<#*%$$=.Xo@0wruhcBBMbgSSSSfvgnMBBMcjaurw79@o++.=$%*#<22,,>;H;;>,>,,,,,,,,,,,,,,,,>>>;;:;>,,,2,<#*$$==..XX++ooOOOooooo+++ooOOO",
",,2,<#*$$- .+O9wrpjcBBnbgfSffggnBBBMcljpurew09@o+..=$%#<2,,,,>;1:;>>>>,,,,,,,,,,,,,,,,,>;;6;>,,,222#*%$==...X+++oooo++++++++oooo",
",,,221#*%$=.+O97rpjMBBnvggfggbnBBBbcljspyyrw79@oo+.=$$:#<2,,,>>;:;;;>>>,,,>,,,,,,,,,,>,,,>;4:;>,,,21<#*%$-==.XXX+++++++XX+++++Oo",
",,,2221<:$-.Xo@7euhMBBnbgvvbbnBBBMczjsaiyrrew799oo+.=$%*#222,,,>>::;;;;;;>>>,,>>,,,,,>,,,>>;::;>>,,222#*%$-==...XXXXXXXXXXXX+++o",
">>>,,22<#%$=.+O0wysxMBMnbbbnnBBBMczjsapuuyrrw7799O+..=$$*<<,,,,,>>;3H51;;;;;;;>>,,,,>,,,>>>>>;H;>>,,221<#%$$-== ............XXX+",
";;>>,,22<#%-=Xo97rpjMBBBNNNMBBBMMzljsppuiyytrew709O+X.=$%#<22,,,,,>;;;;;;:4H4;;;;>>>,>>,,>>>>>;6;;>,,,22<#*%$=-==. ...........XX",
";5;>,,,2,<*=-.+O0wyszMBBBBBBBMMczlssappuiiuyttrw70OO+.=$$%#222,,,,,>>>>>>>>>;;:H:;;;>>>>>>>>>,>;::;>,,,22<#*%%$$-=========== ..X",
">;3:;,,221#%$=.o@0eysjcMMBMMMMxljssapiipaiiiuutrww0OO+.=$%*<222,2,,,,,,,,,,,,>>>;:6:;;>>>>>>>>>>;::;>,,,,22<#*%%$$$$--$---====..",
",>;::;,,,2:*%-.Xo97eypjzxccxzljhsapppppaaasaaapure709o+.=$$#<<2222,,,22,,,,,,,,,,>;;H:;>>>>>>>>>>;;1;>,,,,2,<##*%%$%$$$$$$$=-===",
",,,>;:>>,,,<*$=.+O97eripsssssaappiiiippashhjjjaaite79O+.=$%*<<<22,,222,>2>222,,2,,,>;:5;;>>>>>,>>;;:1;>>,,,22<<##**$%%%$%$$$$$=-",
",,,,>;:>,,21#*$=.+O90weyyuuuuyyyyyyyupasjjlzzzjjsite7Oo+.$$%####<222<222<<,<22,2,2,,,>;3:;>>>>>>>>;;::;>>,,,22,2<<###****%%**$$-",
",2,,,>:;>,,21#%$=.+o@97wwweeeeeeerryyiasjzccMMcxlsurw0O+.=$$***%#<<2<2<<####<<<2,2,,,,>>:3;;>>>>>>>;;3:;>,,,,,22121<<<######*%%$",
",,,,,,>5;>,,2<*%$=.XoO9900077777wweryuphjxcBBBBcxjpte09o+=$%$$$%*##<<:#**:$::%*#<<2,,,,,>;6:;>>>>>>;;;H;;>>,,,,,,22,32,121<<##**",
"22,2,,>;6>>,,2<*%$=.X+oo@@999990077wryisjxMMBBBMclsue7@OX.=%%-%$:%*##*%$:$$$$$%$:#:<222,,>;4;;;>>>>;;;4$;;>>,,,,,,,2222222222###",
"222,2,,>;;>,,22<#%$-..XX++ooOO@@O907wryahxMBBBBBMljurw9O+.=$%$$$%$%**$$$$=-==-$$$%*#<22,,,>;:4:;;>>;;;15;;;>>,,,,,,,,,,,22,,221<",
"222,,2,,>;;>,,2,<#%$===..XXX++ooO9907wruslcMBBBBMzsurw9O+.=$$$$$$$$%$%$$===...===$$:#<22,,,>>;6:;;;;;;1H;;;;>>>,,,,,,,,,,,,,,,22",
"222,,,,,>;6;>,,2,<#*%$=-==....X++oOO97wypjxMMBBMclaurw9O+.=$$$=$$$$%%%$=..X......=-$$#<,2,,,,>;;61:;;:55;;;;;;>>>>>>,,,,>,,,,,,,",
"222,,,,,>>;3;>,,,22##%%%$=====..XX+O997eypjxcMMMlspye79oX ==$===$$$$%$$ ..++++X.X.==$-:<22,2,,>>;;:HHHH1;;;;>>;;;;;;>>>>>>>,>,,,",
",22,,,,,,>;;:>>,,,31<##**%$$$--==..+oO97eypszxxxjaiye09oX ==$=$====$$$= .X+ooooo++..=$-*#22,,,,,>>>;;;;;;;;;>;>;;;;;;:;;;;;;>>,,",
"222,,2,,,>>;5;>,,,,221<#1#**%$$$===..oO97wrupssjapyrw9O+X ==$======$$$= .+oOOOOOOo+..=$%*#<2,2,,,,>,>>>;;;;;>;;;;:4H651155H:;;>>",
",,,,,2,,,>>>;5;>,,,,,221<<<##**%$===.X+O@07eryiiuyrw7@O+.=$$=====$$==$= X+oOO@@9@Oo+..-$:*#2<2,,,,,,,,>>>>>>>;;;;53;;;;>>;;;:6;;",
">,,,,,,,,,>>;1:;>>,,,,,2,311<##**%$$-=.XoO907wereww09OoX =$$=========$= .+oO@@@9O9Oo+..$$%:#<<22,2,,,,,,,>>>>>;;:H;;>>>>>>>>>;:5",
">,,,,,,,,,,>;:H;;>,>,,,,,222321<##%$$==.X+oO99000099Oo+.=$$$=========$$=.XoO@@@9@@Oo+X.=$$:*#<<2222,,2,2,,,,>>;;:H;;>,,,,,,,,,>;",
";>,,,,,,,,>>;;H:;;>>,,,,,,,,22221<##%%$==.X+oOO99OOOo+..=$$=$=========$= X+oO@9@9@9Oo+..==$$:*#<:222,2,,,,,,,>>;:6;;>>,,,,,,,,,,",
";;>>,>,,,,>>;;13;;;>>,,,,,,,,,222,1<##*$$-=..X++++++X..=$$-===   =====$$=.X+o@@@@O9OO++.===$$%%*#<<<22222,2,,,>>;H;>>,,,,,22,,,,",
"::;;>>>>>>>>;;:H:;;;;>>>,,,,,,,,,22,,1#*%$$-=.......==-$$%$$==  ======$$= .X+oO@O9@OOo++..=-=$$%%%:*##<<<22,,,,>;6;>>>,,,222,2,,",
">;H;;;;;;;;;;;:H%;;;;;;;;>>>,,,,,,,2222:##%%$$=--===$=$%%%$=$= == ==$$$$$= .X+oOOOOOOo+++..===$$$$%%$:%##<<2,,,,>::;>,,,,,222,2,",
">>;:H::;;;;;;;:H3;;;;;;;;;;;>>>>,,,,,,2212##*%%$$$$%$%$**$$$$== == $$$%%%== .X+ooOoooo++++....======$$%$%#<<2,,,>;H;>,,,2,2,2212",
",,>>;;3HH555HHHH3;;;;;;;;;;;;;;;>>>,,,,,22,2<<#*******###:%$=== .. =$=$%$-== .XX+oooooo++++.......=.==$$$$%#<2,,,>;;>>,,,2222122",
",,,,>>;;;;;;;;;;;;;;;;;;;:111:;:;;;>>,,,,,,22222:<<<<<<<<*%%$== .=====$%%$$== .X+++ooooo++o++++++X.....=-$%:#<2,,,>5;>,,,2222,22",
",,,,,,>>>>;;>;;;;;;;;;;;;:HH3$4H5:;;;>>,,,,,,,2222,22322<#$%$== ..===$$%%%%=== .X++++oooOOOOOOOOOoooo+X.==-%%#<,2,>;;>,,,2222222",
"2,,,,,,,,>>>>>>>>>;;;;;;;1H1;;;;;;:H::;;>>>,,,,,,,2222,2<#*$$= .=====$$$$%%$==  .X+Xooo+O@@@@@@@@@@@@Oo+X.=$%*<2,,,>5;,,,,22222<",
"<2,2,,,,,,,,,,,,>>>>>;;;;1H1;;;>>;;;;;H:;;;>>,,,,,,,,,,22<*%$===... =$=$%:%%$=== X.X+ooO@@@99007777709@@o+.=$-*<22,>;:>>,,22221<",
"<,2222,,,,,,,,,,,,,>>>>;;:H1;;;>>>>>>>;;:H:;;;>>,,>,,,,,2<#%%$= . . ==$$%%%%$====.X.++OO@@907wwwweeeww79@o+.=$:#<,,,;5;>,,,,,222",
"#<222,2,,,,,,,,2,,,,,>>>;;56:;;;>>>>>>>>>;;:H:;;;;>>>>,,22<:%$= .XX= ==$%%:%$$== ...+oO@@@07wertyuuuyre70@o+.=%*<22,>;:;,,,,2222",
"*#<<<2222,,2,,,,,,,,,,,>>;:H:;;>>>>,,>,,,>>>;;:H4;:;;>,,21<*$$= .. .===$$$%:$$$= =..+oO@@07weryiaddsaiyr70@+.=$:#<,,,>:;>>,,,,,2",
"*%#<<<<222,,,2,22,,2,,,,>>;:6;;;>>>>>>,,,,,,>>>;;;1H:>,,22<#%-== ...  ==$$$%$$== ...+oO997weriashzzzlhaye7@oX.$$*<22,,;H;>>,,,,,",
"%$###<22<22<222,,222,,,,,,>;11;;;>,,>,,,,,,,,,,>>>>;5;>,,22#%$$= ...  =$$$$:%$$==...+O@@07wryahlxMcMczhirw0@+.=$*#<2,,>;1;>>,,,,",
"$%%##<<<<22<2<22,,2,22,,,,>>;3:;;>>>,,,,,2,,,,,,,,>>;:>,,,1<*%-== ... ====$$%$$==.X+oO@977wyislxcMMMMclsyw0@o.=$%#<22,,>;:;>>,,,",
"$%%:*##<<<:2<22,222<2,2,,,,,>;3:;>>>,,,,,2,,,,,,,,,>;6;>,22<#%$-=  ..  ====$$$$==.X+oO9077ryaszcMMBMMclsue79oX =%*<22,,,>;5;;>,,",
"-$$%$**#<<<<<<22<<22222,2,,,,>;6;;>>,>,,,,,,,,,22,,,>:;>,,22<*%$==.=...===$=$$== .X+o@@07eryahzcMMMBMclaye79oX =%*#22,,,,>;5;;;>",
"=-$-:$*:##<#<#<<<<22<,,2,,,,,,>;6;;>,,,,,,2,,,,,,,,,>;:>>,,2<#%%--==...===-==$===.X+O@@0wetiahlcMMMMczhatw7@oX $$$#<2,,,,,>>;H:;",
"=-$-%%%%**####<<#<<<<2<,22,,,,>>;H;;>,,,,2,22,,222,,>;5;>>,22<*%$$==-====--===== .X+O@007etuaslzxcxxlhaye79@+X.=%$%<222,,,,>>;;5",
"==-$$%%***########<<<<22222,,,,>>;H;>>,,,,,22,22,,,,,>;:>,,,22<*%-$=------=====-= X+o@@07eruiashlhlhapyrw0@O+X.-$%*#<22,,,,,,>>;",
"=-=---%%*%**#*#####<<<<,<22,,,,,>>;3;>>,,,222,22222,,>;6;>,,,,2<#*%-%$$$==-===-== .XOO@97weryiiaaaiiurew09OO+.=-$%*#<2222,,,,,,>",
" =-=--%%%*%**##*#######<<2,22,,,,>>;:;>,,,,,2,222,,,,,>;:;,,,,22<#*%%-%-$=====-=== X+OO@078erttyyytrew70@OO+X.==%%*#<<<2,22,,,,,",
"  ---$$$$%$$******#*###<<<<<,,,2,,>;:;;>,,,,,,2,22,,,,>;:;;,,,2,2<##**%%$-$-$----$=..+o@9077werrreeww799@O+XX --%$%*##<<<,222,,,",
"===--$$$$%%***%*********##<<<22,,,,>;:;;>>,,,22,,2,,,,,>;3;;,,,,222<###*%*$%%%$$$$-= XOO@@0778ewww87709@OX+X  --$%%**##<<<2<22,2",
" =====$$$%%%%%%%%%%%%%%*%%##<<,,,2,,>;:;;>>,,,,,,222,,,>>;3;>>>,2,2,2<<###*#*%%$$$$= XXoO@997788888799@OOooX ==$$$%%%###&#<<<22,"
};
