/* XPM */
static char *result[] = {
/* columns rows colors chars-per-pixel */
"128 128 89 1 ",
"  c #6F337B",
". c #6F3B7D",
"X c #72317D",
"o c #70397E",
"O c #6F427F",
"+ c #763280",
"@ c #7B3484",
"# c #723C80",
"$ c #6F4681",
"% c #7A7798",
"& c #7D7A9D",
"* c #7F7DA0",
"= c #803687",
"- c #823789",
"; c #86388C",
": c #8A3A8E",
"> c #8E3B91",
", c #933E94",
"< c #974096",
"1 c #994097",
"2 c #9D4299",
"3 c #A3459C",
"4 c #A9479F",
"5 c #AA47A0",
"6 c #AD48A1",
"7 c #B34BA4",
"8 c #B84DA7",
"9 c #BC4EA9",
"0 c #9F67A1",
"q c #9C6BA2",
"w c #807EA1",
"e c #9872A5",
"r c #9877A8",
"t c #987BAC",
"y c #A366A1",
"u c #AC64A3",
"i c #A068A1",
"p c #B363A6",
"a c #B763A8",
"s c #BB63AA",
"d c #C04FAB",
"f c #C451AD",
"g c #C852AF",
"h c #CC54B1",
"j c #D256B5",
"k c #D658B7",
"l c #D859B7",
"z c #DB5ABA",
"x c #E35DBE",
"c c #C363AE",
"v c #C764B0",
"b c #CB64B1",
"n c #D365B5",
"m c #D866B7",
"M c #D765B8",
"N c #DB66BA",
"B c #E367BD",
"V c #E668BF",
"C c #E75EC0",
"Z c #E95FC1",
"A c #E667C0",
"S c #ED61C3",
"D c #E768C0",
"F c #EC68C2",
"G c #F262C6",
"H c #F269C6",
"J c #F664C8",
"K c #FA66CA",
"L c #F66AC8",
"P c #FC69CB",
"I c #8382A5",
"U c #8685A9",
"Y c #8887AC",
"T c #8A89AE",
"R c #9980AF",
"E c #8D8DB3",
"W c #9A84B3",
"Q c #908FB6",
"! c #9B88B7",
"~ c #9C8CBA",
"^ c #9090B7",
"/ c #9595BC",
"( c #9D91BE",
") c #9797C0",
"_ c #9F95C2",
"` c #9D9BC5",
"' c #9F9DC8",
"] c #A09AC6",
"[ c #A09CC8",
/* pixels */
"@24ffhCZzllf:X,1==+=X+4hkjd1X:lHBBHLKSxf,=X+,fKPBmmmBPl1+ -,11:X XX++O+,7xJKPHbhBFG6:X;3236fxPPPPZ:@dKKKPPlJx7>@:>:++@X@,=@@==X,",
".->4flGxljh2@=1,+ X++@;4643,X=fHccbmHHPg,= @,8KFjsappnx>X.X@==X=:++XXXX;1hPLFmaypnK8;.;>>48jJPPPKj=:fxCZPG4fl81;:11=X;@=1:=@+X+1",
"=X@>4jlgff3@X>2:XX .:4X;<>;=X@7LpuuaacPh>+X@:7KnpuuuusG>XX=X X;df1::=@+=:7KBnpyq0cP8= @=:4lSPPDHS7+:6gjxG8=1782;=12>.;-:2>== X>7",
">=X@1fd743=@122:.+ X1z>X=;X. =3Ks0q00pFj>+X:>7Kmu0yyunK1@=>:=1jLGZ82>;@;=3GBs0q%0sL7= X+=3lPHBnPj1X=178lf>X+,31:+>2>+=:>22:XX=4g",
"1>=X=4432;X1863: X =4S6@ X X@=1xn0eequFj>++:17Gnye0ybHK4,:178KmyynLj2:;:@1xHpqqqybK4@O.X=2zPNbnK7;XX:2372 =XX:,=+=,,@ =>46:.=1fj",
"11>@X>,1; >dl72;X+X;6Gk,@XX;;;:8Lyee0sFj>+@:24xFuqqpHKGl747lSpeWRquP7,:>:>gPseeqyBG4-   +1zHspmG4;X @:,,+@:=@X==+ =:@XX:44:X>4jh",
"42,:+@==X>9xl82-@@@>8SKd,;@@-;:3GNy0pBKj>==:13gKBuymKjZGChjPpr```(ebj1,,1,7Snqe0pPj6;X X =7PbcPz3;+  @=X@>>1>=X@+ X===X=>1==2djl",
"8411:##X;6JGl71X;=;28GPSd3;@=;>17xLBLl772>;:,:3fGPFKg6jKKGPbe_)`'`!yP7,11,1gPuyynKd8>XX@+X1SPPGg4:@X..X-11>131;X+XX@:>=X+= :6lxS",
"j822,=>27zPKx7,X;>128GKPGj,@+=:::>3dd,=:121>>;:>,248216xKPmyW'))')]eml1,,>:3zFssHx891= =@.:7lzg44,;@+@>441>1782@X+ +=>1:=++>dzGG",
"jg4213kKPPPKx7;@:126gGKPLP9;XX+@ XXX=XXX:2g2:==XX+X==>28xHpe('`'']]RpK3:;;;;,fKPKj896,#++X@:13:>3,:;:29z61>19xg>X XX@>8d4>>1fZKx",
"gzf34SFncnPKx4X=>446lCGPDNz>X.  @142;::@X<S7;@+@2f7;+;>2zSyR_]]]_(~QyP6@XX.  @26d879h3X++XXX@XX;1,127kKG8114jKK8:X X@1lKGj728SSg",
"8ljf837fGHSKl<X=146dglGPDNJ3@.XX:ghjl83:X:Zd:X 1KFHh+X;1xN0W(((~WRRtqNf@X@;>,;XX:13fx9@XX@@@:,@X::3hSPHKd24fSPHK8:XX=6LmFLx4dxj3",
"3fjj:XX@2hKP8@+:13447hKPPLPf:X+=31,>1jz3+;xx, =gSZSK3X=1Sn0erRRteeeeqcx: >4fhf4>++1hGh= @:17Cz3@#;8PHNFKg68xPBmBKf>X:hVuuBKfjj7:",
":4j4X=,@X:4l3 @:>11>2jPKJKPS2=X:X  X=>Kd=:xZ3X34216gl;+4Pnu0qeeeq00yupP2 3CPG1:84@:zPz> =18KPBG7:@jBnBLKh6gGHncbmP8=:ZhyyvLSZd,X",
"@,Z,=373;XX1:X=;;:==1gKJCCGKf>X :>;X @8x;;xG6X4=+=:267X8Pbcsuu0yyuusnNF7#4PK8==1x1@GPG2X:6xSPBnL7XjbbPKJd7gKPnsccmS::Kpq0cLLK8=@",
"X>l=,ljh93==;X@+==X+>jKClhlKz2#@8h1@X.:K>=ZG4=:.X +=>6X8LFFBncppsssNPPPhX6Fj>X+:8hXjPK3X:f8xPHmplXjcmKzl84glGHscccK>:Hqq0vmhLd+,",
"+3fX3KJGKS3#:.+X@X.X>hJCgdgGl3X=hP9:@X=Z2=lZ2:=X+X.X=4+dKPPPLSFFBmbHKxxf+6H4= X=4K-3ZK3 :j7zPHByG+4mLz744444gKnNBmK::Bq0uncuhZ+,",
"Xf3X4PPPHPhX:+  XXXX,jxhd88x8<#@fFS1=X+d6Xgf;,+ X+=X+3=3flxZZZxZSKHPSh72+5P1#XX=4P1+4j>X2ZfzPLFyK::KKd<>>>>>4lLPPKh+1B0yaFa0uL:=",
"=f:X4PBmNP8X1:=X @@.:gf88687,@@@7PP9: +2l+1:X:++ X@++2>+:38733236fzGx7:X+3G>. +>dLd+=>+@jLGxPFhyH3X4l4;=+++=>8SGl7:X7F0ucFu0yB7X",
"<:X@3KnsnP4X;71;@==X:443344:X@=+1SPx,X@1z>+ ::==@#  +<<+ =:;=@==:,3f7, ;<9S3=@>6ZBK<= =,KvHJPnyqnl:+<<=.XXX @1882-X:jL0ycmuyyvG>",
". X@3KnbBG2=#:h2>::X=:1,,,=#::@X=7Zx1 =<6d=>::>>:=++=>32:X .XXX.X@=,,@;6kCPf348lLcHj4:3jSucPmueepHl;+= +==@+#=,:X@1fKFuqypsuuuHh",
">,;:4KFFPz1>:X3j731=+=:;:+X:;=+XX:3h3X=<226:@:2211222<>882>::=;=+X @@@6SPPPGKLLLVucLSdxPh0uhpe!e0pFj;.+;>>>:@X+ =3jPVBcqe0ccpuaP",
"jf328GKGSd321X;4Gj4: .@=X+>=+X++X.@>,+=:>>> X:268jxxd2>2hxh7411>;@@@+3SFPPPFhasjc0ysBKLBpq00e(WteqpH8;;1222<:++:4lLBccbu0ybmsuun",
"PGh8flg8878d3=X:fPj1=@.X+,-.  +@;:=X+XX=;==X+:2dSLSLZ3>14SPKl841>::11xFPKGLcyqqyy00uccnsyee00eRWWtqpJ8688642>>18xLBcupnMssmnsuup",
"HPJxg8,:23fC7;XX>xK71>@X:@.@@ X@>3f8:X X=@.++;1lHcpvK6:>>8KFPx82,,6jSPKJxZLuauuuqq0uvcNbuqyanyeW~WrqaKxZl88448hKFvjp0unPDDFhsuuu",
"HFPS92@X;1fC7:@XX4lGd4>>XX=>:@X;3gLHx: .XXX++=3KnmvpLd::-1fKBPh424xPKxlzjZHusnmaeqypbbmBc0pBPnqR~RreqmLLKj88lKLFp0uu0uNKPPLcuyyy",
"PLKh2@XX@:4j4:@@+=38Gg3=X:141; :8GnFF7  ..+@X;dBmPFpBl>=+:2hKBG84jPHj78fdGmavHLaerucnbmHbuvPJPueWreq0uccVKfxLmcpereyypAKSKPs0qqe",
"KKh2@X;;XX,41;@;; :1hg:X=1897: 1jLchmS=   @@#>KabLLscS<++@=,fKLxSLKz3246hLpsmLLaeWynbbmBcvDPKPc0ttqyypy0pSKLvyyqeRtqusLGGSPc0rRW",
"x9,X:@=@::X;;@+=: @>78= ,2789>X3ZFpusL1@ X++X6H0sBFcaK2@+XX;2fKFmLh3,,14Zn0amBcpqt0cbbbsuFPPPPByt!e0ussqqpvuyrqqetReunPPPPLs0t_`",
"4:X>:@=@;11  ..X+ X:77+@>,,1,;+7Phy0uB8,@.+ :Za0ucbsuL6>=X.+;2zFFS3:;:>4Lpqucpu00equccp0uPKLFFmur_tqupcureqr!e0qrR!ruBPPHBbayW)`",
";X>>@++=:161-@@X..X:68+@;@@X  >hSsy0uNPh1@.@7FqequuuuFg3>+OX+;4GJd:=;;>dBqe0y00qqqR0ps0ruHPLFBnpe_Wqypcs0RR_RqqqrR(epBHBcpuuy~^T",
"X::@+++@:2364,>=+X@:39@@@ @:23hPFsyysFLPl1@2Kurrquy0yvZd2= XXX;df1;@;>2Zsrreqqeeq0reyue!ycBBBmcuq!~eyavbuq(!reqqr!_qsBmsyqqqy~)&",
"X::XXX+@:25f61,:;@:2jS1X.=,39hzLHbpsNPFBZ3=4PyRequy00bGd2- XXX;7d3:==:1jne(Rteereet0aa0Re0usccsyt_t0usvnuq_~reqqqr!Wycsyqerer'T`",
"X,4:XX+;;,9G7,,,>:3hPBl;@,8hkzGSFBnNPPmGj1;3Kuteyay0qbx41;+@+=<xZ8>=::>4Kut_WtrrtryvDNa0tWeqyuuqRqyaccvcye'_Wrq0yuqRWquqrRRW'U]~",
"@2x6;XX@;2kP9,,333xPHKH418SKJJPPBFLPKHsK7::1Gareucu0qbZ41>;:>4gLLS61,1>1ScqR~trteyDKPPDvq~(RreeqyabDDnvaqR''_Rqypvue~~reW~('I)Qr",
":7KS2@X@:5xL9,389jFBxjKKjKPLPPPHNFKxPmsG2>>2xnqrpmaqqnZ344228SLsaVSh7321jByeRtteybGjSPPPce(`_~rubAHPPBcyr('/'WqpBmu0t``!!]`T)~ee",
"3jPHh;X@>7GPf39jSHNK718SHBmnFLLFnHSSPsnz1113lB0ruBse0mS7898jKmpcuuVLGh77hLpqert0cKxfSPPJPut`'(qcPKKKPFsqR_'E`~qcHcu0e!``_`T]~eqe",
"hPBnJ2;;,7SPhfzKHPKl1@:fPuupbBFSNLKPmuHffxl7lHue0np&yBGflxGLlyaBvuusFKjfjPa0qeeyNPCzKPPGGnq(]!0nKxGGKBur~`)Y)_qnmpyy0r(`^/]!eqqq",
"SFccP83<28CGkCPBKGl7>+X2Gpe0psnBmLFbuuPlPHLGZHa0quyqumKlKPHsyaBBbsyqpFKxSLcu0yycPPKKSBHKzLyt!tymKJSGPse(`'^wQ]qsupppuqt_]Rrqyy0y",
"jPnbFGxg78KPPLFKg871:X :gBqtequnmbp0ynKLbpsFKmpyyppyucHKLma0aBHmcvbqqpmLPHcuussNPPPSbsnLPPbyqq0aHLPPce(`))TwU'eqqsmcspqeqyuuuuuu",
"hKLDFDBPCCPPPLKj31,>;XX=4Kpr]WeusbppnPFsyqqpHnupcBHsyubncuyuvFBbscNsqqycFcpusMDFLHHnu0pnmFFNsy0ypnmse]/U'/TUY/__epmbFFnssnNnsvsu",
"fSKPFnDPLPPPPKl3:::>;@@;1lnq(]!eybNFPKsqtWQescpsHKKn0quqeepsvmbvscNDset0syqycLPHBnmpqr0ppmFFNpyqqyye]^I)')^^^/E)WycbPKZGKKPNccau",
"6ZKLcNPSPFHPGj3:=+=:=@@:17Lyt~_!0bPKGLyR`_erqupbPSZB0ee!Q0bbcssapsNFAytWqeeynPPSbaayW'RqynFLPSb0eet]TT`''``'`))I]eunKg3,38ZHcscu",
",jPnumJhJFNKg3=+. +@=@=:11GcqRW(qbPSJHe_]Wy0e0ucPxlFqR(]ruDnaassscNLPv0W(!tyNKPnuuye```eynDPZxKsr(`T^]_]]]`__]'`]Wqcx2= +>8KBnpq",
"@7PpyBGjJFbG3=XXXX XX+=:,>fHuqt_0nPKPBe``qnsqeycHGzBq!]!qcPmppsscbNHPHpe]`RyBPPnyqe(QR)~yNBKd6lmr`I^]W~((~!RR!_QR~tph=X=X@1jKnye",
"X1PuuBKJKFsx: X@@@XX  @:::4ZFpe]0nHHLmr^!uPHyRycFLPbq`]tyBPBsscbMNDLPPm0_/WuBLPPse!]q0)'qBDG848He/^]WetQWRr&qeRe0qWufX::@X=2Sbqe",
";:GpuFPPPBux=+======@+X@=;>7SN0_0nccbnW/tcZKpRqcnmmur`]esLJHbbMDFHHPKKFy(IWpBPGGBr'_ypRErbBSf77Hr/]Re0qrteqyuyq0psqyh#,,+X+,Zsru",
",@lcyFHBBcul=@>::>:>;=+X+==,7PyWqsuyyy(`eBjPcRruappqt)'enPGPBBHPPPPPSKGu(&!pNPGxLrT(uae/!pBJjfhme`!e0yyqeq0pspyyMHuqxX:; ++>Kutp",
"2.7Hummbs0sj@@1>11::1>:XXXX=1Gsrey0qet`]qBGLvr(qy0qtt)`qnPKJPPPPLPJJxGHu!I~ynPGxFt&(ype)'qcKxzKse]tqyscyqqycbcpsLPcqK:X@.=@4Getu",
"1 ,SFucp0uH8@=>231=;,41-X.OX>xN0teeR(]/(0nPBce]!eqW!(`]qvPKZGJKPPKCxxGB0!/_qpSKPc!^(qyr')!uPJPnpe`reunNcyyubNncnPPcqF6=XX:3GcrRq",
">X:4GNyysFC4=+:381;;:281=+XX>kLpqR!])w]WycHcuq!)]!]]]~WeuLGzxSGSGJhglKbqt``W0cFny]](rqR]Y`qmLmp0e(RruFLApupnBncFPGpquK7>:6KnqtRq",
"@X:3fLspNG84,X=161:=;147>= =3zPnye`TT`ReysFau0e_IEE/WeweymKjhzhfhxg6jHpqqR_]eyuytR(_tq~`^YWypuqeW!(!yDPLbcsbnbnLLnyeqpKjjPsqrt!e",
"X;139PDMLx887>.=>>;==>273:+1fJPFsqq((eyupbFuiy0R])/_qu0r0vPj8d733df1xBpy00eQ(WRrqqR_Wt('`[`~teeRr!]_ebKPDMNbbbFFmpqR!epmbyr!~R!e",
":1fhhxKPPSlxxf>XX==++=:47=;6xKPLnppyisbbnBHpuuyqerWeucuequLx632,>287Pnspspyeee0pcue(!t_]]~W!RreqeW']RpPKPHDLFBBhp0r!_(trW`'`'_!t",
"4hSKzhzZGSPLLKj2;X  X+=12X3xKLLHBFKPSKKPPPPsuppsbbppnms00umK81<;;:3jHnbnDNsusbGKPcqR!W~(_Rqpbbpye~]]!0mKPPPPPFcu0eR~_~WW!_]'`](W",
"jKLHK979jSBcnVLCd2=+X  ++:CLVmbnLKxjkgxGSGPbacnHGkKKKHhyyucPg1:=@@3SNnNPPLNNKGd7ZB0rRtWQRqbGlxLpeW_`(euFKKKKPmu0etW(_WeqerR_'']~",
"KLmmKf227xmpusnFLx4==@+@:dVasaucPj41468hlxPmsmLG6>1dkKmpuucSZ3;@X@6GnNPKGPPK82:>8PuewIereuK3:,lcqr!!~t0cPxxZPc0tWW~(~r0usueW_']_",
"HhsbLj2,3jSuyupccLx2=;:4gLp000ycK7>;>148jZLvsFKg1+@14zFascsmKd:+X=8PnFKxZKGg1+X@1KpqqqqqyB8= X3HsqRrtr0sPxhzLpe!~~(_RqpHKHsqW`'_",
"cppcHz3239KcyyuuusLj1>6GLmyqqyynS1>-=>36jKFpsPx6>+X->8LsscvvLx2=+<xLmPSxSZg1=X  :jnuyyypnG>X;X:hKueqqe0bPx9SNyqWW~QRquK87hKcqW__",
"uppcFSdd66xBu00y0ycLh4GBau0eequFg:1:@=13fPhubKj2:-=@;3PcpmmshK8;<dLBBPGGZj1=+X  @8KnsssBKg=@;++>fFqyyqqpPxfPcyy0qeeqsK6:::3Gcqt~",
"yyabHPGSk77KbyqqqqeyFlSuqqqrr0sP7:3>@X:18PauBKg2>>:=@,GnsmmsuvK48LhamLPPZ6;+XXX X>jKFBHK32 =;+ X:Zpbp00uPCfPsucsuyunG3=XX X2Gbyq",
"0ypnLPPPKj6xBuqerR!WyBprRrrReymG4282=X=>7LuuFKd31>1;X:lBbnmu0ymSKhuucBmLz1@X+.XXO@3xKKZg=+ ==+X@ 3HPnuusFSfPvcHNvcHx1XX+@;@X1SFc",
"q0ubFLPPHKlKByeRW_''Rir~(WW!euHzfhl4;+@>6KypFx64663:@=dLBmcuqqymmy00uusPg:@@@@X@X+1dlx84++XX=+X=+:ljLcsMHGhPBPPLNPj2X+;>;@=:X1jK",
"q0ubFPPPBLLHbyr_'`)``~````~WqaPSzSS7;X@>4LysK834887,::7KLBayeeey0qeqq0cK7>;@@;;===:6gj31+=X XX ++=<6GNNHPKjPPKPPKf:X=>21:=:2:#:7",
"ttqbHPKPnvvcqR])/^^^'_))``'_RymPKPK7:@=3lmquKg78ghf1>1hLvpyqRRrqqrrreeyBZ4;+@@:>>>3jKKh4:+X= X@XX>>jPBDPKZ6CGPJGJ8=@1881>;>62X@3",
"]_RuSPPHvcvyR`T*IIYQ'(`EEE))`RyBLPG7:;:jHyrqmKzlSCz738PsqeeRW~ry0rRtRreyBj:@@@:124xLnbPZ4 +:=@==,7hLFmFPGg,8GPPGJj:+1h71>:1f3X@3",
"`)]enPPFavse`TIIwww))R])YIIYQ'runFG7,>6Lpr~RunGPPPKhdKbqWWW(_(euueRRWtRruL3@@@:16xGc0qpBl=@,:>>18lLmmnFKl3=3xPPPJx3X>441>>37< @6",
"~/T~uFFhsbyW``)^EEw`!r_'QE*w%T'ruFK924Ksr('_rqubHLPKPnq!_``'`EibsqeRWR!!rcx,;=:1hHs0etqpK,>33138GLnsvnFG6: :fKLLPKh:#->:;:22=X:7",
"t_T)rpcpsue[]_]`'/w'ReR_)`/TYwT]qbKjfGne_)^)](eynFBFcqR'`'``_eymmyqr(WR~_qBh,,17KcqrRWt0F76f77jKHhpscnPj1++@3SHFFLPh,+X==;:XX>3h",
"r!`^`r0ypq(WReR!]''(eqr!''`)^/Y^!yHGKnq)^YUwI)(eyncue!'^^^^`W0uFBuue)_R~'~iHj47GB0R(!WRqbxGGjlPHcppccnKg:X@X>fKNnmBLj3:X++X@:7fz",
"eR~]`]!eqReqy0qr('_rqerR_``'``')`tpmcq_E/ETTYE)_ryqt])**IIY`rusmBccy('!~`)!yBPPBut_](RtqaSFHPLBp0uabcFK8@@=X;7ZFcscBLG6:+X@17CCS",
"err!]``(Ryusspye(`ReerRt(/`]']]]'`Wqe))``)'`')%)]W!`E*IIwwU'qmbccmBuW]_!'^`!quuyr`''_Rr&upupsspqeycbbFK4X=+ @1fPsupcmHKf1:1fxPPJ",
"eeqe!`!qpbnNBnue]'teRR~R()/'~(!!(]``'``''''(('/IT/E&Y^)^EIE)yBcppmPsr]]]'EI/`_(!]/)'_RrqyqqeeqeRt0shbFC1.=X +:4GcyuaccBKG87SPBHK",
"qq0qeeyBKKHFLBue`'WW(__((`U'~RttrrWW(]_]]]]~~]]]``][]]]`)I)RaLcupBLbe(]]]`TUIIIET*T'_Ieqqt(]`__(WeypbKg;  . X@,lmyypyuuucKSKFnmP",
"e0uyusHl8gKLPmyt]'__```__`I`(tee0uy0qr!~~_'~W_(RtrqrWW!])U]esFbpsVBcq!__~]''```)TI^]Wqqqe(```W~](typmK6;+++XX@;8Lpy0qeerryHPmacP",
"eyscBKl1:3lPPcq!_'))`'`'``/`_Rq0pnSFNpqrR('~RWRqpcnuqqe~)`!quBnsbccu0r!_W~(WeqyR]`]_eyqqeRte0uqQ_W0pHx4>;:=@===3Knuet!euppcGcusP",
"RqsHZ6>=@:7GByt]]`^//`/)`)`/'QqunKl8gKsqR('~rrqcKGGHcsyR)`rqubmbsuuy0eR!WreypSPpeQ(Qqpyq00ysBHbqtQybKh6>22>:>:>1jHce`!uPKKKFupcP",
"_epK4; X@=2Gbe)``EI//)TT^^`''W0nKh,@=6K0W]'~rqpKf4dxKHst`WeqyssuuyuqqqqtRqpmKf8Kc0trunp0pbBKZxKbyRuFGg62685111,28GFe!qmf434jyunK",
"/~px:   @=2Ly!^EE&&E)/wwww/'_ruKf>XXX:GuR']~qsPj1,21fGnt_ee00uu00qy0q00eruLz3:>4GnqqcHnuBKCjd44KsrsPlj87dgd321124jLqesK,;=@3suBZ",
"&]uz= X+=>7Be'&&&&I)`/w%%*/']ebl:.@:=+fne]_W0Bj3:;>=,gHeWeqqqy0qqy0qq0yqenx1XX+=3KcqmPNsKd343>;8BqnGjhdfjzj9231248Pq0H8=  X:GyBj",
"^'yl=.X==>xp!^Y^TY)']'QwwY)`]em8+=:1=X4Hq(`epK6;===X=8PqWeqq00qe&0yq00yqqK4X=@+#=8KymPmHf,;,:= 2L0mxgffjzxCj521,38PypK>X===+G0Bf",
"))yG>@@:>4Kp_YY``[]](_'/^)'](qm8X;1,-+3KuR`qNG3@@++.@4Kpeteq00eq&0y00y0euK,+,,>= >zncPcZ,=@==.X>KubS88hjzCSC91,,3jHyml:X,2:#hynh",
"))qLf,:,4xPu_TY]WW(WWR(']](]!0md@@:;X:7KaeWuPl3:XX.X=3zHutReyqeeq0uy0qrybZ;@4h8: =4KubBf@XX X++>GbuKggzjzCGGj3::3GnyPf:+1f> 7bsS",
"^`ecLj44xHBy_/I`qrRrtreW!RW]ruFx,.+X@3zLcqrsxh83;XX@,4fznqrr0qqeq0u0qRqbKj:+7Kl> +:gFbJ4X..X== <GHFLJxxxGxKKx4::4PunG8>X3g3X3PuP",
"E`WqsPZGBppq!`Y_eq&eRe00qe!(qsBLj:=;3xFspuqbjhzh3>:3997fLuqe0qqqqqyqeqsKg71#<fg, X=1zK81++X@==+3xGSxPKzSKGPPS812jLPKg8>#>8,X3ZKc",
"'`_!qsbsqeqqR``]r0qereypye((qpbmLx9jKnyqyayBjxPPxjlGJChhKc0eqqqqeq0e0pBx431@@,2;   @38,,=+==@+=6jf76zKGGPKPPJffxx887461+=1,X18hK",
"]'''WerR(!eet~]]tqqer&yuue_W0uappbBbp0eeqppJxGFFFBmmFKCkGNyqe0qqe0yqybP9344,@XXXO.+X;:;>;X;@X.=263,:3dKGPPPPKlPK2;;::11;X:: :114",
"`'`)``/TT`RrtW_'!eqeequuyr_t0uuyqqetWWRReubPSPmpyqq0sPKCGHpqe0000yy0pAG8898942>@XX++;;;,: XXX+;>>:=@=>6KPPHLPPKf@ XX+;>:X+@ +===",
"_]'E&T)`]`(rtRW_!trqq0uuqW(ey00qt(`^^`_~tynLPPcqR~~RymPPPFcye0uyyuyybPxjxxxSKPS7:X @;=>1>@@==>>;;=@O.X=6KPFFHKj:X>;X +:>=    ..X",
"(])E]!eqet(Rrtt~~WReq0u0e(~qy0qt_!R]`&`_R0nHPGuW`!!]epFPPLnuq0upspypAKxKPPPGnsbK4XX:>>27424934,;;@@.+XX:fPFFKj1X>41;@X:2>+XX@@=;",
"R(]]runFcyqerRtW!!!r0uu0t_!qyqe_!q0eQ`*'tybHPnqQqu0eQ0bHLLAvy0ubbsunPGPLHBmcycbcx>@,2>7hzzJPGd6>;@XX++X 1GLKl4@@4g3>@+>44:@ =>>1",
"eRRqbLSlKFcuqerRW~~R0puqR_!eyqRrqppyqR``RybFBueycFbyqrpBHHFGvypNBbvPJPHBhauqsFPPH7>233hGPHbGd7l6>;;+ XX :gKx9,X>dl4;X-4g81:X=179",
"qq0nx8626lKHsierrQ(WqauqR(~eyyyucFmspuqRWucScpsBKKHNsyqcBFLPSssSLNFJPFmcu0qpAKClZZ7677xHbpKl6,4l4,;@  +++4Zh4;+,7j1@X1lZ711=#:8x",
"uuBx>=;==:4jKs0qqt~W0spqt!RqpBFLKJLBFLBsu0sbBKKSxlGKKbpubFPKPDnPPFKKHmcuqqpBKxg423ZkfhPcySGf2::6j6,;XXX@X:971@@:3d:X:gJg1:,1@@4G",
"bFG3+OO. X=1dPcuyeWR0bueereybZjjffSKKlhGGspHj86887fgjKGFpMPKSPBKPPxPBsuqqpBKl64<=@8PCSmySGj41:+=4f6>=+.==@63>++;12X:4jf3=@;>1+:z",
"KC7:+ O  XX=,8Knc0reynyeeq0sP6,><3dh8434jKGz>=:1311248lxKnLPPKLKKKSPnp0qpBKg411=.X>xLLuFlg71,=XX+2g62;X@; 2<;++;,;@4433:#X=;:,X4",
"Zl6>@X  X@+@>4xPBpyynKby0yucP7==;;<1>>12gKPl:++=;==:>4ghGPPPPPx9fZKFcu00pFx4:::X@@:jPPsP831::= +X>f83>=X@@63>@ ;,-X33,:X= =-;>X3",
"ZCg2=+X.@=X=>3gGPNbFx6KNspssBg@=@ ===:>6kJPx,=X X. X=3gkxGKPPl2::3xBsu00pFl>==+X:=>xKPnPf>===+X. ;4442:X >>h4; ;2;X392=X,X==1=X4",
"jCk6:@X =@X=>28lGPGh>@4ZHbbcNl=@@X.XX=28lCGz1=+X@=@ @2gzlxZSl2@ X=3KbuyypFj:X #=>X1CGPHPg: XX++++=13761:;X >f2+@>@@5z6@=,X+>8@=2",
"4jk82=XX+@X@:137h83-X=X2GHFMBZ;XX+=;+=2dllld1:@X>1:XX,fjjgjd3#@:;X@8PbppcLg;.+@::X1xZKPPh:.XXX=;:;;2dd83X;>o,7;X@ ;7K9@:,X=68@@:",
",4gd4:X+++ X;::1<;.;34;=7GKHLZ> .=;<=+2888821,=X18,X+>8f774,+;264,+=lHnbnPf:+:1,+=2jlxKKf: @= =,2>=1dlg-:9f> ;2+ @,9Kj;@:X:h8=.@",
";3887>@X+X.+@+==X@2jKG7@:7hKKj> X;>4;+13111:;:=X17,X+;3311:X=7jzjh3X2SPFFK8=+>2>X:27748h7:#==.;261+2jh1 3JPf,X@;;:7zPS:X@X1C8:@.",
";3ff83:X X X    =4KBmFK1#:2hZ8:X+:><=X:;=;=+@=@X,3:+X@::;=X@8PPJKPx1+4GKKZ6=;<>=+:,1,:,,,=.+=.;6d1+:2>+;lLPPg,@+23lPPK4:+=4x62:@",
";7zxfh4:X..O X=:4JFbspBl:X=,73; =:===.X  X. X.XX;,=XXXX   =4LnFPPmFx:-4lx83+=>:.@;;:@XX++XXXX+>6d1+#+ =6KBPPKh1+:9PHFPj61>8gd83:",
";fKPKPKf,X X @>7SBNnsysP7;XX:>XX;; . X+:=@;=;+ O+=X O @===2GsunFFsyF8+=241,++; +=X  X=++++@;>;>482X:=;3ZFmFPPPz>X3GFFPPKl118hj96",
"@jPHFBnLf:X .@4SFNNDbuyBx3;=X+ +==@;@X:211831;XXX  X +:434xBq0phcyeuL4@+=;==X+@:=X@@:4,>,+;6d61341X268ZLncnLPPP8+:hPPFBG3@-4jjg,",
"#fPnspysLf@.X;7PDBPPFs0nKd2>@  X+ >2, :37jPl7,X+==X+X;3jFKFyteyuyetqcK7@X==;;@>>@+=:fKh3:+>46d621:+8GKHmsvmBPPLJ,X3SHcBj:X=4883=",
"@2Psy0ycpK3@X>fPFPJGPbybKg62>@XX+;7j6=+,hLnPh3@@>>:@ :fPncye(WqqeRte0cK2@ =>,X+>=X@7PbK6=X22>3d61+=xHncspbNmPPLP7@>lByB7XX=4d3-X",
",=Jp0pHKKFx,X1xPPGzxKBubKh861= @,6hCz2X=lmuBj,+=143= :lnyqt!'~tetttWrqnj1#>42XX>= :xc0n8+=42>16d> 2LmpupsnBmHPPPj>+gbqB7@@>3j,.,",
"3XjcbKlf8xP7 4PHKkfgGSsbKf784:X>dd7dkh>Xzcynj: :433,@;xptR~]`(Wt~tt~!WyL7X>d,@=>>.1PqRul+>32422h>+hFcpuuamBmFPPPS4XdceF7>>12g:@7",
"3@3NZ731,4BjX4HPx88dSLbnKf588>X3z247dj8 lbynh=@,:,1>:Xhu!(_'`(RRWee~__ebjX1h3>>11X4Ne(0G=,47973h:=GbcspuunBmmPPPGg=8prNh62>2f;=j",
",X,K4:==@>KG=2LKg448xPNnKg788:+6d>3678j#lmuNj@;=X=:=: 8p~~~`]RItrqqt]]RsjX2j72242 8bt_qK::9jzg88=>PscsuyyvBnvLPPJl:6pWsGzf288@:j",
"@@3K,X.  :xK>:KJ8327xKFMKg463=;d6>>446j#hPnLj==@XX==:X3bt!W!!eqq0yye__rc8#4j72482X8meQ0P1=gGKxd3+1Pccau00anvpBFFKl;7sr0KKxfx7X:f",
"@,hS:#=:+:gK3X8G7126xGPNKh74,X:d6<>>28d 4xPGf=@;@XX;:X,H0qerryuyuspqW!qH2@6d622d1X3PuqpK4X3KPl,:X4PNsp0qquvbpcnnP8=4nqqbHPKl3+=3",
"2jPK1X::X;8K7+=84,16hzPNKj8,@X>77<>>4g4 :3Sh4;+,X+X>=X;SScy0qpssvNcyeepx:;47424f1X,jSsHx3X>GK8;X@4xPmuqer0sbpupsK3#2LcsusNZ7,@X,",
"jPNP7+@= =4xg1+;2,,48jPDPl3- ;>481,38x1XX-83,@ >:X=1= @4gGSsubDFFHNuquP6X:342387,X@,xKj31@:jx4=#;14lKs0qeysncuypS:=1xKPnnK4,:= ;",
"PbNPg;+XX:2djf3+;>,24gKLPj>X;212413dZl:==X,:=XX:1:14;XX;:<fPMFPKPPHbsF6@X>12,;23:X.@17,:>+:781+X=;;1gHpyyynFBcybfX>68lGKG4;=;; @",
"PPPKg41::>313ZS3X@:14jGPG6@+141141fGS8>>1=+X .@=::,,;@+  X;7KKZzZGKPPk=@;131=X;:;@@@X@X+= =,1= X+XX :fLsssHKPSmK,=8jhhzj3@#+=-XX",
"jxSlgzl732,=>gKG1X->2gxGj:X:43143,14631641X@@@==+ =;:::@:>@@7xg88gjf9:@,>45, XX+@:2>:+@X X@== +  X=; :hHBBKxlSx3#1xKKGj4=X;X;;=@",
"3488fC8386:.=4kKS2X-18xx3 >1>:144;X=:,2gh8>>>=:=X@X=:32:286@=442343>;X17687;@:+.@3h93,:@X+X.+@@.@:12> :xKKj872:X:fLmBPj>.:,X:>>,",
",:,4kj1;18=++18jKx,X:7x7+:,=+=:33+@.=,3xCj622>:+@=XX:7819CS7+@>>,<@ .:7lzj4+@,;X@7GSj72:=+ =:>=X>2796> 18l82:X@,8ZBppFg=@,>X,377",
";;>4C9;@:3=@ :16dKj;@27;=:=X X=3, :X@>3Zxd4122:X@;= ;8l8xPLJ3XX;;@X;:3lKPJ7;@3:@=fPPJj71=XX:33:X,8hzh7=X:22:X:3jJKc0uFf@=1:X>8xz",
"+@,8G4=@;,:@X+:13fK8X:;@=+X.XO=4;X:X@>1SG92>23; +@@X=7xfSLNFx2;  @143hKHBPf;@2,==hPFPSf3;X=,33>#,gCSCg1:@X;.:7SPLHyqyH8+@,;X,gKK",
"X@1gl1:>:;:XX =:,38x, X= ..X@ ;1++=X@>1xKd1,73:.X .++3jgzPFLPC9:;3zxhPFbbPj:X:;=:gPLPKx4;XX:11:X:fKPKzhj7:X:6GPBmm0qpK4=X:=X>lPP",
"@@1lf,131=+X OX=:>137;XXXX+@@.,; XX@:,1jPh11d3=. +X @,9jlKPKSPPf7zPjlPbpbLz>X@=X:fKPPHK4@+.X@:; ;6KLPJPFLj3lKHBjpu00cG4:X@=X,jPN",
":X3x817f6: =@ $X=;;;;@@@@@@;=X4;  X>32,fPj13f1@ +@@X=,3fzSKGhGNPKKZ8xHsubPz3=X@@,9xKLnK4=@@@ =@ @2JFHPmppBPbpmmsyyyuFx81@XXX,lPb",
"1#2x94hzh1X@;@. X;=X.X,>;@::@:2=X ;3f718Kx137>XX@=@;::,6Sxxj7hPnFh97SSuynPS9:.X>48hzScP4@@:,;#  +,zPFnpqeyueeybpqyubPxh3:  @,kPc",
"2 2lh7xKG7@@,;@X$+@X@,72,,,:.2,:@X2hxh37xS24,;@@=;;,3,>,KSj827zPG726Jb0uNLPx1X;7hf8kBcP3+;13,@X@@;8KNuqtWWt_(epuqysBPJz8,@@:2jLc"
};
