/* XPM */
static char *result[] = {
/* columns rows colors chars-per-pixel */
"128 128 70 1 ",
"  c #AF3B2D",
". c #B23B2D",
"X c #BB392D",
"o c #C33A2E",
"O c #CC3B2F",
"+ c #D93A2F",
"@ c #C03F30",
"# c #D33C30",
"$ c #DC3C31",
"% c #E43E32",
"& c #EA3F33",
"* c #B3412F",
"= c #B64430",
"- c #BA4631",
"; c #BD4932",
": c #C44030",
"> c #C34C34",
", c #C84F35",
"< c #D14232",
"1 c #D04F3D",
"2 c #CC5236",
"3 c #D05437",
"4 c #D25638",
"5 c #D9563D",
"6 c #D65839",
"7 c #DB5B3A",
"8 c #EB4033",
"9 c #E15E3C",
"0 c #E5603D",
"q c #EA643F",
"w c #CE3F4A",
"e c #D23E4E",
"r c #D63C54",
"t c #DC3D5B",
"y c #E33A63",
"u c #E83867",
"i c #EE376E",
"p c #EA386A",
"a c #F72D7E",
"s c #F82D7F",
"d c #F43673",
"f c #FA3577",
"g c #F53079",
"h c #FE357C",
"j c #C94443",
"k c #CC4049",
"l c #DB4C4E",
"z c #DF514C",
"x c #D94353",
"c c #D94850",
"v c #DA4058",
"b c #E35647",
"n c #E3554B",
"m c #E7584A",
"M c #EB5C4A",
"N c #F35F4B",
"B c #E24C52",
"V c #EB5451",
"C c #EE6640",
"Z c #F06740",
"A c #F46A41",
"S c #FB6D44",
"D c #F3624A",
"F c #F8664A",
"G c #FD6C49",
"H c #FF7146",
"J c #FF7148",
"K c #FD2E83",
"L c #FF3384",
"P c #FF3188",
/* pixels */
"sKKPLLfiuttxelznMDFGJHSAZ942>;==      XXoO#$%&&&%%+++%&&&%$#OoXXX     *;->247qAS;;>2479qASHHGGFMmzlcxtttyyyyytttvxclllnmDFJHiiid",
"sKKPKLfguttxxlznMDFGJHSAZ942>;==      XXoOO$%&&&%%+++%&&&%$#OoXXX     *;->247qAS;-;2269qZASHJGFDMnlzcttttyyttttvvecllznmDSGJFuid",
"sKKPLLfiuttvxlznMDGJJHSAZ972>;==*     XXoOO$$%&&%%+++%&&&%+O+oXXX     *;->247qASH-;>2369qASSJJGDMbzlrxrttytttvvxxecllznmDFGJSuid",
"sKKPLLfiuttvelznMDFJJHSAZ972>;==*     XXooO<%%&&%%+++%&&&%$#OoXXX     *;->247qASH-->>3670ZSSHGGFDbzzcxxrttttvxvvvxrlcznDDFGJHNud",
"sKKPKLgiuttvxlznMDFGJHSAZ972>;==*     XXoOO$%%&&%%+++%&&&%$#OoXXX     *;->247qASHJ->>,479qASHJGSDbbzlrxttvtttvtvcxcclznmDFGJHSui",
"sKKPLLfguttvxzlVMDGJJHSAZ9422;==      XXoO#$%%&&%%+++%&&&%$#OoXXX     *;->247qASHJ-;>>369qASHHJFDMnzlcxtvtvxetvvxclzlznmDFGJHSMu",
"-KKPPLfiuytxllzbMDFJJHSAZ972>;==      XXooO$$&&&%%+++%&&&%$#+oXXX     *;->247qASHJJ->>2470ZASHJGFMMbllexxvvvvvvxxcczzznDDDGGHSZu",
"-KKPLLfgutevxlznMDFGJHSAZ9722;;*      XXo+#$%&&&%%+++%&&&%$#OoXXX     *;->247qASHJJ-;>>379ZASHJGFDMbBlzxxxvvvvxcxcelzlnMDDGJHSZm",
";-PPLLfiuttxllznMDFGJHSAZ972;;;=      XXoO#$%&&&%%+++%&&&%$#OoXXX     *;->247qASHJJS->>2670ZSSHJGDMnzlccxrvvvxxxclllblmmDDGJHSZq",
">-PPLLfiuttxecznMDFGJHSAZ972;;;=      XXoO#$%&&&%%+++%&&&%$#OoXX      *;->247qASHJJF-;>23990ASHJGFDnblllxxexxxxxrccezznmDDGJHSSq",
"2>-PPhfiuytxlcznMDFJJHSAZ9722;;=      XXoOO$$%&&%%+++%&&&%$OOoXXX     *;->247qASHJJGF-;2269qASSJGGNMbzlczcxxxxrccclzzlnmMDGGHHAq",
"2>-PPLfiyttxlcznMDFJJHSAZ972>;;=      XXoO#$%%&&%%+++%&&&%$#OoXX      *;->247qASHJJGD-;>2360ZAHHGGDNVlllceccccceclllllzMMDGGJHSq",
"3;;*PLfiuttvelzbMDFJJHSAZ9422;;*      XXoO#$%%&&%%+++%&&&%$#+oXXX     *;->247qASHJJFFM-;>369qASHJGFDMBzllellcceccllzllnMMDFJJHSZ",
"72>;KhfiutvvezznMDFJJHSAZ972>;;=      XXXoO$%&&&%%+++%&&&%$OOoXX      *;->247qASHJJGDN-;>2360ZSSHJGDMblllccclrcrlellbbmMMDFJJHSZ",
"72>;*hfiuytxelznMDFGJHSAZ9422;;=      XXo+#$%&&&%%+++%&&&%$#OoXXX     *;->247qASHJJGDMM->2269ZASHJGFNbbzlllclrccelb1lzmMMFGJJHSA",
"972;-hfiyyevlxznMDFJJHSAZ972>;;=      XXoO#$%%&&%%+++%&&&%$#+oXXX     *;->247qASHJJFFMV-;>2470ASHJGSDMnllzzclBclllzllnmMDDGGJHSZ",
"074>;*fipytvxcznMDFGJHSAZ942>;;=      XXoO#<$&&&%%+++%&&&%$#OoXX      *;->247qASHJJSDNnz;>,479ZSHHGGFNVnbzzzlclllzlzbnmMMFFGJHSA",
"q962>-fiyttvxBznMDFGJHSAZ942;;;*      XXoOO<%&&&%%+++%&&&%$O+oXXX     *;->247qASHJJGDMmz-;>249qASHJGFDMnnblllzcclzbllnmmDDFGJHSA",
"Z0632;-iyytxecznMDFJJHSAZ972>;;=      XXoO#$%&&&%%+++%&&&%$#+oXX      *;->247qASHJJGDMbz1;>,490ZSHHGFDNmnbzbllblllzlnnmMDDGGGHSA",
"Aq932;-iytvxllzbMDFGJHSAZ972>;;=      XXo+O$%%&&%%+++%&&&%%OOoXXX     *;->247qASHJJSDMbzl;;,269qASHJGFDMbnbbblblllzbbmmMDDGGGHHA",
"SZ972;;-uytvclznMDFGJHSAZ942>;;=      XXoO#$%%&&%%+++%&&&%$#ooXX      *;->247qASHJJGFMbbzx->,460ZSHJGFDMMbnnbnzzlnnznmMmDDGGJHSS",
"SAq73>>;utrxclznMDFGJHSAZ972>;;=      XXoOO$$&&&%%+++%&&&%$OOoXXX     *;->247qASHJJSFNVzex-;>,69qAHHGGFDMbnnnblbzbnznmMMDFGGJHSS",
"HSZ932;;-yrxclzbMDFGJHSAZ972>;;*      XXoO#$$&&&%%+++%&&&%$#OoXXX     *;->247qASHJJGFMnzzle->2460ZSHJGGDDMmmnznnnnznnmmDDDGGJHHS",
"HSAq93>;;ttxclznMDFJJHSAZ942>;;=      XXoO#$%&&&%%+++%&&&%$#+oXX      *;->247qASHJJGDMbzwxe-;>269qSHHGGFDMMmmmnnnnnnmMMDDDGGJHHS",
"HHSZ962;;-txclzbMDFJJHSAZ942>;==      XXXoO$%&&&%%+++%&&&%$#OoXXX     *;->247qASHJJGDMbzllet->,36qASHJJFFDDMMmmnnnmnmMMMDGSGJJHS",
"JHSZ063,;-txczzbMDFJJHSAZ9722;==      XXo+#<%&&&%%+++%&&&%$O+oXXX     *;->247qASHJJGDMbzlxev=;,269ZSSHGGFDMMDmmmmmmmmMDMDFGGJJHS",
"JHSSZ962>;*xclznMDFJJHSAZ972>;==*     XXoOO$$&&&%%+++%&&&%$#OoXX      *;->247qASHJJFDNnzlcexy;>2490ASHJGFFDDDmMmmmmmMMMDDFFGGJHS",
"JJHSZ0732;;xclzbMDFGJHSAZ932>;==*     XXoO#$$&&&%%+++%&&&%$OOoXXX     *;->247qASHJJGDMVzllvtt--,370ZSHHGGFFDDDmMmMmmMDMDDFFGGJHS",
"GJHSSq962>;-clznMDGJJHSAZ942>;==*     XXoOO+%&&&%%+++%&&&%$O+oXXX     *;->247qASHJJGDMbzlevttu->249ZASHJGGGFDMDMmMMMMDDDFFGGJJHS",
"SJJHSZ073>;-czznMDFJJHSAZ972>;==      XXoOO$%&&&%%+++%&&&%$#+oXXX     *;->247qASHJJSDMbzlxvttu--><70ZSHHGJGFDDDDMMDDMDMDFFGJGJHS",
"GGJHSAZ962;;-lznMDFGJHSAZ9722;==      XXoOO$%&&&%%+++%&&&%$OOoXXX     *;->247qASHJJFFMbzlccttui->269qSSHJGGFFDDDDDDmDDDGFFFJJJHH",
"FGGHHSZ9632;-lznMDFJJHSAZ972;;==      XXoOO$%&&&%%+++%&&&%$#ooXX      *;->247qASHJJSDMnBzlxttui-;,390ZSHHJJGGFDDDDDMDMDDFFGGGJHH",
"DGGJHSZ0662>;-znMDFJJHSAZ942>;==      XXoO#<%%&&%%+++%&&&%$#OoXXX     *;->247qASHJJGDMbzllxetuif->269ZASHJGGGFFFFDDDDDDDGFGJJJHH",
"DFSJHSAZ9622;-BbMDFJJHSAA942>;==      XXooO<$&&&%%+++%&&&%$OOoXX      *;->247qASHJJGDMnzzlxttuid-;,490ASSHJJGGFFFDDDDFDFFFGGJJHH",
"MDSGJHSZ0962>;*bMDFGJHSAC942>;==      XXo+O$%&&&%%+++%&&&%$OOoXXX     *;->247qASHJJSDMbBllevtuidh->,69qASHHJGGGGFFFDDFDGFGGJJJHH",
"MCFGJHHAq962>;-bMDSJJHSAA972>;==      XXoOO$%&&&%%+++%&&&%$#OoXX      *;->247qASHJJFFMbzzexrtuidh->247qZAHHJJJGGGFDFFGFFGGGGJJHH",
"nMDFGHHSZ093>;;-MDFJJHSAA972>;==*     XXoO#$%&&&%%+++%&&&%$#ooXXX     *;->247qASHJJSDMbbllcetuidsL=>469ZASHHJJJGGGGGFGFGFGGGJJHH",
"nMDFGJHSAq9622;-MDFGJHSAA9422;==      XXoOO$%%&&%%+++%&&&%$OOoXXX     *;->247qASHJJGDMbzllcetuidhL->,470ZSHHHJJJGGGGGFFGGGGGJJHH",
"bbMDGJHHSZ9732>;;DFJJHSAq972;;==      XXoO#$%&&&%%+++%&&&%$#OoXX      *;->247qASHJJGFMVzzlertuidhLP->,69qASHSHJJGGGGFGGFGGJGJJHH",
"zbMDGJJHSZ0762>;-DFGJHSAA9722;=*      XXoOO$%&&&%%+++%&&&%$#ooXXX     *;->247qASHJJGDMnzlcevtuidKLP*->46qZSSHHJJJJGGGGGGGGGJGJHH",
"zlbNGGJHHAZ9732>;*GGJHSAA972;;==      XXoOO$%&&&%%+++%&&&%$OOoXX      *;->247qASHJJSDMbzllevtuidhLPK;>,690AAHHHJJJGGGGGGGJJJJJHH",
"ebnMFGGHHSZq662>;*FGJHSAZ942>;==*     XXooO$%&&&%%+++%&&&%$#OoXXX     *;->247qASHJJFFMbbllettuidhLPP=;,46qZASHHHJJGJJGGGJGGJJJHH",
"lznMDFGJHSAq9732>;*GJHSAA972>;=*      XXoOO$%&&&%%+++%&&&%$OooXX      *;->247qASHJJGDMnzllevtuidKLPPK->,69qZSSHSHJGJJJGJJGGJJJHH",
"llzbDFGJHSSZ9732>;*GJHSAq972>;==      XXoO#$%%&&%%+++%&&&%$#OoXXX     *;->247qASHJJGDMbblcxttuidhLPPK--,490ZASHHHJJJGGJJJJJJJJHH",
"llznMDGJHHSZq9632-;*JHSAA732>;==      XXooO<%&&&%%+++%&&&%$#OoXXX     *;->247qASHJJSDMbzllettuidhLPPKs->4690ZASSHHJJGGJGGJJJJJHH",
"kllbMDFGJHSAq9632>;*HHSAA972>;==      XXoOO$%&&&%%+++%&&&%$O+oXX      *;->247qASHJJGFMbzzxcetuidKLPPKK-;,469qASSSHHJJJGJJJJJJJHH",
"eelbMDFGJHHSZ0762>>;=HSAZ932;;==      XXoO#<%%&&%%+++%&&&%$#OoXX      *;->247qASHJJGFMbzzxxttuidhLPPKsa->2660ZASHHHHJJJJJJJJJHHH",
"xcllnMFGGJHSAq973,>;=HSAZ972;;;=      XXooO<$&&&%%+++%&&&%$#OoXX      *;->247qASHJJFDMbzlcxvtuidhLPPKsa->>479qZSSHHHHHJJJJJJHHHH",
"xcllBMDFGJHHSq0762>>;;SAZ972;;;=      XXoOO+%&&&%%+++%&&&%$#OoXX      *;->247qASHJJSDNnzlxeetuidKLPPKsss->,46qqASSHHHHHJJJJHHHHH",
"txkllbMFGJHHSAq9732>;;SAq972>;;=      XXoO#<%&&&%%+++%&&&%$#OoXXX     *;->247qASHJJGDMbzllcttuidhLPPKsss=>,4690ZASSSHHHHHHHHHHHS",
"vxelzbMDFGJHSAq9632>;;;AZ9722;;=      XXooO$$&&&%%+++%&&&%$O+oXXX     *;->247qASHJJGDMbzzlxvtuidhLPPKsssK;>,4990ZSSHSHHHHHHHHHHS",
"tvxlzbMDFGGHHSZq9622>;-Aq942>;;=      XXoOO<$&&&%%+++%&&&%$#OoX       *;->247qASHJJGFMVlllertuidKLPPKsssK*-,4699ZASSHHHHHHHHHHHS",
"txxczzmDFGJHHSZq97322;;-A742>;;=      XXoO#$$&&&%%+++%&&&%+#OoX       *;->247qASHJJGDMbzlleetuidhLPPKsssKK;>,479qZASSSHHHHHHHHHS",
"ytxelzbNFFJJHSSqq9422>;;A972>;;=      XXooO$%&&&%%+++%&&&%$O+oXX      *;->247qASHJJFFMblllettuidhLPPKsssKP-;22670qZASSHSHHHHHHHS",
"ytxxlwnMDGGJHHSZq9332>;--9722;;=      XXoOO$%&&&%%+++%&&&%$#OoXX      *;->247qASHJJGDMbzllxetuidKLPPKsssKPP;>,4690ZAASHSHHHHHHSS",
"ytvxlzbmDFGJHHSAZ9732>;;*972>;;=      XXoO#<%%&&%%+++%&&&%$#OoXXX     *;->247qASHJJFDMbzllxttuidhLPPKsssKPP-;>2679qZASSSHHHSHSSS",
"yytvclzbMDFJJHSSZq9332>;;*42;;;=      XXoOO$$&&&%%+++%&&&%$#OoXXX     *;->247qASHJJSDMnzlexvtuidhLPPKsssKPPK->24690qZSASSSHSHHSS",
"iytvclznMDFGGHHSAq9742>>;*42;;;=      XXoOO$%&&&%%+++%&&&%$#OoXXX     *;->247qASHJJGDMbzllcttuidKLPPKsssKPPL->>2499qqZSASSSSSHSS",
"uyyvelwbMDFGJHHSAZ07332>;;-2>;;=      XXoOO$%&&&%%+++%&&&%$OOoXXX     *;->247qASHJJGDMbzlxevtuidhLPPKsssKPPLh;>,3690qZAASSSSSSSS",
"uyrrvcwlnMFGJJHSSqq9732>>;-2>;;=      XXoOO$$&&&%%+++%&&&%$#+oXXX     *;->247qASHJJFDMbbllevtuidhLPPKsssKPPLh->>2499qqZASASSSSSS",
"iuytxcllnMDFGGHHSAq97722>;--2;;=      XXoOO$%&&&%%+++%&&&%$#OoXXX     *;->247qASHJJSDMbzlcxetuidKLPPKsssKPPLhd->>2670qZASASSSSSA",
"iiytvcllnMDFGJJHSAq074322>;;>;;=      XXoO#$$&&&%%+++%&&&%$OOoX X     *;->247qASHJJGDMVzlleetuidhLPPKsssKPPLfd-;>24790qZZASSSSSS",
"diutxxllzMMFGGJHSSZ09742>>;;;;;=      XXooO$%&&&%%+++%&&&%$#OoX       *;->247qASHJJSDNVzllettuidhLPPKsssKPPLhdi->,24790qZAASSASS",
"fiuyxxelzbMDFJJHHSAZ9773>>;;-;==     XXXoO#$%&&&%%+++%&&&%$#OoXX      *;->247qASHJJFDMnzbexvtuidKLPPKsssKPPLfdu-;>24770qZZZAAAAA",
"hiiytxclbbMDFGJJHSAZq97322>;**=*      XXoOO$$%&&%%+++%&&&%$OOoXXX     *;->247qASHJJSDMbzllxttuidhLPPKsssKPPLhduy->,23790qqZAAAAA",
"hduytrclznMMDGGJHSSAq97422>;;-***     XXo+#<%%&&%%+++%&&&%$#+oXXX     *;->247qASHJJFDMbzllvetuidhLPPKsssKPPLfduy-;>236990qqZAAAA",
"hfiyyvxenbbMFGGJHHSAZ07733>>;-***     XXoOO$%%&&%%+++%&&&%$OOoXXX     *;->247qASHJJGDNMzlxxttuidKLPPKsssKPPLhduyt->,23690qqZZAqq",
"hfiyrvxclzMNDGGGJHSAA09742>>-;*=*    XXXoo#$%%&&%%+++%&&&%$#OoXXX     *;->247qASHJJFDMbzzeeetuidhLPPKsssKPPLfduyt=;>,26670qqqZZZ",
"hffuytvxlbnMDFGGJHSSAA9773>>;;-*     X XoOO<%%&&%%+++%&&&%$#+oXX      *;->247qASHJJGDMbzllcttuidhLPPKsssKPPLhduytx-;>246670qqCZZ",
"LhiiytxelzbbMFGGJHSSAA097322>;;**      XoO#$%%&&%%+++%&&&%$#OoXXX     *;->247qASHJJGDMbzwlxttuidKLPPKsssKPPLfduytv-;>2336700qCCZ",
"LhdiyytcllbmMDFGGHHSAA097722>>;-=      XoOO<$&&&%%+++%&&&%$O+oXX      *;->247qASHJJFDMnzwlcetuidhLPPKsssKPPLhduytxx-;>246690qqqq",
"LhfiutexlzzMMDFGJHHSSCA974322>;;*     XXoOO$%&&&%%+++%&&&%$O+oXXX     *;->247qASHJJFFMVzzlettuidhLPPKsssKPPLfduytvx-;>243699000q",
"LhfduttxxlzbMDFGGJHSSAAq94322>-;-*    XXoO#$%&&&%%+++%&&&%$#OoXX      *;->247qASHJJFDMmzBexvtuidKLPPKsssKPPLhduytvcl;->24477900q",
"LLhgyytvxzlbMMFGJJHHSAA097332>;;;*    XXoOO$%&&&%%+++%&&&%$#OoXXX     *;->247qASHJJFFMnzzevvtuidhLPPKsssKPPLfduytxcl-;>>24677700",
"PLhfiyttclwBMCDGGJHHSAA0974322>>;--   XXoO#$%&&&%%+++%&&&%+#OoXXX     *;->247qASHJJFFMb5cexrtuidhLPPKsssKPPLhduytvclz-;>22477970",
"PLLfuytvcewzVMDFGJJHSSAZ097322>>;-;  XXXoOO$%%&&%%+++%&&&%$O+oXXX     *;->247qASHJJSDMbzwevttuidKLPPKsssKPPLfduytvcen-;>,2447799",
"PLhfdytevlwznMDFGJJHSSAZ097732>>>;-*   XoOO<%&&&%%+++%&&&%$OOoXXX     *;->247qASHJJGDMVzblettuidhLPPKsssKPPLhduytvxezn-;>,244779",
"PPhfiuytxclzbMCFGJJHHSAA097332>>>;--   XoO#$%&&&%%+++%&&&%$#ooX       *;->247qASHJJGDMmzleettuidhLPPKsssKPPLfduytvxlzn-;>,224679",
"PPKhipyrxcelBMMFFJGHHHA0007732,>;>;--  XooO<%&&&%%+++%&&&%$OOoX       *;->247qASHJJGDMnzlxettuidKLPPKsssKPPLhduytvxlzbM->>,24677",
"PPLhdpytvxllBbDDFGJHHSSAZq7442>2>>;;;XXXoOO$%&&&%%+++%&&&%$OOoXXX     *;->247qASHJJGDMnzzlvrtuidhLPPKsssKPPLfduytvclzbM-;>,24477",
"PPLhdiytvclzbbMDFGGJHSSAA0973422>>;---XXoO#$%&&&%%+++%&&&%$#OoXXX     *;->247qASHJJGDMbzllvvtuidhLPPKsssKPPLhduytvclznbN-;>,2344",
"PPKKfiytxxlezbMDFGGJHHSSAq977322>>;;--XXoOO$%&&&%%+++%&&&%$#OoXXX     *;->247qASHJJGDMbzllxttuidKLPPKsssKPPLfduytvxezbMM-;>,2244",
"KPPLfiuttelzlnMDFGJJJHSAAqq774322>>;;;-XoO#$%%&&%%+++%&&&%$O+oXX      *;->247qASHJJFDMblBxeetuidhLPPKsssKPPLhduytvclzbMDD->>,244",
"PPPhfiyytxclznMMDFGGJHHSAAq777322>>>;--Xoo#<$&&&%%+++%&&&%$OOoXX      *;->247qASHJJSDMnzllcttuidhLPPKsssKPPLfduytvcllnbCF-;>>,22",
"KPPLhiuytecllBmMFFGJJHSSAA0777422>>>;*;*oO#$%&&&%%+++%&&&%$#OoXX      *;->247qASHJJGFMMzllvvtuidKLPPKsssKPPLhduytxclznMNFG-;>,24",
"PPPLhiuytxxlzbmMDFGGJHSSAZZ077422>>;;;-*oOO$%&&&%%+++%&&&%$#OoXX      *;->247qASHJJGDMnzlccttuidhLPPKsssKPPLfduytvclzBMDFG--->,2",
"KPPLhduyttvewzmMDFGGJHHSSAq006622>,;;;;--o#<$&&&%%+++%&&&%$O+oXX      *;->247qASHJJGDMbzBcvvtuidhLPPKsssKPPLhduytvxezbmMFGG-;>,,",
"KPPLhiiytvvlzznMDFGGJJHHSAAq77742>,>>;;-=oO$%&&&%%+++%&&&%$OOoXX      *;->247qASHJJFDMbzllevtuidKLPPKsssKPPLfduytecllnMDGGJ--;>,",
"KKPLhfiytxclzznMDFGGJHHHSA0q774422>;;;;--=O$%&&&%%+++%&&&%$#OoXX      *;->247qASHJJFFMbzllvetuidhLPPKsssKPPLhduytxclzBMMGGJJ-;>,",
"KPPKhdiyyvxllznMDDGGJJHHHAAq077422>>;;;;--#<%%&&%%+++%&&&%$#OoXXX     *;->247qASHJJFDMbzexxetuidhLPPKsssKPPLfduytvxlnBMMFGJH*->>",
"KKPPLfiytvxllzbmDFFGJJHSHAAZ0764322,;;;;-==$$&&&%%+++%&&&%$#OoXX      *;->247qASHJJSDMVzzlxvtuidKLPPKsssKPPLhduytvxlznbMFGJHS;;;",
"KKPPLhiyttvxllnbDFFGJJHHSSZ00076422,,>>;;-;$%&&&%%+++%&&&%$OOoXXX     *;->247qASHJJGDMbzlleetuidhLPPKsssKPPLfduytvxezbMDFGJHH*;>",
"sKPPhfipttvcllBbNDFGJJHHSSA0q07442,,,>;;-;*=$&&&%%+++%&&&%$#OoXXX     *;->247qASHJJFDMnzlccetuidhLPPKsssKPPLhduytvxeznMDFGJHSS-;",
"sKPPhfipyrvxebbbMDFGJJJHSSAZ00764222,,>;-;=;%&&&%%+++%&&&%$O+oXX      *;->247qASHJJGDMbzlcevtuidKLPPKsssKPPLfduytxxlzbmMGGJHSS--",
"sKKPLhipytvxewzMMDFGJGHHSAAZ0077442,,;>;;-;;-&&&%%+++%&&&%$#OoXX      *;->247qASHJJGFMbzlleetuidhLPPKsssKPPLhduytexllnMDGGJHSSZ-",
"uKPPLhdpytveezzVMCFFGJHHHSSZq0074422,,>>;-;;*&&&%%+++%&&&%$OOoXXX     *;->247qASHJJGFMbzllettuidhLPPKsssKPPLfduytxxlBnMMFGJHSSZ*",
"usKPLhdputvclczbMDFFGJJHHSSZq007632,;,;;;-;@;=&&%%+++%&&&%$#+oXXX     *;->247qASHJJFDMnzllcttuidKLPPKsssKPPLhduytvxlzlMMFGJHSSZ0",
"iuKPLhfiytvelzznMMDFGJJHSSSZZ0777442,;>;;;;=;;&&%++++%&&&%$OOoXXX     *;->247qASHJJFDMnzzlcvtuidhLPPKsssKPPLfduytvellBbDFGJHSSZ0",
"iuKPLhdiytxclwznMMDFGJJHSSSZZq077422,,>;;;;=;;@&+++++%&&&%$#OoXXX     *;->247qASHJJFDMnzlleetuidhLPPKsssKPPLhduytxelznbMFGJHSAZ0",
"iuyPLhdiytvcxlznbNDGGGJHHSSZqq7774222;,>>;;j;;=&+++++%&&&%$#OoXXX     *;->247qASHJJSDMbzlccttuidKLPPKsssKPPLfduytvelznMMFGJHSAZ0",
"diiPLhfiutvellzbMDDGGGJHHSSAZq09444222,;-;;;*=;=%&+++%&&&%$#OoXXX     *;->247qASHJJFDMbzllxttuidhLPPKsssKPPLhduytvxelBMDFGJHSSZ0",
"diiiKhfiytvxxlzlVMFFGGJHHHSAqq0776422,,,>;;;*-;-%++++%&&&%$O+oXXX     *;->247qASHJJSDMVzlxvvtuidhLPPKsssKPPLfduytvxlwzMMDGJHSSZ0",
"ddiyLhfiyyvxelznnMDFGGJJHHSAZq077663,,,,;;;;=;=;-++++%&&&%$#OoXXX     *;->247qASHJJGDMbzlxettuidKLPPKsssKPPLhduytvxlznMDFGJHSSZ0",
"fddiyLfiyyvvlcznbDDGGJJJHHSAZq077642,,,,;>;;;@---++++%&&&%$#OoXXX     *;->247qASHJJGDMnlllvvtuidhLPPKsssKPPLfduytxeeznMDDGJHSAZ0",
"hfdiuhfipyvvxwnbVNDFGGJJHHAAZq077442,,;,;;;==*-;--++%%%&&%$#OoXXX     *;->247qASHJJGFMbzlcxetuidhLPPKsssKPPLhduytvellnMDFGJHSAZ0",
"hhddiyfipttvxllnbNDFGJGJHHSAZq0977442,;,>>;;;*-==*++++%&&%$OooXXX     *;->247qASHJJGDMnbllcttuidKLPPKsssKPPLfduytvxezzMCGGJHSSZ0",
"LhddiifiuytvcelnMMDFGGJJHSSSZq0973432,;2>;;;;;---=*+%+%&&%$#OoXXX     *;->247qASHJJFFMbBzcxttuidhLPPKsssKPPLhduytvxllBMDGGJHSSZ0",
"LLfddiyipttxclzzbMDSGJGJHHSAZq0976432,,2>>;;;@-=-;=+++%&&%$#OoXXX     *;->247qASHJJGDMbzlcxvtuidhLPPKsssKPPLfduytxxlznbNGGJHSSZ0",
"LLhfdiuiuytvclzbbMDFGJJJHHSAZq0776422,,,,>;;;=---=;-++%&&%$#OoXXX     *;->247qASHJJGDMbzllvttuidKLPPKsssKPPLhduytexczbbNFGJHSAZ0",
"LLhffiiuurtveelbMMDFGJGJHSSAZq0776422,42,>;;;=---;;=+&%&&%$OOoXXX     *;->247qASHJJFFNVBzlevtuidhLPPKsssKPPLfduytvclcBbDFGJHSAZ0",
"PLLhhdiuyttxrebbbMDFGJGJHHSAZq0076422,,,,:;;;=---;;=-%&&&%$#OoXXX     *;->247qASHJJSDMbzlcevtyifhLPPKsssKPPLhduytvcllBMNFGJHSSZ0",
"PLLhfdiiytvxclbbmMDGGGJJHHSAZq0976422,,,>>;;;;=--==;-%&8&%$OOoXXX     *;->247qASHJJGDMVzlcxetyifKLPPKsssKPPLfduytvxllBMMFGJHSSZ0",
"PLLLhfdiuytxce5zbMDFGJGJHSSAZq0076422,,,>>;;;;---;=---&8&%$#ooXXX     *;->247qASHJJSDNbzllveyyidhLPPKsssKPPLhduytxxezbMDDGJHSSZ0",
"PPLLhfdiiytvllzzbNDFGJJJHSSAZq0796432,;;>>;;;;---;=;;=&8&%$#OoXXX     *;->247qASHJJFFMVzexctyyidhLPPKsssKPPLfduytxeclBbDFGJHSAZ0",
"PPPLhhfdiutxcllzMMDFGJGJHHSAZq0996432,,;;>;;=;-=-==;;;-&&%$OOoXXX     *;->247qASHJJFDMVlllvvruidLLPPKsssKPPLhduytxeelbMDDGJHSAZ0",
"PPPLLhfdiiixclcBMMDFGJGHHHSSZq0976442,,;;>;;;;-=;;-;;-=&8%$OooXXX     *;->247qASHJJFFMnzllxttyifhLPPKsssKPPLfduyttclznMMFGJHSSZ0",
"PPPPLLhfdiuxcllbmNDGGJJHHHSAZq0776422,,,>;;;;---=*=;;-=-&%$#OoXXX     *;->247qASHJJGDMmzzxxvtyidhLPPKsssKPPLhduytvxenbbDFGJHSSZ0",
"PPPPLhLfddiyclzBmMDFGJJHHHSAZq097642,>,;>;;;=---===--===%%$OOoXXX     *;->,47qASHJJGDMnzlccvyuifLLPPKsssKPPLfduyteceznMDFGJHSSZ0",
"PPPPPLhhfdiuclzbMMDFGJJHHHSAZq097642,>,>>>;;;-;---====;=-%$#OoXXX     *;->247qASHJJGDMnzllcxyyidhLPPKsssKPPLhduytecllnMMFGJHSAZ0",
"KPPPPLLhfdiiycznbMDFGJJHHHAAZq097432,;;>>;;;--;---====;=-%$#OoXX      *;->,47qASHJJGFMmlllcetuifhLPPKsssKPPLhdutteclznbNFGJHSAq0",
"KPPPPLLhhfdiucznMMFGGJJHHSAAZq0776422,;>>>;=---=**==-=;===$OOoXXX     **;>,47qASHJJSDNbzclcvyyifhLPPKsssKPPLhduttvxlwzmMFGJHSAZ0",
"KKPPPPLhhhdiiyznMMFFGJJHHSAAqq996442,,>>>;;;-=---*-=-=--=-$OOoXX      **;>,47qASHJJFDMbzllxeyuidhLPPKsssKPPLhdittvelznMNDGJHSAZ0",
"KKPPPPLLLhfdiilnMMFFGJJHHSSZqq076442,;>>;;;-----*--==----;-#OoXXX     *-;>,67qASHJJFDMbzzlexruifhLPPKsssKPPLhduytveeznMMFGJHSAZ0",
"KKKPPPPLLhhdduunMDDFGJJHHSSZq0976442,,>>;;---=-***-==;---=-OOoXX     ***;>449qASHJJGFMmzllxxyuidhLPPKsssKPPLhdiytvxlbnMMDGJHSAZ0",
"sKKKPPPLLhhfdiibMDDGGGJHSSAZq097632,,,;>;;----=*==**=-----==OoXXX    ***->,49qZSHJJFDNbzlxxrtyidhLPPKsasKPPLhduttvxlznMMFGJHHAZ0",
"ssKKPPPPLLhhdipyMNFFJJJHHSAZq097434,,>>-;----=*===**===----=OoXX      **->269qASHJJSDMnzBlxxtyidhLPKKsssKPPLhdiytexezBMDFGJHHSq0",
"sssKKPPPLLLhfddpMDFGGJJHHSAZq9974422>>;;;;-;==*====*=------==oXX     **-->,59qASHJJGDMnzcexttyidhLPPKsasKPPLhdiytxxlznMDFGJHSSZ0",
"assKKKPPLLhLffippDFGJGHHHSAZ0077422,>>;;;----*=========-----=oX..    **=->,49qASHJGGDMMlllxtyyifhLPPKsasKPPLhdiytvleznmMDGJJSSD0"
};
