/* XPM */
static char *result[] = {
/* columns rows colors chars-per-pixel */
"128 128 47 1 ",
"  c #39775B",
". c #3C7B5B",
"X c #407F5B",
"o c #43835C",
"O c #47895D",
"+ c #498C5F",
"@ c #4B8F60",
"# c #4E9261",
"$ c #509663",
"% c #549B66",
"& c #579F68",
"* c #57A068",
"= c #5AA46A",
"- c #5EA96D",
"; c #61AC6F",
": c #62AF70",
"> c #65B272",
", c #68B674",
"< c #6BBA76",
"1 c #6DBE79",
"2 c #6FC07A",
"3 c #72C47C",
"4 c #76C87F",
"5 c #77CA80",
"6 c #79CD82",
"7 c #7DD385",
"8 c #80D787",
"9 c #80D788",
"0 c #83DB8A",
"q c #87E08D",
"w c #89E38E",
"e c #85F88E",
"r c #8BE690",
"t c #8EEA92",
"y c #91EE95",
"u c #87FA90",
"i c #8CFD93",
"p c #93F197",
"a c #90FE97",
"s c #96F499",
"d c #98F79B",
"f c #94FF9A",
"g c #9BFC9D",
"h c #9EFEA1",
"j c #A4FFA5",
"k c #A7FFA8",
"l c #A8FFA8",
/* pixels */
"57t7288660tggggs55w5>=%--#***>235,>><35yr-*#-2,,<,;-,2=###*=,,#++#&+XoX...  XX ...o.OoX  oX.   XX. . XO..OoOX.O@OO@+o.XX.X ..oXX",
">0jq-,,><480tgdy7slj7<3ds,-<>,=*%$$%-<wjs;#%7hs7w73376,==-,2ss,##=3-OOooXo  oX   o%oXX o..oXX  .X.   XXooXoX X.$+O@+oXXXXXX.X#. ",
">ggg*###*:,3<773<jjjs7jhhg5ty3:%$#O#$%7hy=+=hhjtggytst03335shld=%8gr%##OOo  XXX X%,% X Oo.oX.    .  .o.$$.OXO#.OOo+OooXXoXO.#%o.",
";q<t-oooO$*:-:-%:jllgwjjjggjg02=%*$###whh;+;ljggjjhjjgjgggpjljj3<jhj8=*##O. XX. O<2;.X.## o.     .  XoO**O..$%O.XXoOOOoOOO#.*-Oo",
"<:*:<X..XoO***#O:gysjgldgjljd03-*-==%-jjjy&wlgljyjhhggjjgysalhjgglgsl,;-*#oXXXX #73<X O=-O..  .. . .X.*@O% O#O% oXoXoOoooOOO=**.",
"5*%$4X    X+$#Oo3r84dj868djq72=%$$**$7agjh0lljdjyw88ws0753piljjgfkjgj02,,=%OOOOX2753#.=-:= X X... . Xo#OO#X$OOOooXXXOXXXXO.%**=.",
"=#*%-O    XX##oOw77,2w,686j2:*@$OO@##saaaahggjgjg6330g<>==plljkuikkljl00727-##@#r005;#2<:,X..XXOX.   $@$#@@##@O$.OooX..  ..*%**#",
"OO*=*#  ..O.X#O*535-*<,88<s,*@o%#XXX@jgggahgggjlj755gh5;*=jhlhjgjjjjlejswyl7;=%3ts088,7>;2% .Oo@O   .*$$*@%@%*%*.OOO.X.XX.$#**%*",
"o#---*  X *OX#O2:32-%-<00363#oo:*  .@jlljjjggggjj737jij7<7gjjhhjlhfhlajgsjuj5<<jsj07tw0,;55OOOo-$   .-=%%=%*$#%*.@$@.#  XO$#%$$%",
"O*->-:o. O<*OO#3=22>*-6886,q$oO6>.X.*hggjjlljjjgj7<7gigjtjagaggjjghhjhjdghjgswjjjjpwggw,,003#oO3>.  O>*%#---#O@=oO%@O*X.X#o#%$%%",
"$-:::-@..*:<#O=-*2<<=*4555-7=O$82...-y77pggjjljtl6>5gjgljggeeigaajjjjjjqqjjjjjjlljlgjjs77y7t*O%75o .%<=%%=>*@O@=@o$OO=X.X%O$%#@%",
"#-:-%-@..@::Oo#>%:,,%%2<22=,@oo,=.o.@8320srsggd6g-%:gjgdglgiuuueegghaj3:-0ljttggjghljjlggj8t#O@05o .@5<-=><:@XO=o#-$.$.. O#$%#$%",
"#$*%@>OXXO<*ooO<#*>-%*><2,<O.X.$OoXX.25<8800tt628#@$7g23rdgjgiiuuagaij*$*>j6,:2jjjggjjjjjjs7$@@7<o..Ow0,;322$O@*.*--XOX...%@%$*#",
"#O##O<OooO,%OO+-##**$>-,<-,X   X.OOO.-53338488:3:###:8=:38lgljgggiggg5#$*>r:==*0lljjlhjjjjj6::-7<+OXOwt640<5=#%@@==-O.X ..$O$*@$",
"*O$#*$oooo$O##O%*O##-,-::*#X    .ooOoO2322:52<=7#O##@=$*:2sqdlldgjjjj$O$*:6:-=%:ljjgljjjllj5662q5=*%@3gstw-62--o$*$*$X....o$@$@#",
"7%%*5X.oooOO#@OO<##$,$,=$:.oX..XXXooO <<<2O<,-:,O@OoXoO#=-3q6tj<3jlj7Oo#*-:=:-*%gljhllssjgd2777753<-@>jjgw#286,.#@##$o XX..%#$%.",
"5<;3-   XoO####O-%#*$X:*%:.OoX..XX.XOX*,<=.$,=2OX@o.  XO@$-8,3t$%dsd=XO@**$%=%%$6hhljjjglj2<36880073--hjh7O-qq,.OO@##o.XX .@$%%o",
"<w5wO..X XX@$#$O#<*,o $:**.XooXXX.oXXXO::OXX,,* XXX.  XXo@$2-,6OO7w0@.O@@@O##@$#:ldgjjglhg-:<378tgpw3,gll3O%qt>.oO@OOo.XoX o**o#",
">pp7o....X.O$$$#@<<>X o:,@ .ooX...XoXXX*%.o.$%XX      ..XOO$<,:OO,82OoO@++O@OOO#$sgjttjigt:,><3qspw72-0ll2#$68% .XooX.XOoO  @#.#",
"17y3OoX...oO#=%#@%,*X .%*@o..oX.XXXOXX.@@.oo.XXO... XXX.XooO*:OXX*4:O@#@OOOOoOO#$4gt47djjq57535r0733<-<gh<=%<<#X...X. Xooo. XX.+",
"857,%%OOooO#%-%%@@%OX..OOO$o.XX..XXOOX.Oo..Oo.@@OOX XOX  .X.O@X.XO:%O@OOOOOoXXO**-3,:<5gs8yyssr05<:----87>3;>>#OX.   .XO#OX   .o",
"syy3=-%%##%*:-%%@@%@oX.OO.##X... .XOOo.oo..#Oo#$#@o Xo. .   XX   o%OXoXXXXXXXOO#$*>-$->707dggdyr2-%#%=%<3,5355*+o.. ..o++Oo...oo",
"yjjh33>--:<2>*##@%>%@oO%#XO%OX.o..Xooo.@OXO@..O*$$O... .o....X.X..@O.. .    .XoOO=3-O@*ty5td0876<*#O+O%50<5wjj,+OXX.XoOOO#+o++ .",
"7lght0077787-$#@@3w<##*3,OX##OOOX... .o*%.#o.o.-$%@.. .oOoOXXo Oo.#O. .XXX  ..XXX:7-XX-gjq88<,,:-%OOOO=yh52sgh0#Ooooo+OOO###,>oX",
"1ljhp0syrw55-%#O#ygs=%8tt=O#*%#OoooXXX%>-.#.@$.$*%@. XX++O$.O#.Ooo%#.ooOOXoXX...X<q,XX>ggd42-=*%###@##7ljt2gghh=####++OO@*%>87=.",
"3llly,7522<2<-%O;jjj3;g7ww#%-=*#O@@@OO<::OX.**#o*$#XXoO+O##X%*OX.O==.#O@OOOoX...o374OX484y,:-$$OO####=lagl6hjjh3=;==%###%=-w327o",
"yllls%*--*->2>*%0ljjj0y55s,=,,-*%*#Xo#;%-= +-=*.$$@OooOO@#OO*%* X%=-O$$OoOOoXXXoO344%O7:-<,$*$@OoO@#$5daghgljlfh,22,;==->,5p2,3=",
"ghhjj%O@OO*%;>--ljjjllt066d><2,,-%#X.=;==;O=;-*@o#O#O.OOO@.=*%*O#=--#O*Ooo.oo.OX%,,<:%:-=-,ooOO@OO#$%tgjhhghljjg554227,255s834,6",
"aighh<OOoo=@#*=3jghjllggt5j63520<%#oo3,2,;>,,,=:.oO@o OO@OX---#====-*.$Ooo.oOOO --*:::*-:=2XXXX#$##@$jljjjihgglgs53<6g3550j30r33",
"jighgs#OO@3%O@%wjjjjjjjjjsjg755gr=#+&755524232,*$.oo.OXOOoO-***==-#$=.OOo.#.@@@.*%#***%:>=<o X.**O@#:gjljjhlgaljh03<tl770hh0hgt5",
"jgjlgj;$*<j3##;jjjjjjglggljjw7wjj<==05rrw826773#2o  #-.oo $=@@*=-#@O*@.OXo=oO@oO%#@$$$==-:=%X X,,O#$68gljjllgghjij53hhgrjhljjjht",
"hjljjg7->dgj<>wjjjllgtlhhglgjsjjjt<3hthhgt7t007%>*OO,,O..X*%OoO=-#OO$$.X $#$.X $*##%%$*$$-*,X o45##:8,djjljjhhjhjltrhllglajgllhj",
"wjjjll3*-gjj56gjjjljwtjllljghsjhhh52hhlllhtgttt,7:##23@ .X-*OoO=-#O#$%.X.O#$ X $O$$%%%$##-**X X<<OO-5=wggjrglljsjjssggjsjhgajljl",
"3ydggd*##2lt48thljjltsjllgtltygggg5<sjjlljjjhdg08@O@:6O.. *-@O#=-%%%$% X.X*O ..$XO$%%$%##*-X.. *%.o$7=2ts860ghs0jswwligttgaagjjl",
">6qtt<OoO*t4243gjljjsjjljrdw670hly82wahjjlllljjj-ooO*<OX. @-*#%$*=%%$OXX .# X. @Xo#$$%%##*Ooo. Oo o#-,-46,5<8r8wg752rj8rr7lggjgj",
"<-460#XoO@<:>:=2lljjjhjllhh6353wtww70iljghjhjjlg@oooO#Xoo.O<>%*oO==*=XXX.o oo.. #oO#%@*$$*.%@o XXXOOO4*:<,q<372s6:-*-7,68<whjjgj",
"<*><2. Xoo$$=-%%gjjgjjjjjhj88623<378rhlgauhgghj0OooX.X.XOoO2<>-XX---=XOoO#O#OoOo#OoO%X***$o*Oo.  .XXX-*->2*3,<<d*##OO**<5,<jhjhp",
"***,%  .XXo@%=%@<jggj7jjhig8885<,<265gggig7jiig2OOOo. .XoOO,5<*  *:>OoOOO$%%#O$* $OO#.$**O#*OX.X. .  o,:::X:>:<,OoXOoO@*:,>jjhl3",
"O:-,o    XX@$%%O%djg2%wljl67425222,<<3jhgj-wgij,%%#Oo.oooOO-85#..#:-.ooO@$*##**:O$$%o.O%$.*%Oo.oo..o..$:-O O<:5O.X..XXO@*->tjhh-",
"o*:*.    ..@$$%OO2dt$o*td4-<::,<32,<3<gjj3#>ljg<,:*$#OOoO#$-85@  o*#.XXOOO#O*:>:%.@OXo.@Oo:##OOOOOOOOO.$#...:<-       .oO*-6llq%",
".O*@     .XO$%#OX$<:O.o->%%-$$*:22>,66tlg=@#7gq><>:-=%###%*<83O  X#o.XX.oOO#:<,-:o.o$@.X.@%@##########XXX . @*o   .XX.  o#=<gg3%",
"XXOo ..X.Xo@$$@O.O%$X. O#O$#@O@*:>:>785dt=##-5,->:::>-%#%*;>5:o   oX  .XXXo#-,,=:*@$:$O .@OO##$$*--*#@O  XX..X  ..O@OoX .o*=38;%",
"..oo.XXXXoOOOOOo.X#OXX.OOooooOO#%*=:25200>-*>3==*=----%%*-,,3;OXXXOoX...X.XO*-:=*-%-:$#X.Oo@$*=->2<,*$#X.OoX  ...oO@OoX  .#=->*%",
" X$O XXX XXX .XX.O%O. X$O.XX.XO#%$$*:><yt,,,wy<=-*=---==-,33t8%OX@*#Xo.... XO$*%*@o@-*@  OO@*=::,542-%@  OOO  ...oOOOoX. .O*<3*#",
".@--. XXX  . .XXX$:$  o*#  XX.oO##O#**3jj3,7ljt<5,>>,;--,470hj3#@,w<OOoo.o...oOO#.. $%o..o#O$=:,<42>**X...Oo.X X.XoOOXXX .+*5w>+",
".-@*O  XX X...XXX*<-X @:-o ..XOO#@##%*qll0<tgjj37qw073<,278hghj,;djj=O#OOOoo...o.+=Oo# OO.$O#$=,2<,*$# OO o.O#X. XoOOOXo .O*wg5+",
"#OXO$.X  XXX .X..:>,O.%>># .oOOOO#O#$*jjlj<yjjl538tjjtt0884hhjhwrldj0%*%%#OOOoX.o,>= oo%#.##OO$><:-$OO.#@X .###  ..O@@X. oX=rpy#",
"*XXo*.XXX  .Xo.oX:--$o:=*-oXXooO###$@:t68j2gjlj7*>2tglljy65hllhgjjgjl,---=%###Oo=,-,o #*$OO$Oo@=:*$OOXO#@O.+ooOo  .XOOX ...>8wa=",
"=oOo*.  X . ..Xo@;-%-#*$##o     XoO##4237s6jjjlw##-2wlllg8tjjlljljlhg6;,,>,%%%#+3,,--O-=*%X*#oO@$$OoO @OoOO#oOoO. .XOXX .X.3580>",
"%O%#*X.  XX...oX*--**=##O#O XXX . .XO6-366ydgjjg$O$-5jgljyhjjllljjhhhh,;;=5%##+%723,,=-*%*.$$OX.oOoXXOoOOoO#++O#.X.oo XXooo<<375",
"#%;;=O.X..o.ooO.--**@##$%#%.OOoXX   o:*24<84iggj-@#%5lwysjujjllllljghg3,=,s-#+O,8875,<,*%-Oo#O.o.... OoO@o##+O#O.XoO.ooO@O#:><35",
"#-2<>-.XX #.OOXO=%#*Oo#*%$% OOX#O.. #$*<2:;,wtdr0$$*wj830jhlghljjlljjgw220j8%%%r0r0076<$#** Oo $@   @XO###O#OO@OOXOoX#X@@.===%-<",
"%3752<o ..*XoO.$*##%Oo$%%%#O.X.;;X.X-O-><:=<8qq3y*$>jjr27ljjgghlljjljjj0wjlj3-2jdgrwtw<%#%-o...$@OXO@X#$$$@#OO@O# XX#$.ooo*=#O#;",
"=5773<O .X*XoO.$*O#%OO%$%%O#  O&=OXO*o*::-%>466:q-@*gsw><lsjjjglljhjljjyggjhs7tjllswds6=%=<o. o$@$O@#X$$####@@#o@.X.$@X..O##OoO-",
"-388<3X   # O@oo=%%%OO*%%#OO  O=&#oo*XO%=$#%,<-$6$oO8s>%=7hsljjjljhjjly7sjlggwygljhsjjy<;32.  .=%@XX%O$$$#O###O.@ XXO$.XX.@#Oo@*",
"2573,<X . X.#$@.===$O%***##. .X-&XXo#XX$*#$#:,*#4#OO-8@O@$dygjjlllljdhywyjhjgpthgallljj060, . X-=X. O$%$$$$@$#OXoXXXXOXOO.$+@OO#",
"w56<<-. X. oOO#.--***-*-*@#   X#O.X.X#o#*$-#*:*,@O#O$=Oooo-tdgyljjjhgjjjjjggspqheughjsldys*  XO*@X. .=$*%$O##@XO.Xoo..ooOoXO#@@o",
"j8730=o. X ooOOo*---:#-=%#X. XXXX    $oO#*#=#=-$..XOOOXooXO8rytgjystjjjljljgst70uuuaj7lljg@ XOO@OX. .$=**%.$OOX@oOO++oOoo@.@+@+ ",
"js07s%Oo. XXXXoo#2<<%o--=% .   . .   oOoO*.$%%-.o. XX..XX .>80t2r080lygljlljgw62lueeh2lllyOXO@@OXX...O:**% $oXoXOO@O%#oXo@OOO@Oo",
"jjyj7##OX... X.XX,3<ooO-;O   ... .   X$oO$.X*%$XOX. ...    #567$:620j7tgjjjljr6,0giis<jgjw++#%%OXX.XXo:-*$.#oo#X#@$$*#o..O$ O+X#",
"ljjj<%%@Oo.XXXX..$2*X#.$$.  ...X.  . X*O@O..#%ooOoX  .     o<3:o@0>0w268rsggsr053jgj3,jah7%==;*@Oo.oOo*>:$.$##OO#$=*$#oXXO%ooO %",
"hjhg,--%##O@OXXX O*OO#oXO   .X..   .. o$$XXXoO oooX ..  ....%:@XO35t,:,<<33653564gls--whj0>33>=*#o.oO.@<<$OO**.@#$=%#@OoXo#$  X*",
"gjls352,-**%OXOo..O.O#O..   ... .      OO  X X X.X...X .XoXXX@OXO-63=-*$$$**%=-<,tj7=-3jjrww6-%%%OoOOOO::@o.OO.O$*=%$#@+oXO*Oo$-",
"stgw5ww05<<-#@@@oX..OOO.    ...   .X ..       . .X..  .ooOXO ..o@*:*#$@oooOO+@$--3y6,;,wgwst3-%*%OOO$%#*%o.  ..O$===**%@OXX%$$,>",
"pygw7tdstww3;==%oX+.ooX.X     .. ..XXXX  .  Xo   .   ..OO+OO. ..o#-$@@oXXXXooO@%*<g0323shtp03;===#O#%%#=%X. .. XO*==%$*#OX.@OO:>",
"pjlg5wggjjjs072%O#=#.X @O   .      XXo....o.@*o    ....oOOoOXO. .$<=OOoXXXXXoO@$$5lj77shjt8852,<>%$%%%%2<o  oO..o#%%###@OX.o  +-",
"hjjlw0ddjlljjg7-#<q<X.O,;X ..      X X OO.#o$**..X X..XoOoo.#*o..-><OoOoXooOO@$$%sjjyrjuih754454,==%%#=q8%.X*-O .oO#oOoXO.  .o #",
"jjjlj0gdgjjlljy,;gkh#X-t0# X...  X   .O**.# *$*O.XXX...XOOOo**%..:#:#XoooOo@+@$$>jjjjgigih07545<,,--=$5sw;O%<-=  .XXXOoXX...OOoo",
"fjjlh0tydgssjjg6sggh6$wgd3XXXX. . X. .*%*#XO*OO$XXX.XooO@@O$@#*.O%O$=.XXXXXoOO@$wt8tjjgjguw332,;,23<==sgt7#3-*:o   XoOXXX..OXX+.",
"hgjldgttt0w7tssrhaagj6jjgs@OOoX.   X O*%=:X-$OO=X  XXo@#@#.*OO#@$OO@=.XXXXooO+@$d226ljjlhis332,,<373-4ljgt=8;=*-    X.X.XX.O.XoX",
"gwgjjjqwq7y3350dhjgghjlllj<@#OX. .   ==---==##O*X .XoX$%$#oOO##**OO@%X  ..@ooOO=7:34tlsjjgj<35285375<hljjg5w73=<O.     ..X.OXXX#",
"7wjjlj7757j03<2jgjjjjhhlllg=%#o#o   o<-2<*:#$%O@@. .XX#**O$X@$O@@O@#@O.X.X*OoOO,->653t0lllj<380jg566qhlljhsst043@XX.X@   .@oOOOo",
"<tlljj5<<0gg536lrhllljhljll6=%#>%.  O5255=##--#o-o..O#O%$.$X#$#oo@#$O*.. o:%OO#3#>68<6wjljj328shjt78jjhlkllhw507*XXX$=X  .$o$$OX",
"-tjjjj5-:tjjq0djsjlljljjjjjj<--s7o.o;5087-%-,>$.*o .=* OOXOo###oo@#$O#O.X$$-@O=*@<682,wgghsr30jjjjyyjjhjkjljt87w<OoO>=@X.@OO$%#X",
"*qysgd7*-sjjttjlljjlgjlljjgj0,5lj*oOw0tw03=><-$O=o..=OO..OoO###oO$@#Oo$XO*O=OO-@O,462,qyyt8g5tlsgjjjjjhjjhkljtrgt$o@2*=OO*O$%$#X",
"$<0w0t*O@2jy>,whljhjjglljjjj5>2js#oO5sgsr5;->**#,.X.$%O.XXOoO+@oo#%$Xo#..O$$.XO*O-,<>:688876=,0jjjhjhjhjhgjhjlhl0OXX>2$XX@$$*$#o",
"%<5634o.X$w:#$-jljjhlllljjjt>-:t6@OO>jjjs3,=->-=$.XXo*X...%oO@@Oo@%$X$.XO.*... =O$-:*-,5358$O$=gj0rdjjjhggggglll:X  #<O..X-#%#+O",
"*-<32#  .X=OO#$7lljjjhjllgj>=--5,#@#-lgjh8t,-<,3o.XX.O .. %OO#@$OO$#O#.oOOo.ooXO$#*%$>*,<,,oXoo:2>50gjlhghaguaaj$XX.O*Xo..=@@#+#",
":*:,,X  . OXoO@*ljlljglljjj-=**>-*=-<ljjgsg02355.  . X .  o#O###$o@O#X.XoO.ooXo.*##O*=*-:,O  .XO#%<37jljgggaieuh+oXXO@XOoX##OOo%",
"=%=-=  .... XoOOqgjjljjjglj3,-*=-:355jlhgj0jw7t=.XXX.XXoX .-@#$.OOOO%...XO.oXXoX@#O@*o*=:-..    XO:2<gljhiliieur#O+@OOoO@XO=OoO+",
"#*$-@ .X..  .oOO:gshgwhljgls7,==:37tpjgjjj<wljg@.XooXXXXo..$**$..$O@OOX..XoooOOo.$O@..O*=+.X.... O%,>5llhughuuh3$%$@ooO$$OX:$O@o",
"O*$=o      X.XXo$tyh3:jjhggjs7<>,68yghihhj-<jj6OXXXXooOXX.Xo-*X@Oo$$ +ooooOO@#OO.@#O.+ O+ +oX.XX.XO-,:jlgjrjggj==*%@@O$$*@X@:%=.",
"o%%%          .Xo2yw=$3ljs8ggr755370twluih>-ww*.XX.XoOOOXX  $# #@.OOXOOOOXOO#$$#O.o %,+  O#Oo..X..o$-=7jlt26llw**%#$$%*-*$oo>># ",
"X@%O   ....     .#<-O+=we227wi00088885wjl7<*<<@..  .oOOoX. XoO.O@...XoOOOXoO#$*$$. O303OO=#OoooXX.X@**-we<:,dg2#$#$*->>-*@Oo%%o ",
"oXO..  ooo. .X.  o#@oO#:,=:,2000077552,w0<>*-*oX....o#OOX. ..o ooX. oXooXXXo@%=%*$O=wts>-,#OoXoX. XO%*$-:*-=<2*###%=<<>:*@#oO+. ",
"oXo XXoXoo.....  .@Oo+@:,*:->500767753,85*-%=-Ooo.XoO##@oo. .o .... ..oXXXXX@$**--@<ypd,-:+oX.XX..XO%$O$$#%$*-$#$$%*-<>>-**###. ",
"X@@.XXXooo.  . ..O-%O+$6w,::><8q880qw70hs-%#,5=O@OOO%-*$@Oo.$=o  X#O.XXX..XO@$%$-#X*wt5@X$OX  XX..oO$oo$%+#@-<$@%$*%%-><,-%#>3#.",
"X$*@.OoooX. ..XXo:<2@O*0w2,,><68q0qrywjug3##6y3#$$$*<2>%#O+#33%..%-%.Xoo..XO$%%$*..o26#.XO@.  ..X.XoOXo--OO#38=o#*$@#%:37,%%0r,o",
"O*%% OOOOoX   ..O:$>#o,2<5*---,22558ttgueh=-glr%*--55>-%###;733oO>#-.oXoX.XO%=**#.@X@-.O#.@X. .. ..XX O,,#o-yd,oO##$#@:573=3jgt#",
"##@%.$@#+oX     #%O$-#,$$,##==--:<<57yiguh,0ljh-*<583-=%%##05<5#**O$OoXoo.O@#%*:oO##.@X$$o##Oo.   ..  *<2%X>8y8O.O#$#%>2552hjgj,",
"*OO$o$%$+o .....*OOO:=#Oo$$O@#%*-:<25jllgi8jggj6%>23,-=*=%=h3,3;<%##-..XoXO$$$%*.###O.%+#@#,*#OoX   X.:>>:O3>7w# oO$$->233wgjgsp",
"@X@$$O-%#+XOOXX.*OOo@=oXXO-ooOO$==,,2lgljgsjgggh-*---,=,,;0y66487==%>...XX.$*==O@@#O#O+##@O5,-*OoX XoO=-:>$<:7w-.XO@%<><33jglhsl",
"oX@#*.*%$#.$$@O.*#$@O$oOoo*oXXX*=%==2gsljjjgjjgj3=*=,0<533hwydwsw22;;# ...XO=--o#@%#O#+##@.<5,>oO@Xo.$#*==:*<372X.oO*7,377gljjhj",
"XO%$#@O#$# O*$#X***%OO+@#oOO..X,,$%%2qtjjlljjjgjd<:-0j03<3lhjllgtrq4;> ..X%.*-$oO$$$OO+###O%<,-.X%@X ##%*%=#>:25O XO:g357sulaald",
"X$**@*.+%oXX**@o%#@%OO#%#oX%XXO=:%#@23tttgjggjjlj627lhw>:7hjjjjldjsw<5o  #,o@$o$@$OO#O#O+##X*-#oX##XoO#$%$O*-=:2*X o3l868jiguujg",
"O=--%@OX+ #.$%o@%OO@@X#%$O.%oo$O@=O#3,746rtdgjlljs8gghg--whghjjjlljh9<*XX>--.Xo*$#oo#O@OO@@.$*o#OOO.@o#$%$O-*%*2,o O8jw<3jauuuil",
"O=>:%*o o @ **OO%OoO#XO##o *..@O@$oO:-33482qdjjgjt8sags=%2hghgggjjkj95-OX:-,X X-*@oo#O@OOOO.$%o#OOOXO.#$%#O-*%*<-. X<d,*=yaaiuih",
"O*>:$- XOXOo-:$.##O#@OOOoXX+  .*%OXX$*:24,>,qsdsg<<7jg7*#*jghgiihhjj0t*OO*8*.. $*$OO#@@@OO@X$$OXX@@oXXo@#OO%=%-,O   #5$O@>jjagfj",
"#%,>-@XoOX.O*=$.###$@@XXX +X  .#$XXXO*#-:%=*2rwg4*-,tj<=$$yahhuuihglrh=$#%7O.. O*=$%$#O@Oo@oO@@ X@OO.o.ooX@@==::.oX o*OoO$gjjhhg",
"=*<<< OOoO.O@@#oO$#O@$.XX #   .oo.XXX-O@@O-$:56g*%*-27*$%$5gggagihhjjd>>-*>OoX.o-%*#$$oOXXoXXooXXOXX O.XX.$O$*-%oo X.OOO#$wgjljh",
"5-22*XOOXOoOXXO@X$@o#$XX X# ......XXX-Ooo@3:=,2w#$$*-:####>giggdjhjjh0>562-@OOoO,@@@*OoXXoXX . XXX.. o. ..$Oo$*OOOXXX o*=*2hsjjl",
"0223OoOOOOXoX.o@.%OO$oOX.@oX.X..XXooo$@oO:#2:,7-O#$%#%##OO%jigj2whjlg515q8<=*##+<%@%#X#oo$ .   XX.  . o .OoOoO%.oOoXo X$:-:jtjjg",
"5q83XooOOOOo ..O.$$$O.$OO@ .XXX. XXXXX-#**.O24,XXO@O#O#OooO3jjd*,llhh<2580<-*#OO*2-:O *O#@.X...X. . .XOooX.O.X%.XXOOoX.O%-:gphj5",
"3tt> ..ooXo.  ...@$$ .X$%.X   X. .X X.O-=.OX@%oo.oOOOOOXXXX$qg6%-gll5<33502-%###O23<X #-=XX..XXX... .+.@o.O Oo#. .oooX .O$-6ygt=",
"7tt-.  XX....   .X#o.X X.Xo XX.      ..ooo*%..o@..XOOOo. ..X-6:$=wly;>,1585>%@##O-2*X .#O ..oooX... o#o. #*oXOX..  XX.  .O#=qt,#",
"yq0=oo.       .  .O..XoXX@OXXoo.. .XXoO.o=><@o$#. oOOoX. .  O*%$=3y5=>><507<=%%=#%-# .X..X..oooXX...o+@oO>:%..  .   ..o. .OO<3%#",
"gp0;%$ooo.XX.XXX..X..X@O@%OOOooX..X.Xo$O@<<3*@$O.XooOo.  .  oOO@%;03;>>50005,;;>*%%o. X .X.XoOOXX..o++#O$,-*O.X. .   .oX..Xo%>%#",
"ghjq>,-%$#@OOoOOXo@o XO.X$O@@OO.... .o@oO<33+Xoo .Xooo. .   o@oOO=r8><30ppy03335;=;+ ....oXoO+Oo...Xo@OXO-==o.Xo.     XX.  .*3*#",
"djhj<<:=*$#%#++#O*>=.X.XXO@#$#XX.... Oo..-3-.X.O..XooX.  X. @-@Xo,hs<30ypsgw7587-16=X..#+...XOOo..XO+#o..+=$ .X@o.    XXX. .:<;O",
"dhgh0::*%*#%%$$%%5-<O X*% ++##ooXXo. o OoO>OX@.oX .XX.. X...:3=Xo5jl55qtpptt5555<dj7o.+>;o. XOOoX.Xoo# oo.#.oo ##Oo   .XO.XX-%<+",
"hjjfy--*%%%=;-;=3,*-=o->>#ooO+OOXoOo..O%#.#.@%@XX..X.   ..XO7q3O+yll0:3wpptw53320jjj&o;r0*  .XXo. .XXoXOO.X.OoX#-$@o  .oOoo@%O-%",
"jljhj-==**=>3532y=%=5%<%*: OO@@O@OOOo.%##O.o$#%.X . X    ..-68q%-hhjs-:7tsg03<<,hfhk3$tgp7X . ......X +ooO oXX+o>-*$+o XO+o*#O#<",
"jkjhh,%*-;630q7q8&==25###*OXo@@OO#O@OoOO##X###@@.  ...   .o2<77<8tpej=%,8tg73>-,lhfhj2ljsy#XX    ...XXOXXoXoXXOX->:-*+X.o#X%@O+2",
"gjgjh3%*-<gyppwg6;,;-3%-*#> oO$OO$#Oo@OO@@#+OOo@. ..oO ...@=>33703q8g>#*<wj5<--6hjghjgllhp>XXO.X.   .#oooX@XXoOO#>,<=o+.XOo+@@O-",
"jajjg0%%-7hjgjyl7682;2,5<%-O.O@..$##.$#$#O#O#@..O  .O$ .X.=#-<<3337777@#-7j5>-;dljjgghjjgg0OoOX#O . X@oOO.X O++Oo=>2#.$o..$X@#O#",
"lujjgl=%;yujjpghrgdt34006-%*.XoX.@$@.%%%$##O%#o.#X .#O. . =@-:<->6883e#@*8j7*-3ljhjjhhldtgs%+O+2>X  #O@#$OOX#+#+.$-:XX@@XXoX$@$#",
"liggia0><jfigwjhjjllsrt87<$,o  @Oo#Oo$*$#%O@#O@XOO .@OX  +@%-->=:33727:@-wsw*-6jhlljgfjswpj2%#;65#XO>O$%*$O#$#OOOO#@X#XOoOXX%%*$",
"lgaiuuh57ljft8hfkjkjjdt002#2@ .%@o@OO**%@%#@O@%o@O..OOX  $O%*--%-,23><-$*5s0%%-jjljjgfjdtsj0-*10q$O$,@*==%O$#@@OOo@OO@.OOXXO$$$$",
"jjhagug80hgj<,7gkjjjjhhsy,=3O  @X@%@.-*$###@O@$o$.. o@.X.OOO*-*+#:,-*2+XO%r-OoO0hlggjgjjgll2=*>gqOXO,$%--#O@$@#@XO@#X@X$*XOo@#$#",
"jllhlhtwpght:->jjhhjjjjhy<5>OX.o.@$#.*=%#%@%#$%OO.  X@.XX.%o$%#OO*-%$:.  X-OXXX-llhgjggjjjl>-;>t2OOo$:%--@#o%%@#.@@$Xo+$*@O.o+o#",
"hjjlly3888h5<>:0jjhjjjjhp6g;%O X.OO@oO=*$%o%%$@#.X . o.oOoOoO#O##+##$o    O..X #jljjhghjjgj>35>5-OOO#6%=*#*O@%$#O@OOX @#$$o..Xo#",
"7shjh-*-><7<262<ljhhhjjjdwj;=#XX.oooO.=*=* @*%OOX. .. XoO@.#oOo#@oOO* .   .  XXo0jjjhlghjj0>0w2<=%*#O2>=%#-$@$$o@oXXOX$#@#.o..Xo",
"*tpg5+O#*=>>287-qjjhjpfjjjg<>*OX  ..o %--%Xo*%%.o.. oX.oOOo#OoOoOOoO$Xo.      X =hgghqghgj<<yt6<>>*#O*8>*>*>%%%.#X.XO#$$##o@.XO.",
"o70q%XXo#$$=<87-<jjj72hfjgpw3*#X .. ..O>>O+.%%#.OooXXo.oooo.+o#  #XOXooX..      Otth5-hgjj>28q053,%#O#q2>3O*-*%.o .XO$###OoOXX#O",
".*3;X XXooO%>55--plf**guigpw2*#ooX . oo**.#oo#ooooo..X.ooXo O#O..Oo# OOX...     .2tp*#5ll7=,30rr0<*###5q7>o@>-#.X.XoO+##+oXoOOX%",
" O*+  .. Xo#=,>-%5g7##3jalgy2=$+OoXX...## +O.o oXXoX. X.oXoXo+.X.o#OXOOo.X. X.  .=8>oo%00-%>30yhr2-==%3sw*Oo*=o . .ooO++OX .OOX-",
"..O..     o+*-**%-7<##-gldhy3;%%#+OoX..+o.oO   .....  .XX..o.o oo +.ooOo ...X.  .#=+..O==+$>5ygfr72<2<>75%#o+#. X .o.oOOo .X..#>",
"oX. .  .X..o%=$$##-=%*=0gpjs71>-=%+oo..oo..O.       .      ....oo o.oooo o..oX....o. ..++o$;0jhsrqwrt6:1<=;#++.....X..oo ..oOO=>"
};
